<svg id="work" xmlns="http://www.w3.org/2000/svg" viewBox="0 0 60 60"><title>paid</title><path d="M23.91,18A6,6,0,1,1,28.33,8a15.07,15.07,0,0,1,2.2-2,9,9,0,1,0-6.62,15,9,9,0,0,0,1-.06,15,15,0,0,1-.31-3A6,6,0,0,1,23.91,18Z"/><path d="M39.56,8.92a9,9,0,1,1-9,9,9,9,0,0,1,9-9m0-3a12,12,0,1,0,12,12,12,12,0,0,0-12-12Z"/><polygon points="40.94 22.65 42.56 22.65 42.57 19.78 40.94 19.77 40.96 13.15 36.91 13.14 36.9 16.02 38.08 16.02 38.07 19.77 36.55 19.77 36.54 22.64 38.07 22.64 40.94 22.65"/><path d="M58.61,36.63a4,4,0,0,0-2.51-.87,4.15,4.15,0,0,0-.67.05L31.74,39.72,25,33.33a1.22,1.22,0,0,0-.84-.33H15V30H0V54H15V51h3l10.27,5.53A4.12,4.12,0,0,0,30,57a4,4,0,0,0,2-.49L58.06,42.65A3.68,3.68,0,0,0,60,39.46,3.61,3.61,0,0,0,58.61,36.63ZM12,51H3V33h9ZM56.62,40l-26,13.81h0A1.06,1.06,0,0,1,30,54a1.08,1.08,0,0,1-.42-.08L19.43,48.42,18.77,48H15V36h8.46l5.12,4.86h0l2.6,2.61a2.43,2.43,0,1,1-3.43,3.44l-5.3-5.31-2.12,2.12L25.62,49a5.42,5.42,0,0,0,8.46-6.66l21.83-3.6.18,0a1,1,0,0,1,.64.22.63.63,0,0,1,.26.49A.7.7,0,0,1,56.62,40Z"/></svg>