<svg id="Ebene_1" data-name="Ebene 1" xmlns="http://www.w3.org/2000/svg" viewBox="0 0 60 42.89"><title>voucher</title><path d="M40.13,29a6,6,0,1,0,6-6A6,6,0,0,0,40.13,29Zm9.4,0a3.42,3.42,0,1,1-3.42-3.42A3.42,3.42,0,0,1,49.53,29Z"/><path d="M31.1,19.83a6,6,0,1,0-6-6A6,6,0,0,0,31.1,19.83Zm0-9.4a3.42,3.42,0,1,1-3.42,3.42A3.42,3.42,0,0,1,31.1,10.43Z"/><polygon points="32.83 35.07 47.53 7.82 44.6 7.82 29.93 35.06 32.83 35.07"/><path d="M-.1,0V42.89H60.1V0ZM57.53,40.32H18.72V38.1H16.15v2.22H2.47V2.57H16.15V4.78h2.57V2.57H57.53Z"/><rect x="16.15" y="7.31" width="2.57" height="5.13"/><rect x="16.15" y="15.01" width="2.57" height="5.13"/><rect x="16.15" y="22.71" width="2.57" height="5.13"/><rect x="16.15" y="30.41" width="2.57" height="5.13"/></svg>