<svg xmlns="http://www.w3.org/2000/svg"><symbol id="truck" viewBox="0 0 60 60"><title>sent</title><path d="M53 18H42V9H0v36h5.08a7 7 0 0013.84 0h22.16a7 7 0 0013.84 0H60V29zM12 48a4 4 0 114-4 4 4 0 01-4 4zm27-30v24H18.71a7 7 0 00-13.42 0H3V12h36zm3 3h9.36l4.79 8H42zm6 27a4 4 0 114-4 4 4 0 01-4 4zm9-6h-2.29A7 7 0 0042 40.41V32h15z"/></symbol><symbol id="plane" viewBox="0 0 60 60"><title>plane</title><path d="M40.8 21.7l-11-18L18.9 1l6.6 21.3-13 2.3L7 18.4l-6.7.4L3.6 30 .4 41.2l6.7.4 5.5-6.2 14 2.3L18.9 59l11-2.8 11-18c4.5-.3 18.8-1.7 18.8-8.3-.1-6.6-14.3-7.9-18.9-8.2zm-.9 13.5h-.8L28 53.6l-4.4 1.1 7-19.4-19.2-3.2-5.6 6.4-1.5-.1 2.3-8 .1-.2v-.4l-2.4-8.2 1.5-.1 5.6 6.4 18.1-3.2-6-19.4L28 6.4l11.2 18.3h.8C47 25 56.7 27 56.7 30c-.1 2.9-9.8 4.9-16.8 5.2z"/></symbol><symbol id="car" viewBox="0 0 60 60"><title>car</title><path d="M58.8 27.7c-1.4-1.4-15.1-3.1-15.1-3.1S32.6 15 30.4 15H8.7C6.5 15 .5 25.7.5 28.2S1.2 40.1 3 40.1h6.6c.4 2.8 2.8 4.9 5.7 4.9s5.3-2.2 5.7-4.9h18.1c.4 2.8 2.8 4.9 5.7 4.9s5.3-2.2 5.7-4.9H58c1.2 0 2.2-11 .8-12.4zM15.3 42.1c-1.5 0-2.8-1.3-2.8-2.8s1.3-2.8 2.8-2.8 2.8 1.3 2.8 2.8c-.1 1.5-1.4 2.8-2.8 2.8zm29.4 0c-1.5 0-2.8-1.3-2.8-2.8s1.3-2.8 2.8-2.8 2.8 1.3 2.8 2.8c-.1 1.5-1.4 2.8-2.8 2.8zM56.1 37H50c-.9-2.1-3-3.5-5.3-3.5-2.4 0-4.4 1.5-5.3 3.5H20.6c-.9-2.1-3-3.5-5.3-3.5S10.8 35 9.9 37H4.4c-.6-2.1-1-6.4-1-8.9.3-1.8 4-8.7 5.9-10.2h20.8c1.7.7 7.3 5 11.6 8.8l.7.6.9.1c5 .6 11 1.7 13.2 2.4.2 1.6 0 5.3-.4 7.2z"/></symbol><symbol id="box" viewBox="0 0 51 48"><title>box</title><path d="M27 0L0 9v29.2L25.5 48 51 38.2V9L27 0zm18.8 10.2l-20.3 7.2-7.2-2.7 19.8-7.4 7.7 2.9zm-18.9-7l6.9 2.6L14 13.2l-8.1-3 21-7zM3 12.3L24 20v24.2l-21-8V12.3zm45 23.9l-21 8V20.1l21-7.4v23.5z"/></symbol><symbol id="thumbs-up-solid" viewBox="0 0 60 60"><title>thumbs-up-solid</title><path d="M58.6 25.3c-.8-1.3-3-3.1-5.7-3.1-2.4 0-13.2-.1-13.2-.1l1.8-10.5c.5-4.8-.5-6.6-1-7.4-1.2-1.8-3.3-2.8-5.4-2.8-1 0-2 .2-2.9.7-1.4.7-2.3 1.9-2.8 3.4 0 0-.8 6.1-1.5 8.4-.6 1.8-2.9 7.9-7.9 11.1v-3H0v37h20v-5.4l7.9 4.3c.8.4 1.6.6 2.5.6.8 0 13.8-.6 20.6-.6 2-.1 2.9-.5 3.2-1.9s4.6-21.1 5.3-23.8c.8-2.6.1-5.2-.9-6.9z"/></symbol><symbol id="thumbs-up-regular" viewBox="0 0 60 60"><title>thumbs-up-regular</title><path d="M58.6 25.3c-.8-1.3-3-3.1-5.7-3.1-2.4 0-13.2-.1-13.2-.1l1.8-10.5c.5-4.8-.5-6.6-1-7.4-1.2-1.8-3.3-2.8-5.4-2.8-1 0-2 .2-2.9.7-1.4.7-2.3 1.9-2.8 3.4 0 0-.8 6.1-1.5 8.4-.6 1.8-2.9 7.9-7.9 11.1v-3H0v37h20v-5.4l7.9 4.3c.8.4 1.6.6 2.5.6.8 0 13.8-.6 20.6-.6 2-.1 2.9-.5 3.2-1.9.3-1.4 4.6-21.1 5.3-23.8.8-2.6.1-5.2-.9-6.9zM3 56V25h14v31H3zm53.5-24.5c-.6 2.4-4.2 18.4-5.1 22.8-.1.4-.3.5-1 .5-5.2 0-13.1.3-17.4.5-1.2 0-3.5 0-5.6-1.1L20 50.3V28.4c2-1.2 5.2-3.4 7-6 2.4-3.3 3.5-6.7 3.8-7.6.7-2.2 1.4-7.2 1.6-8.6.2-.6.6-1 1.2-1.3.4-.2.9-.3 1.4-.3 1.1 0 2.2.6 2.8 1.4.8 1.2.7 3.5.4 5.3l-1.7 10.5-.6 3.7h3.7s12.2.1 13.2.1 2.4.6 3 1.5c.7.7 1.3 2.3.7 4.4z"/></symbol><symbol id="thumbs-down-solid" viewBox="0 0 60 60"><title>thumbs-down-solid</title><path d="M1.2 35.1c.8 1.3 3 3.1 5.7 3.1 2.4 0 13.2.1 13.2.1l-1.8 10.5c-.5 4.8.5 6.6 1 7.4 1.2 1.8 3.3 2.8 5.4 2.8 1 0 2-.2 2.9-.7 1.4-.7 2.3-1.9 2.8-3.4 0 0 .8-6.1 1.5-8.4.6-1.8 2.9-7.9 7.9-11.1v3h20v-37h-20v5.4l-7.9-4.3c-.8-.4-1.6-.6-2.5-.6-.8 0-13.8.6-20.6.6-2 .1-2.9.5-3.2 1.9S1 25.5.3 28.2c-.8 2.6-.1 5.2.9 6.9z"/></symbol><symbol id="thumbs-down-regular" viewBox="0 0 60 60"><title>thumbs-down-regular</title><path d="M1.2 35.1c.8 1.3 3 3.1 5.7 3.1 2.4 0 13.2.1 13.2.1l-1.8 10.5c-.5 4.8.5 6.6 1 7.4 1.2 1.8 3.3 2.8 5.4 2.8 1 0 2-.2 2.9-.7 1.4-.7 2.3-1.9 2.8-3.4 0 0 .8-6.1 1.5-8.4.6-1.8 2.9-7.9 7.9-11.1v3h20v-37h-20v5.4l-7.9-4.3c-.8-.4-1.6-.6-2.5-.6-.8 0-13.8.6-20.6.6-2 .1-2.9.5-3.2 1.9S1 25.5.3 28.2c-.8 2.6-.1 5.2.9 6.9zM56.8 4.4v31h-14v-31h14zM3.3 28.9c.6-2.4 4.2-18.4 5.1-22.8.1-.4.3-.5 1-.5 5.2 0 13.1-.3 17.4-.5 1.2 0 3.5 0 5.6 1.1l7.4 3.9V32c-2 1.2-5.2 3.4-7 6-2.4 3.3-3.5 6.7-3.8 7.6-.7 2.2-1.4 7.2-1.6 8.6-.2.6-.6 1-1.2 1.3-.4.2-.9.3-1.4.3-1.1 0-2.2-.6-2.8-1.4-.8-1.2-.7-3.5-.4-5.3l1.7-10.5.6-3.7h-3.7S8 34.8 7 34.8s-2.4-.6-3-1.5c-.7-.7-1.3-2.3-.7-4.4z"/></symbol><symbol id="star-solid" viewBox="0 0 60 60"><title>rating_star_outline</title><path d="M60 23.8l-.8-2.5L40 18.4 31.4 0h-2.7L20 18.4.8 21.3 0 23.8l14 14.4-3.3 20.2 2.2 1.5L30 50.5 47.1 60l2.2-1.6L46 38.2l14-14.4z"/></symbol><symbol id="star-regular" viewBox="0 0 60 60"><title>rating_star_outline</title><path d="M60 23.8l-.8-2.5L40 18.4 31.4 0h-2.7L20 18.4.8 21.3 0 23.8l14 14.4-3.3 20.2 2.2 1.5L30 50.5 47.1 60l2.2-1.6L46 38.2l14-14.4zM30.7 47.4h-1.5L14 55.8l3-17.9-.4-1.3L4.2 23.8l17.1-2.6 1.1-.8L30 4.2l7.6 16.2 1.1.8 17.1 2.6-12.4 12.8-.4 1.3 2.9 17.9-15.2-8.4z"/></symbol><symbol id="heart-solid" viewBox="0 0 60 60"><title>heart_filled</title><path d="M30 57S8.29 35.3 5 32a18.15 18.15 0 01-5-13C0 14 4.45 3 15 3a17.34 17.34 0 0115 8.5A17.34 17.34 0 0145 3c10.55 0 15 11 15 16a18.15 18.15 0 01-5 13c-3.29 3.3-25 25-25 25z"/></symbol><symbol id="heart-regular" viewBox="0 0 60 60"><title>heart</title><path d="M45 3a17.34 17.34 0 00-15 8.5A17.34 17.34 0 0015 3C4.45 3 0 14 0 19a18.15 18.15 0 005 13c3.3 3.32 25 25 25 25s21.71-21.7 25-25a18.15 18.15 0 005-13c0-5-4.45-16-15-16zm7.89 26.86C50.24 32.52 35.55 47.21 30 52.76c-5.55-5.55-20.24-20.24-22.89-22.9A15.18 15.18 0 013 19C3 15.3 6.57 6 15 6a14.27 14.27 0 0112.34 6.89l2.62 5 2.68-5A14.27 14.27 0 0145 6c8.43 0 12 9.3 12 13a15.18 15.18 0 01-4.11 10.86z"/></symbol><symbol id="bookmark-solid" viewBox="0 0 60 60"><title>chapter_stroke</title><path d="M12 60l18-13 18 13V0H12"/></symbol><symbol id="bookmark-regular" viewBox="0 0 60 60"><title>chapter_stroke</title><path d="M45 3v51.13l-13.24-9.56L30 43.3l-1.76 1.27L15 54.13V3h30m3-3H12v60l18-13 18 13V0z"/></symbol><symbol id="bell-solid" viewBox="0 0 60 60"><title>alarm</title><path d="M51 39V27c0-8.7-5.4-16.5-13.5-19.6 0-4.1-3.4-7.5-7.5-7.5s-7.5 3.4-7.5 7.5C14.4 10.5 9 18.3 9 27v12H6v12.1h15c0 5 4 9 9 9s9-4 9-9h15V39h-3z"/></symbol><symbol id="bell-regular" viewBox="0 0 60 60"><title>alarm</title><path d="M51 39V27A21 21 0 0037.49 7.4a7.5 7.5 0 00-15 0A21 21 0 009 27v12H6v12.11h15a9 9 0 0018 0h15V39zM36 51.11a6 6 0 01-12 0M51 45v3.11H9V42h3V27a18.1 18.1 0 0111.58-16.8l1.9-.73v-2a4.5 4.5 0 019 0v2l1.9.73A18.1 18.1 0 0148 27v15h3z"/></symbol><symbol id="smiley-worst" viewBox="0 0 60 60"><title>smiley-worst</title><path d="M30 0C13.4 0 0 13.4 0 30s13.4 30 30 30 30-13.4 30-30S46.6 0 30 0zm0 57C15.1 57 3 44.9 3 30S15.1 3 30 3s27 12.1 27 27-12.1 27-27 27z"/><path d="M30 32c-8 0-14.5 6.5-14.5 14.5 0 .8.7 1.5 1.5 1.5s1.5-.7 1.5-1.5C18.5 40.1 23.6 35 30 35s11.5 5.1 11.5 11.5c0 .8.7 1.5 1.5 1.5s1.5-.7 1.5-1.5C44.5 38.5 38 32 30 32zm13.6-16.3l-10.4 5.8c-.7.4-1 1.3-.6 2 .3.6 1 .9 1.6.7v.1c0 2.5 2 4.5 4.5 4.5s4.5-2 4.5-4.5c0-1.6-.8-3.1-2.2-3.9l4-2.3c.7-.4 1-1.3.6-2s-1.2-.8-2-.4zm-26.9 8.7c0 2.5 2 4.5 4.5 4.5s4.5-2 4.5-4.5v-.1c.8-.1 1.3-.9 1.2-1.7-.1-.4-.4-.8-.7-1l-10.4-5.8c-.7-.4-1.6-.1-2 .6-.4.7-.1 1.6.6 2l4.3 2.4c-1.3.8-2 2.1-2 3.6z"/></symbol><symbol id="smiley-neutral" viewBox="0 0 60 60"><title>smiley-neutral</title><path d="M30 0C13.4 0 0 13.4 0 30s13.4 30 30 30 30-13.4 30-30S46.6 0 30 0zm0 57C15.1 57 3 44.9 3 30S15.1 3 30 3s27 12.1 27 27-12.1 27-27 27z"/><path d="M42.5 40h-25c-.8 0-1.5.7-1.5 1.5s.7 1.5 1.5 1.5h25c.8 0 1.5-.7 1.5-1.5s-.7-1.5-1.5-1.5z"/><circle cx="21.2" cy="24.5" r="4.5"/><circle cx="38.8" cy="24.5" r="4.5"/></symbol><symbol id="smiley-good" viewBox="0 0 60 60"><title>smiley-good</title><path d="M30 0C13.4 0 0 13.4 0 30s13.4 30 30 30 30-13.4 30-30S46.6 0 30 0zm0 57C15.1 57 3 44.9 3 30S15.1 3 30 3s27 12.1 27 27-12.1 27-27 27z"/><circle cx="21.2" cy="24.5" r="4.5"/><circle cx="38.8" cy="24.5" r="4.5"/><path d="M47.5 37.1c-.8-.3-1.7.2-1.9 1 0 .1-3.1 9-15.6 9s-15.5-8.6-15.6-9c-.3-.8-1.1-1.2-1.9-1-.8.3-1.2 1.1-1 1.9.2.4 3.8 11 18.4 11s18.3-10.6 18.4-11c.4-.8 0-1.6-.8-1.9z"/></symbol><symbol id="smiley-better" viewBox="0 0 60 60"><title>smiley-better</title><path d="M30 0C13.4 0 0 13.4 0 30s13.4 30 30 30 30-13.4 30-30S46.6 0 30 0zm0 57C15.1 57 3 44.9 3 30S15.1 3 30 3s27 12.1 27 27-12.1 27-27 27z"/><path d="M32.9 19.1c.1 0 .1 0 .2.1l11.2 4.2c.8.3 1.6 0 2-.7.3-.8 0-1.6-.7-2-.1 0-.1 0-.2-.1l-11.2-4.2c-.8-.3-1.6 0-2 .7-.4.8 0 1.7.7 2zm-18.3 4.4c.2 0 .4 0 .5-.1l11.2-4.2c.8-.2 1.2-1.1 1-1.9-.2-.8-1.1-1.2-1.9-1-.1 0-.1 0-.2.1L14 20.6c-.8.3-1.2 1.2-.9 1.9.4.6.9 1 1.5 1zm34 12.6c-.8-.3-1.7.1-2 .9 0 .1-4.1 10-16.6 10s-16.4-9.6-16.6-10c-.4-.7-1.3-1-2-.6-.6.3-.9 1-.8 1.6 1 2.3 2.4 4.3 4.2 6 4 4 9.5 6.1 15.2 6 5.7.2 11.1-2 15.2-5.9 1.8-1.7 3.2-3.7 4.2-6 .3-.8-.1-1.7-.8-2z"/></symbol><symbol id="smiley-best" viewBox="0 0 60 60"><title>smiley-best</title><path d="M30 0C13.4 0 0 13.4 0 30s13.4 30 30 30 30-13.4 30-30S46.6 0 30 0zm0 57C15.1 57 3 44.9 3 30S15.1 3 30 3s27 12.1 27 27-12.1 27-27 27z"/><path d="M48.5 33.5c-.8 0-1.5.7-1.5 1.5 0 8.3-7.6 15-17 15s-17-6.8-17-15c0-.8-.7-1.5-1.5-1.5S10 34.1 10 35c0 10 9 18 20 18s20-8.1 20-18c0-.9-.7-1.5-1.5-1.5zm-8.7-4.4l6.8-6.8c1.4-1.4 1.4-3.7 0-5.1-1.4-1.4-3.7-1.4-5.1 0l-1.7 1.7-1.7-1.7c-1.4-1.4-3.7-1.4-5.1 0s-1.4 3.7 0 5.1l6.8 6.8zm-19.6 0l6.8-6.8c1.4-1.4 1.4-3.7 0-5.1s-3.7-1.4-5.1 0l-1.7 1.7-1.7-1.7c-1.4-1.4-3.7-1.4-5.1 0-1.4 1.4-1.4 3.7 0 5.1l6.8 6.8z"/></symbol><symbol id="smiley-bad" viewBox="0 0 60 60"><title>smiley-bad</title><path d="M30 0C13.4 0 0 13.4 0 30s13.4 30 30 30 30-13.4 30-30S46.6 0 30 0zm0 57C15.1 57 3 44.9 3 30S15.1 3 30 3s27 12.1 27 27-12.1 27-27 27z"/><path d="M43 39.1c-.3-.1-3.2-1.1-13-1.1-10.3 0-13.4 4.2-13.7 4.7-.5.7-.3 1.6.4 2.1.3.2.6.3.9.3.5 0 .9-.2 1.2-.6 0 0 2.6-3.4 11.3-3.4 9.2 0 12 .9 12 .9.8.2 1.6-.3 1.8-1.1.1-.8-.3-1.5-.9-1.8zM35.8 26h6c.8 0 1.5-.7 1.5-1.5s-.7-1.5-1.5-1.5h-6c-.8 0-1.5.7-1.5 1.5S35 26 35.8 26zm-17.6 0h6c.8 0 1.5-.7 1.5-1.5S25 23 24.2 23h-6c-.8 0-1.5.7-1.5 1.5s.7 1.5 1.5 1.5z"/></symbol><symbol id="voucher-percentage" viewBox="0 0 60 42.89"><title>voucher</title><path d="M40.13 29a6 6 0 106-6 6 6 0 00-6 6zm9.4 0a3.42 3.42 0 11-3.42-3.42A3.42 3.42 0 0149.53 29zM31.1 19.83a6 6 0 10-6-6 6 6 0 006 6zm0-9.4a3.42 3.42 0 11-3.42 3.42 3.42 3.42 0 013.42-3.42zm1.73 24.64l14.7-27.25H44.6L29.93 35.06l2.9.01z"/><path d="M-.1 0v42.89h60.2V0zm57.63 40.32H18.72V38.1h-2.57v2.22H2.47V2.57h13.68v2.21h2.57V2.57h38.81z"/><path d="M16.15 7.31h2.57v5.13h-2.57zm0 7.7h2.57v5.13h-2.57zm0 7.7h2.57v5.13h-2.57zm0 7.7h2.57v5.13h-2.57z"/></symbol><symbol id="hand-coins" viewBox="0 0 60 60"><title>paid</title><path d="M23.91 18a6 6 0 114.42-10 15.07 15.07 0 012.2-2 9 9 0 10-6.62 15 9 9 0 001-.06 15 15 0 01-.31-3 6 6 0 01-.69.06z"/><path d="M39.56 8.92a9 9 0 11-9 9 9 9 0 019-9m0-3a12 12 0 1012 12 12 12 0 00-12-12z"/><path d="M40.94 22.65h1.62l.01-2.87-1.63-.01.02-6.62-4.05-.01-.01 2.88h1.18l-.01 3.75h-1.52l-.01 2.87h1.53l2.87.01zm17.67 13.98a4 4 0 00-2.51-.87 4.15 4.15 0 00-.67.05l-23.69 3.91L25 33.33a1.22 1.22 0 00-.84-.33H15v-3H0v24h15v-3h3l10.27 5.53A4.12 4.12 0 0030 57a4 4 0 002-.49l26.06-13.86A3.68 3.68 0 0060 39.46a3.61 3.61 0 00-1.39-2.83zM12 51H3V33h9zm44.62-11l-26 13.81A1.06 1.06 0 0130 54a1.08 1.08 0 01-.42-.08l-10.15-5.5-.66-.42H15V36h8.46l5.12 4.86 2.6 2.61a2.43 2.43 0 11-3.43 3.44l-5.3-5.31-2.12 2.12L25.62 49a5.42 5.42 0 008.46-6.66l21.83-3.6h.18a1 1 0 01.64.22.63.63 0 01.26.49.7.7 0 01-.37.55z"/></symbol><symbol id="credit-card" viewBox="0 0 60 60"><title>credit-card</title><path d="M0 8v44h60V8H0zm57 3v8.1H3V11h54zM3 49V27.3h54V49H3z"/><path d="M43 46h11V35H43v11zm3-8h5v5h-5v-5z"/></symbol><symbol id="undo" viewBox="0 0 60 60"><title>undo</title><path d="M16.11 42.04l-16-20.01v-1.87l16-20 2.35 1.88L3.21 21.1l15.25 19.06-2.35 1.88z"/><path d="M60.08 58.6H3.25v-3h53.83v-33H3.25v-3h56.83v39z"/></symbol><symbol id="cross" viewBox="0 0 60 60"><title>cross</title><path d="M59.8 2.3L57.7.2 30 27.9 2.3.2.2 2.3 27.9 30 .2 57.7l2.1 2.1L30 32.1l27.7 27.7 2.1-2.1L32.1 30z"/></symbol><symbol id="arrow-up" viewBox="0 0 60 60"><title>arrow-top</title><path d="M30.7 20.5h-1.4L0 36.9l1.5 2.6 28.5-16 28.5 16 1.5-2.6z"/></symbol><symbol id="arrow-right" viewBox="0 0 60 60"><title>arrow-right</title><path d="M23.1 0l-2.6 1.5 16 28.5-16 28.5 2.6 1.5 16.4-29.3v-1.4z"/></symbol><symbol id="arrow-left" viewBox="0 0 60 60"><title>arrow-left</title><path d="M39.5 1.5L36.9 0 20 30l16.9 30 2.6-1.5-16-28.5z"/></symbol><symbol id="arrow-down" viewBox="0 0 60 60"><title>arrow-top</title><path d="M29.3 39.5h1.4L60 23.1l-1.5-2.6-28.5 16-28.5-16L0 23.1z"/></symbol><symbol id="thermometer" viewBox="0 0 60 60"><defs><style>.cls-1{fill:#1d1d1b}</style></defs><title>Wine-temperature_konv</title><path class="cls-1" d="M39 42.2L37.78 41V6.29a6.29 6.29 0 00-12.57 0V9H21v3h4.21v3H21v3h4.21v3H21v3h4.21v3H21v3h4.21v3H21v3h4.21v5L24 42.2a10.48 10.48 0 1015 0zM31.5 57a7.47 7.47 0 01-5.34-12.7l1.2-1.22.86-.87V6.29a3.29 3.29 0 016.57 0V42.2l.86.87 1.2 1.22A7.47 7.47 0 0131.5 57z"/><path class="cls-1" d="M33 45.28V27h-3v18.28a4.5 4.5 0 103 0z"/></symbol><symbol id="snowflake" viewBox="0 0 60 60"><title>snowflake</title><path d="M53.28 37.66l-.77-2.89-7.67 2.06-4.44-2.58.18-.05-.78-2.89-3.07.82L33.05 30l3.64-2.11 3.06.83.78-2.9-.18-.05 4.39-2.54 7.66 2.06.78-2.89-4.78-1.29 8.32-4.81-1.5-2.6-8.21 4.75 1.28-4.79-2.89-.77-2.06 7.69-4.43 2.56.04-.17-2.9-.78-.82 3.08-3.67 2.13v-4.21l2.24-2.25-2.12-2.12-.12.12v-5.07l5.61-5.63-2.12-2.12-3.49 3.5V0h-3v9.5L25.07 6l-2.13 2.12 5.62 5.63v5.14l-.12-.12-2.13 2.11 2.25 2.26v4.26l-3.63-2.1-.83-3.08-2.9.77.05.18-4.37-2.53-2.06-7.69-2.9.77 1.28 4.79-8.3-4.81-1.51 2.6 8.22 4.75-4.78 1.29.78 2.89 7.66-2.06 4.45 2.58-.19.05.78 2.89 3.07-.82L27.06 30l-3.64 2.11-3.06-.83-.78 2.9.18.05-4.39 2.54-7.66-2.06-.78 2.89 4.78 1.29-8.32 4.81 1.51 2.6 8.2-4.75-1.28 4.79 2.9.77 2.05-7.69 4.44-2.56-.05.17 2.9.78.82-3.08 3.68-2.13v4.21l-2.25 2.25 2.13 2.12.12-.12v5.07l-5.62 5.63 2.13 2.12 3.49-3.5V60h3v-9.5l3.49 3.5 2.12-2.12-5.61-5.63v-5.14l.12.13 2.12-2.12-2.24-2.26V32.6l3.63 2.1.82 3.08 2.9-.77-.05-.18 4.38 2.53 2.05 7.69 2.9-.77-1.28-4.79 8.31 4.81 1.5-2.6-8.21-4.75 4.77-1.29z"/></symbol><symbol id="leaf" viewBox="0 0 60 60"><title>fresh</title><path d="M59.2 0h-1.7c-5.9 0-25.8 1.1-39.9 14.4C.5 28.8 6.7 48.5 9 54.1c-2.3 1.3-4.9 2.2-7.5 2.7-.8 0-1.5.7-1.4 1.6 0 .8.7 1.5 1.6 1.4h.2c.2 0 3.7-.4 9.2-3.3 4.5 2.3 9.5 3.5 14.6 3.6 5.4 0 10.6-1.4 15.2-4.1C65.8 40.6 59.2 0 59.2 0zm-2.8 21.9c-1.8 15-7.6 25.6-17 31.5-4.2 2.4-8.9 3.7-13.8 3.7-3.9 0-7.8-.8-11.4-2.4 3.2-2 6.2-4.2 9-6.7 10.8-9.2 16-22.1 16.2-22.7.3-.8 0-1.6-.8-2-.8-.3-1.6 0-2 .8v.1c0 .1-5.2 12.8-15.3 21.5-3 2.6-6.2 5-9.7 7-2.2-5.4-7.6-23 7.9-35.9l.1-.1.1-.1C32.3 4.6 50.1 3.1 56.6 3c.6 6.3.5 12.6-.2 18.9z"/></symbol><symbol id="heartbeat" viewBox="0 0 60 60"><title>health</title><path d="M45 3a17.34 17.34 0 00-15 8.5A17.34 17.34 0 0015 3C4.45 3 0 14 0 19a19.81 19.81 0 001.64 8H5a16.31 16.31 0 01-2-8C3 15.3 6.57 6 15 6a14.27 14.27 0 0112.34 6.89l2.62 5 2.68-5A14.27 14.27 0 0145 6c8.43 0 12 9.3 12 13a15.18 15.18 0 01-4.11 10.86C50.24 32.52 35.55 47.21 30 52.76L13.24 36H9l21 21s21.71-21.7 25-25a18.15 18.15 0 005-13c0-5-4.45-16-15-16z"/><path d="M29.76 42.32l-7.28-17.47L18.99 33 .08 32.98v-3l16.93.02 5.51-12.85 7.72 18.53L33.65 30H45v3h-9.65l-5.59 9.32z"/></symbol><symbol id="earth" viewBox="0 0 60 60"><title>Zeichenfläche 1</title><path d="M54.73 21.15a26.19 26.19 0 011.22 13.09c-3.7-2.94-7.11-2.14-8.67-1.06-3.22 1.84-7.14 3.15-7.91 2.68a1.36 1.36 0 010-.59c.53-6.75-2.17-8.77-2.73-9.12l-4.29-2.57c-.13-.11-.35-.35-.39-.38a1.28 1.28 0 01.43-.41 4.67 4.67 0 002.07-3.18 5.32 5.32 0 00-1.07-3.78 1.77 1.77 0 00-.3-.29l-2.8-2.2-.12-.09a5.92 5.92 0 00-4.72-.77 5.44 5.44 0 00-3.4 3.52c-.75 1.95-1.5 2.54-1.75 2.61h-.11s-3.3-.37-5.8-.9a3.16 3.16 0 01-2.12-1.95l-1-4a26.19 26.19 0 0126.32-6.85S48.5 7.48 54.73 21.15zM38.42 1.42A29.81 29.81 0 1058.13 20 29.82 29.82 0 0038.42 1.42zm-3.66 27.8zm-.11-.07zM6.15 40.93h.07c.89-4.36 2.47-6.08 3.43-6.75a8.62 8.62 0 004.7 3.3 4.61 4.61 0 003.74-1c1.36-1.06 3.29.39 4.22 1.25L21 46.39l-7 4.37a26.4 26.4 0 01-7.85-9.83zM30 56.3a26.08 26.08 0 01-12.81-3.35L23.55 49a1.79 1.79 0 00.82-1.24L26 37.45a1.79 1.79 0 00-.41-1.45c-1.76-2-6-5.13-9.69-2.28a1 1 0 01-.9.28c-1.2-.22-2.66-2-3.18-2.9a1.79 1.79 0 00-1.68-.86c-.44 0-3.57.49-5.82 5.12a26.22 26.22 0 014.11-20.2l.42 1.68a6.72 6.72 0 004.78 4.38c2.47.53 5.52.89 6.07 1 .91.17 3.74.23 5.69-4.86.21-.55.57-1.23 1.1-1.41a2.33 2.33 0 011.62.32l2.51 2a1.64 1.64 0 01.25.93 1.26 1.26 0 01-.6.76 4 4 0 00-1.93 3.26 4.56 4.56 0 001.93 3.4l.12.08 4.28 2.56c.18.18 1.42 1.55 1.09 5.82a3.87 3.87 0 001.66 3.85 4.57 4.57 0 002.47.61c3.36 0 7.73-2.34 9.26-3.22l.17-.12s2.29-1.62 5.65 2.1A26.29 26.29 0 0130 56.3z"/></symbol><symbol id="earth-map-marker" viewBox="0 0 60 60"><defs><style>.cls-1{fill:#1d1d1b}</style></defs><title>Region_konv</title><path class="cls-1" d="M30.08 0a11.73 11.73 0 00-11.73 11.73c0 7.13 11.08 21.19 11.73 21.19s11.73-14.06 11.73-21.19A11.73 11.73 0 0030.08 0zm0 16.58a5 5 0 115-5 5 5 0 01-5 5z"/><path class="cls-1" d="M43.92 16.45a30.58 30.58 0 01-1.16 2.9 21.32 21.32 0 011.84 1.59c-5.73 3.54-7.6 11.63-7.45 14.64.08 1.23.54 2 1.37 2.26a1.85 1.85 0 002-.64A16.07 16.07 0 0142 39a17.91 17.91 0 003.16 3.65 5.13 5.13 0 003.29 1.11 7.12 7.12 0 001.11-.1A21 21 0 0130 57a4.11 4.11 0 01-.45-2.77 1.79 1.79 0 011.11-1 7.78 7.78 0 004.59-4.79 8.42 8.42 0 00-1.12-6.83c-1.38-2.23-3.79-1.17-5.24-.53-1.12.5-2.29 1-3 .62-.51-.27-1.47-1.25-2.18-4.85-.85-4.23-2.71-7.2-5.56-8.85a11.76 11.76 0 00-6.9-1.41 21.21 21.21 0 016.12-7.31 30.25 30.25 0 01-1.16-2.9 24 24 0 1027.71.09zM9 36a20.82 20.82 0 01.94-6.2 9.66 9.66 0 016.72.79c2.06 1.21 3.44 3.5 4.09 6.79.75 3.79 1.93 6 3.74 6.93 2 1.06 4.11.13 5.63-.54a8.39 8.39 0 011.52-.57 5.42 5.42 0 01.77 4.3 4.92 4.92 0 01-2.95 2.93 4.84 4.84 0 00-2.72 2.79 5.83 5.83 0 000 3.49A21 21 0 019 36zm38 4.34a15.67 15.67 0 01-2.59-3.05c-1.22-1.7-2.27-3.17-3.86-3.23h-.35c.39-2.91 2.29-8.61 6.44-10.84a20.87 20.87 0 013.92 17c-1.14.54-2.56.89-3.56.12z"/></symbol><symbol id="user" viewBox="0 0 60 60"><title>user</title><path d="M45.5 28h-8A15 15 0 1017 22.5a14.53 14.53 0 005.5 5.5h-8C9.8 28 6 32.1 6 37.1V60h48V37.1c0-5-3.8-9.1-8.5-9.1zM18 15a12 12 0 1112 12 12 12 0 01-12-12zm33 42h-7.5V43h-3v14h-20V43h-3v14H9V37.1c0-3.4 2.5-6.1 5.5-6.1h30.9c3 0 5.5 2.8 5.5 6.1L51 57z"/></symbol><symbol id="trash" viewBox="0 0 60 60"><title>trash</title><path d="M41 6l-2-6H21l-2 6H6v11.92h3.19L12 60h36l2.81-42.08H54V6zM23.16 3h13.68l1 3H22.16zm22 54H14.81l-2.6-39h35.58zM51 14.92H9V9h42z"/><path d="M21 24h3v27h-3zm15 0h3v27h-3zm-7.5 0h3v27h-3z"/></symbol><symbol id="store-search" viewBox="0 0 60 60"><title>store-search</title><path d="M58.7 21.1l1.1-2.8-29.3-11h-1L.2 18.3l1.1 2.8L30 10.3zM21.4 46H7V26h13.9c.7-1.1 1.5-2.1 2.5-3H4v26h20.2c-1.1-.9-2-1.9-2.8-3z"/><path d="M48.1 43.3c4.2-6.9 2.1-15.9-4.8-20.2s-16-2.1-20.2 4.8-2.1 16 4.8 20.2c4.7 2.9 10.6 2.9 15.3 0l12 11.9 4.8-4.8-11.9-11.9zm-12.5 4c-6.4 0-11.6-5.2-11.6-11.6C24 29.2 29.2 24 35.6 24c6.4 0 11.6 5.2 11.6 11.6 0 6.4-5.2 11.6-11.6 11.7zm19.6 8.5l-9.5-9.5.6-.6 9.5 9.5-.6.6z"/></symbol><symbol id="store-magnifier" viewBox="0 0 60 60"><title>store</title><path d="M30.5 11.6h-1L.2 22.6l1.1 2.8L30 14.6l28.7 10.8 1.1-2.8zM4 47h52V28H4v19zm3-16h46v13H7V31z"/></symbol><symbol id="social-share" viewBox="0 0 60 60"><title>social-sharing</title><path d="M53.6 42.4c-.8-.3-1.7-.4-2.6-.4-2.9 0-5.6 1.4-7.3 3.7L17.6 32.6c.5-1.7.5-3.5 0-5.2l26.1-13.1c2.9 4 8.5 4.8 12.5 1.9S61 7.7 58.1 3.7s-8.5-4.8-12.5-1.9c-3 2.2-4.3 6.2-3.2 9.8L16.3 24.7c-2.9-4-8.6-4.9-12.6-2-4 2.9-4.9 8.6-2 12.6 2.9 4 8.6 4.9 12.6 2 .8-.5 1.4-1.2 2-2l26.1 13.1a8.86 8.86 0 006 11.2c4.8 1.5 9.8-1.2 11.2-6s-1.2-9.8-6-11.2z"/></symbol><symbol id="shopping-cart-1" viewBox="0 0 60 60"><title>basket</title><path d="M27.5 39.6c-3.5 0-6.2 2.8-6.2 6.2 0 3.5 2.8 6.2 6.2 6.2 3.5 0 6.3-2.8 6.3-6.2s-2.8-6.2-6.3-6.2zm0 9.5c-1.8 0-3.2-1.5-3.2-3.2s1.5-3.2 3.2-3.2c1.8 0 3.2 1.5 3.2 3.2s-1.4 3.2-3.2 3.2zm17.3-9.5c-3.5 0-6.2 2.8-6.2 6.2s2.8 6.2 6.2 6.2 6.2-2.8 6.2-6.2-2.7-6.2-6.2-6.2zm0 9.5c-1.8 0-3.2-1.5-3.2-3.2s1.5-3.2 3.2-3.2 3.2 1.5 3.2 3.2-1.4 3.2-3.2 3.2zM15.2 15.9l-3.6-9.4H0v3h9.5l7.6 19.8 2.8 7.4h32.5L60 15.9H15.2zm35.2 17.7H22.1l-5.7-14.8h39.4l-5.4 14.8z"/></symbol><symbol id="printer" viewBox="0 0 60 60"><style>.st0{fill:#1d1d1b}</style><title>print</title><path class="st0" d="M45 17V0H15v17H0v26h15v17h30V43h15V17H45zM18 3h24v14H18V3zm24 54H18V43h24v14zm15-17H3V20h54v20z"/><path class="st0" d="M10.5 28.5h10v3h-10zM20 45.8h20v3H20zm0 6h20v3H20z"/></symbol><symbol id="plus" viewBox="0 0 60 60"><title>plus-single</title><path d="M31.5 28.5V0h-3v28.5H0v3h28.5V60h3V31.5H60v-3z"/></symbol><symbol id="play-circle" viewBox="0 0 60 60"><title>360-play</title><path d="M30 0C13.4 0 0 13.4 0 30s13.4 30 30 30 30-13.4 30-30S46.6 0 30 0zm0 57C15.1 57 3 44.9 3 30S15.1 3 30 3s27 12.1 27 27-12.1 27-27 27z"/><path d="M19 46l28-16-28-16z"/></symbol><symbol id="placeholder" viewBox="0 0 60 60"><title>placeholder</title><path d="M60 30a29.89 29.89 0 00-7.75-20.13l7.69-7.69L57.81.06l-7.68 7.69a30 30 0 00-40.25 0L2.19.06.06 2.19l7.69 7.68a30 30 0 000 40.25L.06 57.81l2.12 2.12 7.69-7.69a30 30 0 0040.25 0l7.69 7.69 2.12-2.12-7.69-7.69A29.89 29.89 0 0060 30zM30 3a26.89 26.89 0 0118 6.89l-18 18-18-18A26.89 26.89 0 0130 3zM3 30a26.89 26.89 0 016.89-18l18 18-18 18A26.89 26.89 0 013 30zm27 27a26.89 26.89 0 01-18-6.89l18-18 18 18A26.89 26.89 0 0130 57zm20.11-9l-18-18 18-18a26.94 26.94 0 010 36z"/></symbol><symbol id="phone" viewBox="0 0 60 60"><title>phone</title><path d="M58.6 45.8L47.5 34.7c-1.2-1.2-3.1-1.2-4.4 0l-5.9 7.9s-3.8-.7-11.5-8.4-8.4-11.5-8.4-11.5l7.9-5.9c1.2-1.2 1.2-3.1 0-4.3l-11-11.1C13.6.8 12.8.5 12 .5h.1c-.8 0-1.6.3-2.2.9L2.3 9s-4.4 4.3.6 16.1c4.4 10.3 13.3 18.7 13.3 18.7s8.4 9 18.7 13.3c3.1 1.5 6.5 2.3 10 2.4 4.3 0 6.1-1.8 6.1-1.8l7.6-7.5c1.2-1.2 1.2-3.2 0-4.4zM56.5 48l-7.6 7.6c-1.2.7-2.6 1-4 .9-3.1-.1-6.1-.9-8.8-2.2-9.6-4-17.6-12.5-17.7-12.6l-.1-.1-.1-.1c-.1-.1-8.6-8.1-12.6-17.7-3.8-9-1.4-12.6-1.2-12.9L12 3.5h.1-.1l11.1 11.1-7.6 5.7-1.5 1.1.4 1.8c.2.8 1.3 5.1 9.2 13s12.2 9.1 13 9.2l1.9.4 1.1-1.5 5.7-7.6h.1l11.1 11.1v.2z"/></symbol><symbol id="phone-envelope" viewBox="0 0 60 60"><title>contact--slim</title><path d="M59.1 46.1L47.8 34.8c-.1-.1-.2-.2-.4-.3-.1-.1-.2-.1-.3-.2-1-.5-2.1-.5-3.1.1l-.2.2c-.1.1-.2.1-.2.2l-.1.1-6 8s-3.8-.7-11.7-8.6-8.6-11.7-8.6-11.7l8-6c1.2-1.2 1.2-3.2 0-4.4L13.9.9C12.7-.3 10.7-.3 9.5.9L1.8 8.6S-2.7 13 2.4 25C6.9 35.5 16 44 16 44s8.5 9.1 19 13.6c3.2 1.5 6.7 2.3 10.2 2.4 4.4 0 6.2-1.8 6.2-1.8l7.7-7.7c1.2-1.2 1.2-3.2 0-4.4zM57 48.4L49.3 56c-1.2.8-2.7 1.1-4.1 1-3.1-.1-6.2-.9-9-2.2-9.8-4.1-17.9-12.8-18-12.8l-.1-.1-.1-.1c-.1-.1-8.7-8.2-12.8-18C1.3 14.6 3.8 10.9 4 10.7L11.6 3h.2l11.3 11.3v.1l-7.7 5.8-1.5 1.1.4 1.8c.2.8 1.3 5.2 9.4 13.2s12.4 9.2 13.2 9.4l1.8.4 1.1-1.5 5.8-7.7h.1L57 48.2v.2z"/><path d="M43.5 34.7l-.1.1c.1-.1.2-.2.4-.3l-.3.2zM24.2 7l3 3h27.4L40.5 22.7c-2.5 2.2-3.4 2.2-6 0l-6.1-5.5c-.3.6-.6 1.1-1.1 1.5l-.1.2-.2.1-.6.4 2.9 2.6-5.7 5.4c.6.7 1.2 1.5 2 2.3l6-5.7 1 .9c1.9 1.6 3.5 2.4 5 2.4s3.1-.8 5-2.4l1-.9L54 34h-2.8l3 3H60V7H24.2zM57 32.7L45.7 22 57 11.9v20.8zM40.2 34H29.8c1.3 1.2 2.5 2.2 3.5 3H38l2.2-3z"/></symbol><symbol id="pencil" viewBox="0 0 60 60"><title>edit</title><path d="M57.58 5.37L54.7 2.43a8.42 8.42 0 00-11.83 0L4.28 40.68 0 60l19.06-4.58 38.51-38.3a8.33 8.33 0 00.01-11.75zm-40.24 47L4.47 55.44l2.89-13.06.32-.32 10 10zm2.73-2.71l-10-10 29.24-29 9.94 9.91zm35.12-34.94l-3.53 3.51-9.94-9.91 3.52-3.49a5 5 0 017 0l2.9 2.94a5 5 0 01.05 6.95z"/></symbol><symbol id="pause-circle" viewBox="0 0 60 60"><title>360-pause</title><path d="M30 0C13.4 0 0 13.4 0 30s13.4 30 30 30 30-13.4 30-30S46.6 0 30 0zm0 57C15.1 57 3 44.9 3 30S15.1 3 30 3s27 12.1 27 27-12.1 27-27 27z"/><path d="M34.5 14.1h3v32h-3zm-12 0h3v32h-3z"/></symbol><symbol id="map" viewBox="0 0 60 60"><title>map</title><path d="M41 0L19 14 0 0v46l19 14 22-14.2L60 60V14L41 0zM17.5 55.2L3 44.5V5.9l14.2 10.5.3.2v38.6zm22-12l-.1.1-18.9 12.2V16.6l.1-.1 18.9-12v38.7zM57 54L42.8 43.4l-.3-.2V4.8L57 15.5V54z"/></symbol><symbol id="map-marker" viewBox="0 0 60 60"><title>map-marker</title><path d="M30 0C18.4 0 9 9.4 9 21c0 15 21 39 21 39s21-24 21-39C51 9.4 41.6 0 30 0zm0 55.3c-6.5-8-18-24.2-18-34.3 0-9.9 8.1-18 18-18s18 8.1 18 18c0 10.1-11.5 26.3-18 34.3z"/><path d="M30 9c-6.6 0-12 5.4-12 12s5.4 12 12 12 12-5.4 12-12S36.6 9 30 9zm0 21c-5 0-9-4-9-9s4-9 9-9 9 4 9 9-4 9-9 9z"/></symbol><symbol id="magnifier" viewBox="0 0 60 60"><title>search</title><path d="M41.7 34.3c6.5-10.6 3.2-24.4-7.4-30.9C23.7-3.2 9.8.1 3.3 10.7S.1 35.1 10.7 41.6c7.2 4.4 16.3 4.4 23.5 0L52.6 60l7.4-7.4-18.3-18.3zM22.5 42C11.7 42 3 33.3 3 22.5S11.7 3 22.5 3 42 11.7 42 22.5 33.3 42 22.5 42zm14.2-2.1c1.2-1 2.2-2 3.2-3.2l15.8 15.8-3.2 3.2-15.8-15.8z"/></symbol><symbol id="magnifier-plus" viewBox="0 0 60 60"><style>.st0{fill:#1d1d1b}</style><title>zoom-in</title><path class="st0" d="M24 10.5h-3V21H10.5v3H21v10.5h3V24h10.5v-3H24z"/><path class="st0" d="M41.7 34.2c6.5-10.6 3.1-24.4-7.5-30.9S9.8.2 3.3 10.8.2 35.2 10.8 41.7c7.2 4.4 16.2 4.4 23.4 0l18.4 18.4 7.5-7.5-18.4-18.4zM22.5 42C11.7 42 3 33.3 3 22.5S11.7 3 22.5 3 42 11.7 42 22.5 33.3 42 22.5 42zm14.2-2c1.2-1 2.3-2.1 3.3-3.3l15.8 15.9-3.3 3.3L36.7 40z"/></symbol><symbol id="magnifier-minus" viewBox="0 0 60 60"><style>.st0{fill:#1d1d1b}</style><title>zoom-out</title><path class="st0" d="M10.5 21h24v3h-24z"/><path class="st0" d="M41.7 34.2c6.5-10.6 3.1-24.4-7.5-30.9S9.8.2 3.3 10.8.2 35.2 10.8 41.7c7.2 4.4 16.2 4.4 23.4 0l18.4 18.4 7.5-7.5-18.4-18.4zM22.5 42C11.7 42 3 33.3 3 22.5S11.7 3 22.5 3 42 11.7 42 22.5 33.3 42 22.5 42zm14.2-2c1.2-1 2.3-2.1 3.3-3.3l15.8 15.9-3.3 3.3L36.7 40z"/></symbol><symbol id="lock-close" viewBox="0 0 60 60"><title>lock</title><path d="M27.5 42v9.2h5V42c2.4-1.4 3.2-4.4 1.8-6.8-1.4-2.4-4.4-3.2-6.8-1.8-2.4 1.4-3.2 4.4-1.8 6.8.4.7 1 1.4 1.8 1.8z"/><path d="M47.5 24v-6.4C47.5 7.9 39.7.1 30 .1S12.5 7.9 12.5 17.6V24H6v36h48V24h-6.5zm-32-6.4c0-8 6.5-14.5 14.5-14.5s14.5 6.5 14.5 14.5V24h-29v-6.4zM51 57H9V27h42v30z"/></symbol><symbol id="house" viewBox="0 0 60 60"><title>house</title><path d="M44.5 13.6v-6h-3v3.2L30.1.1l-30 28 2 2.2 5.4-5v34.6h18V40.5h9v19.4h18V25.1l5.6 5.2 2-2.2-15.6-14.5zm5 8.7v34.6h-12V37.5h-15v19.4h-12V22.5L30.1 4.2l19.4 18.1z"/></symbol><symbol id="hook" viewBox="0 0 60 60"><title>hook</title><path d="M55.3 6.1L23.2 47.5 4.5 28.8.2 33l23.5 23.6L60 9.8z"/></symbol><symbol id="hand-pointer" viewBox="0 0 60 60"><title>pointer-hand</title><path d="M49 22h-3c0-1.7-1.3-3-3-3h-5c0-1.7-1.3-3-3-3h-5V6s0-6-6-6-6 6-6 6v26l-4.5-4c-.6-.4-1.3-.6-2-.5-1.1 0-2.1.4-3 1-2.1 1.3-2.8 4.1-1.6 6.2L23 60h25l6-21V27c0-2.8-2.2-5-5-5zm2 16.6L45.7 57h-21L9.5 33.2c-.4-.8-.1-1.8.7-2.2.4-.3.8-.4 1.3-.5h.3l4.2 3.8 5 4.4V6c0-1.4.6-3 3-3 1.5-.2 2.8.9 3 2.5V27h3v-8h5v11h3v-8h5v11h3v-8h3c1.1 0 2 .9 2 2v11.6z"/></symbol><symbol id="flyer" viewBox="0 0 60 60"><title>flyer</title><path d="M0 3.8l4.9 56.3 43.8-3.8L43.8 0 0 3.8zm7.7 53.1L3.2 6.6l37.9-3.4 4.4 50.3-37.8 3.4zM47 2l.3 3H57v46h-5.7l.3 3H60V2z"/></symbol><symbol id="eye-open" viewBox="0 0 60 60"><title>visible</title><path d="M30 15C12 15 0 30 0 30s12 15 30 15 30-15 30-15-12-15-30-15zm0 27C17.4 42 7.81 33.78 4.06 30a42.5 42.5 0 0116.55-10.48 12 12 0 1018.8 0A42.87 42.87 0 0155.94 30C52.2 33.8 42.65 42 30 42z"/></symbol><symbol id="eye-close" viewBox="0 0 60 60"><title>invisible</title><path d="M15.33 38.29A45.19 45.19 0 014.06 30a42.5 42.5 0 0116.55-10.48 12 12 0 00-.66 14.16l17.78-17.75A33 33 0 0030 15C12 15 0 30 0 30a46.66 46.66 0 0013.1 10.52zM4.936 52.868L52.94 4.932l2.12 2.122L7.056 54.991zM30 39.1a12 12 0 0011.77-14.58l-14.31 14.3a12 12 0 002.54.28z"/><path d="M46.85 19.45L44.6 21.7A45.15 45.15 0 0155.94 30C52.2 33.8 42.65 42 30 42a29.19 29.19 0 01-5.24-.49l-2.54 2.54A33 33 0 0030 45c18 0 30-15 30-15a46.71 46.71 0 00-13.15-10.55z"/></symbol><symbol id="external-link" viewBox="0 0 60 60"><title>new-tab</title><path d="M51 57H3V9h24V6H0v54h54V33h-3v24z"/><path d="M58.5 0H33v3h21.08L25.93 31.95l2.14 2.1L57 4.3V27h3V1.5L58.5 0z"/></symbol><symbol id="envelope-open" viewBox="0 0 60 60"><title>newsletter</title><path d="M15.9 7h14v3h-14zm0 8h28v3h-28zm0 8h28v3h-28z"/><path d="M51.5 20V0h-43v20H0v40h60V20h-8.5zm0 3h2.4l-2.4 1.2V23zm-40-20h37v22.7L30 34.8l-18.5-9.1V3zm-3 20v1.2L6.1 23h2.4zM57 57H3V24.8l25.7 12.7 1.3.7 1.3-.7L57 24.8V57z"/></symbol><symbol id="envelope-close" viewBox="0 0 60 60"><title>letter</title><path d="M0 10v40h60V10H0zm54.8 3L34.4 31.3c-3.6 3.2-5 3.2-8.6 0L5.2 13h49.6zM3 15l16.8 15L3 45.9V15zm3.2 32L22 32l1.7 1.5c2.4 2.1 4.4 3.1 6.3 3.1s3.9-1 6.3-3.1l1.7-1.4L53.8 47H6.2zM57 45.9L40.2 30 57 15v30.9z"/></symbol><symbol id="ellipsis-horizontal" viewBox="0 0 60 60"><title>more</title><path d="M8 22a8 8 0 108 8 8 8 0 00-8-8zm0 13a5 5 0 115-5 5 5 0 01-5 5zm22-13a8 8 0 108 8 8 8 0 00-8-8zm0 13a5 5 0 115-5 5 5 0 01-5 5zm22-13a8 8 0 108 8 8 8 0 00-8-8zm0 13a5 5 0 115-5 5 5 0 01-5 5z"/></symbol><symbol id="download" viewBox="0 0 60 60"><title>download</title><path d="M57 34v18H3V34H0v21h60V34z"/><path d="M30.7 44.6l14-8-1.4-2.6-11.8 6.7V5h-3v35.7L16.7 34l-1.4 2.6 13.9 8z"/></symbol><symbol id="crosshair" viewBox="0 0 60 60"><title>locate</title><circle cx="30" cy="30" r="5"/><path d="M55 28.5C54.3 15.8 44.2 5.7 31.5 5V0h-3v5C15.8 5.7 5.7 15.8 5 28.5H0v3h5c.8 12.6 10.8 22.7 23.5 23.4V60h3v-5.1c12.6-.7 22.7-10.8 23.5-23.4h5v-3h-5zm-3.1 3c-.8 10.9-9.5 19.7-20.4 20.4V47h-3v4.9c-11-.8-19.7-9.5-20.4-20.4H13v-3H8c.8-11 9.5-19.7 20.5-20.5v5h3V8c11 .8 19.7 9.5 20.5 20.5h-5v3h4.9z"/></symbol><symbol id="clock" viewBox="0 0 60 60"><title>time</title><path d="M30 0a30 30 0 1030 30A30 30 0 0030 0zm0 57a27 27 0 1127-27 27 27 0 01-27 27z"/><path d="M33.5 30a3.49 3.49 0 00-2-3.15V9h-3v17.85a3.49 3.49 0 002.67 6.44l9.48 9.48 2.12-2.12-9.48-9.48A3.47 3.47 0 0033.5 30z"/></symbol><symbol id="checklist" viewBox="0 0 60 60"><defs><style>.cls-1{fill:#1d1d1b}</style></defs><title>watchlist</title><path class="cls-1" d="M10.07 44a7 7 0 107 7 7 7 0 00-7-7zm0 11a4 4 0 114-4 4 4 0 01-4 4zm0-32a7 7 0 107 7 7 7 0 00-7-7zm0 11a4 4 0 114-4 4 4 0 01-4 4zM8.83 12.54l-4.7-4.7-2.12 2.12 7.29 7.29 9.02-13.52-2.5-1.66-6.99 10.47zM23 7.5h37v3H23zm0 21h37v3H23zm0 21h37v3H23z"/></symbol><symbol id="camera" viewBox="0 0 60 60"><title>camera</title><path d="M42 12l-3-6H21l-3 6H0v42h60V12zm15 39H3V15h16.85l.83-1.66L22.85 9h14.3l2.17 4.34.83 1.66H57z"/><path d="M30 21a12 12 0 1012 12 12 12 0 00-12-12zm0 21a9 9 0 119-9 9 9 0 01-9 9z"/><circle cx="51" cy="21" r="3"/></symbol><symbol id="bulletlist" viewBox="0 0 60 60"><defs><style>.cls-1{fill:#1d1d1b}</style></defs><title>list</title><path class="cls-1" d="M10.07 44a7 7 0 107 7 7 7 0 00-7-7zm0 11a4 4 0 114-4 4 4 0 01-4 4zm0-32a7 7 0 107 7 7 7 0 00-7-7zm0 11a4 4 0 114-4 4 4 0 01-4 4zM23 7.5h37v3H23zm0 21h37v3H23zm0 21h37v3H23zM10.07 2a7 7 0 107 7 7 7 0 00-7-7zm0 11a4 4 0 114-4 4 4 0 01-4 4z"/></symbol><symbol id="book-open" viewBox="0 0 60 60"><title>browse</title><path d="M42.8 3.5c-4.7.1-9.3 1.8-12.8 5-3.5-3.2-8.1-4.9-12.8-5H0v49h15.7c4.3.1 8.5 1.5 12 4h4.6c3.5-2.5 7.7-3.9 12-4H60v-49H42.8zM28.5 53.4c-3.8-2.5-8.3-3.9-12.8-3.9H3v-43h14.2c4 .1 7.8 1.5 10.7 4.2l.6.6v42.1zM57 49.5H44.3c-4.6.1-9 1.4-12.8 3.9V11.3l.6-.6c3-2.6 6.8-4.1 10.7-4.1H57v42.9z"/></symbol><symbol id="bars-horizontal" viewBox="0 0 60 60"><title>sandwich</title><path d="M0 17h60v3H0zm0 11.5h60v3H0zM0 40h60v3H0z"/></symbol><symbol id="arrows-vertical" viewBox="0 0 60 60"><title>sort</title><path d="M16.5 42.4V12h-3v30.4L1.7 35.7.3 38.3l13.9 8h1.5l14-8-1.4-2.6zm29.3-29.7h-1.5l-14 8 1.4 2.6 11.8-6.7V47h3V16.6l11.8 6.7 1.4-2.6z"/></symbol><symbol id="arrow-right-circle" viewBox="0 0 60 60"><title>360-next</title><path d="M30 0C13.4 0 0 13.4 0 30s13.4 30 30 30 30-13.4 30-30S46.6 0 30 0zm0 57C15.1 57 3 44.9 3 30S15.1 3 30 3s27 12.1 27 27-12.1 27-27 27z"/><path d="M24.2 14.7L32.8 30l-8.6 15.3 2.6 1.4L36.2 30l-9.4-16.7z"/></symbol><symbol id="arrow-left-circle" viewBox="0 0 60 60"><title>360-prev</title><path d="M30 0C13.4 0 0 13.4 0 30s13.4 30 30 30 30-13.4 30-30S46.6 0 30 0zm0 57C15.1 57 3 44.9 3 30S15.1 3 30 3s27 12.1 27 27-12.1 27-27 27z"/><path d="M33.2 13.3L23.8 30l9.4 16.7 2.6-1.4L27.2 30l8.6-15.3z"/></symbol><symbol id="360-degree" viewBox="0 0 60 60"><title>360-degree</title><path d="M47.9 5.9h9v-3H42.4v14.5h3V7.8c7.1 4.9 11.7 13 11.7 22.2 0 14.9-12.1 27-27 27-3 0-5.9-.5-8.5-1.4-.4.8-.7 1.5-1.3 2.7 3.1 1.1 6.4 1.7 9.8 1.7 16.6 0 30-13.4 30-30 0-9.9-4.8-18.7-12.2-24.1zM13.5 51.3C7.2 46.3 3.1 38.6 3.1 30c0-14.9 12.1-27 27-27 2.8 0 5.5.5 8.1 1.3.4-.9.6-1.6 1.2-2.8-2.9-.9-6-1.5-9.3-1.5C13.5 0 .1 13.4.1 30c0 9.3 4.2 17.6 10.8 23.1H2v3h14.5V41.6h-3v9.7z"/><path d="M18 32.9v.1c0 1.4.4 2.2 1.2 2.2.8 0 1.1-.7 1.1-2.1 0-1.8-.5-2.5-1.9-2.5h-.2v-1.9h.1c1.4 0 2-.7 2-2.1 0-1.2-.4-1.8-1.1-1.8s-1.1.6-1.1 1.9v.1H16c0-2.5 1.1-3.8 3.1-3.8s3.2 1.3 3.2 3.7c.1 1.2-.5 2.4-1.6 3.1 1.3.6 1.8 1.8 1.8 3.6 0 2.4-1.3 3.9-3.4 3.9s-3.2-1.4-3.2-4v-.2l2.1-.2zm9.6-4.5c1.6 0 2.6 1.4 2.6 4 0 3.1-1.2 4.7-3.2 4.7-2.7 0-3.4-2.3-3.4-7.2 0-4.8.9-7 3.5-7 1.9 0 3.1 1.4 3.1 3.8v.1h-2c0-1.3-.4-2-1.1-2-1.1 0-1.2 1.4-1.2 4.4.3-.5 1-.8 1.7-.8zm-1.9 4c0 1.9.4 2.9 1.2 2.9.8 0 1-.9 1-2.7 0-1.5-.3-2.2-1.1-2.2-.4.1-.8.3-1.1.7v1.3zm8.9-9.5c2.6 0 3.4 2.3 3.4 7.1s-.9 7.1-3.4 7.1c-2.6 0-3.4-2.3-3.4-7.1s.8-7.1 3.4-7.1zm0 12.3c1 0 1.2-1.6 1.2-5.2 0-3.5-.2-5.2-1.2-5.2s-1.2 1.6-1.2 5.2.2 5.2 1.2 5.2zm9.5-9.1c0 1.5-1.2 2.7-2.7 2.7-1.5 0-2.7-1.2-2.7-2.7V26c0-1.5 1.2-2.7 2.7-2.7 1.5.1 2.7 1.3 2.7 2.8zm-4.4 0c0 .9.8 1.7 1.7 1.7.9 0 1.7-.8 1.7-1.7 0-.9-.8-1.7-1.7-1.7-1 0-1.7.8-1.7 1.7z"/></symbol><symbol id="wine-glasses" viewBox="0 0 60 60"><defs><style>.cls-1{fill:#1d1d1b}</style></defs><title>Wine-color_konv</title><path class="cls-1" d="M55.8 27.13c2.24-5.46 1.35-12.5-3.27-25.95L52.12 0H31.87l-.29.84q.87 2.55 1.56 4.83c.27-.86.56-1.74.88-2.67H50c.89 2.64 1.62 5 2.21 7.15A61.21 61.21 0 0034.3 9.8c.27 1 .49 2 .69 2.95a58.2 58.2 0 0118 .6c1.29 5.73 1.26 9.6.05 12.6-1.51 3.29-5.11 5.85-9.9 7.06h-2.32a17.51 17.51 0 01-6.95-3.36 16.15 16.15 0 01-1.73 2.48A21 21 0 0040.46 36h.07v21H33v3h21v-3H43.53V36c5.47-1.29 10.18-4.25 12.27-8.87z"/><path class="cls-1" d="M31.8 27.13c2.24-5.46 1.35-12.5-3.27-25.95L28.12 0H7.87l-.41 1.18C2.85 14.63 2 21.67 4.22 27.19 6.28 31.75 11 34.71 16.46 36h.07v21H6v3h24v-3H19.53V36c5.47-1.29 10.18-4.25 12.27-8.87zm-18 4.23c-6.95-2-9.24-7.43-7-16.63l2.92.71c-2.33 9.58 1.18 12 4.91 13zm-6-21.2C8.38 8 9.11 5.66 10 3h16c.89 2.65 1.62 5 2.21 7.15a61.4 61.4 0 00-20.41.01z"/></symbol><symbol id="wine-glas-2" viewBox="0 0 60 60"><title>wine-glas</title><path d="M42.91 25.43c2.09-5.12 1.26-11.7-3.06-24.3L39.47 0h-19l-.38 1.11c-4.32 12.6-5.15 19.18-3 24.35 1.75 3.86 8.59 6.48 11.4 7.84V57H18v3h24v-3H31.49V33.32c2.76-1.32 9.65-3.98 11.42-7.89zM22.65 3h14.68c2.55 7.6 3.72 12.81 3.67 16.68-6.45-.19-3.16-13-11.4-13a2.58 2.58 0 000 5.16h.4a5 5 0 11-3.51 8.57l-.26-.21a5 5 0 00-2.8-.85 4.78 4.78 0 00-4.26 2.6c-.69-4.13.37-9.7 3.48-18.95z"/></symbol><symbol id="vegetables" viewBox="0 0 60 60"><defs><style>.cls-1{fill:#1d1e1c}</style></defs><title>vegetables_konv</title><path class="cls-1" d="M52.77 7a8.06 8.06 0 00-.9-.05 8.54 8.54 0 00-7.62 5 8 8 0 00-4.44-2c0-.61 0-1.17.09-1.7a8.45 8.45 0 003.36-1.82 1.5 1.5 0 10-1.93-2.3 7.58 7.58 0 01-.93.67 12.59 12.59 0 01.79-2.53A1.5 1.5 0 0038.54.83 16.21 16.21 0 0037.29 5a3.48 3.48 0 01-1-.89 1.5 1.5 0 00-2.5 1.66 6.18 6.18 0 003.11 2.35q-.07.93-.09 2a8 8 0 00-3.19 1.68A8.54 8.54 0 0026 6.9a8.05 8.05 0 00-.9.05 8.4 8.4 0 00-7.18 9.54c.35 3 .79 5.72 1.25 8.39a4.46 4.46 0 012.94-.6c-.45-2.6-.87-5.28-1.21-8.13a5.82 5.82 0 011.18-4.33 5 5 0 013.35-1.88 5.06 5.06 0 01.57 0 5.56 5.56 0 014.89 3.2l1.71 3.51 2.95-2.56a5.1 5.1 0 016.66 0l3 2.68L47 13.16a5.55 5.55 0 014.87-3.26 5.07 5.07 0 01.57 0A5 5 0 0157 14.71a78.85 78.85 0 01-1.6 12.79 145.83 145.83 0 00-2.3 17.41 3.34 3.34 0 01-2.36 3 2.81 2.81 0 01-.77.11 4 4 0 01-2.12-.68l-3.13-2-1.28 3.47a4.79 4.79 0 01-4.55 3 5.11 5.11 0 01-2.33-.57 18.69 18.69 0 01-1.43 2.63 8.06 8.06 0 003.76.93 7.78 7.78 0 007.36-4.95A7 7 0 0050 51.06a5.8 5.8 0 001.59-.22 6.32 6.32 0 004.54-5.75c.79-13 3.84-21.89 3.91-30.35A8 8 0 0052.77 7z"/><path class="cls-1" d="M30.84 33.34a8.44 8.44 0 00-6-2.27 15.5 15.5 0 00-6.76 1.8L22.36 30a1.5 1.5 0 00-1.7-2.47l-3.32 2.28-3-2.58a1.5 1.5 0 10-2 2.27l3.39 2.92a15.87 15.87 0 00-5.32-1 9.33 9.33 0 00-6.28 2.22A13.91 13.91 0 000 43.42C0 53.13 7.88 60 17.59 60s17.58-6.87 17.58-16.58a14.77 14.77 0 00-4.33-10.08zM17.59 57C9.28 57 3 51.16 3 43.42a11 11 0 013.13-7.56 6.29 6.29 0 014.32-1.49 13.88 13.88 0 015.7 1.44 3 3 0 001.43.36 3 3 0 001.56-.43 12.87 12.87 0 015.74-1.66 5.44 5.44 0 013.9 1.46 11.79 11.79 0 013.38 7.89C32.18 51.16 25.91 57 17.59 57z"/></symbol><symbol id="steak" viewBox="0 0 60 60"><title>20180604_Icons_Wein_Pairings_konvertiert</title><path d="M17.68 18.87q.69.31 1.39.67c.43.22.86.45 1.28.71l.11.06c.45.27.89.55 1.33.85s.62.44.93.67l.44.35c.45.36.89.75 1.31 1.16a4.05 4.05 0 004.63.7s.79-.35 1.08-.45h.1a8.68 8.68 0 011-.24h.15c.37-.06.67-.1 1-.12h1.9l.61.08.4.07.54.13.45.13.52.19.2.08a3 3 0 00.57.22 4.69 4.69 0 00.6-1c.15-.33.34-.71.54-1.08.27-.53.57-1.06.89-1.59a53 53 0 00-15-2.19 35.37 35.37 0 00-6.97.6zm17.2 9.44a4.19 4.19 0 00-.82-.18h-1.15a3 3 0 00-2.55 1.24c-1 1.52-.71 4.21-.43 5.81a33.16 33.16 0 017.92-1.72 7.65 7.65 0 00-1.58-4.22 3.26 3.26 0 00-1.39-.93z"/><path d="M60 30.79c0-4.44-2.31-10.57-12.75-14.89-6.29-2.6-14.67-4.1-23-4.1-12.31 0-18.61 4.2-21.65 9.54C1 23.51.08 26.54.08 30.79v4.11C0 44 5.65 53.8 14.79 53.8c3.84 0 7.72-1.75 11.52-5.19 5.23-4.74 12.47-4.85 18.86-4.95 3.65-.06 6.81-.1 9.39-1A7.61 7.61 0 0060 34.89v-4.11zM57 31v.07c-.06 4.33-2.51 5.49-11.9 5.63-6.58.1-14.77.23-20.83 5.73-3.23 2.93-6.42 4.41-9.49 4.41C8.14 46.89 3.91 40 3.19 33.11v-2.72C3.89 20 10.81 15 24.3 15c7.93 0 15.89 1.41 21.83 3.87C53.31 21.84 57 25.93 57 31z"/><path d="M21 26.71l-.23-.2-.12-.11a26.47 26.47 0 00-8.7-4.9 1.83 1.83 0 00-.45-.09c-.19 0-.35.1-.75.36-3.38 2.79-3.78 6.79-3.78 9.6 0 5.72 3.23 11.84 8 11.84 2.16 0 4.56-1.16 7.12-3.44a23.31 23.31 0 012.48-1.94c.25-2.43.37-4.84-.2-6.31A12.7 12.7 0 0021 26.71zm23.27-4.6a20.48 20.48 0 00-1.47 2.35l-.22.44c-.89 1.86-1.11 3.31-.7 4.39.88 2.3 4.76 3.39 6.75 3.66 4.42-.24 4.42-.78 4.42-1.59.01-3.44-3.11-6.71-8.78-9.25z"/></symbol><symbol id="shell" viewBox="0 0 60 60"><defs><style>.cls-1{fill:#1d1e1c}</style></defs><title>clam_konv</title><path class="cls-1" d="M56.35 19c-.23-2-1.54-6.59-2.77-7.81s-4.22-2-5.3-3-4-4.78-5.53-5.61a5.6 5.6 0 00-2.55-.42h-1.67a4.85 4.85 0 01-1.7-.16c-1.3-.53-4.6-2-6.83-2-2.23 0-5.52 1.44-6.83 2a4.85 4.85 0 01-1.7.21H19.8a5.6 5.6 0 00-2.55.42c-1.54.83-4.46 4.55-5.53 5.61s-4.07 1.82-5.3 3S3.89 17 3.66 19-4 30.47 3 38.73a61 61 0 009.05 8.14c.43 4.31 1.37 10.79 3.2 12.33a5.07 5.07 0 003.14.72c3.1 0 7.66-1 11.59-2.06 3.94 1.06 8.49 2.06 11.6 2.06a5.08 5.08 0 003.14-.72c1.83-1.55 2.77-8.07 3.2-12.38a60.83 60.83 0 009-8.1c7.08-8.25-.34-17.65-.57-19.72zM17.21 56.88c-.6-.78-1.3-4-1.79-7.57a121.1 121.1 0 0010.24 6.54c-3.84.85-7.47 1.37-8.45 1.03zm25.66 0c-1 .34-4.63-.18-8.5-1a121.27 121.27 0 0010.29-6.57c-.5 3.53-1.2 6.83-1.8 7.57zm11.82-20.1C48.43 44.09 33.48 53.26 30 54.71c-3.47-1.45-18.43-10.62-24.67-17.93-4-4.66-2.11-9.62.15-14.3a10 10 0 001.16-3.12 19.26 19.26 0 011.92-6 12.16 12.16 0 011.93-1 11.48 11.48 0 003.35-2c.4-.39.89-1 1.51-1.66a30.71 30.71 0 013.31-3.42 5 5 0 011.15-.08h1.67a7.51 7.51 0 002.83-.43l.36-.15A20 20 0 0130 3c1.46 0 4.28 1.16 5.34 1.6l.36.15a7.51 7.51 0 002.83.43h1.67a5.09 5.09 0 011.15.08 30.73 30.73 0 013.31 3.42c.62.71 1.11 1.27 1.51 1.66a11.48 11.48 0 003.35 2 12.16 12.16 0 011.93 1 19.26 19.26 0 011.92 6 10 10 0 001.16 3.12c2.26 4.7 4.14 9.66.15 14.32z"/><path class="cls-1" d="M28.51 7.99h3v31.26h-3zm12.89 5.19a128.49 128.49 0 01-6.86 26l2.81 1.06a129.3 129.3 0 007-26.67zm-.6 27.42l2.45 1.73c6.34-9 8.16-16.3 8.23-16.61L48.56 25a51.67 51.67 0 01-7.76 15.6zM15.64 13.56a129.26 129.26 0 007 26.67l2.81-1.06a128.82 128.82 0 01-6.86-26zm-7.1 12.16c.07.31 1.89 7.64 8.23 16.61l2.45-1.73A51.66 51.66 0 0111.45 25z"/></symbol><symbol id="salami" viewBox="0 0 60 60"><title>20180604_Icons_Wein_Pairings_konvertiert</title><path d="M51 6H21c-4 0-9.22 4.27-11.19 10.19L9.59 16l-3.65-3.1c-2.36-2-3.4-2.9-4.16-2.9a1.35 1.35 0 00-1 .57c-.45.5-.75 1.33.38 2.47a1.07 1.07 0 010 1.48 4.08 4.08 0 000 5.72 1 1 0 01.3.74 1 1 0 01-.3.74 4.09 4.09 0 000 5.73 1.06 1.06 0 010 1.48C0 30.09.34 30.92.79 31.42a1.35 1.35 0 001 .57c.76 0 1.8-.89 4.16-2.88L9.59 26l.21-.2a17 17 0 002.53 4.79 26.33 26.33 0 013.48-.5A13.24 13.24 0 0112 21c0-6.93 5.92-12 9-12h24.62C43.42 11.74 42 16.09 42 21s1.42 9.26 3.62 12H30a14.32 14.32 0 013.65 3H51c5 0 9-6.72 9-15S56 6 51 6zM9 21.27a3.6 3.6 0 01-1.33 2.44l-3.53 3a4 4 0 00-.89-1.36 1.06 1.06 0 010-1.48A4 4 0 004.44 21a4 4 0 00-1.17-2.86 1.06 1.06 0 010-1.48 4 4 0 00.88-1.36l3.53 3A3.6 3.6 0 019 20.73v.54zm37.5-7.77c0-1.66.67-3 1.5-3s1.5 1.34 1.5 3-.67 3-1.5 3-1.5-1.34-1.5-3zm2.5 18c-.83 0-1.5-1.34-1.5-3s.67-3 1.5-3 1.5 1.34 1.5 3-.71 3-1.5 3zm3.73-15.7c0-1.66.67-3 1.5-3s1.5 1.34 1.5 3-.67 3-1.5 3-1.54-1.34-1.54-3zm3 13.08c-.83 0-1.5-1.34-1.5-3s.67-3 1.5-3 1.5 1.34 1.5 3-.71 2.99-1.54 2.99z"/><path d="M18 33c-6.64 0-12.26 2.59-14.23 6.17.17 4 6.27 7.33 13.48 7.33a1.5 1.5 0 010 3c-6.16 0-11.41-2-14.25-5.15V45c0 5 6.72 9 15 9s15-4 15-9v-3c0-5-6.72-9-15-9zm-9.32 4.23c0-.83 1.34-1.5 3-1.5s3 .67 3 1.5-1.34 1.5-3 1.5-3-.67-3-1.5zm8.57 5.36c-1.66 0-3-.67-3-1.5s1.34-1.5 3-1.5 3 .67 3 1.5-1.34 1.5-3 1.5zm2.21-5.73c0-.83 1.34-1.5 3-1.5s3 .67 3 1.5-1.34 1.5-3 1.5-3-.68-3-1.51zm6.89 7.29c-1.66 0-3-.67-3-1.5s1.34-1.5 3-1.5 3 .67 3 1.5-1.35 1.5-3 1.5z"/></symbol><symbol id="salad-bowl" viewBox="0 0 60 60"><defs><style>.cls-1{fill:#1d1d1b}</style></defs><title>salat_konv</title><path class="cls-1" d="M57 36v3h-3v3c0 .07-.1 6.87-4.41 11.2-2.49 2.5-6 3.77-10.49 3.77H21c-6.15 0-10.5-2.41-13-7.16A19.61 19.61 0 016 42v-3H3v-3h54m3-3H0v6a2.94 2.94 0 003 3s0 18 18 18h18.08C57.06 60 57 42 57 42a2.94 2.94 0 003-3v-6zm-5.85-4.12C60.58 22.11 60 12 60 12a33 33 0 00-4.77-.32A26.9 26.9 0 0043 14.34a25.46 25.46 0 01.15 3.43c3.78-2.56 8.89-3 12.09-3h1.67c-.27 3-1.28 8.19-4.91 12l-.06.07-.06.07A9.82 9.82 0 0147.59 30h5.52a14.91 14.91 0 001.04-1.12z"/><path class="cls-1" d="M42.19 28a24.28 24.28 0 018.33-6l-1.12-2.81a28 28 0 00-7.18 4.44 16.54 16.54 0 01-2.7 5.88c-.06.07-.32.46-.32.46h1.38c.42-.61.99-1.29 1.61-1.97zm-2.83-5.9c2.43-9.45-3.23-18.35-3.23-18.35S24.19 8.07 20.37 17a13.92 13.92 0 012.43 2.61c1.72-6 8.22-10 11.88-11.8 1.3 2.94 3 8.18 1.62 13.47v.18c-1.13 5.84-5.76 7.82-8.53 8.5h7.03a13.09 13.09 0 004.56-7.86z"/><path class="cls-1" d="M28 27.33a25.39 25.39 0 014.6-9.65l-2.45-2A29 29 0 0025.3 25a14 14 0 01.38 4.64v.41h1.89c.05-.87.19-1.75.43-2.72zM5.89 21.8h.48a6.38 6.38 0 002.36-.37 5.93 5.93 0 001.91-1.47l.38-.38a8.26 8.26 0 011.53-.15c3.2 0 5.88 2 7.34 5.62a8.89 8.89 0 01.51 5H23a11.48 11.48 0 00-.74-5.95c-1.83-4.48-5.42-7.23-9.74-7.23a11 11 0 00-2.53.3c-.58.14-1.7 1.65-2.27 1.89-.86.35-2.39 0-3.12.49A10.76 10.76 0 00.13 30h2.64a8.09 8.09 0 013.12-8.2zm5.32-2.4zm-5.05 2.21z"/></symbol><symbol id="pretzel" viewBox="0 0 60 60"><title>pretzel</title><path d="M59.8 25.5c0-10-6.7-16-17.9-16-4.6-.1-9 1.5-12.4 4.5C26 11 21.6 9.4 17 9.5 6.2 9.5.2 15.2.2 25.5c0 6.2 2 15.5 12.8 20.1-2 1.3-3.3 2-3.4 2.1-.7.4-1 1.3-.5 2.1.4.7 1.3.9 2 .6.3-.2 2.5-1.4 5.4-3.5 4.2 1.1 8.5 1.6 12.8 1.6 4.3.1 8.7-.5 12.9-1.5 2.9 2 5.1 3.3 5.4 3.4.7.4 1.6.1 2-.6.4-.7.1-1.6-.6-2 0 0-1.3-.8-3.3-2 12.8-5.3 14.1-16.2 14.1-20.3zm-30.4-6.8c.9 1.4 1.4 2.9 1.4 4.5 0 2-.5 4-1.4 5.8-.9-1.8-1.4-3.8-1.4-5.8 0-1.6.5-3.2 1.4-4.5zM16 43.5C5.8 40 3.2 32.3 3.2 25.5c0-8.7 4.6-13 13.8-13 3.8-.1 7.5 1.2 10.4 3.7-1.5 2-2.3 4.5-2.3 7 .1 3.2 1 6.2 2.6 9-3.1 4.5-7.8 8.5-11.7 11.3zm13.4 1.9c-3.2 0-6.5-.3-9.7-.9 3.7-2.8 6.9-6 9.7-9.7 2.7 3.6 6 6.8 9.6 9.6-3.2.7-6.4 1-9.6 1zm13.3-1.9c-3.8-2.8-8.5-6.8-11.5-11.4 1.6-2.7 2.5-5.8 2.6-8.9 0-2.5-.8-5-2.3-7 2.9-2.5 6.6-3.8 10.4-3.7 9.5 0 14.9 4.8 14.9 13 0 10.7-7 15.6-14.1 18z"/></symbol><symbol id="olive-cheese" viewBox="0 0 60 60"><defs><style>.cls-1{fill:#1d1d1b}</style></defs><title>aperif</title><circle class="cls-1" cx="36.31" cy="22.4" r="3.12"/><path class="cls-1" d="M48 53.74V32.25A2.23 2.23 0 0045.75 30h-4.82A9.51 9.51 0 0045 22.51c0-5.41-5.26-9.86-12-10.44V0h-3v12.07c-6.75.59-12 5-12 10.43a9.51 9.51 0 004.07 7.5h-4.83A2.23 2.23 0 0015 32.25v25.5A2.23 2.23 0 0017.24 60h28.51A2.23 2.23 0 0048 57.76v-4.02zm-9-19.23A1.5 1.5 0 1137.43 33h.11A1.5 1.5 0 0139 34.51zm-18-12c0-3.7 4-6.87 9-7.42v2.22h3v-2.22c5 .54 9 3.71 9 7.42C42 26.58 37.2 30 31.5 30S21 26.58 21 22.51zm-3 17.3A6 6 0 1121 51a5.87 5.87 0 01-3-.81zm27 14.31A3 3 0 0142.05 57h-.11a3 3 0 113-3.12zm0-5.33A6 6 0 0036.8 57H18v-3.53a9 9 0 100-16.94V33h15.26a4.5 4.5 0 108.45 0H45z"/></symbol><symbol id="mug-hot" viewBox="0 0 60 60"><title>mug-hot</title><path d="M28 .5c-7.2 8 .4 15.6-3.3 25.6 10.6-11.8.2-14.7 3.3-25.6zM36 7c-7.2 5.9.4 11.6-3.2 19.1 10.6-8.9 0-10.9 3.2-19.1zM20.1 7c-7.2 5.9.4 11.6-3.3 19.1 10.5-8.9.1-10.9 3.3-19.1zm25.2 28.9h-4.4l.5-6.9H11.9l1.5 21.9c.3 4.8 4.2 8.6 9 8.6h8.4c4.8 0 8.9-3.7 9-8.6h4.6c1.6 0 2.9-1.2 3-2.8l.7-8.9c.1-1.7-1.1-3.2-2.8-3.3zm-7.3 0l-.4 6.6-.6 8.2c-.2 3.2-2.9 5.8-6.2 5.8h-8.4c-3.2 0-5.9-2.6-6.1-5.8L15.1 32h23.2l-.3 3.9zm7.1 3l-.7 8.9H40l.3-5.3.3-3.7 4.5.1c0-.1 0-.1 0 0z"/></symbol><symbol id="grill" viewBox="0 0 60 60"><title>20180604_Icons_Wein_Pairings_konvertiert</title><path d="M51 22.61a18.18 18.18 0 00-.34-3.56c-.15-2.78-3.81-4.67-8.78-5.77a9.93 9.93 0 01.2 3.13c.39.1.78.2 1.14.31 3.66 1.09 4.46 2.27 4.46 2.51a.52.52 0 010 .11 4 4 0 01-1.84 1.41C43.18 22 37.83 23.3 30 23.3S16.82 22 14.2 20.75a4 4 0 01-1.83-1.41.52.52 0 010-.11c0-.23.79-1.42 4.46-2.51.73-.22 1.53-.41 2.38-.59a.64.64 0 00.18-.62 10.64 10.64 0 00-.57-1.43c-.11-.24-.24-.54-.37-.86-5.09 1.08-8.88 3-9.06 5.79a16.6 16.6 0 00-.39 3.6C9 30.23 13.8 36.83 20.75 40l-5.42 18.77 2.88.83 5.35-18.54a22.41 22.41 0 004.9.87v14.38h3V41.93a22.41 22.41 0 005-.87l5.33 18.54 2.88-.83L39.25 40C46.2 36.83 51 30.23 51 22.61zM38.41 37.09l-1-3.36-2.88.83 1 3.61a19.42 19.42 0 01-11.2 0l1-3.61-2.88-.83-1 3.36A16.33 16.33 0 0112 23l.11.06c.23.13.47.26.72.39h.05c4 2 10.7 2.89 17.11 2.89s12.9-.89 16.9-2.78c.39-.18.77-.36 1.1-.55a16.33 16.33 0 01-9.58 14.08z"/><path d="M22.81 20l-1.86-2.35c2-1.54 1.57-2.66.52-5S19 7 22.92 3.84l1.86 2.36c-2 1.62-1.66 2.75-.58 5.17.99 2.2 2.47 5.54-1.39 8.63zm6.41 0l-1.86-2.35c2.72-2.15 2.13-3.84.78-6.88C26.85 7.9 25.08 3.94 29.88.15l1.86 2.35c-2.83 2.24-2.24 4-.86 7.07 1.27 2.86 3.02 6.77-1.66 10.43zm7.38 0l-1.86-2.35c2-1.54 1.57-2.66.52-5S32.76 7 36.72 3.84l1.86 2.36c-2 1.62-1.66 2.75-.58 5.17 1 2.2 2.47 5.54-1.4 8.63z"/></symbol><symbol id="grapes" viewBox="0 0 60 60"><defs><style>.cls-1{fill:#1d1d1b}</style></defs><title>grapes_konv</title><ellipse class="cls-1" cx="21.39" cy="54.69" rx="5.36" ry="5.29"/><ellipse class="cls-1" cx="14.25" cy="44.11" rx="5.36" ry="5.29"/><ellipse class="cls-1" cx="7.11" cy="33.53" rx="5.36" ry="5.29"/><path class="cls-1" d="M27.75 38.9a5.29 5.29 0 106 6.3c-2.41-1.05-4.41-3.48-6-6.3zm-1.54-3.11a52.75 52.75 0 01-2-5.41c-.34-.57-.69-1.18-1-1.82a5.28 5.28 0 103 7.23z"/><path class="cls-1" d="M44.51 11.73c-2-1.2-4.41-2.4-6.45-2.4-2.43 0-4.33 1.69-4.43 7.05l-1.87-1.85A5.78 5.78 0 0130 10.44V0h-3v3.54a4.8 4.8 0 01-1.12 2.92 3.51 3.51 0 01-2.73.88 10.06 10.06 0 00-7.37 2.79 11.29 11.29 0 00-3.06 7.54v.22a5.35 5.35 0 103 0v-.19a8.44 8.44 0 012.17-5.41 7.17 7.17 0 015.26-1.92 7.16 7.16 0 003.89-1v1.1a8.77 8.77 0 002.63 6.21l2 2c-10.39 0-7.74 6.38-5 10.76 3.86 12.67 8.07 13.28 8.83 13.28h.12c1.87-1.84 3.85-7.5 3.85-7.5A16.12 16.12 0 0051 40.08a13.51 13.51 0 003.82-.49 15.39 15.39 0 00-4.45-15.17s5.72-2 7.59-3.81c-.02-.03 1.75-5.66-13.45-8.88zm-5.88 20A3.56 3.56 0 0036.06 34a38.63 38.63 0 01-1.65 3.92 13.29 13.29 0 01-1-1.48c-2.41-3.29-6.84-13.06.25-14.23A3.6 3.6 0 0035 22c.32 1.38 1.65 6.75 3.83 9.74zm13.09 4.78h-.19S35.85 27.71 38.81 22c0-1 8.16 1.34 8.16 1.34s-.07.16-.09.24a3.5 3.5 0 001 3.28 12.27 12.27 0 013.85 9.67zM37.16 19.45a3.46 3.46 0 00.09-1c-.27-4.25.5-5.45.64-5.62h.16c.55 0 1.87.24 4.6 1.88a3.6 3.6 0 001.11.44c4.68 1 8.81 2.63 8.81 3.1 4.21 3.52-15.41 1.2-15.41 1.2z"/></symbol><symbol id="glass-bottle-percentage" viewBox="0 0 60 60"><defs><style>.cls-1{fill:#1d1d1b}</style></defs><title>Alcohol-level_konv</title><path class="cls-1" d="M9 57H4.6C3.21 57 3 56.8 3 55.43v-27.2c0-2.09 0-4.23 1.4-5.94l.07-.08c2.13-2.54 3.13-4.62 3.13-6.54V3h2.8v12.67c0 1.92 1 4 3.13 6.54l.07.08a5.26 5.26 0 01.94 1.71h3.12a8.43 8.43 0 00-1.76-3.64l-.07-.08c-1.61-1.92-2.42-3.47-2.42-4.61V0H4.6v15.67c0 1.14-.82 2.7-2.42 4.61l-.07.08C0 22.88 0 25.85 0 28.24v27.19C0 58.46 1.55 60 4.6 60H9v-3z"/><path class="cls-1" d="M22 28l-.33-1H11.34L11 28c-2.1 6.58-2.63 11.81-1.47 14.83A7.88 7.88 0 0015 47.49V57h-3v3h9v-3h-3v-9.51a7.91 7.91 0 005.49-4.71c1.14-2.97.61-8.2-1.49-14.78zm-4 6.1c-.54 0-1.08-.08-1.63-.08H15a17.64 17.64 0 00-2.56.31 44.65 44.65 0 011.1-4.4h5.92a44.57 44.57 0 011.11 4.47 22.89 22.89 0 00-2.57-.25zm42.06 18.51a7.36 7.36 0 11-7.36-7.36 7.33 7.33 0 017.36 7.36zm-10.77 0a3.41 3.41 0 103.41-3.41 3.38 3.38 0 00-3.4 3.41zm-7.51-18.52a7.36 7.36 0 11-14.71 0 7.36 7.36 0 0114.71 0zM31 34.13a3.41 3.41 0 006.82 0 3.41 3.41 0 10-6.82 0zm19.88-7.36h3.23L36.21 60H33z"/></symbol><symbol id="food-2" viewBox="0 0 60 60"><title>national-food-2</title><path d="M16.7 37.5zM13 56.9c-.3-.6-.6-1.3-.9-1.9H3v-4.9h7.7c-.1-.8-.2-1.5-.3-2.3v-.7H3V32h12v3l.1-.1.2-.2c.4-.2.8-.4 1.3-.5l.4-.1c.3-.1.6-.2.9-.2h.1V20.7c0-5.3-5-7.7-5-7.7V0H5v13.1c-3 1.8-4.9 5-5 8.5V58h13.6c-.2-.3-.4-.7-.6-1.1zM8 3h2v4H8V3zM3 21.6c0-2.4 1.3-4.6 3.4-5.8L8 15v-5h2v4.9l1.7.8c.1.1 3.3 1.7 3.3 5V29H3v-7.4z"/><path d="M31.1 35.9c-.4-.1-.8-.1-1.3-.1-1.2 0-2.3.3-3.4.7.1-.7.1-1.5.1-2.4l.3.1.3.1h.1l.3.1h.2l.3.1.2.1.3.1.3.1.2.1.4.1h.2l.7.1c2.6.3 5.3-.2 7.6-1.5 0 0-4-4.8-7-5.3H30c-.2 0-.3 0-.5.1h-.2c-.2.1-.4.1-.6.2h-.1c-.2.1-.3.2-.5.2l-.1.1-.4.3-.1.1c-.2.1-.3.3-.5.4v.1l-.4.4-.1.1c-.1.1-.2.3-.3.5-.1-.8-.5-1.6-.9-2.2-.5-.7-1.4-.8-2.1-.4s-.8 1.4-.4 2.1l.1.1c.6.8.7 3.9.5 6.4-.8-.2-1.7-.3-2.6-.3-2.7 0-5.7 1-6.8 4.3-1.8 5.7.1 17.9 7 19.1.2 0 .4.1.7.1 1.5 0 2.5-.9 3.4-.9h.1c.8-.1 1.8.8 3.8.8.4 0 .9 0 1.3-.1 3-.5 6.7-7.2 6.9-12.1s-.1-10.4-6.1-11.8zm3.2 11.6c-.2 2.1-.8 4.2-1.9 6.1-.6 1.3-1.5 2.4-2.6 3.2-.3 0-.5.1-.8.1-.6 0-1.1-.1-1.7-.4-.7-.3-1.5-.5-2.3-.5-.8.1-1.6.3-2.3.6-.3.2-.7.3-1 .3h-.1c-1.3-.4-2.5-1.3-3.1-2.5-2.1-3.9-2.6-8.4-1.6-12.8.2-.5.7-2.2 3.9-2.2.9 0 1.8.1 2.7.5l1.4.7 1.4-.8c1.1-.6 2.3-.9 3.6-1 .2 0 .4 0 .6.1 3.1.7 4.1 2.9 3.8 8.6z"/><path d="M56 21.7V15H33.1v6.7L31 25.3h.3c.9.2 1.8.5 2.6.9l1.8-3h17.6l3.6 6V55H38.5c-.5 1-1 2-1.6 3h20.4c1.5 0 2.7-1.1 2.7-2.6v-27l-4-6.7zm-3-1.5H36.1V18H53v2.2z"/><path d="M44.5 36.2c-2.1 0-4.2.5-6.1 1.5.5.9.9 1.8 1.2 2.7 1.5-.8 3.2-1.3 4.9-1.2 4.1 0 7 2.1 7 4.1s-2.9 4.1-7 4.1c-1.4 0-2.9-.3-4.2-.8V48c0 .6-.1 1.1-.2 1.7 1.4.5 2.9.7 4.4.7 5.5 0 10-3.2 10-7.1s-4.4-7.1-10-7.1z"/></symbol><symbol id="food-1" viewBox="0 0 60 60"><title>national-food-1</title><path d="M3 40.9V32h12v4l3-.6V20.7c0-5.3-5-7.7-5-7.7V0H5v13.1c-3 1.8-4.9 5-5 8.5v22.1c.9-1.1 1.9-2 3-2.8zM8 3h2v4H8V3zM3 21.6c0-2.4 1.3-4.6 3.4-5.8L8 15v-5h2v4.9l1.7.8c.1.1 3.3 1.7 3.3 5V29H3v-7.4zM26.8 34.6c-2.4-5-.9-15.1-.9-15.1l2.4.9 1.2.6h.1c.4.2.9.5 1.3.8 1.7 1 3.3 2.3 4.7 3.8-4.8 4.1-7 7-8.1 8.9h3.6c1.5-2 3.2-3.8 5.1-5.5l.7-.6 1.1-.9c.3-.3.7-.5 1-.8l.2-.1.5-.3c.3-.2.7-.5 1.1-.7l.2-.1c.4-.2.8-.5 1.3-.7l.2-.1c.4-.2.8-.4 1.3-.6s.9-.4 1.4-.6h.1c.4-.1.8-.3 1.2-.4l.3-.1h.1l1.3-.4 1.2-.3h.1l1.1-.4h.2l1-.2h.2l.9-.1h.3l.9-.2h2.3s-1.6 10-5.4 16.4l.2.1c.9.4 1.8.8 2.6 1.2 3.8-6.6 5.4-15.8 5.6-17.1l.6-3.4-3.4-.1h-.1c0-1.6-.2-3.4-.5-5.7-.2-1.4-.4-3.1-.6-5l-.6-5.7-4.3 3.6c-1.6 1.3-3.4 2.5-5.2 3.5-1 .6-2 1.2-2.9 1.8l-.2-.6-2.1-5.3-3.2 4.7c-1.2 1.7-2.6 3.3-4 4.8-1 1-1.9 2-2.7 3.1-1-.5-2.1-.9-3.2-1.3l-3.3-1-.8 3.6c-.2 1.1-1.4 9.9.7 15.7 1.1 0 2.1-.1 3.2-.1zM52.2 8c.5 5 1 8.1 1.1 10.5-1.8.2-3.6.5-5.3.9.2-.8.4-1.6.5-2.4-.4 1-1 1.9-1.6 2.8l-1.1.3c-.5-1.5-1.2-3.1-2-5l-.5-1.1c2.5-1.9 5.6-3.1 8.9-6zm-13.1 3.6l.6 1.5c1.5 3.6 2.6 6 3.2 8-1.5.6-3 1.4-4.4 2.3-.2-.8-.4-1.6-.6-2.3 0 .9 0 1.7-.1 2.5-1.6-1.7-3.4-3.2-5.3-4.4 1.8-2.1 4.3-4.2 6.6-7.6z"/><path d="M44 35.8c1.9-2.3 3.3-5 3.8-8-1.8 3.3-4.5 5.8-7.9 7.4 1.4.1 2.8.3 4.1.6zM36.6 50.6h3v-1.5c0-1.4.2-3.9.6-6.9.2-1.6.3-3.1.4-3.8-2.7-.4-5.4-.6-8-.7 0 .1 0 .2-.1.4l-.2 1c-.1.4-.2 1-.3 1.6 1.7 0 3.4.1 5.2.3-.3 2.5-.7 5.9-.7 8.1l.1 1.5z"/><g><path d="M21.2 40.5c0 .2-.1.4-.1.6 1.7-.2 3.4-.4 5-.4-.3 2.5-.7 6-.7 8.3v1.5h3V49c0-.5 0-1 .1-1.7.1-2.7.6-7.2.9-8.9l.2-.8H29c-2.3 0-4.9.1-7.4.4-.1.7-.2 1.2-.4 2.5z"/><path d="M43.6 38.8c-.1.7-.2 1.8-.3 3 7.4 1.6 13.8 4.7 13.8 9.9 0 4.5-3.1 5.2-5 5.2H8c-1.9 0-5-.7-5-5.2 0-4.8 5.4-7.9 12-9.5-.3 2.6-.5 4.8-.5 6.7v1.5h3v-1.5c0-.7 0-1.5.1-2.3 0-.3 0-.6.1-.9v-.1c.1-1.7.3-3.6.6-5.5.1-.7.2-1.2.2-1.7C8.9 40 0 44 0 51.8 0 57.3 3.6 60 8 60h44c4.4 0 8-2.7 8-8.2 0-7.2-7.7-11.2-16.4-13z"/></g></symbol><symbol id="different-bottles" viewBox="0 0 60 60"><defs><style>.cls-1{fill:#1d1d1b}</style></defs><title>Wine-quantity_konv</title><path class="cls-1" d="M10.34 57H4.6C3.21 57 3 56.79 3 55.42V28.23c0-2.1 0-4.23 1.4-5.94l.07-.08c2.13-2.54 3.13-4.62 3.13-6.54V3h2.8v12.67c0 1.92 1 4 3.13 6.54l.07.08C15 24 15 26.13 15 28.24v4a24 24 0 013-1.48v-2.52c0-2.39 0-5.36-2.1-7.88l-.07-.08c-1.61-1.92-2.42-3.47-2.42-4.61V0H4.6v15.67c0 1.14-.82 2.7-2.42 4.61l-.07.08C0 22.88 0 25.85 0 28.24v27.18C0 58.46 1.55 60 4.6 60h9.23a19.74 19.74 0 01-3.49-3zM54 30v13l.52.77a12.07 12.07 0 001.12 1.32c.22.23.42.45.6.66a4.42 4.42 0 01.76 3.11v7.32c0 .69-.12.82-.83.82h-7.35c-.7 0-.83-.12-.83-.82v-7.33a4.41 4.41 0 01.72-3.07c.18-.21.38-.43.6-.66a12.11 12.11 0 001.12-1.31L51 43V30h3m3-3h-9v15.07a10.78 10.78 0 01-.83 1c-.26.27-.5.54-.71.79a7.24 7.24 0 00-1.42 5v7.32A3.54 3.54 0 0048.82 60h7.35A3.54 3.54 0 0060 56.19v-7.33a7.24 7.24 0 00-1.42-5c-.21-.25-.45-.51-.7-.78a10.75 10.75 0 01-.83-1V27z"/><path class="cls-1" d="M42 53.24a16.13 16.13 0 01-6 3.72H21.1c-5.58-2-9-6-9-10.52S15.46 38 21 36c3-1.11 6-4.13 6-7.76V20.6h3v7.62c0 3.62 3.07 6.65 6.1 7.76a14.17 14.17 0 017.81 6.25c.08-.1.13-.2.22-.3.26-.31.55-.62.82-.91V38.5a18.42 18.42 0 00-7.87-5.33c-2-.73-4.14-2.72-4.14-5V17.6H24v10.62c0 2.24-2.12 4.22-4.08 5-6.7 2.47-10.86 7.56-10.86 13.28s4.23 10.89 11 13.34l.58.21h15.74l.58-.21a20.42 20.42 0 005.09-2.67 8.13 8.13 0 01-.06-.93z"/></symbol><symbol id="cutlery-plate" viewBox="0 0 60 60"><defs><style>.cls-1{fill:#1d1d1b}</style></defs><title>food-pairing-default_konv</title><path class="cls-1" d="M57.94 17.38l-.78-16A1.31 1.31 0 0055.95.06a4 4 0 00-3.73 3.7L49.95 21c-.42 2.71 1.45 5.17 3.87 5.19h.81L53 55.89C52.9 58.1 54.39 60 56.32 60h.34A3.64 3.64 0 0060 55.89zm-9.64 1.5v-1.71l-.38-13.26a.81.81 0 00-1.63 0s-.31 9.5-.39 12.45a.83.83 0 01-.7.81.77.77 0 01-.72-.8c-.07-3.05-.39-12.43-.39-12.43a.82.82 0 00-1.63 0l-.39 12.45a.83.83 0 01-.7.81.77.77 0 01-.72-.8c-.07-3.05-.39-12.43-.39-12.43a.82.82 0 00-1.64 0l-.47 13.19v1.71a6.68 6.68 0 001.46 4.41l2 2.17-1.94 30.44a3.69 3.69 0 003.4 4.11h.35a3.63 3.63 0 003.38-4.11l-1.93-30.43 1.95-2.17a6.86 6.86 0 001.48-4.41zM30.17 60a30 30 0 110-60 30.41 30.41 0 017.6 1L37 3.93A27.41 27.41 0 0030.17 3a27 27 0 100 54 27.46 27.46 0 006.55-.82l.72 2.91a30.41 30.41 0 01-7.27.91z"/><path class="cls-1" d="M15.05 45a21.2 21.2 0 010-30.07 21 21 0 0120.42-5.51l-.73 2.91a18.26 18.26 0 00-17.57 30.58z"/></symbol><symbol id="cupcake" viewBox="0 0 60 60"><title>20180604_Icons_Wein_Pairings_konvertiert</title><path d="M40.35 19.8v.27a10.27 10.27 0 01-.4 2.8 23.27 23.27 0 019 6.11c1.6 1.91 2.33 3.77 2.07 5.25a7.94 7.94 0 01-2.14 3.64 1.24 1.24 0 01-1.73 0 7.24 7.24 0 00-10.22 0 1.24 1.24 0 01-1.73 0 7.24 7.24 0 00-10.22 0 1.24 1.24 0 01-1.73 0 7.24 7.24 0 00-10.22 0 1.24 1.24 0 01-1.73 0 8 8 0 01-2.16-3.64c-.28-1.54.44-3.43 2-5.34a22.92 22.92 0 019-6.07 10.27 10.27 0 01-.39-2.76v-.32c-8.49 3.08-14.61 9.47-13.6 15a11 11 0 003 5.23c.09.09.19.15.28.23L12 60h36l2.63-19.75c.1-.08.21-.15.3-.25a10.88 10.88 0 003-5.23c.97-5.36-5.12-11.83-13.58-14.97zM14.67 57l-2.1-15.8a4.18 4.18 0 002.54-1.2 4.21 4.21 0 013-1.23L19.76 57zm8.1 0l-1.54-16.88a4.21 4.21 0 005.83-.12 4.17 4.17 0 011.48-.95V57zm8.77 0V39.05A4.17 4.17 0 0133 40a4.22 4.22 0 005.86.09L37.35 57zm8.82 0L42 38.78A4.21 4.21 0 0145 40a4.18 4.18 0 002.52 1.19L45.42 57z"/><path d="M30.32 12.78H30a7.32 7.32 0 103.4.84C37.4 8.25 42.57 3.1 51 3.1v-3C40.73.08 34.89 6.48 30.32 12.78z"/></symbol><symbol id="chocolate-bar" viewBox="0 0 60 60"><title>20180604_Icons_Wein_Pairings_konvertiert</title><path d="M48 3a3 3 0 00-3-3H15a3 3 0 00-3 3v15.33l.38.3c.59.48 1.5 1.14 2.62 1.87V15h15v3H18v4.29c3.41 1.85 7.71 3.57 11.63 3.57h1c.51 0 1-.06 1.54-.06 6.65-.05 12.34 3.2 15.83 5.8V18H36v6h-3v-9h15V6H36v6h-3V3h15M15 3h15v3H18v6h-3z"/><path d="M32.16 28.75c-.44 0-.87 0-1.32.05s-.81 0-1.22 0c-9.36.05-19.13-7.8-19.13-7.8v39h39V36.84s-7.62-8.09-17.33-8.09zm-1.09 3h1.09A20.27 20.27 0 0143 35.42a13.83 13.83 0 00-9.91 5.8A78.78 78.78 0 0022.83 30.8a24.42 24.42 0 006.8 1c.49.05.97.03 1.45-.01zM13.49 57V27.31C17.78 30.38 26.36 37 32 44.72l1.42 1.94 1.12-2.13c.18-.34 4.19-7.79 12-5.91V57z"/></symbol><symbol id="chefs-hat" viewBox="0 0 60 60"><title>chefs-cap</title><path d="M43.7 27.2c-.3 2.1-.9 5.2-4.9 9.8l2.3 2c4.5-5.3 5.2-9 5.5-11.3v-.2l-3-.5.1.2z"/><path d="M44.9 5.8c-1 0-1.9.1-2.8.2-3.6-4.9-9.9-6-12-6-2.1 0-8.4 1.1-12 6-1-.1-1.9-.2-2.9-.2C-2.8 5.8-4.3 28.7 8 34v26h44V34c12.3-5.3 10.8-28.2-7.1-28.2zM49 57H11v-7.5h38V57zm1.8-25.8L49 32v14.5H11V32l-1.8-.8C5.3 29.5 2 24.5 3.3 18c1.2-5.7 5.6-9.2 11.9-9.2h1c-1.3 2.8-1.9 5.8-1.9 8.8h3c-.1-3.1.7-6.1 2.3-8.7l.9-1.2C23.3 3.9 28.4 3 30 3c1.6 0 6.7.9 9.6 4.8l.9 1.2c1.6 2.6 2.4 5.6 2.2 8.7h3c.1-3.1-.6-6.1-1.9-8.8h1c6.3 0 10.7 3.4 11.9 9.2 1.4 6.4-2 11.4-5.9 13.1z"/><path d="M16.3 27l-3 .5v.2c.4 2.2 1 6 5.6 11.3l2.3-2c-4-4.6-4.5-7.7-4.9-9.8V27zm12.2 0h3v11h-3z"/></symbol><symbol id="cheese-2" viewBox="0 0 59.99 47.99"><title>cheese-2</title><path d="M60 9C55.1 4.86 48.8.56 39.13 0a1.46 1.46 0 00-.65.11L.27 15H0v33l60-6zM39.27 3a29.16 29.16 0 0116.47 6.4l-44.33 4.46zM57 39.28L3 44.67v-27l54-5.4z"/></symbol><symbol id="cheese-1" viewBox="0 0 60 60"><title>20180604_Icons_Wein_Pairings_konvertiert</title><path d="M16.54 30A4.5 4.5 0 1112 34.5a4.51 4.51 0 014.5-4.5m0-3a7.5 7.5 0 107.5 7.5 7.5 7.5 0 00-7.5-7.5z"/><path d="M57 31.5a5.94 5.94 0 013 .81V20L24 9C7.87 9 0 17.54 0 21v33h34.82a5.57 5.57 0 117.59 0H60V42.64a6 6 0 11-3-11.14zM23.6 12l29.52 9H3.05c.3-1.66 6.31-8.85 20.55-9zM57 46.45V51h-9.89a8.46 8.46 0 00.07-1.07 8.57 8.57 0 10-17.14 0 8.45 8.45 0 00.07 1.07H3V24h54v4.5a9 9 0 000 18z"/><path d="M39 27a3 3 0 103 3 3 3 0 00-3-3z"/></symbol><symbol id="bread" viewBox="0 0 60 60"><title>bread</title><path d="M32.2 3.9c-7.3 8.1.4 15.9-3.4 26 10.8-12 .2-14.9 3.4-26zm8 6.6c-7.2 6 .4 11.8-3.3 19.4 10.9-9 .2-11.1 3.3-19.4zm-16.2 0c-7.3 6 .4 11.8-3.4 19.4 10.9-9 .2-11.1 3.4-19.4zm1.4 36.1h3v-1.5c0-.5 0-1 .1-1.7.2-3 .5-6 .9-8.9l.1-.8H29c-2.5 0-4.9.1-7.4.4-.1.7-.2 1.3-.4 2.5 0 .2 0 .4-.1.6 1.7-.2 3.4-.4 5-.5-.4 2.8-.6 5.6-.7 8.3v1.6zm11.2 0h3v-1.5c.1-2.3.3-4.6.6-6.9.2-1.6.3-3.1.4-3.8-2.7-.4-5.3-.6-8-.7l-.1.4-.2 1c-.1.4-.2 1-.2 1.7 1.7 0 3.4.1 5.2.3-.4 2.7-.6 5.4-.7 8.1v1.4z"/><path d="M43.5 34.9c-.1.7-.2 1.8-.3 3 7.4 1.6 13.8 4.7 13.8 10 0 4.5-3.1 5.2-5 5.2H8c-1.9 0-5-.7-5-5.2C3 43 8.4 40 15 38.3c-.3 2.2-.5 4.5-.5 6.7v1.5h3V45c0-.7 0-1.5.1-2.3 0-.3 0-.6.1-.9v-.1c.1-1.7.3-3.6.6-5.5.1-.7.2-1.2.2-1.6C8.9 36.1 0 40.1 0 47.9c0 5.5 3.6 8.2 8 8.2h44c4.4 0 8-2.7 8-8.2 0-7.2-7.7-11.2-16.5-13z"/></symbol><symbol id="bottles" viewBox="0 0 60 60"><defs><style>.cls-1{fill:#1d1e1c}</style></defs><title>Wine-storage_konv</title><path class="cls-1" d="M3 10.86C3 9.45 3.27 9 4.91 9h27.44c1.89 0 3.88.12 5.57 1.5 2.41 2 4.44 2.93 6.22 2.93H57v3.15H44.15c-1.61 0-3.43.79-5.54 2.4a12 12 0 012.87 1.64 5.3 5.3 0 012.67-1H60v-9.18H44.15c-.72 0-2-.39-4.32-2.25C37.37 6.18 34.64 6 32.35 6H4.91C1.7 6 0 7.69 0 10.86v8.49a7.68 7.68 0 013-1.2zM32.35 39c1.89 0 3.89.12 5.57 1.5 2.41 2 4.44 2.93 6.22 2.93H57v3.15H44.15c-1.78 0-3.82 1-6.22 2.93-1.7 1.38-3.63 1.49-5.8 1.49H4.91C3.27 51 3 50.56 3 49.15v-8.31c0-1.4.27-1.84 1.91-1.84h27.44m0-3H4.91C1.7 36 0 37.67 0 40.84v8.31C0 52.32 1.7 54 4.91 54h27.22c2.34 0 5.16-.1 7.69-2.18 2.27-1.86 3.6-2.25 4.32-2.25H60v-9.14H44.15c-.72 0-2-.39-4.32-2.25-2.45-2-5.19-2.18-7.47-2.18zM3 25.85C3 24.44 3.27 24 4.91 24h27.44c1.89 0 3.88.12 5.57 1.5 2.41 2 4.44 2.93 6.22 2.93H57v3.15H44.15c-1.61 0-3.43.79-5.54 2.4a12 12 0 012.87 1.64 5.3 5.3 0 012.67-1H60v-9.19H44.15c-.72 0-2-.39-4.32-2.25-2.45-2-5.19-2.18-7.47-2.18H4.91C1.7 21 0 22.68 0 25.85v8.49a7.67 7.67 0 013-1.2z"/></symbol><symbol id="barrel" viewBox="0 0 60 60"><title>barrel</title><path d="M58.54 37.09a4 4 0 00-1.54-.87V33h-3v3h-3V12.31a60.46 60.46 0 00-7.49-1.8V9h-3v1a107.48 107.48 0 00-15-1 107.48 107.48 0 00-15 1V9h-3v1.52A62.13 62.13 0 000 12.31v32.41c1.67.53 3.53 1 5.53 1.42L3 54h6.86l2.21-6.79.43.07a108.61 108.61 0 0013 .75 110.62 110.62 0 0012.73-.73l2.18 6.7h6.89l-2.52-7.73h.3A57.21 57.21 0 0051 44.72V39h4.57a1.46 1.46 0 011 .33 2.31 2.31 0 01.47 1.6h3a4.93 4.93 0 00-1.5-3.84zm-48-24a105.39 105.39 0 0130 0V18c-4.7-.42-9.75-.64-15-.64s-10.3.22-15 .64zm0 7.91c4.68-.42 9.73-.65 15-.65s10.32.22 15 .65v6h-30zm0 9h30v6c-4.68.42-9.74.65-15 .65s-10.31-.22-15-.65zM3 14.57c1.4-.37 2.92-.7 4.5-1v4.69c-1.55.17-3 .37-4.5.59zm0 8.63v-1.31c1.45-.23 2.94-.43 4.5-.61v5.65H3zm0 10.64v-3.9h4.5v5.7C6 35.45 4.45 35.25 3 35zm0 7.09v-2.87c1.45.22 3 .42 4.5.59v4.78l-1-.16c-1.23-.27-2.4-.52-3.5-.81zM25.5 45a105.89 105.89 0 01-12.58-.73l-2.41-.38v-5c4.69.42 9.75.64 15 .64s10.3-.22 15-.64v5l-2.37.38A106.89 106.89 0 0125.5 45zM48 42.46c-1.08.29-2.23.55-3.45.8l-1 .17v-4.78c1.55-.17 3-.37 4.49-.59zM48 35c-1.44.22-2.93.43-4.49.61v-5.7H48zm0-8.09h-4.5v-5.63c1.55.18 3 .38 4.49.61zm0-8.08c-1.45-.22-2.94-.42-4.49-.59v-4.67c1.58.3 3.09.63 4.49 1z"/></symbol><symbol id="thumbs-up-ballon" viewBox="0 0 60 60"><title>thumbs-up-ballon</title><path d="M0 0v47.1h10.7V60l21.4-12.9H60V0H0zm57 44.1H31.3l-.7.4-16.9 10.2V44.1H3V3h54v41.1z"/><path d="M15.2 40.1h6c.4 0 .8-.2 1.1-.4l2.7.3h14.4c2.3 0 4.1-1.7 4.3-4 1.3-5.6 2.8-12.3 2.8-13.2 0-1.7-1-3.3-2.5-4.2-.7-.3-1.4-.5-2.2-.5h-8.3c.4-2.3.5-4.7.4-7.1v-.2c0-1.4-.6-2.8-1.5-3.8-.8-.8-1.9-1.3-3.1-1.3-.3 0-.5 0-.8.1-.4.1-.8.3-1.2.5l-1 .6c-.5.3-.8.9-.9 1.5V11c0 1.2-.2 2.5-.7 3.6-.5 1.2-1.2 2.2-2.1 3.1l-.2.2c-.3-.3-.8-.5-1.2-.5h-6c-.9 0-1.7.8-1.7 1.7v19.3c0 1 .8 1.7 1.7 1.7zm9.2-19.8l.4-.5c1.1-1.2 2-2.5 2.7-4v-.2c.6-1.5.9-3.1.9-4.7V9.1l.4-.3h.4c.3 0 .7.1.9.4.5.5.8 1.1.9 1.8v.2c.1 2.1 0 4.3-.4 6.4l-.6 3.5h11.8c.3 0 .5.1.8.2.5.3.9.9.9 1.5-.1 1-1.1 5.6-2.7 12.5v.4c0 .7-.6 1.3-1.3 1.3H24.4V20.3z"/></symbol><symbol id="questionmark-circle" viewBox="0 0 60 60"><title>help</title><path d="M30.3 15.1c-3.7 0-6.2 2.4-6.7 6.6l3.6.6c.2-2.2 1.2-3.4 2.8-3.4 1.2 0 1.9.7 1.9 2.1 0 2.1-2.2 4.4-3.6 7.8-.8 2.2-1.3 4.5-1.3 6.8v.7h3.8v-.6c0-2 .4-4 1.2-5.8 1.3-2.8 2.9-4.4 3.3-5.5.6-1.2 1-2.5 1.1-3.8-.1-3.3-2.4-5.5-6.1-5.5zm-3.8 25h4.6v4.8h-4.6z"/><path d="M30 0C13.4 0 0 13.4 0 30s13.4 30 30 30 30-13.4 30-30S46.6 0 30 0zm0 57C15.1 57 3 44.9 3 30S15.1 3 30 3s27 12.1 27 27-12.1 27-27 27z"/></symbol><symbol id="paragraph-circle" viewBox="0 0 60 60"><title>impressum</title><path d="M30 0C13.4 0 0 13.4 0 30s13.4 30 30 30 30-13.4 30-30S46.6 0 30 0zm0 57C15.1 57 3 44.9 3 30S15.1 3 30 3s27 12.1 27 27-12.1 27-27 27z"/><path d="M31 20.8c-1.8-1.8-2.9-3-2.9-4-.1-1.2.9-2.2 2.1-2.3h.2c1.2 0 2.3.8 3.7 2.4l3.2-2.3c-1.7-2.4-4.4-3.8-7.2-3.8-3.7 0-6.4 2.4-6.4 5.7 0 1.8.8 3.2 2.3 4.9-3.1.5-5 2.6-5 5.4 0 2.5 1.5 4.4 3.9 7l4.6 4.8c1.7 1.7 2.7 2.8 2.7 4.3.1 1.3-.9 2.3-2.2 2.4h-.3c-1.2 0-2.5-.9-4-2.7L22.5 45c1.7 2.5 4.5 4 7.5 4.1 4 0 6.6-2.3 6.6-6.2 0-2.1-.9-4-2.4-5.4 3.3-.6 4.9-2.3 4.9-5.3 0-2.4-1.4-4.7-4-7.3L31 20.8zm2.2 13.6c-1.5 0-2.8-1.2-4.9-3.4s-3.1-3.4-3.1-4.6c0-1 .7-1.8 1.7-1.8 1.2 0 2.6 1.2 4.7 3.5 1.9 2 3.2 3.4 3.2 4.6.1.9-.6 1.7-1.6 1.7z"/></symbol><symbol id="newspaper" viewBox="0 0 60 60"><title>news</title><path d="M0 0v60h40l20-20V0H0zm40 55.8V40h15.8L40 55.8zM57 37H37v20H3V3h54v34z"/><path d="M10.7 20.2c0-3.1-.1-5.5-.2-7.1.4 1.6 1 3.1 1.6 4.7l2.4 5.9h2.8V8.1h-2.6v3.4c0 2.8.2 5.5.3 7.2-.4-1.3-1.2-3.3-1.7-4.5l-2.4-6.1H8v15.5h2.7v-3.4zm16.2.8h-4v-4.2h3.6v-2.5h-3.6v-3.5h3.7V8.1h-6.7v15.6h7zm6.7 2.7l1-5.1c.3-1.5.6-3.2.8-5.1.2 1.9.4 3.7.7 5.1l.9 5.1h3.1L43 8.1h-2.9l-.8 6.1c-.2 1.8-.4 3.5-.6 5.5-.2-2-.5-3.8-.7-5.5l-1-6.1h-2.5l-1.1 6.2c-.3 1.9-.7 3.5-.9 5.5h-.1c-.2-1.9-.3-3.7-.5-5.4l-.8-6.2H28l2.7 15.5h2.9zm13.3-2.5c-.9 0-1.8-.2-2.6-.6l-.4 2.6c.9.4 2 .6 3 .6 3 0 5.1-1.9 5.1-4.7 0-1.9-1.1-3.6-2.8-4.4-1.7-1-2.1-1.5-2.1-2.4 0-.9.8-1.7 1.7-1.6h.2c.7 0 1.4.2 2 .5l.5-2.6c-.8-.4-1.6-.6-2.5-.6-3.2 0-4.9 2.1-4.9 4.6 0 1.4.8 3 2.9 4.3 1.3.8 2 1.4 2 2.5s-.7 1.8-2.1 1.8zm-10.8 8.2h16v3h-16zM8 29.4h24v3H8zm0 9h24v3H8zm0 9.1h24v3H8z"/></symbol><symbol id="lightbulb-on" viewBox="0 0 60 60"><title>idea-bulb-svg</title><path d="M24.08 57h12v3h-12zm-2-3h16v-3h-16zm23.55-27.58a14.52 14.52 0 01-2.73 8.37c-1.62 2.65-3.29 5.38-3.29 11.71V48h-19v-1.5a19.33 19.33 0 00-3.31-11.09c-1.44-2.46-2.92-5-2.92-9a15.63 15.63 0 0131.25 0zm-3 0a12.63 12.63 0 00-25.25 0c0 3.17 1.16 5.16 2.51 7.47A22.14 22.14 0 0123.54 45h13.1a21.71 21.71 0 013.69-11.77c1.28-2.1 2.3-3.76 2.3-6.81zM1 31.5h8v-3H1zm50-3v3h8v-3zM31.5 0h-3v8h3zM51 6.59l-5.68 5.68 2.12 2.12 5.68-5.68zm-42 0L6.89 8.71l5.68 5.68 2.12-2.12z"/></symbol><symbol id="information-circle" viewBox="0 0 60 60"><title>info</title><path d="M27 26h6v18h-6z"/><circle cx="30" cy="19" r="3"/><path d="M30 0C13.4 0 0 13.4 0 30s13.4 30 30 30 30-13.4 30-30S46.6 0 30 0zm0 57C15.1 57 3 44.9 3 30S15.1 3 30 3s27 12.1 27 27-12.1 27-27 27z"/></symbol><symbol id="hook-shield" viewBox="0 0 60 60"><title>secure-shopping</title><path d="M30 3c11.1 0 16.6 1.5 19.3 2.7 2 .9 2.6 1.8 2.7 2.2v29.3c0 5.3-6 10.3-11.1 13.6-3.5 2.3-7.1 4.2-10.9 5.9-6.8-2.9-22-11.2-22-19.5V7.9c.1-.3.7-1.2 2.7-2.2C13.4 4.5 18.9 3 30 3m0-3C3.7 0 5 8.1 5 8.1v29.1C5 50 30 60 30 60s25-10 25-22.8V8.1S56.3 0 30 0z"/><path d="M26.8 40.4L14.9 28.5l2.2-2.1 9.4 9.5 16.3-21 2.4 1.9z"/></symbol><symbol id="hook-circle" viewBox="0 0 60 60"><title>check</title><path d="M30 0C13.4 0 0 13.4 0 30s13.4 30 30 30 30-13.4 30-30S46.6 0 30 0zm0 57C15.1 57 3 44.9 3 30S15.1 3 30 3s27 12.1 27 27-12.1 27-27 27z"/><path d="M26.3 38.7L16.2 28.6l-2.1 2.2 12.4 12.4 19.4-24.8-2.4-1.9z"/></symbol><symbol id="exclamation-triangle" viewBox="0 0 60 60"><title>danger</title><path d="M45 30L30 5 15 30 0 55h60L45 30zm-27.4 1.5L30 10.8l12.4 20.7L54.7 52H5.3l12.3-20.5z"/><path d="M27.9 44.2h4v4.1h-4zm.6-3.2h2.8l.9-17.7h-4.4z"/></symbol><symbol id="exclamation-circle" viewBox="0 0 60 60"><title>exclamation-circle</title><path d="M30 0C13.4 0 0 13.4 0 30s13.4 30 30 30 30-13.4 30-30S46.6 0 30 0zm0 57C15.1 57 3 44.9 3 30S15.1 3 30 3s27 12.1 27 27-12.1 27-27 27z"/><path d="M27.5 40.3h4.8v5h-4.8zm.7-4h3.3l1.2-21.7h-5.3z"/></symbol><symbol id="conversation-ballons" viewBox="0 0 60 60"><title>conversation-ballons</title><path d="M32 20v28h10l10 12V48h8V20H32zm25 25h-8v6.7L43.4 45H35V23h22v22z"/><path d="M45.2 38.1H47V40h-1.8zm1.6-1.6l.4-8.2h-2l.3 8.2zM19.6 24.1h2.8V27h-2.8zm5.3-9.4c.4-.7.6-1.5.6-2.3 0-2-1.4-3.3-3.6-3.3s-3.8 1.5-4 4l2.2.3c.1-1.3.7-2.1 1.7-2.1.7 0 1.1.5 1.1 1.3 0 1.2-1.3 2.6-2.2 4.7-.5 1.3-.8 2.7-.8 4.1v.5h2.3v-.4c0-1.2.2-2.4.7-3.5.8-1.7 1.8-2.7 2-3.3z"/><path d="M21.8 32L13 40.8V32H3V3h37v14h3V0H0v35h10v13l13-13h6v-3z"/></symbol><symbol id="comment" viewBox="0 0 60 60"><title>comment</title><path d="M2 4v42h38l10 12V46h8V4H2zm53 39h-8v6.7l-4.7-5.6-.9-1.1H5V7h50v36z"/><path d="M8 14.4h44v3H8zm0 9h44v3H8zm0 9.1h44v3H8z"/></symbol><symbol id="certificate" viewBox="0 0 60 60"><defs><style>.cls-1{fill:#1d1d1b}</style></defs><title>Certificate_konv</title><path class="cls-1" d="M23.51 27.55q-.28-.25-.52-.52h-14v3h13.83a7.43 7.43 0 01.72-2.03.34.34 0 00-.03-.45z"/><path class="cls-1" d="M2.94 51V3h33v3.3a7.44 7.44 0 013-2.55V0h-39v54h26.32l.58-3z"/><path class="cls-1" d="M21.09 21H8.94v3H21.3a7.33 7.33 0 01-.21-3zm4.6-5.87a.26.26 0 00.12-.1H8.94v3h13.25a7.29 7.29 0 013.5-2.9zM8.94 9v3H26a7.48 7.48 0 011.47-3zm36.15 10.49l-2.87-5.78-2.87 5.84-6.4.91 4.6 4.52-1.1 6.38 5.77-3.02 5.77 3.02-1.13-6.42 4.64-4.52-6.41-.93z"/><path class="cls-1" d="M57.27 17.92a3.27 3.27 0 01-2-3.6 4.37 4.37 0 00-4.33-5 4.34 4.34 0 00-1.4.23 3.12 3.12 0 01-1 .17 3.22 3.22 0 01-2.75-1.56 4.39 4.39 0 00-1.48-1.48A4.32 4.32 0 0042.05 6a4.4 4.4 0 00-3.77 2.14 3.2 3.2 0 01-2.73 1.53 3.11 3.11 0 01-1-.17 4.37 4.37 0 00-5.72 4.87 3.25 3.25 0 01-2 3.51 4.44 4.44 0 00-1.66 1.16 4.41 4.41 0 00.36 6.24 3.32 3.32 0 01.68 4.09 4.39 4.39 0 003.76 6.47 3.16 3.16 0 012.62 1.5l-3.8 19.48 5.8-2.31 4 5.42L42 44.89 45.47 60l4-5.42 5.8 2.31-3.8-19.5a3.18 3.18 0 012.62-1.49 4.39 4.39 0 003.73-6.52 3.3 3.3 0 01.72-4A4.41 4.41 0 0057.23 18zM57 22.54a1.44 1.44 0 01-.37.53 6.3 6.3 0 00-1.37 7.71 1.4 1.4 0 01.13 1.11 1.37 1.37 0 01-.68.83 1.38 1.38 0 01-.61.16 6.17 6.17 0 00-5.93 5 1.4 1.4 0 01-.6.95 1.31 1.31 0 01-.74.23h-.27a1.38 1.38 0 01-.59-.28 6.19 6.19 0 00-7.77 0 1.33 1.33 0 01-.84.3h-.16a1.34 1.34 0 01-.91-.49 1.39 1.39 0 01-.28-.6A6.22 6.22 0 0030 32.87a1.39 1.39 0 01-1.36-1.43 1.4 1.4 0 01.16-.61 6.33 6.33 0 00-1.32-7.75 1.41 1.41 0 01-.12-2 1.43 1.43 0 01.52-.37A6.24 6.24 0 0031.79 14a1.41 1.41 0 011.14-1.65h.2a1.39 1.39 0 01.44.07 6.1 6.1 0 002 .33 6.22 6.22 0 005.3-3A1.4 1.4 0 0142.05 9a1.32 1.32 0 01.69.19 1.39 1.39 0 01.46.46 6.25 6.25 0 005.32 3 6.11 6.11 0 002-.33 1.35 1.35 0 01.44-.07 1.38 1.38 0 011.3.93 1.41 1.41 0 01.06.64 6.29 6.29 0 003.86 6.83 1.41 1.41 0 01.82 1.89z"/></symbol><symbol id="award" viewBox="0 0 60 60"><title>quality</title><path d="M33.5 16.9l-3.5-7-3.5 7.1-7.7 1.1 5.5 5.5-1.3 7.7 7-3.6 7 3.6-1.4-7.8 5.6-5.4z"/><path d="M50.6 20.6C50.6 9.2 41.4 0 30 0S9.4 9.2 9.4 20.6c0 7.6 4.2 14.6 10.9 18.2l-4.9 18.3 6.4-2.2 4.5 5.1L30 45.9 33.8 60l4.5-5.1 6.4 2.2-4.9-18.3c6.6-3.6 10.8-10.6 10.8-18.2zM30 38.2c-9.7 0-17.6-7.9-17.6-17.6S20.2 3 30 3c9.7 0 17.6 7.9 17.6 17.6 0 9.8-7.9 17.6-17.6 17.6z"/></symbol><symbol id="shrimp" viewBox="0 0 48 60"><title>shrimp</title><path d="M27.5 0C15.1 0 3.3 9 .6 20.8A22.42 22.42 0 000 26c0 16.2 12.7 24.3 25.6 25.7a26.71 26.71 0 007 7.6 5.13 5.13 0 002.4.7 6.39 6.39 0 005.1-3.1c.8-1.3-2.2-3.7-2.4-5.1.9-1.1 4.7-1.6 4.7-3.1a5.69 5.69 0 00-5.3-6 25.69 25.69 0 00-10.1 3c-4.7-2.9-9.1-7.1-9.1-13.6 0-9.3 9.4-13.8 18.5-13.8h4.5C41.1 8 48 10.8 48 7.9 48 1.7 35.2 0 27.5 0zm1.9 52c4.2 0 2.9-2.9.7-4.5a21.27 21.27 0 017-1.8 2 2 0 011.5.6 3.29 3.29 0 01.7 1.3l-.7.3a8 8 0 00-3.2 1.9 3 3 0 00-.7 2.4 9.08 9.08 0 001.7 3.4l.4.6a2.5 2.5 0 01-1.8.8 1.69 1.69 0 01-1-.3 27.26 27.26 0 01-4.8-4.8l.2.1zM6.3 37.8A21.27 21.27 0 013 26a16.28 16.28 0 01.3-3.1c2.5-1.1 8.6-2.8 13.1 2.6a15.17 15.17 0 00-1.5 6.6v1.1a11.78 11.78 0 00-8.6 4.6zm18.4 10a1.88 1.88 0 00-.2.8c-6.2-.9-12.2-3.6-16.2-8.1a8.28 8.28 0 017.2-4.2c1.1 4.3 4.2 8.2 9.2 11.5zm-2.6-28.7a20.51 20.51 0 00-4.1 3.7 13.78 13.78 0 00-13.9-3.5A25.19 25.19 0 0116 5.9c5.7.2 9.4 4 10.6 11a23.47 23.47 0 00-4.5 2.2zm16.1-3.8h-1.7a32.66 32.66 0 00-7 .8C28.3 10 25.3 5.8 21 3.9a23.72 23.72 0 016.5-.9C36.2 3 43 5 44.6 7c-2 .8-5.5 2.4-6.4 8.3z"/></symbol><symbol id="pig" viewBox="0 0 60 60"><title>pig</title><path d="M60 30.1v-.9c0-1.3-1.2-1.8-2.3-2.3l-1.2-.6a7.57 7.57 0 00-2.6-2.1 11.34 11.34 0 001.4-5.4 1.36 1.36 0 00-.6-1.1c-1.3-1-3.9.7-5.8 2.3l-9.2-2.6c-7-2.1-15.4-2.4-23.4-2.4a13.28 13.28 0 00-8.1 2.8H8a3.85 3.85 0 01-2-1.3 3.1 3.1 0 00.9-1.8 2.27 2.27 0 00-1.7-2.4 2.27 2.27 0 00-2.9 1.39v.2a3.47 3.47 0 00-.1 1.4 2.18 2.18 0 01-.8.1C.6 15.3 0 16 0 16.9a1.53 1.53 0 001.6 1.4 10.91 10.91 0 001.8-.3 7.85 7.85 0 002.4 2A12 12 0 003 27.7a14.39 14.39 0 001.2 6.5 14.51 14.51 0 001.1 5.4 38 38 0 01.7 6.9V48h9.3v-1.5a13 13 0 00-.4-2.7 3.32 3.32 0 01-.1-2.2 8.26 8.26 0 012.1-2.8h.1a11.39 11.39 0 006.2 1.5h1a43.52 43.52 0 0010.8-1 3.87 3.87 0 01.8 1.7c.2 2.7.2 5.5.2 5.6V48h9v-1.5a5.68 5.68 0 00-.2-1.3 10.89 10.89 0 01-.3-4.4c.2-1.1.4-2.3.6-3.2a47.54 47.54 0 005.6.1 7.11 7.11 0 004.5-1.2 3.2 3.2 0 012.3-.6 2 2 0 001.6-.7c1-1 .9-3.1.9-5.1zM56.9 33a5.94 5.94 0 00-3.4 1 4.48 4.48 0 01-3 .7c-3.4 0-6.7-.2-6.7-.2l-1.4-.1-.2 1.4s-.3 2.3-.8 4.4a15.47 15.47 0 00.2 4.8H39c0-1.1-.1-2.7-.2-4.3a6.91 6.91 0 00-2.2-4.2 8.17 8.17 0 01-.8-2.2 1.41 1.41 0 00-1.58-1.22h-.12a1.45 1.45 0 00-1.2 1.68V35a7.47 7.47 0 00.4 1.4 45.23 45.23 0 01-9 .7h-1.1a10.55 10.55 0 01-3.9-.6 5.26 5.26 0 001.1-1.9 1.52 1.52 0 10-2.86-1v.14A6.52 6.52 0 0116 35.5a12.13 12.13 0 00-4 4.7 6.07 6.07 0 000 4.2l.1.5H9c-.1-2.1-.4-5.7-1-6.8a12.41 12.41 0 01-.8-4.3v-.4l-.2-.3a11.29 11.29 0 01-1-5.4 10.1 10.1 0 0110.2-9.8c7.8 0 15.9.3 22.6 2.3l7.9 2.2a1.55 1.55 0 001.3 1.7 1.34 1.34 0 001.4-.6 12.86 12.86 0 012.4-2.2 9.1 9.1 0 01-1.5 2.9 1.47 1.47 0 00.25 2.06h.05a1.44 1.44 0 001.4.2 7.53 7.53 0 011.9 1.2 5.49 5.49 0 002.6 1.9l.5.2v.3a14.06 14.06 0 01-.1 2.94z"/></symbol><symbol id="goose" viewBox="0 0 60 60"><title>20180604_Icons_Wein_Pairings_konvertiert</title><path d="M56.87 10.26A13.5 13.5 0 0154 7.38a7.5 7.5 0 00-15 .11v18.25A53.6 53.6 0 0025.73 24a50.37 50.37 0 00-15 2.24 2.23 2.23 0 01-.68.09c-2.33 0-7-2.31-9-2.31a1.16 1.16 0 00-.76.21C-1 25.35 3 31.49 3 33c0 11.11 9.37 17.37 21 17.93v6h-3v3h12V57h-6v-6c11.81-.43 21-6.83 21-18.08V15h6.74c4.25 0 4.93-.12 5.22-1.24.4-1.63-1.21-2.5-3.09-3.5zM53 12h-5a3 3 0 00-3 3v17.87C45 44 34.61 48 25.73 48c-5.65 0-10.7-1.43-14.24-4A12.92 12.92 0 016 33c0-1.18-.52-2.35-1.51-4.48l-.27-.58h.09a19.48 19.48 0 005.75 1.38 5.14 5.14 0 001.61-.24A47.39 47.39 0 0125.73 27a50.69 50.69 0 0112.5 1.64 3 3 0 003.77-2.9V7.49a4.5 4.5 0 019-.07A3 3 0 0051.46 9a18 18 0 002.72 3z"/><path d="M25.5 43.5a22.54 22.54 0 01-13.64-4.76l1.95-2.28a19.82 19.82 0 0011.69 4c4.24 0 7.47-.89 8.64-2.38a2.76 2.76 0 00.4-2.58l2.92-.71a5.78 5.78 0 01-1 5.14C34.09 43 28.57 43.5 25.5 43.5z"/></symbol><symbol id="fish" viewBox="0 0 60 60"><title>20180604_Icons_Wein_Pairings_konvertiert</title><path d="M54.19 22.34A28.87 28.87 0 0039.43 15a19 19 0 00-2.06-4.4C36 8.41 33 6 26.65 6a30 30 0 00-10.82 2.57 1.5 1.5 0 00-.38 2.43s3.38 3.73 2.32 6.87a27.68 27.68 0 00-3.36 2l-.22.17a3.85 3.85 0 01-2 .8 1.52 1.52 0 01-1.08-.47 22.54 22.54 0 00-6.64-5.62 3 3 0 00-3.58 4.73c2.51 2.52 4 6.64 4 11A15.75 15.75 0 011 41.33a3 3 0 002.15 5.09h.09A3 3 0 004.71 46a22.14 22.14 0 006.4-5.32 1.5 1.5 0 011.08-.45 4.19 4.19 0 012.11.8l.14.1a31 31 0 0013.12 5 4.4 4.4 0 01.5 2.07 3.94 3.94 0 01-1 2.74l-.65.72a1.5 1.5 0 00.93 2.49 11.9 11.9 0 001.48.09 13.38 13.38 0 007.6-2.24 12.81 12.81 0 004.34-6.48 28.28 28.28 0 0013.47-7.24l.08-.08C60 32.16 60 31.1 60 30.08s0-2.18-5.81-7.74zM26.65 9c4 0 6.85 1.11 8.21 3.22A14.89 14.89 0 0136 14.51c-1.07-.1-2.15-.15-3.24-.15A34.11 34.11 0 0021 16.45a11.31 11.31 0 00-2.09-5.88A24.38 24.38 0 0126.65 9zm8 40.65a9.39 9.39 0 01-4.15 1.5 7.42 7.42 0 00.59-2.92 7.77 7.77 0 00-.21-1.77c.59 0 1.18.06 1.77.06a35.76 35.76 0 004.71-.31 9.63 9.63 0 01-2.74 3.44zM52.12 36.2c-4.65 4.65-11.76 7.31-19.49 7.31a29.23 29.23 0 01-16.48-4.82 7.2 7.2 0 00-3.92-1.41 4.51 4.51 0 00-3.13 1.21l-.18.16-.15.19a19.18 19.18 0 01-5.54 4.58h-.1A18.8 18.8 0 007.9 30.5c0-5.16-1.83-10.07-4.9-13.14a19.54 19.54 0 015.75 4.86l.15.19.18.16a4.51 4.51 0 003.1 1.25 6.82 6.82 0 003.89-1.47 29.12 29.12 0 0116.66-4.95c7.62 0 14.65 2.6 19.31 7.14 4.09 3.93 4.76 5.17 4.87 5.44v.25c-.04.3-.73 1.61-4.79 5.97z"/></symbol><symbol id="deer" viewBox="0 0 60 60"><title>20180604_Icons_Wein_Pairings_konvertiert</title><path d="M59 20.49a16.48 16.48 0 00-3.47-3.08l-1.7-1.28c-1.8-1.41-3.83-3-7.18-3H44.4a4.67 4.67 0 01-1.4-2.87 44.45 44.45 0 007 .63c6.93 0 9.16-2.28 9.61-2.86l-2.4-1.84c-.86 1.1-3.31 1.56-6.21 1.63.25-1.09.86-2.58 2.4-2.83l-.48-3c-3.28.54-4.59 3.54-5 5.74-1.58-.09-3.17-.26-4.6-.48a18.49 18.49 0 013.18-5.36 3 3 0 00.38-.53l-1.59-.8-.92-.69-.15.19c-4.44 5.5-4.79 9.46-3.88 12.13a6.63 6.63 0 00-1.26-.19 4.77 4.77 0 00-4.14 2.21 3.38 3.38 0 00-.46 2.57c.39 1.82 2.12 3 4 4.22a15.63 15.63 0 01-.79 2.49h-4.16a109 109 0 01-16.57-1 26.43 26.43 0 00-4.11-.36c-6.49 0-10.26 3.36-10.62 9.46A19.39 19.39 0 003 39.23a5.9 5.9 0 01.3 1.37l-.18 3.87-.53 4-.07.5.1.5L4.79 60H14l-1.85-10.17A23.43 23.43 0 0014.8 44a24.74 24.74 0 004.1.3A85.46 85.46 0 0031 43l2 6.25v5.85l.94 4.9h8.52l-.59-5.38.26-5.62A22.15 22.15 0 0144 43a12.26 12.26 0 012-2.7 17.27 17.27 0 002.5-3.16 11.92 11.92 0 002.07-5.93V31a7.16 7.16 0 01.48-2.51h2.51c4 0 5.53-2.14 6-3.06a4.71 4.71 0 00-.56-4.94zm-2.14 3.66c-.2.42-.93 1.38-3.29 1.38H49.8l-.91 1c-.87.92-1.12 2.18-1.3 4.36v.22c-.06.91-.13 2-1.65 4.58a14.37 14.37 0 01-2.11 2.64 15.08 15.08 0 00-2.52 3.3 25.5 25.5 0 00-2.17 7v.34l-.26 5.57V55l.23 2h-2.66L36 54.53v-5.8l-.15-.45-2-6.25-.85-2.45-2.54.42a83.59 83.59 0 01-11.56 1.27 22 22 0 01-3.6-.27l-2.57-.43-.79 2.48a20.09 20.09 0 01-2.25 5.07l-.72 1 .23 1.23L10.44 57h-3.2l-1.67-8.19.53-4v-.21l.18-3.87v-.31a8.49 8.49 0 00-.42-2 16.54 16.54 0 01-.65-6.57c.27-4.53 2.69-6.64 7.62-6.64a23.45 23.45 0 013.64.32 111.93 111.93 0 0017 1.08h6.11l.78-1.73a18.55 18.55 0 001-3l.53-2.09-1.81-1.17c-1-.62-2.55-1.65-2.7-2.33a.39.39 0 010-.3 1.77 1.77 0 011.7-.99 7.93 7.93 0 013 .9l.93.42.89-.21h2.8c2.31 0 3.71 1.1 5.33 2.36.22.17 1.38 1.05 1.78 1.35a14.08 14.08 0 012.87 2.49 1.71 1.71 0 01.23 1.85z"/></symbol><symbol id="crab" viewBox="0 0 60 60"><title>crab</title><path d="M50.6 36a12.42 12.42 0 00.4-3.3 10.13 10.13 0 00-.8-4.2 7.47 7.47 0 003.7-2 6.15 6.15 0 001.9-6c2.4-1.4 4.1-5.3 4.1-10C60 4.7 57.3 0 54 0v4.2c-3.3 0-6 3.8-6 8.4a10.27 10.27 0 001.8 5.9 8 8 0 00-2.1 1.5 6.5 6.5 0 00-1.7 2.7 21.61 21.61 0 00-5.4-2.9 4.53 4.53 0 10-7.3-1.7 37.48 37.48 0 00-6.7 0 4.61 4.61 0 00-2.5-5.9 4.52 4.52 0 00-5.9 2.5 4.48 4.48 0 001.2 5.1 21 21 0 00-5.3 2.9 7.82 7.82 0 00-1.7-2.6 8 8 0 00-2.1-1.5 9.5 9.5 0 001.7-5.9C12 8 9.3 4.2 6 4.2V0C2.7 0 0 4.7 0 10.5c0 4.6 1.7 8.5 4.1 10a6.15 6.15 0 001.9 6 7.47 7.47 0 003.7 2 12 12 0 00-.7 4.2 12.42 12.42 0 00.4 3.3h-6L0 47.1l2.9.9 2.7-9h4.9a11.73 11.73 0 001.9 3H7.6L4.3 53.1l2.9.9 2.7-9h5.2a24.71 24.71 0 004.2 3h-7.4L8.6 59.1l2.9.9 2.7-9h31.7l2.7 9 2.9-.9L48.1 48h-7.4a24.71 24.71 0 004.2-3h5.2l2.7 9 2.9-.9L52.3 42h-4.7a22 22 0 001.9-3h4.9l2.7 9 2.9-.9L56.6 36zM54 7.2h2.6a18.59 18.59 0 01.4 3.3c0 4.6-2 7.5-3 7.5-1.4 0-3-2.3-3-5.4s1.6-5.4 3-5.4zm-4.3 15a4.2 4.2 0 012.6-1.2c.2 0 .5 0 .6.2a1.42 1.42 0 01.2.6 4.16 4.16 0 01-3.8 3.7c-.2 0-.5 0-.6-.2a1.42 1.42 0 01-.2-.6 4.2 4.2 0 011.2-2.5zM3 10.5a12.42 12.42 0 01.4-3.3H6c1.4 0 3 2.3 3 5.4S7.4 18 6 18c-1 0-3-2.9-3-7.5zm3.9 11.2a1.42 1.42 0 01.2-.6 1.42 1.42 0 01.6-.2 4.2 4.2 0 012.6 1.2 3.7 3.7 0 011.2 2.5 1.42 1.42 0 01-.2.6 1.42 1.42 0 01-.6.2 4.2 4.2 0 01-2.6-1.2 3.72 3.72 0 01-1.2-2.5zM30 48c-8.1 0-18-7.1-18-15.3C12 24.1 22.7 21 30 21s18 3.1 18 11.7C48 40.9 38.1 48 30 48z"/></symbol><symbol id="chicken" viewBox="0 0 60 60"><title>20180604_Icons_Wein_Pairings_konvertiert</title><path d="M28.2 40a20 20 0 01-8.29-1.76 1.5 1.5 0 01-.58-2.18l3.32-5 2.5 1.66-2.29 3.43a16.45 16.45 0 0016.25-3.46l2 2.25A19.06 19.06 0 0128.2 40z"/><path d="M59.81 18.81a16 16 0 00-2.1-3.24c-.41-.53-.79-1-1-1.39v-.06a8.94 8.94 0 00-1.28-6.57 9.42 9.42 0 00-8-4.28h-.16a5.2 5.2 0 00-4.56 2.07c-1.7 2.42-.91 6.19-.34 8.13a9.67 9.67 0 00-1.09 1.73C39.7 18.41 34.3 23 28.42 23c-3.44 0-5.95-1.5-8.84-3.24-3.73-2.24-8-4.78-15.1-4.78H3v1.5c0 4.26 3.5 12.65 7.09 20.88A21.76 21.76 0 0030 50.41V57h-2.86v3h11.7v-3H33v-6.8a22.52 22.52 0 0013.93-7.5 18 18 0 004.4-14.56c1.6-.18 3.75-.68 4.81-2a7 7 0 001-5.07h.66a2 2 0 001.88-.74l.49-.76zM45.06 7.06a2.42 2.42 0 012.1-.79h.09a6.5 6.5 0 015.58 2.89 6.59 6.59 0 01.87 2.17 10.74 10.74 0 00-5.44-1.55 6.28 6.28 0 00-3.5 1.29c-.27-1.55-.29-3.16.3-4.01zm8.73 17.19a5.49 5.49 0 01-3 .94c-.31-1.53-.55-3.14 0-3.7s1.81-.57 3.14-.57H54l.12.07a4.8 4.8 0 01-.33 3.27zm.1-6.33c-2.71 0-4.23.42-5.26 1.45-1.82 1.82-1.2 4.72-.65 7.29.15.71.29 1.34.37 1.92a15.06 15.06 0 01-3.71 12.17 19.48 19.48 0 01-14.59 6.67A18.76 18.76 0 0112.82 36.2c-2.12-4.87-5.87-13.47-6.68-18.12 5.32.35 8.66 2.35 11.89 4.3C21 24.18 24.14 26 28.42 26c7.22 0 13.63-5.57 15.47-9.56.77-1.63 3-3.71 4.38-3.71a7.19 7.19 0 015.85 2.95 18.78 18.78 0 001.21 1.68l.44.57c-.55.02-1.2-.01-1.88-.01z"/></symbol><symbol id="cattle" viewBox="0 0 60 60"><title>beef_konv</title><path d="M58.29 24.05c-2.9-1.58-5.37-5.5-5.37-5.5a7.44 7.44 0 00.73-6.55s-2.88 3.39-6 3.75-8.29 2.82-15.23 4.08a26.11 26.11 0 01-4.6.35c-6 0-12.83-1.38-13.84-1.38a15.09 15.09 0 00-6.06 1h-.06a7.28 7.28 0 00-1.58 1C3.94 22.4 0 25.52 0 29.12V48h3V29.12a3.11 3.11 0 01.42-1.44 20.16 20.16 0 00.8 7.74 6.16 6.16 0 01.32 1.42l-.19 4L4.31 45l-.07.52.1.52L6.08 57h9l-1.4-8.58a9.85 9.85 0 002.94.49 7 7 0 002.17-.33 6.78 6.78 0 003.73-3.06A14.89 14.89 0 0028 46.93a28.27 28.27 0 007.66-1.5l-.24 5.92v.54l.65 5.11h9l-.51-5.6.27-5.79a13.06 13.06 0 011.41-4.76c.67-1.22 2.1-1.47 2.84-2.94 1.78-3.61 1.17-5.32 2-6.77a23 23 0 005.12 1h.27c1.53-.14 5.91-5.86 1.82-8.09zm-40.41 21.7a5.94 5.94 0 01-3.88-.37 22.83 22.83 0 00.82-2.82 2.8 2.8 0 00.47 0h1a4.54 4.54 0 012.78 1c.27.19.54.35.81.52a3.78 3.78 0 01-2 1.67zM55.8 29.12a22.85 22.85 0 01-3.8-.85l-2.27-.71-1.22 2a8.29 8.29 0 00-1 3.16 11.52 11.52 0 01-1.16 3.81 2.51 2.51 0 01-.64.57 6.94 6.94 0 00-2.13 2.26 15.15 15.15 0 00-1.69 5.37l-.06.36v.34l-.27 5.79v.41l.2 2.37h-3l-.31-2.49v-.15l.24-5.81.18-4.43-4.18 1.47A24.67 24.67 0 0128 43.92a14.86 14.86 0 01-7.16-2.77 7.6 7.6 0 00-4.52-1.59h-.95l-2.58-.44-.79 2.53c-.25.78-.37 1.34-.46 1.75a2.68 2.68 0 01-.61 1.33l-.69 1 .2 1.2L11.55 54h-2.9l-1.33-8.46V45l.07-4 .19-4v-.31a8.77 8.77 0 00-.43-2.1 17.38 17.38 0 01-.68-6.88c.12-2 .52-3.53 1.75-4.51.33-.21.65-.4.95-.57a11.84 11.84 0 014.78-.76c.26 0 1.07.14 1.78.25a84.52 84.52 0 0012.1 1.13 29 29 0 005.14-.4 78.2 78.2 0 0010.22-2.75A31.85 31.85 0 0148 18.77a8.31 8.31 0 001.32-.27l1 1.65c.3.47 3 4.63 6.48 6.54l.14.09a4.28 4.28 0 01-1.14 2.34z"/></symbol></svg>