<svg version="1.1" id="Lidl_Plus_App_Icon" xmlns="http://www.w3.org/2000/svg" x="0" y="0" viewBox="0 0 60 60" xml:space="preserve"><style>.st1{fill:#fff}.st3,.st4{fill-rule:evenodd;clip-rule:evenodd;fill:#0050aa}.st4{fill:#e60a14}</style><linearGradient id="Verlauf_1_" gradientUnits="userSpaceOnUse" x1="4.6584" y1="4.6583" x2="55.3417" y2="55.3416"><stop offset="0" stop-color="#006fb9"/><stop offset=".2401" stop-color="#0066b5"/><stop offset=".6" stop-color="#0050aa"/><stop offset=".7001" stop-color="#004b9e"/><stop offset=".8814" stop-color="#003f7e"/><stop offset="1" stop-color="#003565"/></linearGradient><path id="Verlauf" d="M46.51 1H13.49C6.603 1 1 6.591 1 13.463v33.074C1 53.409 6.603 59 13.49 59h33.02C53.397 59 59 53.409 59 46.537V13.463C59 6.591 53.397 1 46.51 1z" fill-rule="evenodd" clip-rule="evenodd" fill="url(#Verlauf_1_)"/><path id="Outline_1_px_1_" class="st1" d="M46.51 1C53.397 1 59 6.591 59 13.463v33.074C59 53.409 53.397 59 46.51 59H13.49C6.603 59 1 53.409 1 46.537V13.463C1 6.591 6.603 1 13.49 1h33.02m0-1H13.49C6.04 0 0 6.028 0 13.463v33.074C0 53.972 6.04 60 13.49 60h33.02C53.96 60 60 53.972 60 46.537V13.463C60 6.028 53.96 0 46.51 0z"/><path id="Plus" class="st1" d="M17.4 45.581h-.48c-.106 0-.187-.026-.24-.08-.054-.053-.08-.133-.08-.24v-1.504c0-.106.026-.187.08-.24.053-.053.133-.08.24-.08h3.328c1.461 0 2.56.312 3.296.936.736.624 1.104 1.56 1.104 2.808 0 1.259-.381 2.24-1.144 2.944s-1.827 1.056-3.192 1.056h-.304v2.976c0 .106-.026.187-.08.24-.054.054-.134.08-.24.08H17.72c-.107 0-.187-.026-.24-.08-.053-.053-.08-.133-.08-.24v-8.576zm2.608 3.472h.304c.555 0 .976-.146 1.264-.44s.432-.728.432-1.304c0-.586-.136-1.021-.408-1.304-.272-.282-.691-.424-1.256-.424h-.336v3.472zm7.905-5.936c.106 0 .186.027.24.08.053.053.08.133.08.24v9.168h.432c.106 0 .187.027.24.08.053.054.08.133.08.24v1.2c0 .075-.021.144-.064.208a.3078.3078 0 01-.176.128c-.17.053-.354.093-.552.12-.197.026-.392.04-.584.04-.662 0-1.136-.189-1.424-.568-.288-.379-.432-.995-.432-1.848v-8.768c0-.106.026-.187.08-.24.053-.053.133-.08.24-.08h1.84zm8.431 3.424c.106 0 .187.027.24.08.053.053.08.133.08.24v5.744h.384c.106 0 .187.027.24.08.054.054.08.133.08.24v1.184c0 .085-.024.16-.072.224s-.115.102-.2.112c-.181.043-.371.072-.568.088-.197.016-.419.024-.664.024-.405 0-.73-.08-.976-.24-.246-.16-.421-.416-.528-.768h-.048c-.235.395-.515.68-.84.856-.325.176-.717.264-1.176.264-.715 0-1.264-.237-1.648-.712-.384-.475-.576-1.154-.576-2.04V46.86c0-.106.026-.187.08-.24.053-.053.133-.08.24-.08h1.84c.106 0 .187.027.24.08s.08.133.08.24v4.72c0 .341.064.592.192.752s.331.24.608.24c.17 0 .325-.04.464-.12.138-.08.261-.2.368-.36V46.86c0-.106.027-.187.08-.24s.133-.08.24-.08h1.84zm2.696.463c.475-.437 1.117-.656 1.928-.656.64 0 1.17.171 1.592.512.421.342.717.843.888 1.504.021.085.01.163-.032.232s-.112.115-.208.136l-1.28.256c-.117.022-.208.012-.272-.031-.064-.042-.112-.117-.144-.224-.043-.17-.109-.301-.2-.392-.091-.09-.206-.136-.344-.136-.15 0-.264.042-.344.128s-.12.198-.12.336c0 .149.062.293.184.432s.403.336.84.592c.341.203.594.366.76.488.165.123.312.248.44.376.234.235.408.485.52.752s.168.565.168.896c0 .757-.256 1.357-.768 1.8-.512.443-1.195.664-2.048.664-.512 0-.965-.075-1.36-.224-.395-.149-.752-.389-1.072-.72-.064-.064-.096-.133-.096-.208s.026-.149.08-.224l.8-1.056c.074-.096.149-.146.224-.152.074-.005.16.035.256.12.17.171.344.299.52.384.176.085.354.128.536.128.213 0 .37-.038.472-.112.102-.074.152-.192.152-.352 0-.138-.059-.272-.176-.4-.118-.128-.374-.314-.768-.56-.32-.192-.56-.349-.72-.472-.16-.123-.304-.243-.432-.36-.235-.234-.408-.488-.52-.76s-.168-.579-.168-.92c0-.747.237-1.339.712-1.777z"/><g id="Lidl_x5F_Logo_x5F_34px_Outline_1pt"><path fill-rule="evenodd" clip-rule="evenodd" fill="#fff" d="M13 5h34v34H13z"/><path class="st3" d="M13.999 5.999h32v32h-32z"/><path class="st4" d="M29.999 7.499c-8.005 0-14.5 6.495-14.5 14.504 0 8.004 6.496 14.496 14.5 14.496s14.5-6.491 14.5-14.496c0-8.009-6.495-14.504-14.5-14.504z"/><path d="M29.999 8.417c-7.499 0-13.582 6.083-13.582 13.586 0 7.495 6.083 13.578 13.582 13.578 7.499 0 13.582-6.083 13.582-13.578 0-7.503-6.083-13.586-13.582-13.586z" fill-rule="evenodd" clip-rule="evenodd" fill="#fff000"/><path class="st3" d="M35.969 19.479v.921h.716v3.201h-.716v.926h6.037v-2.524l-2.478 1.377V20.4h.716v-.921h-4.275z"/><path class="st3" d="M33.589 19.479h-4.072v.921h.712v3.201h-.712v.926h4.072c3.01 0 3.042-5.048 0-5.048zm-.572 3.473h-.202v-1.906h.171c.891 0 .891 1.91.031 1.906z"/><path class="st4" d="M29.155 22.38l-2.396-2.396-2.765 2.769v.929l.696-.699 1.929 1.933-.712.712.463.467 3.859-3.867v-.925zM26.405 16.608c.84 0 1.521.677 1.521 1.517 0 .84-.681 1.521-1.521 1.521-.84 0-1.521-.681-1.521-1.521 0-.84.681-1.517 1.521-1.517z"/><path class="st3" d="M17.961 19.479h4.271v.921h-.712v2.98l2.474-1.377v2.524h-6.033v-.926h.716V20.4h-.716v-.921z"/></g></svg>
