<?xml version="1.0" encoding="utf-8"?>
<!-- Generator: Adobe Illustrator 22.1.0, SVG Export Plug-In . SVG Version: 6.00 Build 0)  -->
<svg version="1.1" id="eps" xmlns="http://www.w3.org/2000/svg" xmlns:xlink="http://www.w3.org/1999/xlink" x="0px" y="0px"
	 viewBox="0 0 60 60" style="enable-background:new 0 0 60 60;" xml:space="preserve">
<path d="M56.5,40.5h-1V30c0-11.6-8.4-21.5-20.1-24C35,3.5,32.7,1.5,30,1.5s-5,2-5.4,4.6C12.9,8.4,4.5,18.4,4.5,30v10.5h-1
	c-1.1,0-2,0.9-2,2v8c0,1.1,0.9,2,2,2h19.1c0.7,3.4,3.7,6,7.4,6s6.7-2.6,7.3-6h19.2c1.1,0,2-0.9,2-2v-8
	C58.5,41.4,57.6,40.5,56.5,40.5z"/>
</svg>
