<?xml version="1.0" encoding="utf-8"?>
<!-- Generator: Adobe Illustrator 21.1.0, SVG Export Plug-In . SVG Version: 6.00 Build 0)  -->
<svg version="1.1" id="eps" xmlns="http://www.w3.org/2000/svg" xmlns:xlink="http://www.w3.org/1999/xlink" x="0px" y="0px"
	 viewBox="0 0 60 60" style="enable-background:new 0 0 60 60;" xml:space="preserve">
<path d="M56.5,40.5h-1V30c0-11.65-8.38-21.55-20.08-23.95C34.97,3.47,32.71,1.5,30,1.5s-4.97,1.97-5.42,4.55
	C12.88,8.45,4.5,18.35,4.5,30v10.5h-1c-1.1,0-2,0.9-2,2v8c0,1.1,0.9,2,2,2h19.15c0.7,3.42,3.73,6,7.35,6s6.65-2.58,7.35-6H56.5
	c1.1,0,2-0.9,2-2v-8C58.5,41.4,57.6,40.5,56.5,40.5z M30,55.5c-1.95,0-3.6-1.26-4.22-3h8.45C33.6,54.24,31.95,55.5,30,55.5z
	 M55.5,49.5h-51v-6h1c1.1,0,2-0.9,2-2V30c0-10.41,7.67-19.24,18.26-21.12c0.01,0,0.03,0,0.06-0.01c0.95-0.12,1.66-0.91,1.68-1.86V7
	c0-1.38,1.12-2.5,2.5-2.5s2.5,1.12,2.5,2.5v0.06c0.04,0.9,0.7,1.65,1.59,1.79c0.01,0,0.01,0,0.01,0C44.78,10.71,52.5,19.56,52.5,30
	v11.5c0,1.1,0.9,2,2,2h1V49.5z"/>
</svg>
