<?xml version="1.0" encoding="utf-8"?>
<!-- Generator: Adobe Illustrator 21.1.0, SVG Export Plug-In . SVG Version: 6.00 Build 0)  -->
<svg version="1.1" id="eps" xmlns="http://www.w3.org/2000/svg" xmlns:xlink="http://www.w3.org/1999/xlink" x="0px" y="0px"
	 viewBox="0 0 60 60" style="enable-background:new 0 0 60 60;" xml:space="preserve">
<path d="M47.5,1.5H40H30h-8c-6.34,0-11.5,5.16-11.5,11.5v11v3v28.93c0,1.7,1.98,2.62,3.28,1.54l16.23-13.52l16.21,13.52
	c1.3,1.09,3.28,0.16,3.28-1.54V3.5C49.5,2.4,48.6,1.5,47.5,1.5z M46.5,53.8L31.29,41.12c-0.74-0.62-1.82-0.62-2.56,0L13.5,53.8V27
	v-3V13c0-4.69,3.81-8.5,8.5-8.5h8h10h6.5V53.8z"/>
</svg>
