<?xml version="1.0" encoding="utf-8"?>
<!-- Generator: Adobe Illustrator 21.1.0, SVG Export Plug-In . SVG Version: 6.00 Build 0)  -->
<svg version="1.1" id="eps" xmlns="http://www.w3.org/2000/svg" xmlns:xlink="http://www.w3.org/1999/xlink" x="0px" y="0px"
	 viewBox="0 0 60 60" style="enable-background:new 0 0 60 60;" xml:space="preserve">
<path d="M52.35,5.45c-3.54-3.08-7.96-4.43-12.44-3.8L39.8,1.67c-0.35,0.05-0.7,0.12-1.04,0.19C35.4,2.59,32.29,4.58,30,7.41
	c-2.29-2.83-5.4-4.83-8.75-5.56c-0.35-0.08-0.69-0.14-1.04-0.19l-0.12-0.02c-4.48-0.63-8.9,0.72-12.44,3.8
	C3.74,8.85,1.5,13.91,1.5,19.33v0.62c0,5.28,1.92,10.27,5.39,14.06l21.63,23.6c0.79,0.86,2.16,0.86,2.95,0l21.63-23.6
	c3.48-3.79,5.4-8.78,5.4-14.06v-0.62C58.5,13.91,56.26,8.85,52.35,5.45z M55.5,19.96c0,4.53-1.63,8.8-4.61,12.03L30,54.78L9.1,31.99
	c-2.97-3.23-4.6-7.5-4.6-12.03v-0.62c0-4.55,1.87-8.79,5.12-11.62c2.41-2.1,5.31-3.21,8.36-3.21c0.59,0,1.19,0.04,1.78,0.13
	c0.28,0.04,0.57,0.09,0.85,0.16c3.13,0.68,6.02,2.76,7.93,5.71l0,0c0.69,1.06,2.24,1.06,2.93,0c1.91-2.95,4.79-5.03,7.93-5.71
	c0.28-0.06,0.56-0.11,0.94-0.17c3.6-0.51,7.18,0.59,10.05,3.09c3.25,2.83,5.12,7.06,5.12,11.62L55.5,19.96L55.5,19.96z"/>
</svg>
