<?xml version="1.0" encoding="utf-8"?>
<!-- Generator: Adobe Illustrator 22.1.0, SVG Export Plug-In . SVG Version: 6.00 Build 0)  -->
<svg version="1.1" id="eps" xmlns="http://www.w3.org/2000/svg" xmlns:xlink="http://www.w3.org/1999/xlink" x="0px" y="0px"
	 viewBox="0 0 60 60" style="enable-background:new 0 0 60 60;" xml:space="preserve">
<path d="M52.3,5.4c-3.5-3.1-8-4.4-12.4-3.8l-0.1,0c-0.3,0-0.7,0.1-1,0.2c-3.4,0.7-6.5,2.7-8.8,5.6c-2.3-2.8-5.4-4.8-8.8-5.6
	c-0.4-0.1-0.7-0.1-1-0.2l-0.1,0C15.6,1,11.2,2.4,7.6,5.4c-3.9,3.4-6.1,8.5-6.1,13.9V20c0,5.3,1.9,10.3,5.4,14.1l21.6,23.6
	c0.8,0.9,2.2,0.9,3,0L53.1,34c3.5-3.8,5.4-8.8,5.4-14.1v-0.6C58.5,13.9,56.3,8.9,52.3,5.4z"/>
</svg>
