<?xml version="1.0" encoding="utf-8"?>
<!-- Generator: Adobe Illustrator 21.1.0, SVG Export Plug-In . SVG Version: 6.00 Build 0)  -->
<svg version="1.1" id="EPS" xmlns="http://www.w3.org/2000/svg" xmlns:xlink="http://www.w3.org/1999/xlink" x="0px" y="0px"
	 viewBox="0 0 60 60" style="enable-background:new 0 0 60 60;" xml:space="preserve">
<path d="M55.53,21.1l-17.91-0.2L31.89,3.92c-0.61-1.81-3.18-1.81-3.79,0L22.38,20.9L4.46,21.1c-1.91,0.02-2.71,2.46-1.17,3.6
	l14.38,10.7l-5.34,17.1c-0.57,1.83,1.5,3.34,3.07,2.23L30,44.36l14.61,10.37c1.56,1.11,3.64-0.4,3.07-2.23l-5.34-17.1L56.7,24.7
	C58.24,23.56,57.45,21.12,55.53,21.1z M39.97,33.41c-0.68,0.51-0.97,1.39-0.72,2.2l4.67,14.95L31.16,41.5
	c-0.69-0.49-1.62-0.49-2.31,0l-12.77,9.06l4.67-14.95c0.25-0.81-0.03-1.69-0.72-2.2L7.46,24.07l15.66-0.18
	c0.85-0.01,1.6-0.56,1.87-1.36L30,7.69l5.01,14.84c0.27,0.81,1.02,1.35,1.87,1.36l15.66,0.18L39.97,33.41z"/>
</svg>
