<?xml version="1.0" encoding="utf-8"?>
<!-- Generator: Adobe Illustrator 21.1.0, SVG Export Plug-In . SVG Version: 6.00 Build 0)  -->
<svg version="1.1" id="EPS_neu_2" xmlns="http://www.w3.org/2000/svg" xmlns:xlink="http://www.w3.org/1999/xlink" x="0px" y="0px"
	 viewBox="0 0 60 60" style="enable-background:new 0 0 60 60;" xml:space="preserve">
<path d="M50.53,26.3c-0.52-0.51-1.13-0.94-1.83-1.3c0.47-0.29,0.9-0.62,1.29-1c1.19-1.16,1.83-2.66,1.83-4.33
	c0-3.01-1.98-4.83-4.37-5.87c1.87-1.2,3.25-2.97,3.25-5.26c0-4.55-5.49-7.06-9.29-7.06c-3.55,0-14.51,0.72-23.07,1.32
	c-6,0.42-10.69,5.46-10.69,11.47v14.29c0,3.38,2.02,5.11,2.89,5.69c0.59,0.4,1.64,0.89,3.22,1.62c1.85,0.86,4.39,2.04,7.41,3.65
	c3.33,1.77,3.49,5.32,3.65,8.76c0.06,1.21,0.11,2.35,0.3,3.38c0.6,3.24,3.01,6.75,6.88,6.81c0.02,0,0.05,0,0.08,0
	c4.01,0,6.21-4.46,6.25-7.71c0.02-1.24,0.09-9.49,0.12-12.92c1.66,0,4.3,0.01,5.76,0c3.98-0.04,8.12-2.68,8.16-7.05
	C52.38,29.05,51.74,27.49,50.53,26.3z M44.17,34.85c-2.22,0.02-7.21,0-7.21,0l0,0c-0.83,0-1.5,0.66-1.51,1.49l0,0
	c0,0-0.12,12.82-0.14,14.39c-0.02,1.71-1.13,4.75-3.25,4.75c-0.01,0-0.02,0-0.03,0c-2.33-0.03-3.65-2.62-3.98-4.36
	c-0.15-0.83-0.2-1.87-0.25-2.97c-0.17-3.67-0.4-8.69-5.24-11.27c-3.09-1.64-5.67-2.84-7.55-3.72c-1.3-0.6-2.42-1.12-2.81-1.39
	c-0.47-0.32-1.56-1.26-1.56-3.21V14.27c0-4.46,3.44-8.16,7.89-8.48c8.52-0.6,19.4-1.32,22.87-1.32c2.83,0,6.29,1.87,6.29,4.06
	c0,1.61-1.88,3.05-3.99,3.7c-0.14,0.04-0.28,0.08-0.43,0.12c-1.12,0.28-1.87,1.33-1.87,2.49v0.27c0,0.27,0.2,0.48,0.47,0.5
	c2.21,0.11,6.93,0.97,6.93,4.05c0,0.87-0.3,1.58-0.92,2.18c-0.95,0.92-2.53,1.48-4.12,1.73c-0.03,0-0.08,0.01-0.13,0.02
	c-1.29,0.13-2.27,1.2-2.27,2.49v0.14c0,0.28,0.22,0.5,0.5,0.5c0.44,0,1.02,0,1.13,0.01c2.5,0.11,4.4,0.7,5.44,1.71
	c0.64,0.62,0.94,1.39,0.93,2.33C49.34,33.3,46.7,34.83,44.17,34.85z"/>
</svg>
