<?xml version="1.0" encoding="utf-8"?>
<!-- Generator: Adobe Illustrator 22.1.0, SVG Export Plug-In . SVG Version: 6.00 Build 0)  -->
<svg version="1.1" id="EPS_neu_2" xmlns="http://www.w3.org/2000/svg" xmlns:xlink="http://www.w3.org/1999/xlink" x="0px" y="0px"
	 viewBox="0 0 60 60" style="enable-background:new 0 0 60 60;" xml:space="preserve">
<path d="M50.5,26.3c-0.5-0.5-1.1-0.9-1.8-1.3c0.5-0.3,0.9-0.6,1.3-1c1.2-1.2,1.8-2.7,1.8-4.3c0-3-2-4.8-4.4-5.9
	c1.9-1.2,3.2-3,3.2-5.3c0-4.6-5.5-7.1-9.3-7.1c-3.5,0-14.5,0.7-23.1,1.3c-6,0.4-10.7,5.5-10.7,11.5v14.3c0,3.4,2,5.1,2.9,5.7
	c0.6,0.4,1.6,0.9,3.2,1.6c1.9,0.9,4.4,2,7.4,3.7c3.3,1.8,3.5,5.3,3.6,8.8c0.1,1.2,0.1,2.3,0.3,3.4c0.6,3.2,3,6.8,6.9,6.8
	c0,0,0,0,0.1,0c4,0,6.2-4.5,6.2-7.7c0-1.2,0.1-9.5,0.1-12.9c1.7,0,4.3,0,5.8,0c4,0,8.1-2.7,8.2-7C52.4,29,51.7,27.5,50.5,26.3z"/>
</svg>
