<?xml version="1.0" encoding="utf-8"?>
<!-- Generator: Adobe Illustrator 22.1.0, SVG Export Plug-In . SVG Version: 6.00 Build 0)  -->
<svg version="1.1" id="EPS_neu_2" xmlns="http://www.w3.org/2000/svg" xmlns:xlink="http://www.w3.org/1999/xlink" x="0px" y="0px"
	 viewBox="0 0 60 60" style="enable-background:new 0 0 60 60;" xml:space="preserve">
<path d="M51.8,40.3c0-1.7-0.6-3.2-1.8-4.3c-0.4-0.4-0.8-0.7-1.3-1c0.7-0.4,1.3-0.8,1.8-1.3c1.2-1.2,1.8-2.8,1.8-4.5
	c0-4.4-4.2-7-8.2-7.1c-1.5,0-4.1,0-5.8,0c0-3.4-0.1-11.7-0.1-12.9c0-3.2-2.2-7.7-6.2-7.7c0,0,0,0-0.1,0c-3.9,0-6.3,3.6-6.9,6.8
	c-0.2,1-0.2,2.2-0.3,3.4c-0.2,3.4-0.3,7-3.6,8.8c-3,1.6-5.6,2.8-7.4,3.6c-1.6,0.7-2.6,1.2-3.2,1.6c-0.9,0.6-2.9,2.3-2.9,5.7v14.3
	c0,6,4.7,11,10.7,11.5c8.6,0.6,19.5,1.3,23.1,1.3c3.8,0,9.3-2.5,9.3-7.1c0-2.3-1.4-4.1-3.2-5.3C49.8,45.1,51.8,43.3,51.8,40.3z"/>
</svg>
