<?xml version="1.0" encoding="utf-8"?>
<!-- Generator: Adobe Illustrator 22.1.0, SVG Export Plug-In . SVG Version: 6.00 Build 0)  -->
<svg version="1.1" id="Ebene_1" xmlns="http://www.w3.org/2000/svg" xmlns:xlink="http://www.w3.org/1999/xlink" x="0px" y="0px"
	 viewBox="0 0 60 60" style="enable-background:new 0 0 60 60;" xml:space="preserve">
<path d="M58.8,27.7c-1.4-1.4-15.1-3.1-15.1-3.1S32.6,15,30.4,15s-19.6,0-21.7,0c-2.2,0-8.2,10.7-8.2,13.2S1.2,40.1,3,40.1
	c0.4,0,2.9,0,6.6,0c0.4,2.8,2.8,4.9,5.7,4.9s5.3-2.2,5.7-4.9c5.8,0,12.2,0,18.1,0c0.4,2.8,2.8,4.9,5.7,4.9s5.3-2.2,5.7-4.9
	c4.3,0,7.2,0,7.5,0C59.2,40.1,60.2,29.1,58.8,27.7z M15.3,42.1c-1.5,0-2.8-1.3-2.8-2.8s1.3-2.8,2.8-2.8s2.8,1.3,2.8,2.8
	C18,40.8,16.7,42.1,15.3,42.1z M44.7,42.1c-1.5,0-2.8-1.3-2.8-2.8s1.3-2.8,2.8-2.8s2.8,1.3,2.8,2.8C47.4,40.8,46.1,42.1,44.7,42.1z
	 M56.1,37H50c-0.9-2.1-3-3.5-5.3-3.5c-2.4,0-4.4,1.5-5.3,3.5H20.6c-0.9-2.1-3-3.5-5.3-3.5S10.8,35,9.9,37H4.4c-0.6-2.1-1-6.4-1-8.9
	c0.3-1.8,4-8.7,5.9-10.2h20.8c1.7,0.7,7.3,5,11.6,8.8l0.7,0.6l0.9,0.1c5,0.6,11,1.7,13.2,2.4C56.7,31.4,56.5,35.1,56.1,37z"/>
</svg>
