<?xml version="1.0" encoding="utf-8"?>
<!-- Generator: Adobe Illustrator 20.1.0, SVG Export Plug-In . SVG Version: 6.00 Build 0)  -->
<svg version="1.1" id="Ebene_1" xmlns="http://www.w3.org/2000/svg" xmlns:xlink="http://www.w3.org/1999/xlink" x="0px" y="0px"
	 viewBox="0 0 60 60" style="enable-background:new 0 0 60 60;" xml:space="preserve">
<path d="M40.8,21.7l-11-18L18.9,1l6.6,21.3l-13,2.3L7,18.4l-6.7,0.4L3.6,30L0.4,41.2l6.7,0.4l5.5-6.2l14,2.3L18.9,59l11-2.8l11-18
	c4.5-0.3,18.8-1.7,18.8-8.3C59.6,23.3,45.4,22,40.8,21.7z M39.9,35.2l-0.8,0L28,53.6l-4.4,1.1l7-19.4l-19.2-3.2l-5.6,6.4l-1.5-0.1
	l2.3-8l0.1-0.2v-0.4l-2.4-8.2l1.5-0.1l5.6,6.4l18.1-3.2l-6-19.4l4.5,1.1l11.2,18.3l0.8,0c7,0.3,16.7,2.3,16.7,5.3
	C56.6,32.9,46.9,34.9,39.9,35.2z"/>
</svg>
