<?xml version="1.0" encoding="utf-8"?>
<!-- Generator: Adobe Illustrator 24.2.1, SVG Export Plug-In . SVG Version: 6.00 Build 0)  -->
<svg version="1.1" xmlns="http://www.w3.org/2000/svg" xmlns:xlink="http://www.w3.org/1999/xlink" x="0px" y="0px"
	 viewBox="0 0 110 88" style="enable-background:new 0 0 110 88;" xml:space="preserve">
<style type="text/css">
	.st0{fill:#FFFFFF;}
	.st1{fill:#AFAFAF;}
	.st2{fill:#0050AA;}
	.st3{fill:#E41219;}
	.st4{fill:#FFF000;}
	.st5{fill:#00549B;}
</style>
<g id="Hintergrund">
	<rect y="0" class="st0" width="110" height="88"/>
</g>
<g id="Schwarz_1_">
	<g>
		<g>
			<g>
				<rect x="11" y="25.5749512" class="st1" width="88" height="1.9250488"/>
			</g>
		</g>
		<g>
			<polygon class="st1" points="54.0934753,23.1574764 55.3719406,15.7511358 55.4062729,15.7511358 56.7166939,23.1574764 
				60.3601532,23.1574764 63.7659607,11.0001116 60.0714417,11.0001116 58.555603,18.6108418 58.5206566,18.6108418 
				57.089901,11.0001116 53.7877388,11.0001116 52.3238411,18.5091839 52.2900848,18.5091839 50.8085785,11.0001116 
				47.1310921,11.0001116 50.4341736,23.1574764 			"/>
			<path class="st1" d="M65.6887665,23.1574764l0.5449142-1.7373772h3.8649979l0.5120468,1.7373772h3.8814163l-4.4272156-12.1573648
				h-3.6610718l-4.4785461,12.1573648H65.6887665z M68.2263184,15.0694971h0.0328674l1.0906525,3.746459h-2.2986755
				L68.2263184,15.0694971z"/>
			<path class="st1" d="M79.3105469,18.9182281h1.9923553c1.4827042,0,1.5845184,1.208147,1.6854324,2.3657265
				c0.0522537,0.6305809,0.1209183,1.260704,0.3075485,1.8735218h3.7461548
				c-0.3400726-0.5620651-0.3582916-2.0089321-0.408432-2.6054859c-0.1367569-1.5149536-0.7670364-2.6390533-1.78936-3.0303345
				c1.2441635-0.4596443,1.823082-1.7881346,1.823082-3.0484066c0-2.2975168-1.8395004-3.4731379-3.9668121-3.4731379h-7.1346283
				v12.1573648h3.7446594V18.9182281z M79.3105469,13.8955002h1.7556c1.4286728,0,1.8547134,0.4419107,1.8547134,1.2087898
				c0,1.089613-0.9542313,1.208147-1.6510925,1.208147h-1.9592209V13.8955002z"/>
			<polygon class="st1" points="93.0223312,20.0409832 98.7268219,13.7245932 98.7268219,11.0001116 88.4610519,11.0001116 
				88.4610519,14.1166086 93.7893677,14.1166086 88.1374054,20.2286453 88.1374054,23.1574764 99,23.1574764 99,20.0409832 			"/>
			<path class="st1" d="M16.6698799,20.7563763c-0.6980581,0-1.5152607-0.1530209-1.787549-0.8852596
				c-0.0850859-0.2218418-0.1361437-0.4935493-0.1361437-0.8004837H11c0.0340576,3.8823051,3.9671116,4.3760052,5.3459206,4.3760052
				c2.7080288,0,5.6187916-1.0212479,5.6187916-4.1884918c0-2.2295818-1.7021561-3.0309486-3.4219227-3.5070105
				c-1.7200413-0.4777126-3.4562273-0.6641817-3.5246201-1.532259c0-0.6809053,0.8342018-0.8176308,1.3453636-0.8176308
				c0.374403,0,0.8001709,0.0847807,1.1062145,0.3067722c0.3069286,0.2042055,0.5111599,0.5108585,0.4433784,0.9701967h3.5413437
				c-0.1024227-2.9628601-2.4348545-3.9672651-5.0739079-3.9672651c-2.5029116,0-4.9040422,1.2087593-4.9040422,4.0181704
				c0,2.4518528,2.1965933,2.9794312,4.1211729,3.5246201c2.0938969,0.5962467,2.6214752,0.7666035,2.6214752,1.3955345
				C18.2191677,20.5519905,17.2831249,20.7563763,16.6698799,20.7563763z"/>
			<polygon class="st1" points="38.9980202,18.3390465 42.5064278,18.3390465 42.5064278,23.1575871 46.252224,23.1575871 
				46.252224,11.0001116 42.5064278,11.0001116 42.5064278,15.2227087 38.9980202,15.2227087 38.9980202,11.0001116 
				35.252224,11.0001116 35.252224,23.1575871 38.9980202,23.1575871 			"/>
			<path class="st1" d="M28.6897202,23.4466381c3.5589561,0,5.5504303-2.6051788,5.5504303-5.056879h-3.6771832
				c-0.2215366,1.1415615-0.7150879,2.0266991-1.9756393,2.0266991c-1.7532139,0-2.3157387-1.7033482-2.3157387-3.3371429
				c0-1.6349554,0.5625248-3.3372641,2.3157387-3.3372641c1.5498695,0,1.8905525,1.344903,1.9580288,1.7872391h3.643734
				c-0.3233452-3.0476685-2.161953-4.8016167-5.4993706-4.8183403c-3.7452698,0-6.1636753,2.5368166-6.1636753,6.3683653
				C22.5260448,20.6714115,24.7566662,23.4466381,28.6897202,23.4466381z"/>
		</g>
	</g>
</g>
<g id="Lidl_Kaufland">
	<g>
		<polygon class="st2" points="11,38.4999847 49.5,38.4999847 49.5,76.9999771 11,76.9999771 11,38.4999847 		"/>
		<path class="st3" d="M30.2482452,39.5186043c-10.0635529,0-18.2296162,8.1660652-18.2296162,18.2364616
			c0,10.0636292,8.1660633,18.2262268,18.2296162,18.2262268c10.0636292,0,18.2296829-8.1625977,18.2296829-18.2262268
			C48.4779282,47.6846695,40.3118744,39.5186043,30.2482452,39.5186043L30.2482452,39.5186043z"/>
		<path class="st4" d="M30.2482452,40.6735115c-9.429924,0-17.0747128,7.648243-17.0747128,17.0815544
			c0,9.4231567,7.6481743,17.0713348,17.0747128,17.0713348c9.4266129,0,17.074791-7.6481781,17.074791-17.0713348
			C47.3230362,48.3217545,39.6748581,40.6735115,30.2482452,40.6735115L30.2482452,40.6735115L30.2482452,40.6735115z"/>
		<polygon class="st5" points="37.7533798,54.5799484 37.7533798,55.7382927 38.6527901,55.7382927 38.6527901,59.7616844 
			37.7533798,59.7616844 37.7533798,60.9267998 45.3437157,60.9267998 45.3437157,57.7550659 42.2298927,59.4857445 
			42.2298927,55.7382927 43.1292992,55.7382927 43.1292992,54.5799484 37.7533798,54.5799484 		"/>
		<path class="st5" d="M34.0434532,58.9474106H33.787899V56.552494h0.2146416
			C35.1233635,56.5491066,35.1233635,58.9508705,34.0434532,58.9474106L34.0434532,58.9474106z M34.7622871,54.5799484h-5.1204395
			v1.1583443h0.8960209v4.0233917h-0.8960209v1.1651154h5.1204395
			C38.5471954,60.9267998,38.5846481,54.5799484,34.7622871,54.5799484L34.7622871,54.5799484z"/>
		<polygon class="st3" points="29.1887913,58.2285805 26.1737881,55.2170296 22.6988888,58.6953163 22.6988888,59.8638916 
			23.5743866,58.9849358 26.0000572,61.4173813 25.1040344,62.309948 25.686594,62.8958931 30.5378685,58.0378456 
			30.5378685,56.8727303 29.1887913,58.2285805 		"/>
		<path class="st3" d="M25.7308903,50.9721565c1.0560703,0,1.9111824,0.8517227,1.9111824,1.907795
			c0,1.0561371-0.8551121,1.9112511-1.9111824,1.9112511c-1.0560684,0-1.9111805-0.855114-1.9111805-1.9112511
			C23.8197098,51.8204956,24.6748219,50.9721565,25.7308903,50.9721565L25.7308903,50.9721565L25.7308903,50.9721565z"/>
		<polygon class="st5" points="15.1153831,54.5799484 20.4844704,54.5799484 20.4844704,55.7382927 19.5884514,55.7382927 
			19.5884514,59.4857445 22.6988888,57.7550659 22.6988888,60.9267998 15.1153831,60.9267998 15.1153831,59.7616844 
			16.0147705,59.7616844 16.0147705,55.7382927 15.1153831,55.7382927 15.1153831,54.5799484 		"/>
	</g>
	<g>
		<path class="st3" d="M97.4121552,75.4121475h-35.324337V40.0878334h35.324337V75.4121475L97.4121552,75.4121475z M60.5,38.4999847
			v38.5000076H99V38.4999847H60.5L60.5,38.4999847z"/>
		<polygon class="st3" points="79.661087,53.6077385 72.6203918,53.6077385 72.6203918,60.6484299 79.661087,60.6484299 
			79.661087,53.6077385 		"/>
		<polygon class="st3" points="80.7197952,53.6039162 80.7197952,60.6484299 87.7642365,60.6484299 80.7197952,53.6039162 		"/>
		<polygon class="st3" points="79.661087,45.5084839 72.6203918,45.5084839 72.6203918,52.5491753 79.661087,52.5491753 
			79.661087,45.5084839 		"/>
		<polygon class="st3" points="80.7197952,45.5084839 80.7197952,52.5529976 87.7642365,45.5084839 80.7197952,45.5084839 		"/>
		<polygon class="st3" points="69.3176041,64.8108597 68.0188065,64.8108597 66.3405457,67.1530838 66.3405457,64.8108597 
			65.1949997,64.8108597 65.1949997,69.9185028 66.3405457,69.9185028 66.3405457,67.6200256 68.0188065,69.9185028 
			69.3467865,69.9185028 67.3766861,67.3063507 69.3176041,64.8108597 		"/>
		<path class="st3" d="M75.9340591,68.7510681c-0.1312866,0.1678238-0.3647614,0.386673-0.7296677,0.386673
			c-0.4159317,0-0.6639557-0.2699356-0.6639557-0.7150497v-1.9044495h-0.9996796v2.1014633
			c0,0.8026657,0.4596634,1.3717957,1.306076,1.3717957c0.5618439,0,0.9121246-0.2918472,1.0872269-0.4816513v0.4086533h0.985054
			v-3.4002609h-0.985054V68.7510681L75.9340591,68.7510681z"/>
		<path class="st3" d="M84.9994049,68.8312683c-0.1386414,0.1532669-0.3721161,0.3210983-0.7223969,0.3210983
			c-0.5253143,0-0.8974991-0.3793945-0.8974991-0.93396c0-0.5545731,0.3721848-0.93396,0.8974991-0.93396
			c0.3502808,0,0.5837555,0.1678238,0.7223969,0.321022V68.8312683L84.9994049,68.8312683z M84.9994049,66.8757935
			c-0.2042847-0.1970062-0.5545731-0.430481-1.0434265-0.430481c-0.9485855,0-1.6051865,0.7880402-1.6051865,1.7876511
			c0,0.9850464,0.6493225,1.7585373,1.6051865,1.7585373c0.5181122,0,0.8610458-0.2408218,1.0434265-0.4232025v0.3500595h0.9850464
			v-3.400116h-0.9850464V66.8757935L84.9994049,66.8757935z"/>
		<path class="st3" d="M71.8515396,68.8312683c-0.1387177,0.1532669-0.3721161,0.3210983-0.7224731,0.3210983
			c-0.5253067,0-0.8974228-0.3793945-0.8974228-0.93396c0-0.5545731,0.3721161-0.93396,0.8974228-0.93396
			c0.3503571,0,0.5837555,0.1678238,0.7224731,0.321022V68.8312683L71.8515396,68.8312683z M71.8515396,66.8757935
			c-0.204361-0.1970062-0.5545731-0.430481-1.0434189-0.430481c-0.9485931,0-1.6052704,0.7880402-1.6052704,1.7876511
			c0,0.9850464,0.6493988,1.7585373,1.6052704,1.7585373c0.5180283,0,0.8609619-0.2408218,1.0434189-0.4232025v0.3500595h0.9849777
			v-3.400116h-0.9849777V66.8757935L71.8515396,66.8757935z"/>
		<path class="st3" d="M93.319931,68.787529c-0.1313705,0.1678238-0.3793945,0.3648376-0.7588577,0.3648376
			c-0.525383,0-0.8974991-0.3793945-0.8974991-0.93396c0-0.5545731,0.3721161-0.93396,0.8974991-0.93396
			c0.3794632,0,0.6274872,0.1970062,0.7588577,0.3647614V68.787529L93.319931,68.787529z M93.319931,64.8108597v2.0941238
			c-0.1751099-0.1823883-0.5326691-0.459671-1.0798874-0.459671c-0.955864,0-1.6053391,0.7880402-1.6053391,1.7876511
			c0,0.9996719,0.664032,1.7585373,1.6053391,1.7585373c0.5472183,0,0.9047775-0.2700119,1.0798874-0.4597397v0.3867416h0.9850464
			v-5.1076431H93.319931L93.319931,64.8108597z"/>
		<path class="st3" d="M88.7786942,66.4453125c-0.5545654,0-0.9122009,0.2918396-1.0799561,0.481575v-0.4086456h-0.9923325
			v3.4002609h0.9923325v-2.2327576c0.1240921-0.1751785,0.3575592-0.386673,0.729744-0.386673
			c0.4158554,0,0.6566086,0.2699356,0.6566086,0.7149734v1.9044571h0.9996796v-2.1014709
			C90.0847702,67.0145111,89.6250992,66.4453125,88.7786942,66.4453125L88.7786942,66.4453125z"/>
		<path class="st3" d="M79.5381775,65.562439c0.3356476,0,0.5326614,0.1459274,0.5326614,0.1459274l0.1605453-0.7588577
			c0,0-0.2700043-0.2116394-0.9121246-0.2116394c-0.8317795,0-1.3498917,0.4815674-1.3498917,1.3790665v0.4013062h-0.5034027
			v0.8172913h0.5034027v2.5829697h1.0142365v-2.5829697h1.1528778v-0.8172913h-1.1528778v-0.3137512
			C78.9836044,65.7740097,79.1806183,65.562439,79.5381775,65.562439L79.5381775,65.562439z"/>
		<polygon class="st3" points="80.709137,69.9185028 81.7233734,69.9185028 81.7233734,64.8108597 80.709137,64.8108597 
			80.709137,69.9185028 		"/>
	</g>
</g>
</svg>
