<?xml version="1.0" encoding="utf-8"?>
<!-- Generator: Adobe Illustrator 21.1.0, SVG Export Plug-In . SVG Version: 6.00 Build 0)  -->
<svg version="1.1" id="eps" xmlns="http://www.w3.org/2000/svg" xmlns:xlink="http://www.w3.org/1999/xlink" x="0px" y="0px"
	 viewBox="0 0 60 60" style="enable-background:new 0 0 60 60;" xml:space="preserve">
<g>
	<path d="M57.69,20.79c-0.96-0.73-3.9-3.31-4.35-3.71c-0.44-0.49-1.11-1.44-1.74-2.41l0.06-0.02c0,0,0.66-1,0.97-2.59
		c0.17-0.86,0.06-1.72-0.09-2.32c-0.09-0.38-0.57-0.52-0.84-0.24c-0.31,0.32-0.71,0.71-1.09,1.03c-0.46,0.39-0.93,0.66-1.24,0.82
		l-0.89,0.17c-0.13,0.03-3.28,0.65-5.03,1.21c-0.39,0.12-0.98,0.32-1.68,0.57c-2.25,0.77-6.02,2.06-8.03,2.42
		c-2.54,0.46-9.82,0.72-12.79,0.17l-1.15-0.22c-2.9-0.56-5.89-1.14-8.31-0.5c-1.53,0.4-3.11,1.18-4.27,2.25
		c-0.31-0.01-0.67-0.01-1.13,0c-2.51,0.07-4.56,2.53-4.67,5.6C1.36,24.9,1.41,34.06,1.44,38.55c0.01,1.36,1.13,2.46,2.49,2.45h0.03
		c0.27,0,0.49-0.22,0.49-0.49c-0.02-2.65-0.11-15.23-0.04-17.38c0.04-1.21,0.56-2.03,1.09-2.43c-0.17,1.25-0.45,4.09,0.03,6.2
		c0.32,1.41,0.68,3.53,0.78,4.12l-0.38,7.96l0.02,3.97l0.93,5.84c0.15,0.97,0.98,1.68,1.96,1.68l5.31,0.04
		c1.25,0.01,2.2-1.12,1.98-2.35l-0.96-5.38l-0.01-0.92c0.87,0.42,1.84,0.65,2.82,0.65c2.37,0,4.5-1.31,5.63-3.28
		c0.53,0.2,1.08,0.37,1.64,0.51c2.85,0.71,5.87,0.68,8.09-0.08c0.48-0.17,0.94-0.32,1.36-0.47l-0.53,3.66l0.79,5.89
		c0.13,0.99,0.98,1.73,1.98,1.73h5.29c1.26,0,2.21-1.15,1.96-2.39l-1.05-5.29l0.89-5.55c0.46-1.3,1.15-2.68,1.46-2.95
		c1.05-0.7,2.92-2.26,3.65-4.83c0.28-1,0.61-2.09,0.86-2.93c1.2,0.34,2.81,0.78,3.42,0.91c1.9,0.41,4.17-2.45,4.71-3.6
		C59.02,22,58.01,21.04,57.69,20.79z M18,39.5c-1.08,0-2.06-0.49-2.73-1.32c0.14-0.72,0.35-1.38,0.53-1.56
		c0.45-0.39,1.22-0.82,2.65,0l0.18,0.1c0.71,0.41,1.46,0.84,2.24,1.25C20.24,38.9,19.18,39.5,18,39.5z M53.79,24.43
		c-1.03-0.26-3.42-0.93-4.35-1.19l0,0c-0.78-0.22-1.6,0.22-1.84,1c0,0-0.75,2.39-1.31,4.4c-0.48,1.71-1.86,2.77-2.43,3.15
		c-1.28,0.85-2.3,3.49-2.67,4.59l-1.06,6.46l0.91,4.62h-3.2l-0.62-4.6l0.84-5.74c0.17-1.14-0.96-2.03-2.03-1.61
		c-0.02,0.01-1.6,0.62-3.63,1.31c-1.65,0.56-4.17,0.56-6.41,0.01c-2.07-0.51-3.99-1.62-5.86-2.69l-0.18-0.1
		c-2.19-1.26-4.42-1.14-6.12,0.34c-1.31,1.14-1.62,3.73-1.68,4.5l-0.01,0.07l0.04,4l0.79,4.56L9.7,47.49l-0.76-4.66l-0.02-3.77
		l0.4-8.2L9.29,30.7c-0.02-0.11-0.45-2.73-0.84-4.46c-0.34-1.47-0.17-3.86,0.06-5.47c0.13-0.85,1.58-2.12,3.71-2.68
		c1.76-0.46,4.42,0.05,6.99,0.55l1.17,0.22c3.42,0.64,11.06,0.35,13.87-0.17c2.23-0.41,5.98-1.69,8.46-2.53
		c0.68-0.23,1.25-0.43,1.63-0.55c1.01-0.32,2.63-0.69,3.68-0.91c0.8,1.28,2.23,3.52,3.15,4.5l0.1,0.1c0.12,0.11,2.67,2.35,4.06,3.48
		C55.02,23.32,54.26,24.14,53.79,24.43z"/>
	<ellipse cx="47.16" cy="18.56" rx="1.49" ry="1.52"/>
</g>
</svg>
