<?xml version="1.0" encoding="utf-8"?>
<!-- Generator: Adobe Illustrator 21.1.0, SVG Export Plug-In . SVG Version: 6.00 Build 0)  -->
<svg version="1.1" id="eps" xmlns="http://www.w3.org/2000/svg" xmlns:xlink="http://www.w3.org/1999/xlink" x="0px" y="0px"
	 viewBox="0 0 60 60" style="enable-background:new 0 0 60 60;" xml:space="preserve">
<g>
	<path d="M39.42,28.21c-0.27-0.82-1.04-1.38-1.91-1.38c-0.69,0-1.47,0-1.99,0c-1.38,0-2.5,1.11-2.51,2.49l0,0
		c0,0.28,0.22,0.5,0.5,0.5c1.06,0,2.36,0.01,3.28,0.01c0.3,0.97,0.5,1.81,0.5,2.65c-0.34,5.27-4.73,9.39-9.98,9.39
		c-4.03,0-7.63-2.45-9.19-6.04l1.49,0.02c1.38,0.02,2.51-1.09,2.53-2.47c0-0.28-0.22-0.5-0.49-0.51l-5.57-0.07
		c-0.96-0.01-1.69,0.87-1.49,1.81c1.28,5.94,6.62,10.25,12.71,10.25c6.83,0,12.53-5.36,12.98-12.29c0-1.4-0.32-2.64-0.72-3.91
		C39.55,28.6,39.49,28.43,39.42,28.21z"/>
	<ellipse cx="45.99" cy="12.38" rx="1.49" ry="1.52"/>
	<path d="M55.83,13.23c-0.52-1.25-2.44-2.35-4.17-2.4c-0.23-0.68-0.56-1.31-0.98-1.87l2.51-2.61c0.46-0.48,0.44-1.24-0.05-1.69
		L52.9,4.44c-2.74-2.54-6.61-3.56-10.4-2.58c-3.18,0.82-5.76,3.13-7.23,6.07c-0.29,0.59-0.05,1.3,0.53,1.59l2.87,1.43
		c-6.41,2.39-11.04,7.72-12.32,12.35c-4.97-3.36-9.93-6.78-11.02-7.65c-0.1-0.22-0.21-0.44-0.34-0.64
		c-1.01-1.65-2.76-2.63-4.69-2.63c-3.03,0-5.5,2.47-5.5,5.5c0,1.04,0.29,2.05,0.83,2.91C4.49,21.82,3.8,23.3,3.8,24.88
		c0,1.04,0.29,2.04,0.83,2.9c-1.15,1.02-1.83,2.5-1.83,4.1c0,3.13,2.67,5.65,5.79,5.49c2.05,6.99,7.92,12.22,14.96,13.62v4.53h-4.09
		c-0.28,0-0.5,0.22-0.5,0.5v2c0,0.28,0.22,0.5,0.5,0.5h17.06c0.28,0,0.5-0.22,0.5-0.5c0-1.38-1.12-2.5-2.5-2.5h-2.97v-4.63
		c8.35-1.86,14.74-9.07,15.22-17.99c0.05-2.9-0.69-5.18-1.28-7.01c-0.91-2.81-1.39-4.29,0.67-6.55c2.93-0.3,5.29-2.57,5.74-5.46
		h3.44C55.7,13.89,55.96,13.55,55.83,13.23z M45.36,4.49c1.53,0,3.01,0.43,4.29,1.22l-1.28,1.34c-0.87-0.43-1.84-0.68-2.87-0.68
		c-1.9,0-3.64,0.85-4.85,2.2L38.89,7.7C40.41,5.69,42.78,4.49,45.36,4.49z M28.56,55.52h-2v-4.18c0.25,0.01,0.5,0.03,0.75,0.03
		c0.42,0,0.83-0.03,1.25-0.06V55.52z M45.32,16.38h-0.44l-0.44,0.44c-3.8,3.8-2.78,6.95-1.79,10c0.58,1.79,1.18,3.64,1.13,5.97
		c-0.48,8.74-7.71,15.58-16.47,15.58c-7.65,0-14.37-5.36-16.08-12.79c-0.02-0.08-0.03-0.15-0.05-0.23l-0.03-0.1
		c-0.22-0.87-1.16-1.35-2-1.02c-0.47,0.17-0.99,0.19-1.5,0.06c-0.79-0.2-1.46-0.82-1.71-1.59c-0.42-1.31,0.22-2.62,1.38-3.12
		c-0.01,0-0.01,0-0.01,0c0.1-0.03,0.19-0.05,0.24-0.07l0.19-0.07c1.35-0.49,1.23-2.43-0.16-2.76c-0.49-0.47-0.77-1.12-0.77-1.81
		c0-1.03,0.64-1.97,1.57-2.32c1.2-0.35,1.47-1.92,0.46-2.65l0,0c-0.05-0.03-0.09-0.07-0.14-0.11c-0.57-0.48-0.9-1.18-0.9-1.92
		c0-1.38,1.12-2.5,2.5-2.5c0.88,0,1.67,0.45,2.13,1.2c0.09,0.14,0.16,0.29,0.22,0.45c0.21,0.57,0.32,0.88,14,10.09l0,0
		c1.01,0.68,2.36-0.06,2.34-1.28C28.91,22.06,33.44,15.47,41,13.3l0.88-0.25l0.15-0.72c0.3-1.5,1.48-2.74,2.99-2.94
		c2.26-0.3,4.18,1.58,3.95,3.83C48.8,15.05,47.15,16.38,45.32,16.38z"/>
</g>
</svg>
