<?xml version="1.0" encoding="utf-8"?>
<!-- Generator: Adobe Illustrator 21.1.0, SVG Export Plug-In . SVG Version: 6.00 Build 0)  -->
<svg version="1.1" id="EPS" xmlns="http://www.w3.org/2000/svg" xmlns:xlink="http://www.w3.org/1999/xlink" x="0px" y="0px"
	 viewBox="0 0 60 60" style="enable-background:new 0 0 60 60;" xml:space="preserve">
<g>
	<path d="M55.59,35.57c-0.19-0.64-0.77-1.07-1.44-1.07h-4.71c0.3-1.08,0.47-2.2,0.47-3.35c0-1.65-0.34-3.13-0.95-4.46
		c1.32-0.47,2.61-1.58,3.49-3.17c0.86-1.57,1.12-3.26,0.87-4.69c1.68-0.58,3.16-1.93,4.05-3.28c1.48-2.26,1.75-6.34-0.67-9.44
		c-3.85-4.94-9.86-4.62-10.11-4.6c-1.22,0.08-1.84,1.5-1.07,2.44l0,0c0.03,0.04,3,3.72,3.67,7.17c0.26,1.34,0.15,2.73,0.06,3.85
		c-0.02,0.21-0.03,0.43-0.05,0.67c-1.54,0.29-3.11,1.49-4.13,3.35c-0.44,0.8-0.71,1.63-0.85,2.44c-3.92-2.56-9.3-3.76-14.22-3.76
		s-10.29,1.21-14.22,3.76c-0.14-0.81-0.42-1.64-0.85-2.44c-1.01-1.85-2.59-3.05-4.13-3.35c-0.01-0.23-0.03-0.46-0.05-0.67
		c-0.09-1.12-0.2-2.5,0.06-3.85c0.67-3.45,3.64-7.14,3.67-7.17l0,0c0.77-0.95,0.15-2.37-1.07-2.44l0,0C13.16,1.5,7.15,1.17,3.3,6.11
		c-2.42,3.1-2.15,7.18-0.67,9.44c0.89,1.35,2.37,2.7,4.05,3.28c-0.25,1.43,0.01,3.12,0.87,4.69c0.87,1.59,2.16,2.71,3.49,3.17
		c-0.6,1.33-0.95,2.81-0.95,4.46c0,1.15,0.16,2.27,0.47,3.35H5.84c-0.66,0-1.25,0.44-1.44,1.07l-2.13,7.12
		c-0.4,1.32,0.36,2.71,1.68,3.11l0,0c0.26,0.08,0.54-0.07,0.62-0.34l2.38-7.97h4.84c0.54,0.98,1.2,1.92,1.95,2.8H9.88
		c-0.66,0-1.25,0.44-1.44,1.07L6.32,48.5c-0.4,1.32,0.36,2.71,1.68,3.11l0,0c0.26,0.08,0.54-0.07,0.62-0.34L11,43.3h5.92
		c1.08,0.83,2.24,1.57,3.46,2.2h-6.46c-0.67,0-1.26,0.44-1.44,1.09l-2.16,7.6c-0.38,1.33,0.39,2.71,1.72,3.09l0,0
		c0.27,0.08,0.54-0.08,0.62-0.34l2.4-8.43h14.93h0.04h14.93l2.4,8.43c0.08,0.27,0.35,0.42,0.62,0.34c1.33-0.38,2.1-1.76,1.72-3.09
		l-2.16-7.6c-0.18-0.64-0.77-1.09-1.44-1.09h-6.46c1.22-0.63,2.38-1.37,3.46-2.2H49l2.38,7.97c0.08,0.26,0.36,0.41,0.62,0.34l0,0
		c1.32-0.4,2.07-1.79,1.68-3.11l-2.02-6.77c-0.25-0.85-1.03-1.43-1.92-1.43h-3.49c0.75-0.88,1.41-1.82,1.95-2.8h4.84l2.38,7.97
		c0.08,0.26,0.36,0.41,0.62,0.34l0,0c1.32-0.4,2.07-1.79,1.68-3.11L55.59,35.57z M54.33,7.96c1.64,2.1,1.28,4.8,0.52,5.95
		c-0.7,1.07-1.76,1.89-2.68,2.14c0.01-0.27,0.04-0.58,0.06-0.84c0.1-1.23,0.23-2.91-0.11-4.66c-0.4-2.04-1.39-4.07-2.32-5.63
		C51.27,5.36,52.98,6.23,54.33,7.96z M7.87,10.56c-0.34,1.74-0.2,3.43-0.11,4.66c0.02,0.26,0.05,0.57,0.06,0.84
		c-0.92-0.25-1.98-1.07-2.68-2.14c-0.76-1.16-1.12-3.85,0.52-5.95c1.35-1.73,3.06-2.6,4.52-3.03C9.26,6.49,8.27,8.51,7.87,10.56z
		 M12.53,23.91c-0.02,0.01-0.05,0.03-0.14,0.03c-0.46,0-1.47-0.51-2.21-1.86c-0.79-1.44-0.67-2.78-0.38-3.29
		c0.11-0.07,0.22-0.13,0.31-0.22c0.47,0.01,1.46,0.52,2.19,1.86C13.22,22.11,12.91,23.67,12.53,23.91z M30,45
		c-7.61,0-16.91-6.39-16.91-13.85c0-3.15,1.69-5.71,5.02-7.63c3.15-1.81,7.48-2.85,11.89-2.85s8.75,1.04,11.89,2.85
		c3.33,1.92,5.02,4.48,5.02,7.63C46.91,38.61,37.61,45,30,45z M47.61,23.93c-0.09,0-0.12-0.02-0.14-0.03
		c-0.38-0.24-0.69-1.79,0.23-3.48c0.74-1.34,1.73-1.85,2.19-1.86c0.09,0.08,0.2,0.15,0.31,0.22c0.29,0.51,0.4,1.85-0.38,3.29
		C49.08,23.43,48.07,23.93,47.61,23.93z"/>
	<circle cx="25.5" cy="25.5" r="1.5"/>
	<circle cx="34.5" cy="25.5" r="1.5"/>
</g>
</svg>
