<?xml version="1.0" encoding="utf-8"?>
<!-- Generator: Adobe Illustrator 21.1.0, SVG Export Plug-In . SVG Version: 6.00 Build 0)  -->
<svg version="1.1" id="eps" xmlns="http://www.w3.org/2000/svg" xmlns:xlink="http://www.w3.org/1999/xlink" x="0px" y="0px"
	 viewBox="0 0 60 60" style="enable-background:new 0 0 60 60;" xml:space="preserve">
<g>
	<path d="M56.02,21.73c-0.91-1.18-2.11-2.05-3.26-2.89c-0.35-0.26-1.44-1.08-1.6-1.21c-1.69-1.33-3.6-2.83-6.73-2.83H44.2
		c-0.77-0.01-1.32,0-1.73,0l-0.21-0.15c-0.74-0.75-1.11-1.59-1.24-2.49c1.51,0.23,4.02,0.54,6.64,0.54c3.33,0,6.83-0.5,8.62-2.29
		c0.2-0.2,0.16-0.55-0.07-0.73l-0.54-0.42c-0.73-0.57-1.7-0.67-2.55-0.31c-1.1,0.45-2.72,0.67-4.52,0.72
		c0.16-0.66,0.47-1.44,1.04-1.96c0.64-0.59,0.98-1.44,0.84-2.3l-0.11-0.69c-0.05-0.28-0.33-0.48-0.6-0.41
		c-2.73,0.72-3.87,3.33-4.22,5.3c-1.43-0.08-2.86-0.24-4.15-0.43c0.48-1.35,1.29-2.71,2.19-3.95c0.06-0.08,0.48-0.65,0.8-1.06
		c0.18-0.24,0.11-0.57-0.14-0.73L43.7,3.13c-0.89-0.54-2.06-0.31-2.67,0.53l0,0c-3.27,4.55-3.48,7.9-2.69,10.23
		c-0.36-0.07-0.73-0.1-1.11-0.1c-1.63,0-3.01,0.73-3.87,2.06c-0.46,0.7-0.61,1.55-0.43,2.39c0.35,1.64,1.85,2.72,3.76,3.95
		l0.03,0.02l-0.01,0.03c-0.33,1.31-0.59,2-0.75,2.35l-0.05,0.03c-0.14,0-2.4,0.04-3.91,0.04c-6.27,0-11.53-0.33-15.64-0.98
		c-1.41-0.22-2.71-0.34-3.87-0.34c-6.09,0-9.63,3.16-9.97,8.88c-0.25,3.92,0.3,5.78,0.71,7.15c0.15,0.51,0.26,0.86,0.29,1.31
		l-0.18,3.71l-0.51,3.79c-0.03,0.23-0.02,0.46,0.03,0.69l1.73,8c0.2,0.92,1.01,1.58,1.95,1.58h4.6c1.26,0,2.21-1.15,1.96-2.39
		l-1.32-6.69v-0.01c0.88-1.26,1.74-3.17,2.49-5.52l0.01-0.04l0.04,0.01c1.1,0.19,2.4,0.28,3.86,0.28c3.48,0,8.61-0.77,11.36-1.23
		l0.04-0.01l1.92,5.87c0.02,0.05,0.02,0.1,0.02,0.15l0.03,5.18l0.55,2.84c0.18,0.94,1.01,1.62,1.96,1.62h4.03
		c1.2,0,2.13-1.05,1.98-2.25l-0.3-2.39l0.26-5.33c0.09-0.55,0.66-3.7,1.73-5.63c0.61-1.11,1.24-1.77,1.97-2.55s1.57-1.66,2.35-2.97
		c1.64-2.74,1.86-4.26,1.94-5.56l0.01-0.18c0.07-0.9,0.2-2.13,0.47-2.41l0.01-0.01h0.32c0.63,0.01,1.75,0.02,2.06,0.02
		c3.79,0,5.18-2,5.6-2.86C57.28,24.88,57.08,23.1,56.02,21.73z M53.84,25.06c-0.14,0.28-0.75,1.18-2.91,1.18
		c-0.3,0-1.41-0.01-2.02-0.02h-0.79c-0.55,0-1.08,0.23-1.46,0.63l-0.31,0.33c-0.86,0.91-1.11,2.14-1.28,4.25l-0.01,0.2
		c-0.07,1.03-0.23,2.05-1.52,4.23c-0.61,1.03-1.27,1.72-1.97,2.46c-0.79,0.84-1.61,1.71-2.4,3.14c-1.35,2.44-1.97,6-2.08,6.68
		l-0.29,5.84l0.19,1.52H34.9l-0.33-1.62l-0.03-5.27c0-0.21-0.03-0.41-0.1-0.61l-2.26-6.91c-0.31-0.94-1.26-1.51-2.23-1.35
		l-0.89,0.15c-2.66,0.44-7.61,1.19-10.87,1.19c-1.3,0-2.43-0.08-3.36-0.24l-0.89-0.15c-0.98-0.17-1.94,0.41-2.24,1.36l-0.28,0.86
		c-0.65,2.04-1.4,3.72-2.1,4.72L9.07,48c-0.31,0.45-0.42,1-0.32,1.53l1.17,5.91H7.35L5.83,48.4l0.49-3.68l0.2-3.99v-0.24
		c-0.04-0.75-0.22-1.35-0.41-1.98c-0.38-1.28-0.81-2.72-0.6-6.12c0.3-5.05,3.5-6.85,10.37-5.76c4.26,0.68,9.68,1.02,16.11,1.02
		c1.56,0,3.91-0.04,3.98-0.04l0.66-0.01c0.77-0.01,1.47-0.47,1.79-1.17l0.27-0.6c0.31-0.68,0.61-1.61,0.93-2.85l0.18-0.73
		c0.21-0.83-0.13-1.71-0.85-2.17l-0.63-0.41c-0.76-0.49-2.33-1.51-2.46-2.06c-0.02-0.08,0.01-0.12,0.02-0.13
		c0.3-0.47,0.73-0.69,1.35-0.69c0.88,0,1.86,0.44,2.72,0.83l0.98,0.36l0.84-0.14c0.04,0,0.46-0.05,2.4-0.03h0.25
		c2.11,0,3.34,0.97,4.9,2.19c0.18,0.14,1.31,1,1.68,1.27c1.04,0.75,2.01,1.47,2.66,2.31C54,24.02,54.07,24.59,53.84,25.06z"/>
	<ellipse cx="44.97" cy="21.54" rx="1.49" ry="1.52"/>
</g>
</svg>
