<?xml version="1.0" encoding="utf-8"?>
<!-- Generator: Adobe Illustrator 21.1.0, SVG Export Plug-In . SVG Version: 6.00 Build 0)  -->
<svg version="1.1" id="EPS" xmlns="http://www.w3.org/2000/svg" xmlns:xlink="http://www.w3.org/1999/xlink" x="0px" y="0px"
	 viewBox="0 0 60 60" style="enable-background:new 0 0 60 60;" xml:space="preserve">
<g>
	<path d="M58.56,11.47c-0.01-0.21-0.03-0.37-0.03-0.47c0-3.01-6.28-3.16-7.54-3.16c-0.64,0-0.99-0.4-1.84-1.76
		c-0.77-1.24-1.74-2.79-3.65-3.47c-3.25-1.15-5.57-1.15-7.62-1.15l-1.54,0c-0.03,0-0.06,0-0.09,0c-4.5,0-10.27,10.06-11.01,12.61
		c-1.01,3.46,1.09,7.13,4.67,8.17c0.65,0.19,1.3,0.28,1.94,0.28c0.21,0,0.42-0.03,0.63-0.05v0.7c0,0.05-0.01,0.1-0.02,0.15
		c-0.02,0.07-0.15,0.17-0.33,0.21l-0.19,0.04c-1.57,0.3-5.25,1.02-10.71,4.13c-3.67,2.09-8.6,5.66-11.45,9.39
		c-2.42,3.16-3.59,6.94-3.13,10.12c0.18,1.24,0.47,2.36,0.84,3.38c-0.36-0.03-0.71-0.11-1.03-0.29c-1.15-0.66-1.59-2.48-1.76-3.88
		c-0.61-5.22,0.73-9.84,4.1-14.11C9,32.1,8.97,31.8,8.76,31.62c-1.05-0.86-2.64-0.67-3.4,0.46c-3.02,4.47-4.18,9.29-3.55,14.68
		c0.35,3.02,1.44,5.07,3.22,6.09c0.89,0.51,1.83,0.69,2.72,0.69c0.39,0,0.76-0.04,1.12-0.09c1.35,2.25,2.94,3.67,3.82,4.34
		c0.59,0.45,1.34,0.7,2.1,0.7h13.18c1.92,0,3.51-1.54,3.53-3.46c0.02-2.03-1.07-3.88-2.95-4.91c0.44-0.31,1.03-0.55,1.85-0.55
		c1.8,0,2.98-0.01,5.13-0.54C35.51,49.37,35.5,49.7,35.5,50c0,2.8,0.79,5.54,1.02,6.28c0.14,1.25,1.2,2.22,2.48,2.22h8.93
		c1.98,0,3.6-1.62,3.57-3.6c-0.05-2.99-2.5-5.4-5.5-5.4h-1.5v-4.49c0-0.15,0.06-0.28,0.15-0.36c3.08-2.48,4.85-6.17,4.85-10.13
		c0-3.5-1.37-6.78-3.85-9.24c-0.09-0.09-0.15-0.2-0.15-0.29v-2c0-0.72,0.51-1.32,1.18-1.46c3.44,0,3.46,0.01,7.71-1.11
		C59.14,19.16,58.71,13.37,58.56,11.47z M30.78,19.3c-1.96-0.57-3.12-2.53-2.58-4.36c1.03-3.56,5.33-8.86,7.37-10.12
		c0.43,2.26,0.11,8.27-0.31,12.3C34.68,18.88,32.7,19.85,30.78,19.3z M53.61,17.45c-3.81,1.01-3.81,1.01-6.61,1.01
		c-1.98,0-2.38-0.04-2.88-0.58c-0.46-0.49-0.56-0.93-0.58-1.65c-0.01-0.27-0.23-0.49-0.51-0.49h-0.03c-1.59,0-2.69,1.69-1.95,3.1
		c0.18,0.35,0.42,0.7,0.74,1.05c0.36,0.4,0.8,0.71,1.27,0.96C42.72,21.5,42.5,22.22,42.5,23v2c0,0.9,0.37,1.76,1.04,2.42
		c2.91,2.88,3.83,7.22,2.08,11.38c-0.6,1.43-1.69,2.55-2.88,3.54c-0.78,0.65-1.23,1.62-1.23,2.66V50c0,1.38,1.12,2.5,2.5,2.5h2
		c1.37,0,2.49,1.11,2.5,2.49c0,0.28-0.22,0.51-0.5,0.51h-8.58c-0.09-0.29-0.92-2.93-0.92-5.5c0-1.55,0.29-3.71,0.55-5.35
		c0.21-1.32-0.67-2.58-1.98-2.84l-0.05-0.01c-0.27-0.05-0.54,0.12-0.59,0.39c-0.13,0.69-0.37,2.02-0.57,3.49
		c-2.54,0.73-3.53,0.74-5.46,0.74c-2.89,0-4.62,1.67-5.43,3.07h-1.06c0-0.06,0-0.11,0.01-0.14c0.14-0.41,0.32-0.83,0.49-1.25
		c0.51-1.21,1.09-2.59,1.09-4.11c0-2.43-1.15-4.71-2.59-6.39c-0.94-1.09-2.66-0.99-3.45,0.21l-0.02,0.03
		c-0.15,0.22-0.09,0.51,0.12,0.68c1.49,1.17,2.95,3.36,2.95,5.47c0,0.91-0.41,1.9-0.85,2.95c-0.2,0.49-0.4,0.97-0.57,1.44
		c-0.26,0.76-0.27,2.38,0.39,3.3C21.84,52.2,22.4,52.5,23,52.5h3c0,0,0,0,0,0c0.67,0,1.29,0.26,1.76,0.73
		c0.47,0.47,0.73,1.1,0.73,1.77c0,0.28-0.22,0.5-0.5,0.5H14.79c-0.11,0-0.21-0.03-0.28-0.09c-1.22-0.93-4.15-3.65-4.86-8.62
		c-0.13-0.9-0.32-4.12,2.55-7.88c2.58-3.37,7.14-6.66,10.55-8.61c5.02-2.87,8.36-3.52,9.79-3.79l0.2-0.04
		c1.25-0.25,2.25-1.11,2.61-2.25c0.11-0.34,0.16-0.7,0.16-1.05v-1.71c1.29-0.82,2.3-2.05,2.75-3.6l0.05-0.27
		c0.17-1.66,0.91-9.21,0.32-13.05c1.72,0.01,3.45,0.12,5.87,0.97c0.9,0.32,1.44,1.19,2.07,2.19c0.84,1.35,2,3.21,4.44,3.21
		c1.65,0,3.69,0.35,4.5,0.68c0,0.03,0,0.07,0.01,0.11C55.68,14.1,55.63,16.92,53.61,17.45z"/>
	<circle cx="43.5" cy="9.5" r="1.5"/>
</g>
</svg>
