<?xml version="1.0" encoding="utf-8"?>
<!-- Generator: Adobe Illustrator 21.1.0, SVG Export Plug-In . SVG Version: 6.00 Build 0)  -->
<svg version="1.1" id="EPS" xmlns="http://www.w3.org/2000/svg" xmlns:xlink="http://www.w3.org/1999/xlink" x="0px" y="0px"
	 viewBox="0 0 60 60" style="enable-background:new 0 0 60 60;" xml:space="preserve">
<g>
	<path d="M58.5,30c0-6.77-4.58-12.57-11.58-15.8c-0.26-1.67-1.1-4.38-3.03-6.25c-2.08-2.03-5.7-4.45-11.12-4.45
		c-5.53,0-11.35,2.37-11.4,2.4l-0.09,0.04c-1.01,0.46-1.14,1.84-0.23,2.49c0.72,0.68,3,3.04,4.05,4.98c-5.37,2.31-9.51,6.25-12,9.11
		c-3.24-5.15-8.99-9.08-9.27-9.26l0,0c-1.21-0.82-2.75,0.39-2.25,1.76l0,0c1.12,3.04,4.03,11.66,4.03,15.01S2.7,41.96,1.58,44.98
		c-0.51,1.37,1.05,2.59,2.26,1.75c0.28-0.19,6.13-4.28,9.37-9.47c3.28,3.52,9.39,8.78,17.43,9.98c0.17,0.6,0.26,1.22,0.25,1.88
		c-0.03,2.37-2.04,4.89-2.06,4.91c-0.77,0.95-0.15,2.37,1.07,2.45l0,0c0.05,0,0.36,0.02,0.84,0.02c1.79,0,6.02-0.23,9.08-2.26
		c4.09-2.72,4.46-5.61,4.72-7.72c0.02-0.18,0.04-0.37,0.05-0.57C53.04,43.28,58.5,37.38,58.5,30z M24.71,7.9
		c2-0.62,5.11-1.4,8.06-1.4c4.41,0,7.35,1.96,9.03,3.6c0.79,0.77,1.33,1.82,1.69,2.79C40.59,12,37.38,11.5,34,11.5
		c-2.14,0-4.16,0.34-6.05,0.89C27.16,10.78,25.82,9.12,24.71,7.9z M38.17,51.74c-1.6,1.06-3.74,1.49-5.42,1.66
		c0.59-1.19,1.12-2.69,1.14-4.24c0.01-0.57-0.04-1.13-0.13-1.67c0.08,0,0.15,0.01,0.23,0.01c2.65,0,5.16-0.26,7.49-0.74
		C41.25,48.46,40.8,49.99,38.17,51.74z M34,44.5c-10.18,0-17.82-8.27-19.92-10.8c-0.71-0.85-2.06-0.67-2.52,0.34l0,0
		c-1.18,2.6-3.42,5.08-5.42,6.95c1.17-3.64,2.49-8.34,2.49-10.96c0-2.64-1.35-7.43-2.52-11.09c1.98,1.83,4.21,4.27,5.39,6.87l0,0
		c0.47,1.03,1.86,1.19,2.55,0.3l0,0C16.15,23.38,23.83,14.5,34,14.5c11.86,0,21.5,6.95,21.5,15.5C55.5,38.27,46.26,44.5,34,44.5z"/>
	<circle cx="45" cy="22" r="2"/>
</g>
</svg>
