<?xml version="1.0" encoding="utf-8"?>
<!-- Generator: Adobe Illustrator 21.1.0, SVG Export Plug-In . SVG Version: 6.00 Build 0)  -->
<svg version="1.1" id="EPS" xmlns="http://www.w3.org/2000/svg" xmlns:xlink="http://www.w3.org/1999/xlink" x="0px" y="0px"
	 viewBox="0 0 60 60" style="enable-background:new 0 0 60 60;" xml:space="preserve">
<g>
	<path d="M57.78,12.7c-0.01-0.01-1.27-0.74-2.33-1.47c-0.91-0.63-2.56-2.38-2.8-2.71c-0.04-2.61-1.18-4.76-3.14-5.9
		c-2.48-1.44-5.23-1.51-7.55-0.17c-2.21,1.27-3.58,3.64-3.58,6.18v17C34.09,24.5,29.91,23.5,26,23.5c-4.92,0-10.28,0.79-14.34,2.1
		c-1.09,0.35-2.77,0.17-4.84-0.53c-0.31-0.11-0.72-0.27-1.15-0.44c-0.86-0.34-1.74-0.69-2.37-0.82c-1.1-0.22-2.04,0.79-1.74,1.87
		l0,0c0.21,0.76,0.76,1.79,1.29,2.78c0.23,0.42,0.44,0.81,0.57,1.1c0.59,1.26,1.14,2.46,1.14,2.98c0,8.04,6.04,16.14,19.44,16.88
		v6.08h-2.52c-0.28,0-0.5,0.22-0.5,0.5v2c0,0.28,0.22,0.5,0.5,0.5h11c0.28,0,0.5-0.22,0.5-0.5c0-1.38-1.12-2.5-2.5-2.5H27v-6.04
		c12.18-0.35,20-6.94,20-17.04l0.02-0.62V15.49h10.01C58.56,15.5,59.1,13.47,57.78,12.7z M46.01,12.5c-1.1,0-2,0.89-2,2L44,32.43
		c0,8.55-7.07,14.07-18,14.07c-9.18,0-18.44-4.31-18.44-13.95c0-1.13-0.51-2.29-1.42-4.24c-0.05-0.11-0.11-0.23-0.17-0.35
		c2.72,0.91,4.89,1.07,6.63,0.51c3.77-1.23,8.78-1.96,13.41-1.96c3.59,0,7.6,0.97,11.74,2.06c1.01,0.25,2.06-0.03,2.81-0.78
		c0.56-0.57,0.82-1.36,0.82-2.16V8.64c0-1.47,0.8-2.84,2.08-3.58c1.36-0.78,3.01-0.72,4.54,0.17c1.46,0.85,1.64,2.63,1.65,3.35
		c0.01,0.53,0.16,1.05,0.45,1.51c0.32,0.51,1.27,1.55,2.21,2.43L46.01,12.5z"/>
	<path d="M37.55,35.13c-0.17-0.94-1.01-1.63-1.97-1.63H30.5c-0.28,0-0.5,0.22-0.5,0.5c0,1.38,1.12,2.5,2.5,2.5h2.15
		c-0.04,0.56-0.23,1.05-0.58,1.49c-1.23,1.55-4.52,2.51-8.57,2.51c-3.93,0-7.2-1.33-9.28-2.47c-0.25-0.14-0.48-0.27-0.69-0.4
		c-1.04-0.63-2.39-0.4-3.18,0.53l-0.16,0.18c-0.19,0.22-0.16,0.55,0.07,0.72c1.43,1.08,6.41,4.44,13.23,4.44
		c2.41,0,8.3-0.35,10.92-3.64C37.46,38.55,37.85,36.92,37.55,35.13L37.55,35.13z"/>
	<circle cx="46.5" cy="7.5" r="1.5"/>
</g>
</svg>
