<?xml version="1.0" encoding="utf-8"?>
<!-- Generator: Adobe Illustrator 21.1.0, SVG Export Plug-In . SVG Version: 6.00 Build 0)  -->
<svg version="1.1" id="EPS" xmlns="http://www.w3.org/2000/svg" xmlns:xlink="http://www.w3.org/1999/xlink" x="0px" y="0px"
	 viewBox="0 0 60 60" style="enable-background:new 0 0 60 60;" xml:space="preserve">
<g>
	<path d="M58,30.1c-0.01-0.31-0.01-0.62-0.01-0.89c0-1.29-1.23-1.84-2.31-2.32c-0.36-0.16-1.03-0.46-1.24-0.64
		c-0.51-0.86-1.68-1.63-2.63-2.16c1.01-2.06,1.55-4.4,1.41-5.39c-0.08-0.6-0.39-0.95-0.64-1.14c-1.27-0.95-3.95,0.71-5.83,2.3
		l-8.15-2.6c-7.32-2.21-13.8-2.39-20.9-2.39c-3.06,0-5.91,1.07-8.18,2.84l0.01-0.04c-0.93-0.27-1.6-0.77-2.06-1.3
		c0.53-0.55,0.87-1.18,0.94-1.83c0.12-1.11-0.55-2.05-1.71-2.4c-1.33-0.39-2.56,0.27-2.94,1.56c-0.12,0.42-0.15,0.91-0.08,1.43
		c-0.08,0.02-0.17,0.04-0.26,0.06s-0.55,0.03-0.92,0.04c-0.27,0.01-0.48,0.22-0.49,0.49L2,16.03c-0.02,1.22,1.03,2.2,2.24,2.05
		c0.04-0.01,0.08-0.01,0.1-0.02c0.18-0.04,0.35-0.09,0.52-0.14c0.58,0.78,1.39,1.49,2.4,2.03c-1.73,2.17-2.79,4.86-2.79,7.75
		c0,2.74,0.39,4.93,1.17,6.52c0.03,1.91,0.62,4.43,1.13,5.36c0.27,0.63,0.63,3.91,0.73,5.98c0,0.09,0.01,0.29,0.01,0.55
		c0.01,1.04,0.86,1.87,1.89,1.87h5.54c1.06,0,1.92-0.88,1.89-1.94c0-0.15-0.01-0.26-0.01-0.3c-0.07-0.72-0.22-1.38-0.36-1.98
		c-0.25-1.06-0.39-1.73-0.15-2.24c0.43-0.94,1.29-2.06,2.11-2.81c1.71,1.16,2.52,1.45,4.79,1.45c0.35,0,0.69,0,1.02,0.01
		c2.08,0.03,4.05,0.05,9-0.92c0.4,0.48,0.83,1.14,0.87,1.68c0.12,1.88,0.16,3.85,0.17,4.88c0,0.07,0,0.19,0,0.32
		c0.01,1.04,0.85,1.88,1.89,1.88h5.18c1.09,0,1.97-0.92,1.89-2c0-0.04-0.01-0.07-0.01-0.09c-0.03-0.2-0.08-0.44-0.13-0.73
		c-0.22-1.17-0.6-3.12-0.35-4.41c0.22-1.14,0.42-2.3,0.56-3.16c1.24,0.08,3.18,0.16,5.3,0.13c2.44-0.04,3.48-0.56,4.5-1.19
		c0.59-0.36,0.98-0.6,2.3-0.6c0.61,0,1.18-0.24,1.6-0.67C58.08,34.21,58.04,32.12,58,30.1z M54.9,32.99
		c-1.81,0.08-2.67,0.6-3.36,1.03c-0.63,0.38-1.17,0.72-2.98,0.74c-2.22,0.03-4.29-0.07-5.44-0.15c-0.12-0.01-0.3-0.02-0.5-0.04
		c-1.04-0.08-1.98,0.65-2.14,1.69c-0.03,0.19-0.06,0.36-0.08,0.48c-0.14,0.86-0.37,2.2-0.62,3.48c-0.3,1.55-0.04,3.42,0.21,4.79
		h-2.74c-0.02-1.11-0.07-2.7-0.17-4.26c-0.08-1.32-0.81-2.49-1.44-3.28c-0.17-0.21-0.44-0.49-0.7-0.74
		c-0.47-0.46-1.14-0.65-1.79-0.53c-0.45,0.09-0.91,0.18-0.99,0.2c-4.29,0.81-6.05,0.79-7.91,0.77c-0.34,0-0.69-0.01-1.06-0.01
		c-1.63,0-1.8-0.02-3.46-1.18c-0.03-0.02-0.11-0.08-0.22-0.15c-0.67-0.47-1.56-0.48-2.25-0.04c-0.16,0.11-0.3,0.2-0.36,0.24
		c-1.31,1.02-2.67,2.71-3.35,4.23c-0.67,1.47-0.33,2.9-0.04,4.17c0.04,0.18,0.08,0.36,0.12,0.53h-3.2
		c-0.12-2.13-0.45-5.71-1.05-6.81c-0.25-0.45-0.83-2.73-0.78-4.26l0.01-0.42l-0.2-0.36C7.82,32,7.48,30.07,7.48,27.7
		c0-5.33,4.69-9.83,10.24-9.83c6.86,0,13.1,0.17,20.01,2.25l7.14,2.28c-0.09,0.78,0.21,1.59,0.87,2.12l0.08,0.06
		c0.22,0.17,0.53,0.14,0.7-0.08l0.8-1c0.64-0.84,1.56-1.59,2.41-2.17c-0.31,0.9-0.76,1.91-1.35,2.73c-0.03,0.04-0.32,0.45-0.55,0.78
		c-0.16,0.23-0.11,0.54,0.12,0.7l1.63,1.15c0.21,0.15,0.48,0.11,0.65-0.07c0.78,0.42,1.48,0.9,1.64,1.12
		c0.5,0.93,1.57,1.41,2.61,1.87c0.16,0.07,0.36,0.16,0.54,0.25c0,0.09,0,0.19,0.01,0.29C55.02,30.89,55.05,32.3,54.9,32.99z"/>
	<ellipse cx="49.5" cy="29.52" rx="1.49" ry="1.52"/>
</g>
</svg>
