<?xml version="1.0" encoding="utf-8"?>
<!-- Generator: Adobe Illustrator 21.1.0, SVG Export Plug-In . SVG Version: 6.00 Build 0)  -->
<svg version="1.1" id="EPS" xmlns="http://www.w3.org/2000/svg" xmlns:xlink="http://www.w3.org/1999/xlink" x="0px" y="0px"
	 viewBox="0 0 60 60" style="enable-background:new 0 0 60 60;" xml:space="preserve">
<g>
	<ellipse cx="41.74" cy="22.78" rx="1.51" ry="1.5"/>
	<path d="M53.19,25.74c-0.46-5.65-7.04-8.4-10.28-9.42c0.47-1.2,1.01-2.92,1.2-4.82c0.41-4.18-0.94-7.19-1.75-8.58
		c-0.04-0.06-0.09-0.14-0.14-0.23C41.5,1.64,40,1.52,39.11,2.42C38.89,2.64,38.7,2.85,38.57,3c-0.51,0.61-1.14,1.44-1.71,2.43
		c-0.64-1-1.36-1.84-1.96-2.46c-0.19-0.19-0.46-0.44-0.76-0.7c-0.92-0.8-2.33-0.61-3,0.41C31.06,2.8,30.99,2.91,30.94,3
		c-0.79,1.42-2.05,4.43-1.58,8.54c0.42,3.64,1.75,6.07,2.68,7.39c-0.6,0.75-1.28,1.84-1.55,3.19c-0.07,0.35-0.12,0.72-0.14,1.1
		c-0.01,0.13-0.01,0.26-0.01,0.4c-0.01,0.24-0.02,0.49-0.01,0.73c0,0.16,0.01,0.3,0.02,0.46c0.01,0.21,0.02,0.42,0.04,0.63
		c0.01,0.15,0.03,0.29,0.04,0.44c0.01,0.13,0.02,0.27,0.04,0.39c-3.04,0.64-9.73,2.63-13.08,8.17c-2.8,4.64-3.05,9.56-2.88,12.46
		c-0.05-0.01-0.1-0.02-0.15-0.03c-0.09-0.02-0.19-0.03-0.29-0.05c-0.15-0.02-0.3-0.04-0.46-0.06c-0.1-0.01-0.2-0.02-0.3-0.02
		c-0.17-0.01-0.35-0.01-0.53,0c-0.09,0-0.18,0-0.28,0.01c-0.27,0.02-0.55,0.05-0.83,0.1c-2.35,0.47-4.88,2.81-4.88,5.54
		c0,3.72,2.59,6.12,6.6,6.12c1.83,0,3.27-0.63,4.18-1.2c0.8,0.58,2.01,1.2,3.51,1.2h10.14c0.26,0,2.62-0.04,4-1.56
		c0.71-0.78,1.02-1.79,0.92-2.92c-0.22-2.35-1.52-3.46-2.72-3.92c0.98-1.33,1.78-3.26,1.71-6.03c-0.1-3.67-1.89-5.77-3.74-6.85
		c-1.28-0.75-2.91,0.1-3.06,1.58c-0.03,0.24,0.13,0.48,0.36,0.53c1,0.25,3.34,1.22,3.44,4.82c0.11,4.15-2.47,5.5-2.98,5.73
		c-1.64,0.01-3.25,0-4.07-0.06c-0.25-0.02-0.48,0.16-0.53,0.41c-0.26,1.36,0.77,2.62,2.15,2.64c2.12,0.04,4.71-0.02,5.38-0.04
		c0.35,0.02,0.96,0.24,1.08,1.46c0.04,0.41-0.09,0.55-0.15,0.62c-0.35,0.38-1.27,0.57-1.78,0.58H21.1c-0.71,0-1.34-0.34-1.76-0.64
		c-0.07-0.05-0.16-0.14-0.28-0.25c-0.75-0.73-1.94-0.77-2.74-0.1c-0.14,0.12-0.25,0.21-0.33,0.25c-0.54,0.33-1.43,0.73-2.58,0.73
		c-1.64,0-3.6-0.54-3.6-3.12c0-1.04,1.24-2.35,2.47-2.6c0.22-0.04,0.44-0.06,0.66-0.06c0.08,0,0.15,0.01,0.23,0.02
		c0.14,0.01,0.28,0.02,0.42,0.04c0.09,0.01,0.17,0.03,0.25,0.05c0.12,0.02,0.24,0.05,0.35,0.08c0.08,0.02,0.16,0.05,0.24,0.07
		c0.09,0.03,0.18,0.06,0.26,0.09s0.17,0.07,0.29,0.13v-0.03c1.41,0.54,2.91-0.68,2.66-2.2c-0.01-0.09-0.02-0.16-0.03-0.21
		c-0.24-2.15-0.4-7.17,2.37-11.76c2.98-4.93,9.64-6.52,11.75-6.91c0.04-0.01,0.11-0.02,0.18-0.03c1.1-0.17,1.85-1.2,1.68-2.29h0.02
		c-0.05-0.24-0.08-0.44-0.1-0.55c0-0.01,0-0.02-0.01-0.03c-0.03-0.23-0.06-0.48-0.09-0.73c0-0.04-0.01-0.08-0.01-0.13
		c-0.02-0.25-0.04-0.52-0.05-0.78c0-0.05,0-0.1,0-0.14c-0.01-0.27-0.01-0.53,0-0.79c0-0.04,0.01-0.07,0.01-0.1
		c0.02-0.27,0.04-0.53,0.09-0.76c0.17-0.83,0.64-1.54,1.03-2c0.06-0.07,0.16-0.18,0.29-0.3c0.79-0.75,0.85-2.01,0.11-2.81
		c-0.19-0.2-0.34-0.38-0.43-0.51c-0.69-1-1.74-2.94-2.08-5.9c-0.29-2.55,0.23-4.52,0.74-5.77c0.92,1.02,2.05,2.55,2.33,4.22
		l0.03,0.12c0.01,0.02,0.44,1.78,0.09,3.81c-0.05,0.27,0.11,0.52,0.38,0.58c1.41,0.33,2.76-0.76,2.76-2.21
		c0-1.1-0.13-1.99-0.22-2.49c0.31-1.5,1.15-2.89,1.89-3.87c0.52,1.26,1.02,3.18,0.78,5.6c-0.19,1.92-0.83,3.66-1.25,4.61
		c-0.03,0.06-0.07,0.15-0.12,0.26c-0.57,1.15,0.07,2.54,1.32,2.85c0.14,0.03,0.25,0.06,0.33,0.09c2.33,0.67,8.46,2.83,8.79,6.91
		c0.1,2.64-2.78,3.43-4.26,3.66c-0.12,0.02-0.31,0.04-0.52,0.05c-0.85,0.07-1.56,0.66-1.78,1.48c-0.07,0.25-0.12,0.47-0.15,0.62
		c-0.19,0.95-0.35,2.39,0,3.66l0.45,1.62c0.48,1.74,0.63,3.56,0.42,5.35c-0.04,0.33-0.08,0.66-0.12,0.98
		c-0.5,4.01-0.93,7.48,1.36,8.83c0.86,0.5,0.96,1.64,0.96,2.7c-0.03,0.16-0.11,0.35-0.17,0.43c-0.13,0.14-0.24,0.18-0.28,0.19h-4.52
		c-0.13,0-0.65-0.1-0.87-0.32c-0.12-0.17-0.2-0.81-0.17-1.25c0.03-0.23,0.64-5.75,0.48-8.66c-0.09-1.59-0.14-2.49-0.16-2.97
		c-0.01-0.27-0.25-0.48-0.52-0.47c-1.38,0.07-2.44,1.24-2.36,2.62c0.02,0.3,0.03,0.62,0.05,0.99c0.15,2.65-0.46,8.1-0.47,8.18
		c-0.04,0.41-0.16,2.49,1.01,3.66c1.12,1.12,2.72,1.21,2.96,1.22H46c0.03,0,0.06,0,0.1,0c0.46,0,1.49-0.13,2.41-1.09
		c0.82-0.82,0.99-2,1.02-2.23L49.54,55c0-1.09,0-3.98-2.44-5.4c-0.58-0.54-0.14-4.01,0.09-5.87c0.08-0.62,0.15-1.24,0.22-1.85
		c0.27-2.51-0.3-4.57-0.85-6.56l-0.19-0.7c-0.16-0.6-0.1-1.41,0.01-2.06C49.3,32.1,53.36,30.32,53.19,25.74z"/>
</g>
</svg>
