<?xml version="1.0" encoding="utf-8"?>
<!-- Generator: Adobe Illustrator 21.1.0, SVG Export Plug-In . SVG Version: 6.00 Build 0)  -->
<svg version="1.1" id="eps" xmlns="http://www.w3.org/2000/svg" xmlns:xlink="http://www.w3.org/1999/xlink" x="0px" y="0px"
	 viewBox="0 0 60 60" style="enable-background:new 0 0 60 60;" xml:space="preserve">
<g>
	<ellipse cx="38.23" cy="13.85" rx="1.32" ry="1.35"/>
	<path d="M53.51,3.89c0.01-1.38-1-2.37-2.49-2.39H29.63c-1.38,0-2.5,1.12-2.5,2.5c0,0.28,0.22,0.5,0.5,0.5h22.61
		c-0.69,1.11-2.65,2.86-5,2.98h-15.1C17.55,7.48,6.5,17.81,6.5,29.59c0,13.66,10.92,20.78,22.04,21.94
		c1.49,2.52,4.28,5.34,6.05,6.37c0.69,0.4,1.47,0.61,2.28,0.61c0.39,0,0.78-0.05,1.18-0.15c0.9-0.22,1.74-0.7,2.42-1.36
		c0.16-0.15,0.49-0.58,0.76-0.97c0.31-0.42,0.36-0.98,0.15-1.45c-0.14-0.31-0.29-0.62-0.38-0.77c-0.17-0.25-0.38-0.54-0.65-0.89
		c-0.4-0.53-0.82-1.07-0.94-1.46c0.33-0.29,0.98-0.55,1.62-0.8c0.37-0.15,0.69-0.28,0.96-0.4c0.19-0.09,0.52-0.3,0.83-0.52
		c0.43-0.3,0.67-0.8,0.63-1.31c-0.04-0.53-0.11-1.16-0.18-1.43c-0.25-0.85-0.7-1.62-1.31-2.22c-0.87-0.87-2-1.35-3.24-1.36
		c-1.83,0-6.2,1.01-8.89,2.55c-5.12-3.16-7.62-6.84-7.62-11.23c0-1.14,0.24-2.38,0.74-3.6l1.58,1.12c1.13,0.8,2.69,0.53,3.49-0.59
		c0.16-0.23,0.11-0.54-0.12-0.7l-3.41-2.42c0.36-0.44,0.77-0.87,1.22-1.28L28.15,29c1.13,0.8,2.69,0.53,3.49-0.59l0,0
		c0.16-0.23,0.11-0.54-0.12-0.7l-3.17-2.25c0.68-0.35,1.42-0.67,2.23-0.95l2.45,1.74c1.13,0.8,2.69,0.53,3.49-0.59l0,0
		c0.16-0.23,0.11-0.54-0.12-0.7l-1.75-1.24c0.15,0,0.31-0.01,0.5-0.01c5.71-0.09,10.35-4.75,10.35-10.39v-2.85
		C49.86,10.2,53.49,6.35,53.51,3.89z M16.17,15.81c4.42,0.26,7.29,3.18,8.37,8.51c-1.23,0.94-2.23,2-3.01,3.12
		c-3.61-3.37-8.02-3.45-11.32-2.56C11.25,21.42,13.36,18.27,16.17,15.81z M9.57,28.31c2.09-0.86,6.83-2.12,10.49,1.93
		c-0.58,1.52-0.85,3.06-0.85,4.49c0,0.26,0.01,0.51,0.03,0.77c-3.47,0.44-5.7,2.22-6.99,4c-1.71-2.64-2.75-5.91-2.75-9.91
		C9.5,29.16,9.54,28.74,9.57,28.31z M38.74,46.42c0.4,0,0.79,0.17,1.1,0.48c0.22,0.22,0.39,0.49,0.5,0.8
		c-0.12,0.05-0.26,0.11-0.42,0.17c-1.02,0.41-2.08,0.82-2.83,1.68c-0.55,0.62-0.8,1.47-0.66,2.29c0.19,1.14,0.87,2.04,1.55,2.93
		c0.04,0.06,0.12,0.15,0.2,0.26c-0.26,0.2-0.55,0.35-0.86,0.42c-0.43,0.11-0.87,0.06-1.21-0.14c-2.34-1.37-4.99-4.95-5.52-6.28
		C31.73,48.01,36.58,46.42,38.74,46.42z M27.61,48.11c-0.03,0.08-0.04,0.18-0.05,0.27c-4.83-0.72-9.81-2.71-13.32-6.36
		c0.58-1.14,2.09-3.16,5.48-3.53C20.74,42.17,23.35,45.34,27.61,48.11z M42.5,13.33c0,4.01-3.32,7.33-7.4,7.39
		c-1.43,0.02-1.9,0.08-2.16,0.12c-2.2,0.39-4.07,1.02-5.68,1.81c-1.24-4.77-3.92-7.97-7.71-9.26c3.14-1.83,6.78-2.92,10.59-2.92
		H42.5V13.33z"/>
</g>
</svg>
