<?xml version="1.0" encoding="utf-8"?>
<!-- Generator: Adobe Illustrator 21.1.0, SVG Export Plug-In . SVG Version: 6.00 Build 0)  -->
<svg version="1.1" id="EPS" xmlns="http://www.w3.org/2000/svg" xmlns:xlink="http://www.w3.org/1999/xlink" x="0px" y="0px"
	 viewBox="0 0 60 60" style="enable-background:new 0 0 60 60;" xml:space="preserve">
<g>
	<path d="M54.63,20.91c-0.1-0.26-0.4-0.4-0.66-0.29l-0.13,0.05c-1.21,0.47-1.81,1.78-1.46,3.03c2.26,8.04,0.04,16.76-5.94,22.74
		C37.4,55.48,22.7,55.5,13.63,46.5h5.87c1.38,0,2.5-1.12,2.5-2.5c0-0.28-0.22-0.5-0.5-0.5h-11c-1.1,0-2,0.9-2,2v11
		C8.5,56.78,8.72,57,9,57c1.38,0,2.5-1.12,2.5-2.5v-5.88c5.11,5.08,11.8,7.62,18.5,7.62c6.72,0,13.44-2.56,18.56-7.68
		C55.81,41.31,58.17,30.51,54.63,20.91z"/>
	<path d="M13.56,13.56C22.6,4.52,37.3,4.5,46.37,13.5H40.5c-1.38,0-2.5,1.12-2.5,2.5c0,0.28,0.22,0.5,0.5,0.5h11c1.1,0,2-0.9,2-2
		v-11C51.5,3.22,51.28,3,51,3c-1.38,0-2.5,1.12-2.5,2.5v5.88C38.26,1.2,21.65,1.22,11.44,11.44C4.18,18.7,1.83,29.5,5.37,39.1
		c0.1,0.26,0.4,0.4,0.66,0.29l0.12-0.05c1.21-0.47,1.81-1.79,1.46-3.03C5.35,28.27,7.57,19.55,13.56,13.56z"/>
	<path d="M17.1,33.31c-0.43,0-0.81-0.04-1.12-0.11c-0.32-0.07-0.59-0.16-0.82-0.27c-0.25-0.13-0.41-0.05-0.49,0.23l-0.49,1.82
		c-0.06,0.19,0,0.34,0.18,0.43c0.3,0.16,0.7,0.29,1.2,0.41c0.5,0.11,1.05,0.17,1.67,0.17c0.78,0,1.47-0.09,2.06-0.27
		s1.09-0.44,1.49-0.77s0.71-0.73,0.91-1.19S22,32.8,22,32.25c0-0.43-0.07-0.82-0.2-1.15c-0.13-0.33-0.31-0.62-0.53-0.86
		c-0.22-0.24-0.48-0.43-0.77-0.57s-0.6-0.22-0.93-0.24v-0.07c0.26-0.08,0.52-0.2,0.77-0.36s0.47-0.36,0.67-0.6
		c0.19-0.25,0.35-0.54,0.47-0.88c0.12-0.34,0.18-0.73,0.18-1.16c0-0.48-0.09-0.92-0.26-1.31c-0.17-0.4-0.42-0.73-0.74-1.01
		s-0.7-0.49-1.15-0.65s-0.96-0.23-1.52-0.23c-1.06,0-1.91,0.21-2.57,0.64s-1.18,1.04-1.55,1.83c-0.11,0.19-0.06,0.35,0.14,0.47
		l1.53,0.88c0.23,0.12,0.4,0.07,0.52-0.16c0.19-0.36,0.42-0.62,0.68-0.77c0.26-0.16,0.57-0.23,0.92-0.23c0.31,0,0.58,0.1,0.8,0.3
		c0.22,0.2,0.33,0.48,0.33,0.85c0,0.47-0.18,0.82-0.54,1.05s-0.93,0.35-1.71,0.35h-0.29c-0.17,0-0.25,0.08-0.25,0.25v1.87
		c0,0.17,0.08,0.25,0.25,0.25h0.29c0.82,0,1.42,0.11,1.8,0.32s0.58,0.54,0.58,0.99C18.92,32.89,18.32,33.31,17.1,33.31z"/>
	<path d="M28.57,25.66c0.38,0,0.71,0.07,0.98,0.22s0.5,0.35,0.69,0.61c0.14,0.22,0.32,0.25,0.54,0.09l1.46-1.12
		c0.18-0.13,0.2-0.29,0.07-0.49c-0.18-0.26-0.38-0.51-0.6-0.74c-0.22-0.23-0.48-0.42-0.77-0.58s-0.63-0.29-1.02-0.38
		c-0.38-0.09-0.82-0.14-1.31-0.14c-0.65,0-1.28,0.12-1.91,0.35c-0.62,0.23-1.18,0.61-1.67,1.13s-0.88,1.2-1.18,2.04
		s-0.45,1.86-0.45,3.06c0,1.1,0.1,2.05,0.31,2.83c0.21,0.78,0.52,1.43,0.92,1.94s0.89,0.88,1.47,1.12c0.58,0.24,1.23,0.36,1.96,0.36
		c0.65,0,1.23-0.1,1.75-0.31s0.97-0.5,1.33-0.87c0.37-0.38,0.65-0.83,0.85-1.37s0.3-1.14,0.3-1.81c0-0.64-0.09-1.2-0.26-1.69
		c-0.18-0.49-0.41-0.91-0.72-1.24c-0.31-0.34-0.68-0.59-1.11-0.76s-0.9-0.26-1.4-0.26s-0.95,0.08-1.34,0.24s-0.71,0.38-0.95,0.64
		h-0.05c0.07-0.97,0.28-1.7,0.61-2.18S27.91,25.66,28.57,25.66z M27.09,30.25c0.24-0.14,0.55-0.22,0.94-0.22
		c0.96,0,1.44,0.55,1.44,1.66c0,0.56-0.14,0.97-0.41,1.23c-0.28,0.26-0.61,0.39-1.01,0.39c-0.24,0-0.45-0.04-0.64-0.13
		s-0.34-0.22-0.47-0.41s-0.23-0.45-0.31-0.77s-0.14-0.73-0.17-1.22C26.64,30.57,26.85,30.4,27.09,30.25z"/>
	<path d="M40.34,23.5c-0.59-0.23-1.19-0.35-1.82-0.35s-1.23,0.12-1.82,0.35s-1.11,0.61-1.56,1.12c-0.45,0.52-0.81,1.18-1.09,2
		s-0.41,1.8-0.41,2.95s0.14,2.14,0.41,2.95c0.28,0.82,0.64,1.48,1.09,2s0.97,0.89,1.56,1.12c0.59,0.24,1.2,0.36,1.82,0.36
		s1.23-0.12,1.82-0.35s1.11-0.61,1.56-1.12s0.81-1.18,1.09-2s0.41-1.8,0.41-2.95s-0.14-2.14-0.41-2.95c-0.28-0.82-0.64-1.48-1.09-2
		C41.45,24.1,40.93,23.73,40.34,23.5z M40.11,31.3c-0.08,0.47-0.2,0.85-0.35,1.14c-0.15,0.29-0.33,0.51-0.54,0.64
		s-0.44,0.2-0.69,0.2s-0.48-0.07-0.69-0.2s-0.39-0.34-0.54-0.64c-0.15-0.29-0.27-0.68-0.35-1.14c-0.08-0.47-0.13-1.04-0.13-1.73
		c0-1.36,0.16-2.32,0.48-2.91c0.32-0.58,0.73-0.87,1.23-0.87s0.92,0.29,1.23,0.87c0.32,0.58,0.48,1.55,0.48,2.91
		C40.23,30.25,40.19,30.83,40.11,31.3z"/>
	<path d="M44.46,23.49c-0.5,0.5-0.74,1.13-0.74,1.91s0.25,1.42,0.74,1.92s1.13,0.75,1.91,0.75c0.79,0,1.43-0.25,1.93-0.74
		c0.5-0.5,0.74-1.14,0.74-1.93c0-0.78-0.25-1.42-0.74-1.91s-1.14-0.74-1.93-0.74C45.59,22.75,44.95,23,44.46,23.49z M47.54,25.41
		c0,0.36-0.11,0.65-0.32,0.88s-0.5,0.34-0.85,0.34c-0.34,0-0.62-0.11-0.83-0.34c-0.22-0.23-0.32-0.52-0.32-0.88
		c0-0.35,0.11-0.64,0.32-0.86c0.21-0.23,0.49-0.34,0.83-0.34s0.62,0.11,0.84,0.34C47.43,24.77,47.54,25.06,47.54,25.41z"/>
</g>
</svg>
