<?xml version="1.0" encoding="utf-8"?>
<!-- Generator: Adobe Illustrator 21.1.0, SVG Export Plug-In . SVG Version: 6.00 Build 0)  -->
<svg version="1.1" id="eps_1_" xmlns="http://www.w3.org/2000/svg" xmlns:xlink="http://www.w3.org/1999/xlink" x="0px" y="0px"
	 viewBox="0 0 60 60" style="enable-background:new 0 0 60 60;" xml:space="preserve">
<g>
	<path d="M30.17,42.71L19.5,53.38V5.5C19.5,4.12,18.38,3,17,3c-0.28,0-0.5,0.22-0.5,0.5v49.88L5.83,42.71
		c-0.98-0.98-2.56-0.98-3.54,0c-0.2,0.2-0.2,0.51,0,0.71l14.29,14.29c0.78,0.78,2.05,0.78,2.83,0L33.7,43.42
		c0.2-0.2,0.2-0.51,0-0.71C32.73,41.73,31.15,41.73,30.17,42.71z"/>
	<path d="M57.71,16.59l-14.3-14.3c-0.78-0.78-2.05-0.78-2.83,0l-14.29,14.3c-0.2,0.2-0.2,0.51,0,0.71c0.98,0.98,2.56,0.98,3.54,0
		L40.5,6.62V54.5c0,1.38,1.12,2.5,2.5,2.5c0.28,0,0.5-0.22,0.5-0.5V6.62l10.67,10.67c0.98,0.98,2.56,0.98,3.54,0
		C57.9,17.1,57.9,16.78,57.71,16.59z"/>
</g>
</svg>
