<?xml version="1.0" encoding="utf-8"?>
<!-- Generator: Adobe Illustrator 21.1.0, SVG Export Plug-In . SVG Version: 6.00 Build 0)  -->
<svg version="1.1" id="EPS" xmlns="http://www.w3.org/2000/svg" xmlns:xlink="http://www.w3.org/1999/xlink" x="0px" y="0px"
	 viewBox="0 0 60 60" style="enable-background:new 0 0 60 60;" xml:space="preserve">
<g>
	<path d="M30,1.5C14.29,1.5,1.5,14.29,1.5,30S14.29,58.5,30,58.5S58.5,45.71,58.5,30S45.71,1.5,30,1.5z M30,55.5
		C15.94,55.5,4.5,44.06,4.5,30S15.94,4.5,30,4.5S55.5,15.94,55.5,30S44.06,55.5,30,55.5z"/>
	<path d="M27.53,13.08c-0.15-0.23-0.46-0.29-0.69-0.14c-1.15,0.77-1.46,2.32-0.69,3.47L35.2,30l-9.06,13.59
		c-0.77,1.15-0.46,2.7,0.69,3.47c0.23,0.15,0.54,0.09,0.69-0.14l10.54-15.81c0.45-0.67,0.45-1.55,0-2.22L27.53,13.08z"/>
</g>
</svg>
