<?xml version="1.0" encoding="utf-8"?>
<!-- Generator: Adobe Illustrator 21.1.0, SVG Export Plug-In . SVG Version: 6.00 Build 0)  -->
<svg version="1.1" id="eps" xmlns="http://www.w3.org/2000/svg" xmlns:xlink="http://www.w3.org/1999/xlink" x="0px" y="0px"
	 viewBox="0 0 60 60" style="enable-background:new 0 0 60 60;" xml:space="preserve">
<g>
	<path d="M56.5,28.5h-53C3.22,28.5,3,28.72,3,29c0,1.38,1.12,2.5,2.5,2.5h51c0.28,0,0.5-0.22,0.5-0.5v-2
		C57,28.72,56.78,28.5,56.5,28.5z"/>
	<path d="M56.5,16.5h-53C3.22,16.5,3,16.72,3,17c0,1.38,1.12,2.5,2.5,2.5h51c0.28,0,0.5-0.22,0.5-0.5v-2
		C57,16.72,56.78,16.5,56.5,16.5z"/>
	<path d="M56.5,40.5h-53C3.22,40.5,3,40.72,3,41c0,1.38,1.12,2.5,2.5,2.5h51c0.28,0,0.5-0.22,0.5-0.5v-2
		C57,40.72,56.78,40.5,56.5,40.5z"/>
</g>
</svg>
