<?xml version="1.0" encoding="utf-8"?>
<!-- Generator: Adobe Illustrator 21.1.0, SVG Export Plug-In . SVG Version: 6.00 Build 0)  -->
<svg version="1.1" id="eps_1_" xmlns="http://www.w3.org/2000/svg" xmlns:xlink="http://www.w3.org/1999/xlink" x="0px" y="0px"
	 viewBox="0 0 60 60" style="enable-background:new 0 0 60 60;" xml:space="preserve">
<g>
	<path d="M57.8,11.72c-0.31-0.27-0.65-0.55-0.8-0.67c-3.9-3.1-8.13-4.6-13.01-4.54C38.53,6.55,33.84,8.08,30,11.06
		C26.2,8.15,21.17,6.5,16,6.5c-4.73,0-8.67,1.39-13,4.61c-0.13,0.1-0.43,0.33-0.73,0.57c-0.49,0.38-0.77,0.96-0.77,1.58V52
		c0,1.26,1.45,1.96,2.43,1.17C8.12,49.86,11.61,48.5,16,48.5c4.37,0,8.76,1.41,12,3.81c0.12,0.09,0.4,0.32,0.71,0.58
		c0.75,0.63,1.84,0.63,2.58,0c0.31-0.26,0.59-0.49,0.71-0.58c3.24-2.4,7.63-3.81,12-3.81c4.59,0,8.41,1.47,12.01,4.63
		c0.97,0.85,2.49,0.16,2.49-1.13V13.24C58.5,12.65,58.24,12.1,57.8,11.72z M16,45.5c-4.18,0-7.74,1.08-11.5,3.56V13.73
		c3.94-3,7.31-4.23,11.5-4.23c4.61,0,9.22,1.58,12.51,4.22l-0.01,35.3C24.92,46.76,20.52,45.5,16,45.5z M55.5,48.95
		c-3.46-2.32-7.25-3.45-11.5-3.45c-4.52,0-8.92,1.26-12.5,3.52l0.01-35.3c3.37-2.74,7.56-4.17,12.51-4.22
		c4.25-0.04,8.03,1.33,11.49,4.19v35.26H55.5z"/>
	<path d="M24.21,39.44c-1.25-0.55-4.77-1.94-8.21-1.94s-6.94,1.39-8.18,1.94c-0.26,0.11-0.37,0.42-0.23,0.7l0.06,0.12
		c0.55,1.13,1.86,1.68,3.05,1.27c1.43-0.5,3.41-1.03,5.3-1.03c2.81,0,5.84,1.18,6.94,1.66c0.25,0.11,0.52,0,0.64-0.24l0.87-1.8
		C24.58,39.86,24.47,39.55,24.21,39.44z"/>
	<path d="M24.21,31.44c-1.25-0.55-4.77-1.94-8.21-1.94s-6.94,1.39-8.18,1.94c-0.26,0.11-0.37,0.42-0.23,0.7l0.06,0.12
		c0.55,1.13,1.86,1.68,3.05,1.27c1.43-0.5,3.41-1.03,5.3-1.03c2.81,0,5.84,1.18,6.94,1.66c0.25,0.11,0.52,0,0.64-0.24l0.87-1.8
		C24.58,31.86,24.47,31.55,24.21,31.44z"/>
	<path d="M24.21,23.44c-1.25-0.55-4.77-1.94-8.21-1.94s-6.94,1.39-8.18,1.94c-0.26,0.11-0.37,0.42-0.23,0.7l0.06,0.12
		c0.55,1.13,1.86,1.68,3.05,1.27c1.43-0.5,3.41-1.03,5.3-1.03c2.81,0,5.84,1.18,6.94,1.66c0.25,0.11,0.52,0,0.64-0.24l0.87-1.8
		C24.58,23.86,24.47,23.55,24.21,23.44z"/>
	<path d="M7.65,16.26c0.55,1.13,1.86,1.68,3.05,1.27c1.43-0.5,3.41-1.03,5.3-1.03c2.81,0,5.84,1.18,6.94,1.66
		c0.25,0.11,0.52,0,0.64-0.24l0.87-1.8c0.12-0.26,0.02-0.56-0.24-0.67c-1.25-0.55-4.77-1.94-8.21-1.94s-6.94,1.39-8.18,1.94
		c-0.26,0.11-0.37,0.42-0.23,0.7L7.65,16.26z"/>
	<path d="M52.2,39.44c-1.25-0.55-4.77-1.94-8.21-1.94s-6.94,1.39-8.18,1.94c-0.26,0.11-0.37,0.42-0.23,0.7l0.06,0.12
		c0.55,1.13,1.86,1.68,3.05,1.27c1.42-0.49,3.4-1.03,5.3-1.03c2.81,0,5.84,1.18,6.94,1.66c0.25,0.11,0.52,0,0.64-0.24l0.87-1.8
		C52.57,39.86,52.46,39.55,52.2,39.44z"/>
	<path d="M52.2,31.44c-1.25-0.55-4.77-1.94-8.21-1.94s-6.94,1.39-8.18,1.94c-0.26,0.11-0.37,0.42-0.23,0.7l0.06,0.12
		c0.55,1.13,1.86,1.68,3.05,1.27c1.42-0.49,3.4-1.03,5.3-1.03c2.81,0,5.84,1.18,6.94,1.66c0.25,0.11,0.52,0,0.64-0.24l0.87-1.8
		C52.57,31.86,52.46,31.55,52.2,31.44z"/>
	<path d="M52.2,23.44c-1.25-0.55-4.77-1.94-8.21-1.94s-6.94,1.39-8.18,1.94c-0.26,0.11-0.37,0.42-0.23,0.7l0.06,0.12
		c0.55,1.13,1.86,1.68,3.05,1.27c1.42-0.49,3.4-1.03,5.3-1.03c2.81,0,5.84,1.18,6.94,1.66c0.25,0.11,0.52,0,0.64-0.24l0.87-1.8
		C52.57,23.86,52.46,23.55,52.2,23.44z"/>
	<path d="M35.81,15.44c-0.26,0.11-0.37,0.42-0.23,0.7l0.06,0.12c0.55,1.13,1.86,1.68,3.05,1.27c1.42-0.49,3.4-1.03,5.3-1.03
		c2.81,0,5.84,1.18,6.94,1.66c0.25,0.11,0.52,0,0.64-0.24l0.87-1.8c0.12-0.26,0.02-0.56-0.24-0.67c-1.25-0.55-4.77-1.94-8.21-1.94
		C40.55,13.5,37.05,14.89,35.81,15.44z"/>
</g>
</svg>
