<?xml version="1.0" encoding="utf-8"?>
<!-- Generator: Adobe Illustrator 21.1.0, SVG Export Plug-In . SVG Version: 6.00 Build 0)  -->
<svg version="1.1" id="eps" xmlns="http://www.w3.org/2000/svg" xmlns:xlink="http://www.w3.org/1999/xlink" x="0px" y="0px"
	 viewBox="0 0 60 60" style="enable-background:new 0 0 60 60;" xml:space="preserve">
<g>
	<path d="M56.5,7.5h-7v-1v-3c0-1.1-0.9-2-2-2h-5c-1.1,0-2,0.9-2,2v3v1h-21v-4c0-1.1-0.9-2-2-2h-5c-1.1,0-2,0.9-2,2v4h-7
		c-1.1,0-2,0.9-2,2V47c0,6.35,5.15,11.5,11.5,11.5h43.5c1.1,0,2-0.9,2-2v-47C58.5,8.4,57.6,7.5,56.5,7.5z M43.5,6.5v-2h3v2v3.9h-3
		V6.5z M13.5,7.5v-3h3v3v2.96h-3V7.5z M55.5,55.5H13c-4.69,0-8.5-3.81-8.5-8.5V19.48h51V55.5z M55.5,16.48h-51V10.5h6v0.81
		c0,0.93,0.9,1.69,2,1.69h5c1.1,0,2-0.76,2-1.69V10.5h21v0.77c0,0.96,0.9,1.73,2,1.73h5c1.1,0,2-0.78,2-1.73V10.5h6V16.48z"/>
	<path d="M14.81,30.8c0.07,0.19,0.18,0.32,0.32,0.38c0.14,0.06,0.3,0.05,0.47-0.02l3.82-1.44v19.22c0,0.19,0.05,0.34,0.16,0.45
		s0.26,0.16,0.45,0.16h3.74c0.19,0,0.34-0.05,0.45-0.16s0.16-0.26,0.16-0.45V25.33c0-0.19-0.05-0.34-0.16-0.45s-0.26-0.16-0.45-0.16
		h-2.74c-0.12,0-0.24,0.01-0.36,0.04c-0.12,0.02-0.23,0.06-0.32,0.11l-6.08,2.48c-0.17,0.07-0.28,0.17-0.34,0.31
		c-0.06,0.13-0.07,0.29-0.02,0.49L14.81,30.8z"/>
	<path d="M29.28,31.16l2.84,1.01c0.22,0.07,0.39,0.07,0.52,0s0.22-0.22,0.27-0.43c0.31-1.06,0.76-1.84,1.35-2.36
		s1.33-0.77,2.21-0.77c0.96,0,1.7,0.3,2.21,0.9c0.52,0.6,0.77,1.44,0.77,2.52c0,1.03-0.24,2.03-0.72,3.01
		c-0.48,0.97-1.42,2.21-2.81,3.73l-6.37,6.88c-0.1,0.12-0.17,0.24-0.22,0.36s-0.07,0.25-0.07,0.4v2.56c0,0.19,0.05,0.34,0.16,0.45
		s0.26,0.16,0.45,0.16h14.29c0.19,0,0.34-0.05,0.45-0.16s0.16-0.26,0.16-0.45v-3.1c0-0.19-0.05-0.34-0.16-0.45s-0.26-0.16-0.45-0.16
		h-8.5V45.1l3.82-4c1.94-1.99,3.26-3.71,3.96-5.15c0.7-1.44,1.04-2.93,1.04-4.46c0-2.21-0.68-3.96-2.05-5.26s-3.24-1.94-5.62-1.94
		c-1.99,0-3.68,0.53-5.06,1.6s-2.35,2.57-2.9,4.52c-0.05,0.19-0.04,0.35,0.04,0.49C28.99,31.03,29.11,31.12,29.28,31.16z"/>
</g>
</svg>
