<?xml version="1.0" encoding="utf-8"?>
<!-- Generator: Adobe Illustrator 22.1.0, SVG Export Plug-In . SVG Version: 6.00 Build 0)  -->
<svg version="1.1" id="Ebene_1" xmlns="http://www.w3.org/2000/svg" xmlns:xlink="http://www.w3.org/1999/xlink" x="0px" y="0px"
	 viewBox="0 0 60 60" style="enable-background:new 0 0 60 60;" xml:space="preserve">
<g id="eps">
	<g>
		<path d="M44,29.5c-8,0-14.5,6.5-14.5,14.5S36,58.5,44,58.5S58.5,52,58.5,44S52,29.5,44,29.5z M44,55.5c-6.3,0-11.5-5.2-11.5-11.5
			S37.7,32.5,44,32.5S55.5,37.7,55.5,44S50.3,55.5,44,55.5z"/>
		<path d="M47.6,44.5l-2.1-1.2l0-7.7c0-0.3-0.2-0.5-0.5-0.5l0,0c-1.4,0-2.5,1.1-2.5,2.5l0,6.3c0,0.7,0.4,1.4,1,1.7l4.3,2.5
			c0.2,0.1,0.5,0.1,0.7-0.2C49.2,46.7,48.8,45.1,47.6,44.5z"/>
		<path d="M14.8,38.8c0.1,0.1,0.2,0.1,0.4,0.1h2.9c0.1,0,0.3,0,0.4-0.1s0.1-0.2,0.1-0.3V20c0-0.1,0-0.3-0.1-0.4s-0.2-0.1-0.4-0.1H16
			c-0.1,0-0.2,0-0.3,0s-0.2,0-0.2,0.1l-4.7,1.9c-0.1,0.1-0.2,0.1-0.3,0.2s-0.1,0.2,0,0.4l0.7,2.1c0.1,0.1,0.1,0.2,0.2,0.3
			c0.1,0,0.2,0,0.4,0l3-1.1v15C14.7,38.5,14.8,38.7,14.8,38.8z"/>
		<path d="M34.4,22.1c0-0.1,0-0.2,0-0.2V20c0-0.1,0-0.3-0.1-0.4s-0.2-0.1-0.3-0.1H22.4c-0.1,0-0.3,0-0.4,0.1s-0.1,0.2-0.1,0.4v2.4
			c0,0.1,0,0.3,0.1,0.4s0.2,0.1,0.4,0.1H30V23l-7.4,15.3c-0.1,0.2-0.1,0.3,0,0.4c0.1,0.1,0.2,0.2,0.4,0.2h3.3c0.1,0,0.2,0,0.3-0.1
			c0.1-0.1,0.2-0.2,0.2-0.3l7.6-16.1C34.4,22.3,34.4,22.2,34.4,22.1z"/>
		<path d="M25.5,43.5H13c-4.7,0-8.5-3.8-8.5-8.5V16.5h37v9c0,0.3,0.2,0.5,0.5,0.5c1.4,0,2.5-1.1,2.5-2.5v-16c0-1.1-0.9-2-2-2h-4.6
			v-2c0-1.1-0.9-2-2-2h-5.4c-1.1,0-2,0.9-2,2v2h-11v-2c0-1.1-0.9-2-2-2h-5.4c-1.1,0-2,0.9-2,2v2H3.5c-1.1,0-2,0.9-2,2V35
			c0,6.3,5.2,11.5,11.5,11.5h10.5c1.4,0,2.5-1.1,2.5-2.5C26,43.7,25.8,43.5,25.5,43.5z M31.5,4.5h3.4v3.7h-3.4V4.5z M11.1,4.5h3.4
			v3.7h-3.4V4.5z M8.1,8.5v0.7c0,1.1,0.9,2,2,2h5.4c1.1,0,2-0.9,2-2V8.5h11v0.7c0,1.1,0.9,2,2,2h5.4c1.1,0,2-0.9,2-2V8.5h3.6v5h-37
			v-5H8.1z"/>
	</g>
</g>
</svg>
