<?xml version="1.0" encoding="utf-8"?>
<!-- Generator: Adobe Illustrator 21.1.0, SVG Export Plug-In . SVG Version: 6.00 Build 0)  -->
<svg version="1.1" id="eps" xmlns="http://www.w3.org/2000/svg" xmlns:xlink="http://www.w3.org/1999/xlink" x="0px" y="0px"
	 viewBox="0 0 60 60" style="enable-background:new 0 0 60 60;" xml:space="preserve">
<g>
	<path d="M56.5,1.5h-53c-1.1,0-2,0.9-2,2V47c0,6.35,5.15,11.5,11.5,11.5h43.5c1.1,0,2-0.9,2-2v-53C58.5,2.4,57.6,1.5,56.5,1.5z
		 M55.5,55.5H13c-4.69,0-8.5-3.81-8.5-8.5V4.5h51V55.5z"/>
	<path d="M26,19.5h21.5c0.28,0,0.5-0.22,0.5-0.5v-2c0-0.28-0.22-0.5-0.5-0.5h-23c-0.28,0-0.5,0.22-0.5,0.5v0.5
		C24,18.6,24.9,19.5,26,19.5z"/>
	<path d="M26,31.5h21.5c0.28,0,0.5-0.22,0.5-0.5v-2c0-0.28-0.22-0.5-0.5-0.5h-23c-0.28,0-0.5,0.22-0.5,0.5v0.5
		C24,30.6,24.9,31.5,26,31.5z"/>
	<path d="M26,43.5h21.5c0.28,0,0.5-0.22,0.5-0.5v-2c0-0.28-0.22-0.5-0.5-0.5h-23c-0.28,0-0.5,0.22-0.5,0.5v0.5
		C24,42.6,24.9,43.5,26,43.5z"/>
	<path d="M15,25.75c-2.34,0-4.25,1.91-4.25,4.25s1.91,4.25,4.25,4.25s4.25-1.91,4.25-4.25S17.34,25.75,15,25.75z M15,31.75
		c-0.96,0-1.75-0.79-1.75-1.75s0.79-1.75,1.75-1.75s1.75,0.79,1.75,1.75S15.96,31.75,15,31.75z"/>
	<path d="M15,37.75c-2.34,0-4.25,1.91-4.25,4.25s1.91,4.25,4.25,4.25s4.25-1.91,4.25-4.25S17.34,37.75,15,37.75z M15,43.75
		c-0.96,0-1.75-0.79-1.75-1.75s0.79-1.75,1.75-1.75s1.75,0.79,1.75,1.75S15.96,43.75,15,43.75z"/>
	<path d="M12.59,19.35c0.78,0.78,2.05,0.78,2.83,0l5.12-5.12c0.2-0.2,0.2-0.51,0-0.71c-0.78-0.78-2.05-0.78-2.83,0l-3.7,3.7
		l-1.76-1.76c-0.2-0.2-0.51-0.2-0.71,0l-1.06,1.06c-0.2,0.2-0.2,0.51,0,0.71L12.59,19.35z"/>
</g>
</svg>
