<?xml version="1.0" encoding="utf-8"?>
<!-- Generator: Adobe Illustrator 21.1.0, SVG Export Plug-In . SVG Version: 6.00 Build 0)  -->
<svg version="1.1" id="eps" xmlns="http://www.w3.org/2000/svg" xmlns:xlink="http://www.w3.org/1999/xlink" x="0px" y="0px"
	 viewBox="0 0 60 60" style="enable-background:new 0 0 60 60;" xml:space="preserve">
<g>
	<path d="M56.5,23.5h-6.34c-0.74,0-1.41-0.44-1.69-1.13l-0.01-0.03c-0.29-0.69-0.13-1.48,0.4-2.01l4.48-4.48
		c0.78-0.78,0.78-2.05,0-2.83l-6.36-6.36c-0.78-0.78-2.05-0.78-2.83,0l-4.48,4.48c-0.53,0.53-1.32,0.68-2.01,0.4l-0.02-0.01
		c-0.69-0.29-1.13-0.96-1.13-1.7V3.5c0-1.1-0.9-2-2-2h-9c-1.1,0-2,0.9-2,2v6.34c0,0.74-0.44,1.41-1.13,1.69l-0.03,0.01
		c-0.69,0.29-1.48,0.13-2.01-0.4l-4.48-4.48c-0.78-0.78-2.05-0.78-2.83,0l-6.36,6.36c-0.78,0.78-0.78,2.05,0,2.83l4.48,4.48
		c0.52,0.52,0.68,1.31,0.4,2l-0.01,0.03c-0.29,0.69-0.96,1.13-1.7,1.13H3.5c-1.1,0-2,0.9-2,2v9c0,1.1,0.9,2,2,2h6.34
		c0.74,0,1.41,0.44,1.69,1.13l0.01,0.03c0.29,0.69,0.13,1.48-0.4,2.01l-4.48,4.48c-0.78,0.78-0.78,2.05,0,2.83l6.36,6.36
		c0.78,0.78,2.05,0.78,2.83,0l4.48-4.48c0.53-0.53,1.32-0.68,2.01-0.4l0.02,0.01c0.69,0.29,1.13,0.96,1.13,1.7v6.33c0,1.1,0.9,2,2,2
		h9c1.1,0,2-0.9,2-2v-6.34c0-0.74,0.44-1.41,1.13-1.69l0.03-0.01c0.69-0.29,1.48-0.13,2.01,0.4l4.48,4.48
		c0.78,0.78,2.05,0.78,2.83,0l6.36-6.36c0.78-0.78,0.78-2.05,0-2.83l-4.48-4.48c-0.53-0.53-0.68-1.32-0.4-2.01l0.01-0.03
		c0.28-0.68,0.95-1.13,1.69-1.13h6.34c1.1,0,2-0.9,2-2v-9C58.5,24.4,57.6,23.5,56.5,23.5z M55.5,33.5h-6.96
		c-1.09,0-2.04,0.72-2.38,1.76c-0.28,0.84-0.62,1.66-1.02,2.44c-0.5,0.98-0.34,2.16,0.43,2.94l0.81,0.81l0,0l1.27,1.27l2.85,2.85
		l0,0l0,0l-4.95,4.95l0,0l0,0l-2.74-2.74l-1.37-1.37l0,0l-0.81-0.81c-0.78-0.78-1.96-0.94-2.94-0.43c-0.78,0.4-1.59,0.74-2.44,1.02
		c-1.04,0.34-1.76,1.29-1.76,2.38v6.96h-7v-6.96c0-1.09-0.72-2.04-1.76-2.38c-0.84-0.28-1.66-0.62-2.44-1.02
		c-0.98-0.5-2.16-0.34-2.94,0.43l-0.81,0.81l0,0l-3.57,3.57l-0.55,0.55l-4.33-4.33l-0.62-0.62l0,0l0,0l2.85-2.85l1.27-1.27l0,0
		l0.81-0.81c0.78-0.78,0.94-1.96,0.43-2.94c-0.4-0.78-0.74-1.59-1.02-2.44c-0.34-1.04-1.29-1.76-2.38-1.76H4.5v-7h6.96
		c1.09,0,2.04-0.72,2.38-1.76c0.28-0.84,0.62-1.65,1.01-2.43c0.5-0.98,0.34-2.17-0.44-2.94l-0.81-0.81l0,0l-4.12-4.12l4.95-4.95
		l4.12,4.12l0,0l0.81,0.81c0.78,0.78,1.96,0.94,2.94,0.43c0.78-0.4,1.59-0.74,2.44-1.02c1.04-0.34,1.76-1.29,1.76-2.38V4.5h7v6.96
		c0,1.09,0.72,2.04,1.76,2.38c0.84,0.28,1.66,0.62,2.44,1.02c0.98,0.5,2.16,0.34,2.94-0.44c0.44-0.44,0.81-0.81,0.81-0.81l0,0
		l1.27-1.27l2.85-2.85l0,0l0,0l0.62,0.62l4.33,4.33l-0.59,0.59l-3.53,3.53l0,0l-0.81,0.81c-0.78,0.78-0.94,1.96-0.43,2.94
		c0.4,0.78,0.74,1.59,1.02,2.44c0.34,1.04,1.29,1.76,2.38,1.76h6.96v6.99H55.5z"/>
	<path d="M31.56,18.1c-7.85-0.99-14.45,5.61-13.46,13.46c0.67,5.35,4.99,9.67,10.34,10.34c7.85,0.99,14.45-5.61,13.46-13.46
		C41.23,23.09,36.91,18.77,31.56,18.1z M38.87,31.53c-0.62,3.73-3.62,6.73-7.35,7.35c-6.15,1.02-11.42-4.25-10.4-10.4
		c0.62-3.73,3.62-6.73,7.35-7.35C34.62,20.11,39.89,25.38,38.87,31.53z"/>
</g>
</svg>
