<?xml version="1.0" encoding="utf-8"?>
<!-- Generator: Adobe Illustrator 21.1.0, SVG Export Plug-In . SVG Version: 6.00 Build 0)  -->
<svg version="1.1" id="eps" xmlns="http://www.w3.org/2000/svg" xmlns:xlink="http://www.w3.org/1999/xlink" x="0px" y="0px"
	 viewBox="0 0 60 60" style="enable-background:new 0 0 60 60;" xml:space="preserve">
<g>
	<path d="M56.5,13.5h-8.77c-0.67-2.58-3.01-4.5-5.8-4.5s-5.13,1.92-5.8,4.5H3.5C3.22,13.5,3,13.72,3,14c0,1.38,1.12,2.5,2.5,2.5
		h30.62c0.67,2.58,3.01,4.5,5.8,4.5s5.13-1.92,5.8-4.5h8.77c0.28,0,0.5-0.22,0.5-0.5v-2C57,13.72,56.78,13.5,56.5,13.5z M41.92,18
		c-1.65,0-3-1.35-3-3s1.35-3,3-3s3,1.35,3,3S43.58,18,41.92,18z"/>
	<path d="M56.5,28.5H22.3c-0.67-2.58-3.01-4.5-5.8-4.5s-5.13,1.92-5.8,4.5H3.5C3.22,28.5,3,28.72,3,29c0,1.38,1.12,2.5,2.5,2.5h5.2
		c0.67,2.58,3.01,4.5,5.8,4.5s5.13-1.92,5.8-4.5h34.2c0.28,0,0.5-0.22,0.5-0.5v-2C57,28.72,56.78,28.5,56.5,28.5z M16.5,33
		c-1.65,0-3-1.35-3-3s1.35-3,3-3s3,1.35,3,3S18.15,33,16.5,33z"/>
	<path d="M56.5,43.5H38.78c-0.67-2.58-3.01-4.5-5.8-4.5s-5.13,1.92-5.8,4.5H3.5C3.22,43.5,3,43.72,3,44c0,1.38,1.12,2.5,2.5,2.5
		h21.67c0.67,2.58,3.01,4.5,5.8,4.5s5.13-1.92,5.8-4.5H56.5c0.28,0,0.5-0.22,0.5-0.5v-2C57,43.72,56.78,43.5,56.5,43.5z M32.97,48
		c-1.65,0-3-1.35-3-3s1.35-3,3-3c1.65,0,3,1.35,3,3S34.63,48,32.97,48z"/>
</g>
</svg>
