<?xml version="1.0" encoding="utf-8"?>
<!-- Generator: Adobe Illustrator 21.1.0, SVG Export Plug-In . SVG Version: 6.00 Build 0)  -->
<svg version="1.1" id="eps" xmlns="http://www.w3.org/2000/svg" xmlns:xlink="http://www.w3.org/1999/xlink" x="0px" y="0px"
	 viewBox="0 0 60 60" style="enable-background:new 0 0 60 60;" xml:space="preserve">
<g>
	<circle cx="30" cy="30" r="4"/>
	<path d="M57.5,28.5h-12c-0.28,0-0.5,0.22-0.5,0.5v2c0,0.28,0.22,0.5,0.5,0.5h10c1.38,0,2.5-1.12,2.5-2.5
		C58,28.72,57.78,28.5,57.5,28.5z"/>
	<path d="M15,31v-2c0-0.28-0.22-0.5-0.5-0.5h-12C2.22,28.5,2,28.72,2,29c0,1.38,1.12,2.5,2.5,2.5h10C14.78,31.5,15,31.28,15,31z"/>
	<path d="M29,15h2c0.28,0,0.5-0.22,0.5-0.5v-12C31.5,2.22,31.28,2,31,2c-1.38,0-2.5,1.12-2.5,2.5v10C28.5,14.78,28.72,15,29,15z"/>
	<path d="M31,45h-2c-0.28,0-0.5,0.22-0.5,0.5v10c0,1.38,1.12,2.5,2.5,2.5c0.28,0,0.5-0.22,0.5-0.5v-12C31.5,45.22,31.28,45,31,45z"
		/>
	<path d="M36.36,8.42c7.3,2.15,13.07,7.92,15.22,15.22c0.06,0.21,0.25,0.36,0.47,0.36h2.08c0.33,0,0.58-0.31,0.49-0.63
		c-2.36-8.74-9.25-15.63-17.99-17.99C36.31,5.3,36,5.54,36,5.87v2.08C36,8.17,36.15,8.36,36.36,8.42z"/>
	<path d="M23.37,5.38C14.63,7.74,7.74,14.63,5.38,23.37C5.3,23.69,5.54,24,5.87,24h2.08c0.22,0,0.41-0.15,0.47-0.36
		c2.15-7.3,7.92-13.07,15.22-15.22C23.85,8.36,24,8.17,24,7.95V5.87C24,5.54,23.69,5.3,23.37,5.38z"/>
	<path d="M23.64,51.58c-7.3-2.15-13.07-7.92-15.22-15.22C8.36,36.15,8.17,36,7.95,36H5.87c-0.33,0-0.58,0.31-0.49,0.63
		c2.36,8.74,9.25,15.63,17.99,17.99C23.69,54.7,24,54.46,24,54.13v-2.08C24,51.83,23.85,51.64,23.64,51.58z"/>
	<path d="M54.13,36h-2.08c-0.22,0-0.41,0.15-0.47,0.36c-2.15,7.3-7.92,13.07-15.22,15.22C36.15,51.64,36,51.83,36,52.05v2.08
		c0,0.33,0.31,0.58,0.63,0.49c8.74-2.36,15.63-9.25,17.99-17.99C54.7,36.31,54.46,36,54.13,36z"/>
</g>
</svg>
