<?xml version="1.0" encoding="utf-8"?>
<!-- Generator: Adobe Illustrator 21.1.0, SVG Export Plug-In . SVG Version: 6.00 Build 0)  -->
<svg version="1.1" id="eps" xmlns="http://www.w3.org/2000/svg" xmlns:xlink="http://www.w3.org/1999/xlink" x="0px" y="0px"
	 viewBox="0 0 60 60" style="enable-background:new 0 0 60 60;" xml:space="preserve">
<g>
	<path d="M20.52,13.5h21c0.28,0,0.5-0.22,0.5-0.5v-2c0-0.28-0.22-0.5-0.5-0.5h-23c-0.28,0-0.5,0.22-0.5,0.5
		C18.02,12.38,19.14,13.5,20.52,13.5z"/>
	<path d="M20.52,22.5h9c0.28,0,0.5-0.22,0.5-0.5v-2c0-0.28-0.22-0.5-0.5-0.5h-11c-0.28,0-0.5,0.22-0.5,0.5
		C18.02,21.38,19.14,22.5,20.52,22.5z"/>
	<path d="M36.02,31v-2c0-0.28-0.22-0.5-0.5-0.5h-17c-0.28,0-0.5,0.22-0.5,0.5c0,1.38,1.12,2.5,2.5,2.5h15
		C35.79,31.5,36.02,31.28,36.02,31z"/>
	<path d="M56.52,22.5h-4v-19c0-1.1-0.9-2-2-2h-41c-1.1,0-2,0.9-2,2v19h-4c-1.1,0-2,0.9-2,2V47c0,6.35,5.15,11.5,11.5,11.5h43.5
		c1.1,0,2-0.9,2-2v-32C58.52,23.4,57.62,22.5,56.52,22.5z M10.52,4.5h39v24.16l-19.5,17.33l-19.5-17.33V4.5z M55.52,55.5h-42.5
		c-4.69,0-8.5-3.81-8.5-8.5V27.34l24.17,21.49c0.76,0.67,1.9,0.67,2.66,0l24.17-21.49V55.5z"/>
</g>
</svg>
