<?xml version="1.0" encoding="utf-8"?>
<!-- Generator: Adobe Illustrator 21.1.0, SVG Export Plug-In . SVG Version: 6.00 Build 0)  -->
<svg version="1.1" id="eps" xmlns="http://www.w3.org/2000/svg" xmlns:xlink="http://www.w3.org/1999/xlink" x="0px" y="0px"
	 viewBox="0 0 60 60" style="enable-background:new 0 0 60 60;" xml:space="preserve">
<path d="M56.44,10.45H3.46c-1.1,0-2,0.9-2,2v25.49c0,6.35,5.15,11.5,11.5,11.5h43.48c1.1,0,2-0.9,2-2V12.45
	C58.44,11.35,57.54,10.45,56.44,10.45z M53.01,13.45L30,33.99L6.9,13.45H53.01z M55.44,46.44H12.96c-4.69,0-8.5-3.81-8.5-8.5V15.29
	l24.21,21.53c0.76,0.67,1.9,0.67,2.66,0L55.44,15.3V46.44z"/>
</svg>
