<?xml version="1.0" encoding="utf-8"?>
<!-- Generator: Adobe Illustrator 21.1.0, SVG Export Plug-In . SVG Version: 6.00 Build 0)  -->
<svg version="1.1" id="eps" xmlns="http://www.w3.org/2000/svg" xmlns:xlink="http://www.w3.org/1999/xlink" x="0px" y="0px"
	 viewBox="0 0 60 60" style="enable-background:new 0 0 60 60;" xml:space="preserve">
<g>
	<path d="M58.46,28.64c-1.85-2-5.8-5.83-11.32-8.92c-0.2-0.11-0.45-0.08-0.61,0.08l-1.48,1.48c-0.24,0.24-0.17,0.63,0.12,0.79
		c4.95,2.68,8.6,6.03,10.46,7.93C52.2,33.54,42.6,42.02,30,42.02c-1.71,0-3.36-0.17-4.95-0.45c-0.16-0.03-0.32,0.02-0.43,0.14
		l-1.71,1.71c-0.28,0.28-0.14,0.76,0.24,0.85C25.31,44.73,27.6,45,30,45c14.48,0,25.04-9.94,28.46-13.64
		C59.18,30.59,59.18,29.41,58.46,28.64z"/>
	<path d="M13.4,40.17l1.35-1.35c0.37-0.37,0.3-0.76,0.01-0.92c-4.92-2.67-8.56-6-10.41-7.91c2.53-2.59,8.36-7.82,16.24-10.44
		c-1.38,1.73-2.31,3.84-2.56,6.13c-0.3,2.72,0.32,5.28,1.57,7.43c0.16,0.28,0.55,0.32,0.78,0.09c0.45-0.45,1.12-1.12,1.48-1.48
		c0.15-0.15,0.18-0.38,0.08-0.57c-0.84-1.63-1.2-3.55-0.87-5.57c0.61-3.8,3.67-6.86,7.47-7.47c2.02-0.32,3.94,0.04,5.58,0.88
		c0.19,0.1,0.42,0.07,0.58-0.08L36.61,17l0.43-0.43c0.28-0.28,0.14-0.76-0.24-0.85C34.64,15.27,32.37,15,30,15
		C15.52,15,4.96,24.94,1.54,28.64c-0.71,0.77-0.71,1.96,0,2.73c1.85,1.99,5.77,5.8,11.27,8.89C13,40.36,13.25,40.33,13.4,40.17z"/>
	<path d="M41.09,25.24l-1.93,1.93c-0.09,0.09-0.13,0.2-0.14,0.32c-0.22,4.64-3.96,8.37-8.6,8.59c-0.12,0.01-0.23,0.05-0.32,0.14
		c-0.34,0.34-1.28,1.27-1.93,1.93c-0.3,0.3-0.12,0.8,0.29,0.85c1.64,0.21,3.37,0.1,5.17-0.47c3.97-1.25,7.05-4.54,8.05-8.58
		c0.38-1.53,0.44-3.01,0.26-4.41C41.9,25.12,41.39,24.95,41.09,25.24z"/>
	<path d="M25,27c0,0.48,0.09,0.94,0.22,1.38l6.17-6.16C30.94,22.09,30.48,22,30,22C27.24,22,25,24.24,25,27z"/>
	<path d="M54.71,6.7c-0.98-0.98-2.56-0.98-3.53,0L5.29,52.51c-0.2,0.2-0.2,0.51,0,0.71l1.41,1.42c0.2,0.2,0.51,0.2,0.71,0
		l47.3-47.23C54.9,7.21,54.9,6.9,54.71,6.7z"/>
</g>
</svg>
