<?xml version="1.0" encoding="utf-8"?>
<!-- Generator: Adobe Illustrator 21.1.0, SVG Export Plug-In . SVG Version: 6.00 Build 0)  -->
<svg version="1.1" id="eps" xmlns="http://www.w3.org/2000/svg" xmlns:xlink="http://www.w3.org/1999/xlink" x="0px" y="0px"
	 viewBox="0 0 60 60" style="enable-background:new 0 0 60 60;" xml:space="preserve">
<path d="M11.15,13.21l-0.24-0.09c-0.32-0.13-0.45-0.43-0.32-0.7C11.55,10.43,15.85,3.11,27.63,2c0.28-0.03,0.53,0.18,0.55,0.46
	c0,0,0,0.03,0.01,0.09c0.1,1.28-0.78,2.45-2.05,2.66c-7,1.15-10.49,4.84-12,7.06C13.48,13.25,12.25,13.64,11.15,13.21z"/>
<path d="M41.33,15.32c-0.98,0.65-2.29,0.54-3.13-0.28c-1.48-1.46-4.22-3.54-8.16-4.1c-3.94-0.57-7.11,1.34-8.86,2.76
	c-0.93,0.75-2.25,0.77-3.16,0.01l-0.23-0.19c-0.22-0.19-0.25-0.52-0.05-0.73c1.3-1.38,6.04-5.77,12.72-4.81
	c6.45,0.92,10.17,5.1,11.22,6.47c0.18,0.23,0.12,0.55-0.12,0.72C41.5,15.2,41.42,15.26,41.33,15.32z"/>
<path d="M29.96,32.15l-0.1-0.1c-0.91-0.91-0.98-2.34-0.17-3.34c1.56-1.93,3.39-4.75,4.11-7.63c0.63-2.5-2.52-3.99-3.04-4.22
	c-0.01,0-0.01,0-0.02-0.01c-0.54-0.15-4.31-1.05-6.17,2.31c-3.31,5.99-11.5,9.41-13.6,10.21c-0.26,0.1-0.55-0.04-0.65-0.3
	l-0.04-0.13c-0.42-1.22,0.15-2.56,1.32-3.09c2.92-1.32,8.11-4.11,10.34-8.14c2.53-4.58,7.49-4.42,9.77-3.7l0.1,0.04
	c2.15,0.86,5.94,3.59,4.9,7.76c-1.01,4.02-3.8,7.99-6.04,10.34C30.48,32.36,30.16,32.35,29.96,32.15z"/>
<path d="M48.58,38.76c-0.1,0.3-0.39,0.43-0.66,0.33c-1.52-0.59-5.89-2.49-7.68-5.5c-3.05-5.1-1.03-12.65-0.41-14.65
	c0.08-0.27,0.37-0.41,0.64-0.32l0.15,0.05c1.21,0.42,1.89,1.68,1.61,2.93c-0.62,2.7-1.27,7.35,0.59,10.45
	c0.86,1.44,2.9,2.7,4.56,3.52c1.13,0.56,1.66,1.87,1.24,3.06L48.58,38.76z"/>
<path d="M10.79,35.24l-0.01-0.04c-0.37-1.29,0.35-2.65,1.63-3.07c2.5-0.81,6.48-2.19,9.16-3.64c3.61-1.95,5.58-7.14,6.1-8.69
	c0.08-0.25,0.35-0.39,0.61-0.32l0,0c1.35,0.38,2.07,1.85,1.53,3.14c-1.1,2.61-3.28,6.6-6.81,8.5c-3.83,2.07-9.84,3.93-11.58,4.45
	C11.15,35.66,10.87,35.5,10.79,35.24z"/>
<path d="M12.54,41.69l-0.02-0.06c-0.37-1.28,0.32-2.64,1.59-3.07c3.1-1.06,8.63-3.16,11.81-5.67c0.21-0.17,0.51-0.14,0.69,0.06l0,0
	c0.94,1.1,0.73,2.68-0.49,3.46c-4.57,2.92-11.11,5.04-12.95,5.61C12.89,42.11,12.62,41.96,12.54,41.69z"/>
<path d="M46.28,44.97c-6.29-2.41-12.06-8.56-13.5-10.17c-0.19-0.21-0.16-0.52,0.05-0.71l0.08-0.07c1-0.85,2.48-0.79,3.4,0.14
	c1.97,2.01,5.57,5.35,9.43,7.28c1.13,0.56,1.66,1.87,1.24,3.06l-0.04,0.12C46.84,44.93,46.54,45.07,46.28,44.97z"/>
<path d="M43.17,49.46c-1.15-0.53-2.51-1.29-3.62-1.95c-1.18-0.7-1.55-2.24-0.8-3.4l0.01-0.02c0.15-0.24,0.45-0.31,0.68-0.16
	c0.65,0.41,1.99,1.23,3.32,1.96c1.13,0.62,1.62,1.98,1.12,3.17l-0.04,0.11C43.72,49.45,43.43,49.57,43.17,49.46z"/>
<path d="M18.22,52.99L18.22,52.99c-0.59-1.25-0.05-2.74,1.19-3.33l2.29-1.08c0.25-0.12,0.55-0.01,0.67,0.24l0,0
	c0.59,1.25,0.05,2.74-1.19,3.33l-2.29,1.08C18.64,53.35,18.34,53.24,18.22,52.99z"/>
<path d="M14.55,47.66l-0.03-0.09c-0.39-1.26,0.26-2.61,1.5-3.07c2.23-0.84,5.85-2.36,9.44-4.5c2.68-1.6,6.06-1.83,8.04-0.54
	c1.61,1.04,2.92,2.27,3.52,2.88c0.2,0.2,0.19,0.53-0.02,0.72l-0.13,0.12c-0.93,0.85-2.33,0.87-3.29,0.07
	c-0.49-0.41-1.07-0.86-1.7-1.26c-0.9-0.58-3.07-0.48-4.88,0.6c-5.17,3.09-10.26,4.9-11.82,5.42C14.91,48.07,14.63,47.92,14.55,47.66
	z"/>
<path d="M36.8,57.59c-0.94,0.62-2.19,0.54-3.02-0.21c-0.94-0.86-2.35-1.76-4-1.55c-1.74,0.21-3.2,0.77-4.23,1.28
	c-1.05,0.52-2.31,0.2-3.03-0.71l-0.18-0.23c-0.18-0.23-0.13-0.56,0.11-0.72c0.98-0.66,3.54-2.18,6.98-2.6
	c4.03-0.49,6.86,2.64,7.78,3.83c0.18,0.23,0.13,0.57-0.12,0.73L36.8,57.59z"/>
<path d="M40.75,52.87c-0.96,0.85-2.4,0.84-3.34-0.03c-2.01-1.86-4.74-3.83-6.66-3.84c-0.01,0-0.02,0-0.03,0
	c-1.31,0-2.4,0.19-3.22,0.41c-1.09,0.3-2.24-0.13-2.83-1.09l-0.21-0.34c-0.15-0.25-0.06-0.58,0.2-0.71c0.9-0.44,3.03-1.28,6.06-1.28
	c0.01,0,0.02,0,0.04,0c4.16,0.01,8.78,4.62,10.13,6.07c0.19,0.21,0.17,0.52-0.04,0.71L40.75,52.87z"/>
<path d="M10.26,22.4l-0.07-0.29c-0.3-1.15,0.25-2.34,1.32-2.87c0.94-0.46,2.11-1.16,3.18-2.16c0.88-0.82,2.21-0.9,3.18-0.19
	l0.18,0.14c0.23,0.17,0.28,0.5,0.1,0.72c-2.52,3.16-5.97,4.56-7.26,4.99C10.62,22.84,10.33,22.68,10.26,22.4z"/>
<path d="M49.79,32.62c-0.03,0.31-0.33,0.53-0.62,0.44c-0.65-0.19-1.71-0.66-2.6-1.87c-1.66-2.27-1.92-5.99-0.77-11.07
	c0.63-2.78,0.24-5.21-1.2-7.41c-3.33-5.1-11.17-7.22-13.16-7.69c-0.26-0.06-0.42-0.32-0.37-0.58l0,0c0.27-1.37,1.65-2.23,2.99-1.83
	c3.52,1.05,9.84,3.54,13.05,8.45c1.88,2.88,2.42,6.14,1.62,9.71c-0.92,4.08-0.55,6.35-0.23,7.66c0.08,0.34,0.38,0.71,0.69,1.03
	c0.51,0.52,0.77,1.24,0.71,1.96L49.79,32.62z"/>
</svg>
