<?xml version="1.0" encoding="utf-8"?>
<!-- Generator: Adobe Illustrator 21.1.0, SVG Export Plug-In . SVG Version: 6.00 Build 0)  -->
<svg version="1.1" id="EPS" xmlns="http://www.w3.org/2000/svg" xmlns:xlink="http://www.w3.org/1999/xlink" x="0px" y="0px"
	 viewBox="0 0 60 60" style="enable-background:new 0 0 60 60;" xml:space="preserve">
<g>
	<path d="M41.67,3.45c-0.12-1.1-1.11-1.89-2.21-1.77L3.35,5.64c-1.1,0.12-1.89,1.11-1.77,2.21l4.38,39.96
		c0.3,2.77,1.48,5.42,3.5,7.35c2.19,2.08,5,3.2,7.94,3.2c0.42,0,0.85-0.02,1.27-0.07l26.67-2.92c1.1-0.12,1.89-1.11,1.77-2.21
		L41.67,3.45z M18.34,55.3c-2.26,0.25-4.47-0.4-6.25-1.82c-1.77-1.42-2.88-3.45-3.13-5.7L4.67,8.51L38.8,4.77l5.23,47.71L18.34,55.3
		z"/>
	<path d="M14.2,31.28l8.95-0.98c1.1-0.12,1.89-1.11,1.77-2.21l-1.6-14.58c-0.12-1.1-1.11-1.89-2.21-1.77l-8.95,0.98
		c-1.1,0.12-1.89,1.11-1.77,2.21L12,29.51C12.12,30.6,13.1,31.4,14.2,31.28z M20.45,14.83l1.38,12.59l-6.96,0.76l-1.38-12.59
		L20.45,14.83z"/>
	<path d="M29.4,13.85l5.96-0.65c0.27-0.03,0.47-0.28,0.44-0.55l-0.22-1.99c-0.03-0.27-0.28-0.47-0.55-0.44l-7.95,0.87
		c-0.27,0.03-0.47,0.28-0.44,0.55C26.79,13.01,28.02,14,29.4,13.85z"/>
	<path d="M27.51,19.59c0.15,1.37,1.38,2.36,2.76,2.21l5.96-0.65c0.27-0.03,0.47-0.28,0.44-0.55l-0.22-1.99
		c-0.03-0.27-0.28-0.47-0.55-0.44l-7.95,0.87C27.68,19.07,27.48,19.32,27.51,19.59z"/>
	<path d="M28.34,27.21L28.34,27.21c0.15,1.37,1.38,2.36,2.76,2.21l5.96-0.65c0.27-0.03,0.47-0.28,0.44-0.55l-0.22-1.99
		c-0.03-0.27-0.28-0.47-0.55-0.44l-7.95,0.87C28.51,26.69,28.31,26.94,28.34,27.21z"/>
	<path d="M15.64,39.84l22.37-2.45c0.27-0.03,0.47-0.28,0.44-0.55l-0.22-1.99c-0.03-0.27-0.28-0.47-0.55-0.44l-24.36,2.67
		c-0.27,0.03-0.47,0.28-0.44,0.55l0,0C13.03,39,14.27,39.99,15.64,39.84z"/>
	<path d="M14.23,45.36c-0.27,0.03-0.47,0.28-0.44,0.55l0,0c0.15,1.37,1.38,2.36,2.76,2.21l22.37-2.45c0.27-0.03,0.47-0.28,0.44-0.55
		l-0.22-1.99c-0.03-0.27-0.28-0.47-0.55-0.44L14.23,45.36z"/>
	<path d="M56.5,4.17h-11c-0.28,0-0.5,0.22-0.5,0.5c0,1.38,1.12,2.5,2.5,2.5h8v42h-2c-1.38,0-2.5,1.12-2.5,2.5
		c0,0.28,0.22,0.5,0.5,0.5h5c1.1,0,2-0.9,2-2v-44C58.5,5.06,57.6,4.17,56.5,4.17z"/>
</g>
</svg>
