<?xml version="1.0" encoding="utf-8"?>
<!-- Generator: Adobe Illustrator 21.1.0, SVG Export Plug-In . SVG Version: 6.00 Build 0)  -->
<svg version="1.1" id="eps" xmlns="http://www.w3.org/2000/svg" xmlns:xlink="http://www.w3.org/1999/xlink" x="0px" y="0px"
	 viewBox="0 0 60 60" style="enable-background:new 0 0 60 60;" xml:space="preserve">
<path d="M51.33,24.94c-1.27-1.27-3.06-1.71-5.06-1.24c-1.49,0.34-3,1.18-4.06,2.24l-2.44,2.44c0-6.11,0.01-17.9,0-19.39
	c-0.03-3.65-2.47-7.45-6.49-7.49c-1.62-0.02-3.07,0.6-4.26,1.79c-1.44,1.44-2.28,3.57-2.26,5.72c0.01,1.43,0.01,6.33,0.01,10.8
	c-0.94-0.82-2.1-1.31-3.51-1.31c-2.68,0-4.33,1.69-5.3,3.77c-1.1-1.6-2.68-2.77-4.7-2.77c-4.19,0-6.5,5.03-6.5,8.5
	c0,5.14,0.93,18.96,1,20.05c0.03,5.77,4.73,10.45,10.5,10.45h13c2.62,0,3.97-1.35,5.06-2.44c0.79-0.79,5.19-7.22,15.19-22.23
	C53.19,31.32,53.85,27.46,51.33,24.94z M49.02,32.17c-3.4,5.1-13.76,20.63-14.81,21.77c-0.94,0.94-1.56,1.56-2.94,1.56h-13
	c-4.14,0-7.5-3.36-7.5-7.5v-0.1c-0.01-0.15-1-14.76-1-19.9c0-2.48,1.62-5.5,3.5-5.5c1.44,0,2.72,1.76,3.24,3.69
	c0.29,1.08,1.28,1.81,2.4,1.81h0.37c0.27,0,0.48-0.2,0.5-0.47c0.11-1.97,0.86-6.03,3.49-6.03c2.03,0,2.94,2.45,3.3,4.47
	c0.21,1.18,1.26,2.03,2.46,2.03h0.25c0.28,0,0.5-0.22,0.5-0.49c0-2.73,0.02-16,0-18.53c-0.01-1.34,0.52-2.71,1.38-3.57
	C31.57,5,32.26,4.5,33.22,4.5c0.01,0,0.02,0,0.03,0c2.15,0.02,3.5,2.36,3.51,4.51c0.02,1.97,0,22.78,0,22.99v2.42
	c0,0.45,0.54,0.67,0.85,0.35l6.71-6.71c0.66-0.66,1.69-1.23,2.62-1.44c0.98-0.22,1.74-0.08,2.26,0.44
	C50.62,28.48,49.87,30.89,49.02,32.17z"/>
</svg>
