<?xml version="1.0" encoding="utf-8"?>
<!-- Generator: Adobe Illustrator 21.1.0, SVG Export Plug-In . SVG Version: 6.00 Build 0)  -->
<svg version="1.1" id="eps" xmlns="http://www.w3.org/2000/svg" xmlns:xlink="http://www.w3.org/1999/xlink" x="0px" y="0px"
	 viewBox="0 0 60 60" style="enable-background:new 0 0 60 60;" xml:space="preserve">
<g>
	<path d="M51.5,22.5h-1.97v-1c0-9.6-6.74-18.1-16.19-19.72C27.38,0.77,21.41,2.52,17,6.45c-0.77,0.68-1.48,1.43-2.13,2.23
		c-0.18,0.22-0.14,0.54,0.11,0.73l0.1,0.08c0.98,0.76,2.38,0.71,3.25-0.16C18.55,9.11,18.77,8.9,19,8.69
		c3.48-3.1,8.11-4.61,12.81-4.09c8.46,0.92,14.72,8.35,14.72,16.86v1.04H8.5c-1.1,0-2,0.9-2,2V47c0,6.35,5.15,11.5,11.5,11.5h33.5
		c1.1,0,2-0.9,2-2v-32C53.5,23.4,52.6,22.5,51.5,22.5z M50.5,55.5H18c-4.69,0-8.5-3.81-8.5-8.5V25.5h41V55.5z"/>
	<path d="M23.71,50.71c-0.13,1.18,0.8,2.22,1.99,2.22h8.6c1.19,0,2.12-1.04,1.99-2.22l-1.36-12.27c0.81-0.99,1.3-2.17,1.41-3.44
		c0.32-3.56-2.64-6.86-6.21-6.93c-3.56-0.07-6.49,2.81-6.49,6.36c0,1.49,0.5,2.89,1.43,4.02L23.71,50.71z M30,31.06
		c1.85,0,3.36,1.51,3.36,3.36c0,0.92-0.37,1.78-1.04,2.42l-0.53,0.51l1.4,12.57h-6.37l1.4-12.57l-0.54-0.51
		c-0.67-0.64-1.04-1.5-1.04-2.42C26.64,32.57,28.15,31.06,30,31.06z"/>
</g>
</svg>
