<?xml version="1.0" encoding="utf-8"?>
<!-- Generator: Adobe Illustrator 21.1.0, SVG Export Plug-In . SVG Version: 6.00 Build 0)  -->
<svg version="1.1" id="eps" xmlns="http://www.w3.org/2000/svg" xmlns:xlink="http://www.w3.org/1999/xlink" x="0px" y="0px"
	 viewBox="0 0 60 60" style="enable-background:new 0 0 60 60;" xml:space="preserve">
<g>
	<path d="M51.5,22.5h-1.97v-1c0-9.6-6.74-18.1-16.19-19.72C32.22,1.59,31.11,1.5,30,1.5l0,0l0,0c-0.37,0-0.74,0.01-1.11,0.03
		c-4.96,0.28-9.55,2.4-12.97,5.97c-0.04,0.04-0.07,0.08-0.1,0.11c-0.28,0.3-0.55,0.6-0.81,0.92c-0.04,0.05-0.09,0.1-0.14,0.15
		c-0.01,0.01-0.01,0.02-0.02,0.03c-0.1,0.12-0.2,0.24-0.3,0.37c-2.67,3.45-4.08,7.58-4.08,11.95v1.47H8.5c-1.1,0-2,0.9-2,2V47
		c0,6.35,5.15,11.5,11.5,11.5h33.5c1.1,0,2-0.9,2-2v-32C53.5,23.4,52.6,22.5,51.5,22.5z M13.47,21.03c0-3.7,1.19-7.2,3.45-10.11
		c0.7-0.9,1.49-1.71,2.33-2.43c0.26-0.22,0.52-0.43,0.79-0.63c0.2-0.15,0.39-0.29,0.6-0.43c0.3-0.21,0.61-0.4,0.92-0.59
		c0.19-0.11,0.38-0.22,0.57-0.32C22.46,6.33,22.8,6.16,23.14,6c0.19-0.09,0.39-0.17,0.59-0.25c0.34-0.14,0.69-0.28,1.04-0.4
		c0.23-0.08,0.46-0.14,0.69-0.2c0.33-0.09,0.66-0.19,1-0.26c0.3-0.06,0.6-0.11,0.9-0.16c0.28-0.05,0.56-0.1,0.84-0.13
		c0.47-0.05,0.95-0.07,1.43-0.08c0.72-0.02,1.44,0,2.16,0.08c8.46,0.92,14.72,8.35,14.72,16.86v1.04H13.47V21.03z M50.5,55.5H18
		c-4.69,0-8.5-3.81-8.5-8.5V25.5h41V55.5z"/>
	<path d="M23.71,50.71c-0.13,1.18,0.8,2.22,1.99,2.22h8.6c1.19,0,2.12-1.04,1.99-2.22l-1.36-12.27c0.81-0.99,1.3-2.17,1.41-3.44
		c0.32-3.56-2.64-6.86-6.21-6.93c-3.56-0.07-6.49,2.81-6.49,6.36c0,1.49,0.5,2.89,1.43,4.02L23.71,50.71z M30,31.06
		c1.85,0,3.36,1.51,3.36,3.36c0,0.92-0.37,1.78-1.04,2.42l-0.53,0.51l1.4,12.57h-6.37l1.4-12.57l-0.54-0.51
		c-0.67-0.64-1.04-1.5-1.04-2.42C26.64,32.57,28.15,31.06,30,31.06z"/>
</g>
</svg>
