<?xml version="1.0" encoding="utf-8"?>
<!-- Generator: Adobe Illustrator 21.1.0, SVG Export Plug-In . SVG Version: 6.00 Build 0)  -->
<svg version="1.1" id="eps" xmlns="http://www.w3.org/2000/svg" xmlns:xlink="http://www.w3.org/1999/xlink" x="0px" y="0px"
	 viewBox="0 0 60 60" style="enable-background:new 0 0 60 60;" xml:space="preserve">
<g>
	<path d="M57.49,48.72L40.31,32.56c4.53-7.95,3.43-18.26-3.34-25.03c-8.12-8.12-21.33-8.12-29.44,0c-8.12,8.12-8.12,21.33,0,29.44
		c4.06,4.06,9.39,6.09,14.72,6.09c3.57,0,7.12-0.93,10.31-2.75l16.16,17.17c0.77,0.82,2.07,0.84,2.87,0.04l5.94-5.94
		C58.33,50.79,58.31,49.5,57.49,48.72z M9.47,35.03c-7.05-7.05-7.05-18.51,0-25.56C13,5.95,17.62,4.19,22.25,4.19
		s9.25,1.76,12.78,5.28c7.05,7.05,7.05,18.51,0,25.56C27.98,42.07,16.52,42.07,9.47,35.03z M50.2,54.68L35.09,38.62
		c0.65-0.51,1.29-1.05,1.88-1.65c0.6-0.6,1.14-1.23,1.65-1.88L54.68,50.2L50.2,54.68z"/>
	<path d="M34.75,20.88h-25c-0.28,0-0.5,0.22-0.5,0.5c0,1.24,1.01,2.25,2.25,2.25h23.25c0.28,0,0.5-0.22,0.5-0.5v-1.75
		C35.25,21.1,35.03,20.88,34.75,20.88z"/>
</g>
</svg>
