<svg xmlns="http://www.w3.org/2000/svg" viewBox="0 0 60 60"><path d="M55.06 2.27L3.66 27.02c-1.71.82-1.42 3.35.44 3.76l20.62 4.51 4.51 20.62c.41 1.86 2.93 2.15 3.76.44L57.73 4.94c.82-1.71-.96-3.49-2.67-2.67zM7.57 28.46L49.7 8.18l-24.2 24.2-17.93-3.92zm23.97 23.97L27.62 34.5l24.2-24.2-20.28 42.13z"/><path d="M20.29 38.29c-.2-.2-.51-.2-.71 0L5.29 52.59c-.2.2-.2.51 0 .71l1.41 1.41c.2.2.51.2.71 0l12.88-12.88c.98-.98.98-2.56 0-3.54zM9.01 42.77l2.47-2.47c.98-.98.98-2.56 0-3.54-.2-.2-.51-.2-.71 0l-3.89 3.89c-.2.2-.2.51 0 .71l1.41 1.41c.21.2.52.2.72 0zM22.27 45.95l-7.34 7.34c-.2.2-.2.51 0 .71l1.41 1.41c.2.2.51.2.71 0l5.92-5.92c.98-.98.98-2.56 0-3.54a.501.501 0 00-.7 0z"/></svg>
