<?xml version="1.0" encoding="utf-8"?>
<!-- Generator: Adobe Illustrator 21.1.0, SVG Export Plug-In . SVG Version: 6.00 Build 0)  -->
<svg version="1.1" id="eps" xmlns="http://www.w3.org/2000/svg" xmlns:xlink="http://www.w3.org/1999/xlink" x="0px" y="0px"
	 viewBox="0 0 60 60" style="enable-background:new 0 0 60 60;" xml:space="preserve">
<path d="M57.78,10.23L55.15,7.6c-2.45-2.44-5.7-4-9.15-4.1c-3.62-0.1-7.03,1.27-9.58,3.82L5.43,38.31
	c-0.27,0.27-0.46,0.61-0.54,0.98L1.82,53.08c-0.32,1.43,0.96,2.7,2.39,2.39L18,52.4c0.37-0.08,0.71-0.27,0.98-0.54l38.8-38.8
	C58.56,12.28,58.56,11.01,57.78,10.23z M5.09,52.19l2.16-9.73l7.57,7.57L5.09,52.19z M17.81,48.78L8.5,39.47L37.48,10.5l9.31,9.31
	L17.81,48.78z M48.91,17.69l-9.22-9.22c1.83-1.36,4.06-2.06,6.39-1.96c2.61,0.11,5.05,1.32,6.9,3.17l1.97,1.97L48.91,17.69z"/>
</svg>
