<?xml version="1.0" encoding="utf-8"?>
<!-- Generator: Adobe Illustrator 21.1.0, SVG Export Plug-In . SVG Version: 6.00 Build 0)  -->
<svg version="1.1" id="EPS" xmlns="http://www.w3.org/2000/svg" xmlns:xlink="http://www.w3.org/1999/xlink" x="0px" y="0px"
	 viewBox="0 0 60 60" style="enable-background:new 0 0 60 60;" xml:space="preserve">
<g>
	<path d="M39.11,40.03c-0.78-0.78-2.05-0.78-2.83,0l-5.03,5.03c-4.35-0.02-8.42-1.72-11.51-4.81s-4.78-7.16-4.81-11.51l5.03-5.03
		c0.78-0.78,0.78-2.05,0-2.83l-9.66-9.66c-0.78-0.78-2.05-0.78-2.83,0l-5.23,5.23c-0.33,0.33-0.54,0.77-0.58,1.24
		c-0.03,0.36-0.07,0.75-0.08,0.93C0.85,29.41,4.78,39.9,12.44,47.56C19.5,54.62,28.95,58.5,38.82,58.5c0.46,0,0.92-0.01,1.37-0.03
		c0.47-0.02,1.43-0.09,2.1-0.15c0.47-0.04,0.91-0.24,1.25-0.58l5.23-5.23c0.78-0.78,0.78-2.05,0-2.83L39.11,40.03z M41.67,55.38
		c-10.1,0.83-19.95-2.78-27.11-9.94C7.39,38.28,3.79,28.42,4.62,18.33l4.27-4.27l8.25,8.25l-4.6,4.6c-0.37,0.37-0.58,0.86-0.59,1.38
		c-0.01,0.33-0.01,0.67-0.01,0.83c0.11,5.01,2.11,9.69,5.68,13.26c3.54,3.54,8.17,5.54,13.12,5.68c0.19,0.01,0.64-0.01,1.05-0.03
		c0.5-0.02,0.97-0.23,1.32-0.58l4.58-4.58l8.25,8.25L41.67,55.38z"/>
	<path d="M56.44,1.5H17.01c-1.1,0-2,0.9-2,2v6c0,1.38,1.12,2.5,2.5,2.5c0.28,0,0.5-0.22,0.5-0.5V6.35L29.38,16.5l-2.92,2.61
		c-1.03,0.92-1.12,2.5-0.2,3.53l0,0c0.18,0.21,0.5,0.22,0.71,0.04l4.67-4.17l3.72,3.32c0.76,0.68,1.9,0.68,2.66,0l3.74-3.33
		l9.71,8.63c-1.31,0.83-2.86,1.32-4.53,1.32H23.5c-1.38,0-2.5,1.12-2.5,2.5c0,0.28,0.22,0.5,0.5,0.5h25.44
		c6.35,0,11.5-5.15,11.5-11.5V3.5C58.44,2.4,57.54,1.5,56.44,1.5z M36.69,19L20.44,4.5H53L36.69,19z M55.44,19.96
		c0,1.94-0.66,3.72-1.75,5.15l-9.68-8.61L55.44,6.34V19.96z"/>
</g>
</svg>
