<?xml version="1.0" encoding="utf-8"?>
<!-- Generator: Adobe Illustrator 21.1.0, SVG Export Plug-In . SVG Version: 6.00 Build 0)  -->
<svg version="1.1" id="eps" xmlns="http://www.w3.org/2000/svg" xmlns:xlink="http://www.w3.org/1999/xlink" x="0px" y="0px"
	 viewBox="0 0 60 60" style="enable-background:new 0 0 60 60;" xml:space="preserve">
<path d="M57.7,48.59L45.96,36.86c-0.78-0.78-2.05-0.78-2.83,0l-6.19,6.19c-0.01,0-0.01,0-0.02,0c-5.34,0-10.34-2.07-14.13-5.85
	c-3.79-3.79-5.86-8.8-5.85-14.15l6.19-6.19c0.78-0.78,0.78-2.05,0-2.83L11.4,2.29c-0.78-0.78-2.05-0.78-2.83,0L2.2,8.67
	C1.86,9,1.66,9.44,1.62,9.9c-0.04,0.41-0.08,0.88-0.09,1.1C0.64,23.87,5.31,36.39,14.46,45.54c8.41,8.41,19.68,13.04,31.44,13.04
	c1.03,0,3.07-0.13,4.17-0.21c0.48-0.03,0.93-0.24,1.27-0.58l6.36-6.36C58.48,50.64,58.48,49.37,57.7,48.59z M49.45,55.42
	c-12.24,1.03-24.19-3.32-32.88-12.01c-8.68-8.68-13.04-20.64-12-32.87l5.42-5.42l10.32,10.32l-5.77,5.77
	c-0.36,0.36-0.57,0.85-0.58,1.37c0,0.18-0.01,0.34-0.01,0.41c-0.02,6.17,2.36,11.94,6.73,16.32c4.38,4.38,10.13,6.76,16.32,6.73
	c0.08,0,0.3-0.01,0.53-0.03c0.48-0.03,0.93-0.24,1.27-0.58l5.75-5.75L54.87,50L49.45,55.42z"/>
</svg>
