<?xml version="1.0" encoding="utf-8"?>
<!-- Generator: Adobe Illustrator 21.1.0, SVG Export Plug-In . SVG Version: 6.00 Build 0)  -->
<svg version="1.1" id="eps" xmlns="http://www.w3.org/2000/svg" xmlns:xlink="http://www.w3.org/1999/xlink" x="0px" y="0px"
	 viewBox="0 0 60 60" style="enable-background:new 0 0 60 60;" xml:space="preserve">
<path d="M56.5,28.5h-25v-25C31.5,3.22,31.28,3,31,3h-2c-0.28,0-0.5,0.22-0.5,0.5v25h-25C3.22,28.5,3,28.72,3,29
	c0,1.38,1.12,2.5,2.5,2.5h23v25c0,0.28,0.22,0.5,0.5,0.5c1.38,0,2.5-1.12,2.5-2.5v-23h25c0.28,0,0.5-0.22,0.5-0.5v-2
	C57,28.72,56.78,28.5,56.5,28.5z"/>
</svg>
