<?xml version="1.0" encoding="utf-8"?>
<!-- Generator: Adobe Illustrator 21.1.0, SVG Export Plug-In . SVG Version: 6.00 Build 0)  -->
<svg version="1.1" id="eps" xmlns="http://www.w3.org/2000/svg" xmlns:xlink="http://www.w3.org/1999/xlink" x="0px" y="0px"
	 viewBox="0 0 60 60" style="enable-background:new 0 0 60 60;" xml:space="preserve">
<g>
	<path d="M14.5,25.5H24v-3H12.5c-0.28,0-0.5,0.22-0.5,0.5C12,24.38,13.12,25.5,14.5,25.5z"/>
	<path d="M26.5,40.5h9c0.28,0,0.5-0.22,0.5-0.5v-2c0-0.28-0.22-0.5-0.5-0.5h-11c-0.28,0-0.5,0.22-0.5,0.5
		C24,39.38,25.12,40.5,26.5,40.5z"/>
	<path d="M26.5,46.5h9c0.28,0,0.5-0.22,0.5-0.5v-2c0-0.28-0.22-0.5-0.5-0.5h-11c-0.28,0-0.5,0.22-0.5,0.5
		C24,45.38,25.12,46.5,26.5,46.5z"/>
	<path d="M26.5,52.5h9c0.28,0,0.5-0.22,0.5-0.5v-2c0-0.28-0.22-0.5-0.5-0.5h-11c-0.28,0-0.5,0.22-0.5,0.5
		C24,51.38,25.12,52.5,26.5,52.5z"/>
	<path d="M48,34v-2c0-0.28-0.22-0.5-0.5-0.5h-4h-27h-4c-0.28,0-0.5,0.22-0.5,0.5c0,1.38,1.12,2.5,2.5,2.5h2V47
		c0,6.35,5.15,11.5,11.5,11.5h13.5c1.1,0,2-0.9,2-2v-22h4C47.78,34.5,48,34.28,48,34z M40.5,55.5H28c-4.69,0-8.5-3.81-8.5-8.5V34.5
		h21V55.5z"/>
	<path d="M56.5,12.5h-13v-9c0-1.1-0.9-2-2-2h-23c-1.1,0-2,0.9-2,2v9h-13c-1.1,0-2,0.9-2,2v24c0,1.1,0.9,2,2,2H13
		c0.28,0,0.5-0.22,0.5-0.5c0-1.38-1.12-2.5-2.5-2.5H4.5v-22h12h27h12v22H49c-1.38,0-2.5,1.12-2.5,2.5c0,0.28,0.22,0.5,0.5,0.5h9.5
		c1.1,0,2-0.9,2-2v-24C58.5,13.4,57.6,12.5,56.5,12.5z M40.5,12.5h-21v-8h21V12.5z"/>
</g>
</svg>
