<?xml version="1.0" encoding="utf-8"?>
<!-- Generator: Adobe Illustrator 21.1.0, SVG Export Plug-In . SVG Version: 6.00 Build 0)  -->
<svg version="1.1" id="eps" xmlns="http://www.w3.org/2000/svg" xmlns:xlink="http://www.w3.org/1999/xlink" x="0px" y="0px"
	 viewBox="0 0 60 60" style="enable-background:new 0 0 60 60;" xml:space="preserve">
<g>
	<path d="M47.5,24H35c-0.28,0-0.5,0.22-0.5,0.5c0,1.38,1.12,2.5,2.5,2.5h9.5v28.5H22c-4.69,0-8.5-3.81-8.5-8.5V27H23
		c1.38,0,2.5-1.12,2.5-2.5c0-0.28-0.22-0.5-0.5-0.5H12.5c-1.1,0-2,0.9-2,2v21c0,6.35,5.15,11.5,11.5,11.5h25.5c1.1,0,2-0.9,2-2V26
		C49.5,24.9,48.6,24,47.5,24z"/>
	<path d="M21.83,14.29l6.67-6.67V36.5c0,1.38,1.12,2.5,2.5,2.5h0.01c0.27,0,0.49-0.22,0.49-0.49V7.62l6.67,6.67
		c0.98,0.98,2.56,0.98,3.54,0c0.2-0.2,0.2-0.51,0-0.71L31.41,3.29c-0.78-0.78-2.05-0.78-2.83,0l-10.29,10.3
		c-0.2,0.2-0.2,0.51,0,0.71C19.27,15.27,20.85,15.27,21.83,14.29z"/>
</g>
</svg>
