<?xml version="1.0" encoding="utf-8"?>
<!-- Generator: Adobe Illustrator 21.1.0, SVG Export Plug-In . SVG Version: 6.00 Build 0)  -->
<svg version="1.1" id="eps_1_" xmlns="http://www.w3.org/2000/svg" xmlns:xlink="http://www.w3.org/1999/xlink" x="0px" y="0px"
	 viewBox="0 0 60 60" style="enable-background:new 0 0 60 60;" xml:space="preserve">
<g>
	<path d="M22,40.5c-4.14,0-7.5,3.36-7.5,7.5s3.36,7.5,7.5,7.5s7.5-3.36,7.5-7.5S26.14,40.5,22,40.5z M22,52.5
		c-2.48,0-4.5-2.02-4.5-4.5s2.02-4.5,4.5-4.5s4.5,2.02,4.5,4.5S24.48,52.5,22,52.5z"/>
	<path d="M44,40.5c-4.14,0-7.5,3.36-7.5,7.5s3.36,7.5,7.5,7.5s7.5-3.36,7.5-7.5S48.14,40.5,44,40.5z M44,52.5
		c-2.48,0-4.5-2.02-4.5-4.5s2.02-4.5,4.5-4.5s4.5,2.02,4.5,4.5S46.48,52.5,44,52.5z"/>
	<path d="M56.26,12.5h-4.53l0.64-3c0.23-1.08-0.46-2.14-1.54-2.37L24.87,1.64c-1.08-0.23-2.14,0.46-2.37,1.54l-1.97,9.32h-7.36
		l-1.62-6.48c-0.22-0.9-1.02-1.52-1.94-1.52H2.5C2.22,4.5,2,4.72,2,5c0,1.38,1.12,2.5,2.5,2.5h4.33l1.71,6.83l3.23,14.22
		c1.19,5.24,5.84,8.95,11.21,8.95h22.68c0.81,0,1.54-0.49,1.85-1.24l8.59-21C58.64,13.94,57.68,12.5,56.26,12.5z M25.23,4.78
		l23.99,5.08l-0.56,2.65H23.6L25.23,4.78z M46.99,34.5H24.98c-4,0-7.4-2.72-8.29-6.62L13.88,15.5h40.89L46.99,34.5z"/>
	<path d="M10.82,29.5H3.5C3.22,29.5,3,29.72,3,30c0,1.38,1.12,2.5,2.5,2.5h5.32c0.28,0,0.5-0.22,0.5-0.5v-2
		C11.32,29.72,11.09,29.5,10.82,29.5z"/>
	<path d="M5.5,26.5h3.95c0.28,0,0.5-0.22,0.5-0.5v-2c0-0.28-0.22-0.5-0.5-0.5H3.5C3.22,23.5,3,23.72,3,24
		C3,25.38,4.12,26.5,5.5,26.5z"/>
	<path d="M5.5,20.5h2.59c0.28,0,0.5-0.22,0.5-0.5v-2c0-0.28-0.22-0.5-0.5-0.5H3.5C3.22,17.5,3,17.72,3,18
		C3,19.38,4.12,20.5,5.5,20.5z"/>
</g>
</svg>
