<?xml version="1.0" encoding="utf-8"?>
<!-- Generator: Adobe Illustrator 21.1.0, SVG Export Plug-In . SVG Version: 6.00 Build 0)  -->
<svg version="1.1" id="EPS" xmlns="http://www.w3.org/2000/svg" xmlns:xlink="http://www.w3.org/1999/xlink" x="0px" y="0px"
	 viewBox="0 0 60 60" style="enable-background:new 0 0 60 60;" xml:space="preserve">
<path d="M49.53,18.35c-0.08-1.04-0.95-1.85-1.99-1.85H39.5V7c0-0.36-0.08-1.71-1.3-3c-1.58-1.66-4.34-2.5-8.2-2.5S23.38,2.34,21.8,4
	c-1.34,1.41-1.31,2.91-1.3,3v9.5h-8.04c-1.05,0-1.91,0.8-1.99,1.85L8.33,46.12c-0.24,3.18,0.86,6.35,3.03,8.7s5.25,3.69,8.44,3.69
	h30.66c1.17,0,2.08-0.99,1.99-2.15L49.53,18.35z M23.5,6.98C23.53,6.12,24.94,4.5,30,4.5c5.04,0,6.45,1.61,6.5,2.47v9.53h-13V6.98z
	 M19.8,55.5c-2.4,0-4.61-0.97-6.24-2.72s-2.42-4.04-2.24-6.43l2.07-26.85h7.11h19h7.11l2.77,36H19.8z"/>
</svg>
