<svg xmlns="http://www.w3.org/2000/svg" viewBox="0 0 60 60"><path d="M56.72 14.46l-53-5.89c-1.18-.13-2.22.8-2.22 1.99v9.94c0 1.1.9 2 2 2h4v27c0 1.1.9 2 2 2h8c1.1 0 2-.9 2-2v-9h6v9c0 1.1.9 2 2 2h23c1.1 0 2-.9 2-2v-27h4c1.1 0 2-.9 2-2v-4.05c0-1.02-.77-1.88-1.78-1.99zM49.5 48.5h-21v-9c0-1.1-.9-2-2-2h-8c-1.1 0-2 .9-2 2v9h-6v-26h6v4.3c0 .66.54 1.2 1.2 1.2h9.6c.66 0 1.2-.54 1.2-1.2v-4.3h21v26zM18.3 22a4.2 4.2 0 118.399-.001A4.2 4.2 0 0118.3 22zm37.2-2.5h-27v-2.3c0-.66-.54-1.2-1.2-1.2h-9.6c-.66 0-1.2.54-1.2 1.2v2.3h-12v-7.82l51 5.67v2.15z"/></svg>
