<?xml version="1.0" encoding="utf-8"?>
<!-- Generator: Adobe Illustrator 22.1.0, SVG Export Plug-In . SVG Version: 6.00 Build 0)  -->
<svg version="1.1" id="eps" xmlns="http://www.w3.org/2000/svg" xmlns:xlink="http://www.w3.org/1999/xlink" x="0px" y="0px"
	 viewBox="0 0 60 60" style="enable-background:new 0 0 60 60;" xml:space="preserve">
<g>
	<path d="M55.8,22.4L31.1,5.9c-0.7-0.4-1.5-0.4-2.2,0L4.2,22.4c-1.2,0.8-1.5,2.3-0.7,3.5C3.7,26.1,4,26.1,4.2,26L30,8.8L55.8,26
		c0.2,0.1,0.5,0.1,0.7-0.1C57.2,24.7,56.9,23.1,55.8,22.4z"/>
	<path d="M50.5,27.5h-41c-1.1,0-2,0.9-2,2V43c0,6.3,5.1,11.5,11.5,11.5h31.5c1.1,0,2-0.9,2-2v-23C52.5,28.4,51.6,27.5,50.5,27.5z
		 M49.5,51.5H19c-4.7,0-8.5-3.8-8.5-8.5V30.5h39V51.5z"/>
</g>
</svg>
