<svg xmlns="http://www.w3.org/2000/svg" viewBox="0 0 60 60"><path d="M45.432 41.752A11.54 11.54 0 0046.5 36.91c0-3.096-1.206-6.006-3.395-8.195a11.513 11.513 0 00-8.196-3.395 11.513 11.513 0 00-8.195 3.395 11.513 11.513 0 00-3.395 8.195c0 3.096 1.205 6.007 3.395 8.196a11.513 11.513 0 008.195 3.395 11.54 11.54 0 004.843-1.068l9.557 10.215a2 2 0 002.874.048l3.512-3.512a2 2 0 00-.048-2.874l-10.215-9.557zM34.909 45.5c-2.294 0-4.451-.894-6.074-2.516s-2.516-3.78-2.516-6.075c0-2.294.893-4.451 2.516-6.074s3.78-2.516 6.074-2.516c2.295 0 4.452.893 6.075 2.516s2.516 3.78 2.516 6.074c0 2.295-.894 4.452-2.516 6.075s-3.78 2.516-6.075 2.516zm15.884 9.343l-8.457-9.04c.264-.222.523-.452.769-.698.246-.246.476-.505.697-.769l9.04 8.457-2.049 2.05z"/><path d="M56.72 7.46l-53-5.889A2 2 0 001.5 3.559V13.5a2 2 0 002 2h4v27a2 2 0 002 2h13.013c.269 0 .487-.218.487-.487v-.023a2.49 2.49 0 00-2.49-2.49H10.5v-26H15v4.3a1.2 1.2 0 001.2 1.2h9.6a1.2 1.2 0 001.2-1.2v-4.3h22.5v25A2.5 2.5 0 0052 43a.5.5 0 00.5-.5v-27h4a2 2 0 002-2V9.447a2 2 0 00-1.78-1.987zM21 19.2a4.2 4.2 0 110-8.4 4.2 4.2 0 010 8.4zm34.5-6.7H27v-2.3A1.2 1.2 0 0025.8 9h-9.6a1.2 1.2 0 00-1.2 1.2v2.3H4.5V4.676l51 5.667V12.5z"/></svg>
