<?xml version="1.0" encoding="utf-8"?>
<!-- Generator: Adobe Illustrator 21.1.0, SVG Export Plug-In . SVG Version: 6.00 Build 0)  -->
<svg version="1.1" id="eps" xmlns="http://www.w3.org/2000/svg" xmlns:xlink="http://www.w3.org/1999/xlink" x="0px" y="0px"
	 viewBox="0 0 60 60" style="enable-background:new 0 0 60 60;" xml:space="preserve">
<g>
	<path d="M56.71,48.46l-10.01-10c1.13-1.83,1.8-3.98,1.8-6.29c0-6.62-5.38-12-12-12s-12,5.38-12,12s5.38,12,12,12
		c2.13,0,4.14-0.57,5.88-1.55l10.09,10.09c0.78,0.78,2.05,0.78,2.83,0l1.41-1.41C57.49,50.51,57.49,49.25,56.71,48.46z M27.5,32.17
		c0-4.96,4.04-9,9-9s9,4.04,9,9s-4.04,9-9,9S27.5,37.13,27.5,32.17z"/>
	<path d="M55.75,25.97c0.23,0.15,0.54,0.09,0.69-0.14c0.77-1.15,0.46-2.7-0.69-3.47L31.11,5.94c-0.67-0.45-1.55-0.45-2.22,0
		L4.25,22.37c-1.15,0.77-1.46,2.32-0.69,3.47c0.15,0.23,0.46,0.29,0.69,0.14L30,8.8L55.75,25.97z"/>
	<path d="M42.5,51.5H19.04c-4.69,0-8.5-3.81-8.5-8.5V30.5h6.96c1.38,0,2.5-1.12,2.5-2.5c0-0.28-0.22-0.5-0.5-0.5H9.54
		c-1.1,0-2,0.9-2,2V43c0,6.35,5.15,11.5,11.5,11.5H44.5c0.28,0,0.5-0.22,0.5-0.5C45,52.62,43.88,51.5,42.5,51.5z"/>
</g>
</svg>
