<?xml version="1.0" encoding="utf-8"?>
<!-- Generator: Adobe Illustrator 21.1.0, SVG Export Plug-In . SVG Version: 6.00 Build 0)  -->
<svg version="1.1" id="EPS" xmlns="http://www.w3.org/2000/svg" xmlns:xlink="http://www.w3.org/1999/xlink" x="0px" y="0px"
	 viewBox="0 0 60 60" style="enable-background:new 0 0 60 60;" xml:space="preserve">
<g>
	<path d="M49.23,38.41l-0.08-0.04c-1.16-0.51-2.55-0.11-3.19,0.98C42.67,44.98,36.61,48.5,30,48.5c-9.98,0-18.12-7.95-18.47-17.85
		l2.64,2.64c0.98,0.98,2.56,0.98,3.54,0c0.2-0.2,0.2-0.51,0-0.71l-6.29-6.29c-0.78-0.78-2.05-0.78-2.83,0L2.3,32.58
		c-0.2,0.2-0.2,0.51,0,0.71c0.98,0.98,2.56,0.98,3.54,0l2.7-2.7C8.85,42.17,18.34,51.5,30,51.5c8.37,0,15.96-4.85,19.49-12.41
		C49.61,38.83,49.49,38.53,49.23,38.41z"/>
	<path d="M57.71,26.71c-0.98-0.98-2.56-0.98-3.54,0l-2.7,2.7C51.15,17.83,41.66,8.5,30,8.5c-8.38,0-15.97,4.86-19.5,12.43
		c-0.12,0.25,0,0.56,0.26,0.67l0.08,0.03c1.16,0.51,2.55,0.11,3.19-0.99c3.29-5.62,9.35-9.15,15.97-9.15
		c9.98,0,18.12,7.95,18.47,17.85l-2.64-2.64c-0.98-0.98-2.56-0.98-3.54,0c-0.2,0.2-0.2,0.51,0,0.71l6.29,6.29
		c0.78,0.78,2.05,0.78,2.83,0l6.29-6.29C57.9,27.22,57.9,26.9,57.71,26.71z"/>
</g>
</svg>
