<?xml version="1.0" encoding="utf-8"?>
<!-- Generator: Adobe Illustrator 21.1.0, SVG Export Plug-In . SVG Version: 6.00 Build 0)  -->
<svg version="1.1" id="EPS" xmlns="http://www.w3.org/2000/svg" xmlns:xlink="http://www.w3.org/1999/xlink" x="0px" y="0px"
	 viewBox="0 0 60 60" style="enable-background:new 0 0 60 60;" xml:space="preserve">
<g>
	<path d="M53.5,7.5H39.93l-2.45-4.89c-0.34-0.68-1.03-1.11-1.79-1.11H24.31c-0.76,0-1.45,0.43-1.79,1.11L20.07,7.5H6.5
		c-1.1,0-2,0.9-2,2v10c0,1.1,0.9,2,2,2h3.15l2.89,26.74c0.63,5.84,5.56,10.26,11.43,10.26h20.57c1.02,0,1.88-0.77,1.99-1.79
		l3.81-35.21h3.15c1.1,0,2-0.9,2-2v-10C55.5,8.4,54.6,7.5,53.5,7.5z M24.93,4.5h10.15l1.5,3H23.43L24.93,4.5z M43.65,55.5H23.98
		c-4.35,0-7.98-3.26-8.45-7.59L12.67,21.5h34.66L43.65,55.5z M52.5,18.5h-1.83H9.33H7.5v-8h11.07h22.85H52.5V18.5z"/>
	<path d="M28.97,52h2.05c0.28,0,0.5-0.22,0.5-0.5v-26c0-0.28-0.22-0.5-0.5-0.5h-0.05c-1.38,0-2.5,1.12-2.5,2.5v24
		C28.47,51.78,28.7,52,28.97,52z"/>
	<path d="M36.97,52h2.05c0.28,0,0.5-0.22,0.5-0.5v-26c0-0.28-0.22-0.5-0.5-0.5h-0.05c-1.38,0-2.5,1.12-2.5,2.5v24
		C36.47,51.78,36.7,52,36.97,52z"/>
	<path d="M20.97,52h2.05c0.28,0,0.5-0.22,0.5-0.5v-26c0-0.28-0.22-0.5-0.5-0.5h-0.05c-1.38,0-2.5,1.12-2.5,2.5v24
		C20.47,51.78,20.7,52,20.97,52z"/>
</g>
</svg>
