<?xml version="1.0" encoding="utf-8"?>
<!-- Generator: Adobe Illustrator 21.1.0, SVG Export Plug-In . SVG Version: 6.00 Build 0)  -->
<svg version="1.1" id="eps" xmlns="http://www.w3.org/2000/svg" xmlns:xlink="http://www.w3.org/1999/xlink" x="0px" y="0px"
	 viewBox="0 0 60 60" style="enable-background:new 0 0 60 60;" xml:space="preserve">
<g>
	<path d="M38,42c-0.28,0-0.5,0.22-0.5,0.5v13h-4v-16c0-1.38-1.12-2.5-2.5-2.5c-0.28,0-0.5,0.22-0.5,0.5v18H13
		c-0.17,0-0.33-0.02-0.5-0.03V36.5c0-0.28-0.22-0.5-0.5-0.5c-1.38,0-2.5,1.12-2.5,2.5v16.24c-2.95-1.33-5-4.29-5-7.74V35
		c0-4.69,3.81-8.5,8.5-8.5h15.5c0.28,0,0.5-0.22,0.5-0.5c0-1.38-1.12-2.5-2.5-2.5H13C6.65,23.5,1.5,28.65,1.5,35v12
		c0,6.35,5.15,11.5,11.5,11.5h25.5c1.1,0,2-0.9,2-2v-12C40.5,43.12,39.38,42,38,42z"/>
	<path d="M21,20.5c5.24,0,9.5-4.26,9.5-9.5S26.24,1.5,21,1.5s-9.5,4.26-9.5,9.5S15.76,20.5,21,20.5z M21,4.5
		c3.58,0,6.5,2.92,6.5,6.5s-2.92,6.5-6.5,6.5s-6.5-2.92-6.5-6.5S17.42,4.5,21,4.5z"/>
	<path d="M45,13.5c-7.44,0-13.5,6.06-13.5,13.5S37.56,40.5,45,40.5S58.5,34.44,58.5,27S52.44,13.5,45,13.5z M45,37.5
		c-5.79,0-10.5-4.71-10.5-10.5S39.21,16.5,45,16.5S55.5,21.21,55.5,27S50.79,37.5,45,37.5z"/>
	<path d="M41.3,23.16h-1c-0.08,0-0.16,0.02-0.24,0.05l-1.82,0.74c-0.12,0.04-0.17,0.13-0.12,0.26l0.33,1
		c0.04,0.12,0.13,0.17,0.26,0.12l0.99-0.37v5.16c0,0.14,0.07,0.21,0.21,0.21h1.4c0.14,0,0.21-0.07,0.21-0.21v-6.75
		C41.51,23.23,41.44,23.16,41.3,23.16z"/>
	<path d="M47.35,27.27c-0.11-0.14-0.23-0.26-0.38-0.36s-0.3-0.2-0.46-0.28v-0.04c0.11-0.07,0.23-0.15,0.35-0.25s0.23-0.21,0.33-0.35
		c0.1-0.14,0.18-0.3,0.24-0.49c0.07-0.19,0.1-0.4,0.1-0.64c0-0.29-0.06-0.55-0.17-0.78s-0.27-0.42-0.47-0.57s-0.44-0.27-0.71-0.35
		s-0.57-0.12-0.9-0.12c-0.36,0-0.69,0.05-0.98,0.14s-0.54,0.23-0.75,0.41s-0.37,0.39-0.48,0.63c-0.11,0.25-0.17,0.52-0.17,0.84
		c0,0.23,0.03,0.43,0.08,0.6c0.06,0.17,0.13,0.32,0.22,0.45c0.09,0.13,0.2,0.25,0.32,0.34s0.25,0.19,0.39,0.27v0.04
		c-0.13,0.07-0.27,0.15-0.41,0.25s-0.26,0.22-0.38,0.36s-0.21,0.3-0.28,0.49s-0.11,0.41-0.11,0.66c0,0.61,0.22,1.08,0.65,1.42
		s1.03,0.51,1.78,0.51c0.37,0,0.7-0.05,1.01-0.16s0.58-0.25,0.8-0.43c0.23-0.18,0.4-0.4,0.53-0.65c0.12-0.25,0.19-0.53,0.19-0.84
		c0-0.24-0.03-0.44-0.09-0.62S47.45,27.41,47.35,27.27z M44.72,24.6c0.13-0.12,0.31-0.18,0.52-0.18c0.19,0,0.35,0.05,0.49,0.16
		c0.14,0.1,0.21,0.28,0.21,0.54c0,0.21-0.06,0.39-0.19,0.54c-0.12,0.15-0.27,0.27-0.44,0.34c-0.08-0.03-0.16-0.08-0.25-0.12
		c-0.09-0.05-0.18-0.11-0.26-0.18c-0.08-0.07-0.15-0.15-0.2-0.24c-0.06-0.09-0.08-0.21-0.08-0.34
		C44.51,24.89,44.58,24.72,44.72,24.6z M45.78,28.82c-0.15,0.14-0.33,0.2-0.56,0.2c-0.24,0-0.43-0.07-0.59-0.2
		c-0.16-0.14-0.23-0.33-0.23-0.6c0-0.21,0.07-0.39,0.21-0.55s0.3-0.28,0.49-0.35c0.09,0.03,0.19,0.07,0.29,0.12
		c0.1,0.04,0.2,0.1,0.29,0.17s0.17,0.15,0.23,0.25S46,28.07,46,28.22C46,28.48,45.93,28.68,45.78,28.82z"/>
	<path d="M52.97,26.38h-1.41v-1.54c0-0.14-0.07-0.21-0.21-0.21h-1c-0.14,0-0.21,0.07-0.21,0.21v1.54h-1.39
		c-0.14,0-0.21,0.07-0.21,0.21v0.99c0,0.14,0.07,0.21,0.21,0.21h1.39v1.56c0,0.14,0.07,0.21,0.21,0.21h1c0.14,0,0.21-0.07,0.21-0.21
		v-1.56h1.41c0.14,0,0.21-0.07,0.21-0.21v-0.99C53.18,26.45,53.11,26.38,52.97,26.38z"/>
</g>
</svg>
