<?xml version="1.0" encoding="utf-8"?>
<!-- Generator: Adobe Illustrator 21.1.0, SVG Export Plug-In . SVG Version: 6.00 Build 0)  -->
<svg version="1.1" id="eps" xmlns="http://www.w3.org/2000/svg" xmlns:xlink="http://www.w3.org/1999/xlink" x="0px" y="0px"
	 viewBox="0 0 60 60" style="enable-background:new 0 0 60 60;" xml:space="preserve">
<g>
	<path d="M38,23.5H22c-6.35,0-11.5,5.15-11.5,11.5v12c0,6.35,5.15,11.5,11.5,11.5h25.5c1.1,0,2-0.9,2-2V35
		C49.5,28.65,44.35,23.5,38,23.5z M46.5,55.5h-5v-17c0-1.38-1.12-2.5-2.5-2.5c-0.28,0-0.5,0.22-0.5,0.5v19H22
		c-0.17,0-0.33-0.02-0.5-0.03V36.5c0-0.28-0.22-0.5-0.5-0.5c-1.38,0-2.5,1.12-2.5,2.5v16.24c-2.95-1.33-5-4.29-5-7.74V35
		c0-4.69,3.81-8.5,8.5-8.5h16c4.69,0,8.5,3.81,8.5,8.5V55.5z"/>
	<path d="M30,20.5c5.24,0,9.5-4.26,9.5-9.5S35.24,1.5,30,1.5s-9.5,4.26-9.5,9.5S24.76,20.5,30,20.5z M30,4.5
		c3.58,0,6.5,2.92,6.5,6.5s-2.92,6.5-6.5,6.5s-6.5-2.92-6.5-6.5S26.42,4.5,30,4.5z"/>
</g>
</svg>
