<?xml version="1.0" encoding="utf-8"?>
<!-- Generator: Adobe Illustrator 21.1.0, SVG Export Plug-In . SVG Version: 6.00 Build 0)  -->
<svg version="1.1" id="EPS" xmlns="http://www.w3.org/2000/svg" xmlns:xlink="http://www.w3.org/1999/xlink" x="0px" y="0px"
	 viewBox="0 0 60 60" style="enable-background:new 0 0 60 60;" xml:space="preserve">
<g>
	<path d="M37.18,17.22c-0.87-1.12-2.51-1.24-3.51-0.23l-0.02,0.02c-0.19,0.19-0.19,0.5,0,0.69c3.17,3.33,4.91,7.68,4.91,12.3
		s-1.74,8.97-4.91,12.3c-0.19,0.2-0.19,0.5,0,0.69l0.03,0.03c1,1,2.64,0.88,3.51-0.24c2.84-3.64,4.37-8.1,4.37-12.79
		C41.55,25.31,40.02,20.86,37.18,17.22z"/>
	<path d="M42.98,11.68c-0.87-1.03-2.46-1.07-3.41-0.12l-0.05,0.05c-0.19,0.19-0.19,0.5,0,0.69c4.61,4.77,7.14,11.03,7.14,17.69
		s-2.53,12.92-7.15,17.69c-0.19,0.2-0.19,0.5,0,0.69l0.05,0.05c0.95,0.96,2.54,0.92,3.41-0.12c4.33-5.1,6.68-11.51,6.68-18.3
		C49.65,23.22,47.3,16.8,42.98,11.68z"/>
	<path d="M49.38,5.75c-0.89-1.01-2.45-1.05-3.4-0.1l-0.07,0.07c-0.19,0.19-0.19,0.5,0,0.7C52.1,12.76,55.5,21.12,55.5,30
		c0,8.89-3.4,17.24-9.6,23.59c-0.19,0.19-0.19,0.5,0,0.7l0.07,0.07c0.95,0.95,2.51,0.91,3.4-0.1c5.9-6.71,9.12-15.24,9.12-24.26
		C58.5,20.98,55.28,12.46,49.38,5.75z"/>
	<path d="M25.56,16.15l-12.19,6.89H3.5c-1.1,0-2,0.9-2,2v9.93c0,1.1,0.9,2,2,2h9.86l12.19,6.89c1.33,0.75,2.98-0.21,2.98-1.74V17.89
		C28.54,16.36,26.89,15.39,25.56,16.15z M25.54,40.4l-10.93-6.18c-0.3-0.17-0.64-0.26-0.98-0.26H4.5v-7.93h9.13
		c0.34,0,0.68-0.09,0.98-0.26l10.93-6.18V40.4z"/>
</g>
</svg>
