<svg id="Wine-storage" xmlns="http://www.w3.org/2000/svg" viewBox="0 0 60 60"><defs><style>.cls-1{fill:#1d1e1c;}</style></defs><title>Wine-storage_konv</title><path class="cls-1" d="M3,10.86C3,9.45,3.27,9,4.91,9H32.35c1.89,0,3.88.12,5.57,1.5,2.41,2,4.44,2.93,6.22,2.93H57v3.15H44.15c-1.61,0-3.43.79-5.54,2.4a12,12,0,0,1,2.87,1.64,5.3,5.3,0,0,1,2.67-1H60V10.44H44.15c-.72,0-2-.39-4.32-2.25C37.37,6.18,34.64,6,32.35,6H4.91C1.7,6,0,7.69,0,10.86v8.31c0,.06,0,.12,0,.18a7.68,7.68,0,0,1,3-1.2Z"/><path class="cls-1" d="M32.35,39c1.89,0,3.89.12,5.57,1.5,2.41,2,4.44,2.93,6.22,2.93H57v3.15H44.15c-1.78,0-3.82,1-6.22,2.93C36.23,50.89,34.3,51,32.13,51H4.91C3.27,51,3,50.56,3,49.15V40.84C3,39.44,3.27,39,4.91,39H32.35m0-3H4.91C1.7,36,0,37.67,0,40.84v8.31C0,52.32,1.7,54,4.91,54H32.13c2.34,0,5.16-.1,7.69-2.18,2.27-1.86,3.6-2.25,4.32-2.25H60V40.43H44.15c-.72,0-2-.39-4.32-2.25-2.45-2-5.19-2.18-7.47-2.18Z"/><path class="cls-1" d="M3,25.85C3,24.44,3.27,24,4.91,24H32.35c1.89,0,3.88.12,5.57,1.5,2.41,2,4.44,2.93,6.22,2.93H57v3.15H44.15c-1.61,0-3.43.79-5.54,2.4a12,12,0,0,1,2.87,1.64,5.3,5.3,0,0,1,2.67-1H60V25.43H44.15c-.72,0-2-.39-4.32-2.25-2.45-2-5.19-2.18-7.47-2.18H4.91C1.7,21,0,22.68,0,25.85v8.31c0,.06,0,.12,0,.18a7.67,7.67,0,0,1,3-1.2Z"/></svg>