<?xml version="1.0" encoding="utf-8"?>
<!-- Generator: Adobe Illustrator 20.1.0, SVG Export Plug-In . SVG Version: 6.00 Build 0)  -->
<svg version="1.1" id="Ebene_1" xmlns="http://www.w3.org/2000/svg" xmlns:xlink="http://www.w3.org/1999/xlink" x="0px" y="0px"
	 viewBox="0 0 60 60" style="enable-background:new 0 0 60 60;" xml:space="preserve">
<g>
	<path d="M32.2,3.9c-7.3,8.1,0.4,15.9-3.4,26C39.6,17.9,29,15,32.2,3.9z"/>
	<path d="M40.2,10.5c-7.2,6,0.4,11.8-3.3,19.4C47.8,20.9,37.1,18.8,40.2,10.5z"/>
	<path d="M24,10.5c-7.3,6,0.4,11.8-3.4,19.4C31.5,20.9,20.8,18.8,24,10.5z"/>
	<path d="M25.4,46.6h3v-1.5c0-0.5,0-1,0.1-1.7c0.2-3,0.5-6,0.9-8.9l0.1-0.8H29c-2.5,0-4.9,0.1-7.4,0.4c-0.1,0.7-0.2,1.3-0.4,2.5
		c0,0.2,0,0.4-0.1,0.6c1.7-0.2,3.4-0.4,5-0.5c-0.4,2.8-0.6,5.6-0.7,8.3V46.6z"/>
	<path d="M36.6,46.6h3v-1.5c0.1-2.3,0.3-4.6,0.6-6.9c0.2-1.6,0.3-3.1,0.4-3.8c-2.7-0.4-5.3-0.6-8-0.7l-0.1,0.4l-0.2,1
		c-0.1,0.4-0.2,1-0.2,1.7c1.7,0,3.4,0.1,5.2,0.3c-0.4,2.7-0.6,5.4-0.7,8.1V46.6z"/>
	<path d="M43.5,34.9c-0.1,0.7-0.2,1.8-0.3,3c7.4,1.6,13.8,4.7,13.8,10c0,4.5-3.1,5.2-5,5.2H8c-1.9,0-5-0.7-5-5.2
		C3,43,8.4,40,15,38.3c-0.3,2.2-0.5,4.5-0.5,6.7v1.5h3V45c0-0.7,0-1.5,0.1-2.3c0-0.3,0-0.6,0.1-0.9v-0.1c0.1-1.7,0.3-3.6,0.6-5.5
		c0.1-0.7,0.2-1.2,0.2-1.6C8.9,36.1,0,40.1,0,47.9c0,5.5,3.6,8.2,8,8.2h44c4.4,0,8-2.7,8-8.2C60,40.7,52.3,36.7,43.5,34.9z"/>
</g>
</svg>
