<?xml version="1.0" encoding="utf-8"?>
<!-- Generator: Adobe Illustrator 22.0.0, SVG Export Plug-In . SVG Version: 6.00 Build 0)  -->
<svg version="1.1" id="Ebene_1" xmlns="http://www.w3.org/2000/svg" xmlns:xlink="http://www.w3.org/1999/xlink" x="0px" y="0px"
	 viewBox="0 0 60 60" style="enable-background:new 0 0 60 60;" xml:space="preserve">
<title>chefs-cap</title>
<path d="M43.7,27.2c-0.3,2.1-0.9,5.2-4.9,9.8l2.3,2c4.5-5.3,5.2-9,5.5-11.3v-0.2l-3-0.5L43.7,27.2z"/>
<path d="M44.9,5.8c-1,0-1.9,0.1-2.8,0.2c-3.6-4.9-9.9-6-12-6l0,0c-2.1,0-8.4,1.1-12,6c-1-0.1-1.9-0.2-2.9-0.2
	C-2.8,5.8-4.3,28.7,8,34v26h44V34C64.3,28.7,62.8,5.8,44.9,5.8z M49,57H11v-7.5h38V57z M50.8,31.2L49,32v14.5H11V32l-1.8-0.8
	C5.3,29.5,2,24.5,3.3,18c1.2-5.7,5.6-9.2,11.9-9.2h1c-1.3,2.8-1.9,5.8-1.9,8.8h3c-0.1-3.1,0.7-6.1,2.3-8.7l0.9-1.2
	C23.3,3.9,28.4,3,30,3l0,0c1.6,0,6.7,0.9,9.6,4.8L40.5,9c1.6,2.6,2.4,5.6,2.2,8.7h3c0.1-3.1-0.6-6.1-1.9-8.8h1
	c6.3,0,10.7,3.4,11.9,9.2C58.1,24.5,54.7,29.5,50.8,31.2L50.8,31.2z"/>
<path d="M16.3,27l-3,0.5v0.2c0.4,2.2,1,6,5.6,11.3l2.3-2c-4-4.6-4.5-7.7-4.9-9.8L16.3,27z"/>
<rect x="28.5" y="27" width="3" height="11"/>
</svg>
