<svg xmlns="http://www.w3.org/2000/svg" viewBox="0 0 60 60"><title>20180604_Icons_Wein_Pairings_konvertiert</title><g id="chocolat"><path d="M48,3a3,3,0,0,0-3-3H15a3,3,0,0,0-3,3V18.33l.38.3c.59.48,1.5,1.14,2.62,1.87V15H30v3H18v4.29c3.41,1.85,7.71,3.57,11.63,3.57.33,0,.67,0,1,0,.51,0,1-.06,1.54-.06C38.82,25.75,44.51,29,48,31.6V18H36v6H33V15H48V6H36v6H33V3H48M15,3H30V6H18v6H15Z"/><path d="M32.16,28.75c-.44,0-.87,0-1.32.05s-.81,0-1.22,0C20.26,28.85,10.49,21,10.49,21V60h39V36.84S41.87,28.75,32.16,28.75Zm-1.09,3c.36,0,.72,0,1.09,0A20.27,20.27,0,0,1,43,35.42a13.83,13.83,0,0,0-9.91,5.8A78.78,78.78,0,0,0,22.83,30.8a24.42,24.42,0,0,0,6.8,1C30.12,31.85,30.6,31.83,31.08,31.79ZM13.49,57V27.31C17.78,30.38,26.36,37,32,44.72l1.42,1.94,1.12-2.13c.18-.34,4.19-7.79,12-5.91V57Z"/></g></svg>