<svg xmlns="http://www.w3.org/2000/svg" viewBox="0 0 60 60"><title>20180604_Icons_Wein_Pairings_konvertiert</title><g id="dessert"><path d="M40.35,19.8c0,.09,0,.18,0,.27a10.27,10.27,0,0,1-.4,2.8,23.27,23.27,0,0,1,9,6.11c1.6,1.91,2.33,3.77,2.07,5.25a7.94,7.94,0,0,1-2.14,3.64,1.24,1.24,0,0,1-1.73,0,7.24,7.24,0,0,0-10.22,0,1.24,1.24,0,0,1-1.73,0,7.24,7.24,0,0,0-10.22,0,1.24,1.24,0,0,1-1.73,0,7.24,7.24,0,0,0-10.22,0,1.24,1.24,0,0,1-1.73,0,8,8,0,0,1-2.16-3.64c-.28-1.54.44-3.43,2-5.34a22.92,22.92,0,0,1,9-6.07,10.27,10.27,0,0,1-.39-2.76c0-.11,0-.21,0-.32-8.49,3.08-14.61,9.47-13.6,15a11,11,0,0,0,3,5.23c.09.09.19.15.28.23L12,60H48l2.63-19.75c.1-.08.21-.15.3-.25a10.88,10.88,0,0,0,3-5.23C54.9,29.41,48.81,22.94,40.35,19.8ZM14.67,57l-2.1-15.8A4.18,4.18,0,0,0,15.11,40a4.21,4.21,0,0,1,3-1.23L19.76,57Zm8.1,0L21.23,40.12A4.21,4.21,0,0,0,27.06,40a4.17,4.17,0,0,1,1.48-.95V57Zm8.77,0V39.05A4.17,4.17,0,0,1,33,40a4.22,4.22,0,0,0,5.86.09L37.35,57Zm8.82,0L42,38.78A4.21,4.21,0,0,1,45,40a4.18,4.18,0,0,0,2.52,1.19L45.42,57Z"/><path d="M30.32,12.78H30a7.32,7.32,0,1,0,3.4.84c4-5.37,9.17-10.52,17.6-10.52v-3C40.73.08,34.89,6.48,30.32,12.78Z"/></g></svg>