<svg id="food-pairing-default" xmlns="http://www.w3.org/2000/svg" viewBox="0 0 60 60"><defs><style>.cls-1{fill:#1d1d1b;}</style></defs><title>food-pairing-default_konv</title><path class="cls-1" d="M57.94,17.38l-.78-16A1.31,1.31,0,0,0,55.95.06a4,4,0,0,0-3.73,3.7L49.95,21c-.42,2.71,1.45,5.17,3.87,5.19l.81,0L53,55.89C52.9,58.1,54.39,60,56.32,60h.34A3.64,3.64,0,0,0,60,55.89Z"/><path class="cls-1" d="M48.3,18.88l0-1.71L47.92,3.91a.81.81,0,0,0-1.63,0s-.31,9.5-.39,12.45a.83.83,0,0,1-.7.81.77.77,0,0,1-.72-.8c-.07-3.05-.39-12.43-.39-12.43a.82.82,0,0,0-1.63,0s-.39,12.45-.39,12.45a.83.83,0,0,1-.7.81.77.77,0,0,1-.72-.8c-.07-3.05-.39-12.43-.39-12.43a.82.82,0,0,0-1.64,0l-.47,13.19,0,1.71a6.68,6.68,0,0,0,1.46,4.41l2,2.17L39.67,55.89A3.69,3.69,0,0,0,43.07,60h.35a3.63,3.63,0,0,0,3.38-4.11L44.87,25.46l1.95-2.17A6.86,6.86,0,0,0,48.3,18.88Z"/><path class="cls-1" d="M30.17,60a30,30,0,1,1,0-60,30.41,30.41,0,0,1,7.6,1L37,3.93A27.41,27.41,0,0,0,30.17,3a27,27,0,1,0,0,54,27.46,27.46,0,0,0,6.55-.82l.72,2.91A30.41,30.41,0,0,1,30.17,60Z"/><path class="cls-1" d="M15.05,45a21.2,21.2,0,0,1,0-30.07A21,21,0,0,1,35.47,9.42l-.73,2.91A18.26,18.26,0,0,0,17.17,42.91Z"/></svg>