<svg id="Wine-quantity" xmlns="http://www.w3.org/2000/svg" viewBox="0 0 60 60"><defs><style>.cls-1{fill:#1d1d1b;}</style></defs><title>Wine-quantity_konv</title><path class="cls-1" d="M10.34,57H4.6C3.21,57,3,56.79,3,55.42V28.23C3,26.13,3,24,4.4,22.29l.07-.08c2.13-2.54,3.13-4.62,3.13-6.54V3h2.8V15.67c0,1.92,1,4,3.13,6.54l.07.08C15,24,15,26.13,15,28.24v4a24,24,0,0,1,3-1.48V28.24c0-2.39,0-5.36-2.1-7.88l-.07-.08c-1.61-1.92-2.42-3.47-2.42-4.61V0H4.6V15.67c0,1.14-.82,2.7-2.42,4.61l-.07.08C0,22.88,0,25.85,0,28.24V55.42C0,58.46,1.55,60,4.6,60H13.4c.15,0,.28,0,.43,0A19.74,19.74,0,0,1,10.34,57Z"/><path class="cls-1" d="M54,30V43l.52.77a12.07,12.07,0,0,0,1.12,1.32c.22.23.42.45.6.66l0,0A4.42,4.42,0,0,1,57,48.86v7.32c0,.69-.12.82-.83.82H48.82c-.7,0-.83-.12-.83-.82V48.85a4.41,4.41,0,0,1,.72-3.07l0,0c.18-.21.38-.43.6-.66a12.11,12.11,0,0,0,1.12-1.31L51,43V30h3m3-3H48V42.07a10.78,10.78,0,0,1-.83,1c-.26.27-.5.54-.71.79l0,0a7.24,7.24,0,0,0-1.42,5v7.32A3.54,3.54,0,0,0,48.82,60h7.35A3.54,3.54,0,0,0,60,56.19V48.86a7.24,7.24,0,0,0-1.42-5l0,0c-.21-.25-.45-.51-.7-.78a10.75,10.75,0,0,1-.83-1V27Z"/><path class="cls-1" d="M42,53.24a16.13,16.13,0,0,1-6,3.72l-.09,0H21.19l-.09,0c-5.58-2-9-6-9-10.52S15.46,38,21,36c3-1.11,6-4.13,6-7.76V20.6h3v7.62c0,3.62,3.07,6.65,6.1,7.76a14.17,14.17,0,0,1,7.81,6.25c.08-.1.13-.2.22-.3l0,0c.26-.31.55-.62.82-.91l0,0V38.5a18.42,18.42,0,0,0-7.87-5.33c-2-.73-4.14-2.72-4.14-5V17.6H24V28.22c0,2.24-2.12,4.22-4.08,5-6.7,2.47-10.86,7.56-10.86,13.28s4.23,10.89,11,13.34l.58.21H36.38l.58-.21a20.42,20.42,0,0,0,5.09-2.67,8.13,8.13,0,0,1-.06-.93Z"/></svg>