<?xml version="1.0" encoding="utf-8"?>
<!-- Generator: Adobe Illustrator 22.1.0, SVG Export Plug-In . SVG Version: 6.00 Build 0)  -->
<svg version="1.1" id="Ebene_1" xmlns="http://www.w3.org/2000/svg" xmlns:xlink="http://www.w3.org/1999/xlink" x="0px" y="0px"
	 viewBox="0 0 60 60" style="enable-background:new 0 0 60 60;" xml:space="preserve">
<title>national-food-1</title>
<g id="Ebene_3">
	<path d="M3,40.9V32h12v4c1-0.2,2-0.4,3-0.6V20.7c0-5.3-5-7.7-5-7.7V0H5v13.1c-3,1.8-4.9,5-5,8.5v22.1C0.9,42.6,1.9,41.7,3,40.9z
		 M8,3h2v4H8V3z M3,21.6c0-2.4,1.3-4.6,3.4-5.8L8,15v-5h2v3v1.9l1.7,0.8c0.1,0.1,3.3,1.7,3.3,5V29H3V21.6z"/>
</g>
<g id="selection">
	<path d="M26.8,34.6c-2.4-5-0.9-15.1-0.9-15.1c0.8,0.3,1.6,0.6,2.4,0.9c0.4,0.2,0.8,0.4,1.2,0.6h0.1c0.4,0.2,0.9,0.5,1.3,0.8
		c1.7,1,3.3,2.3,4.7,3.8c-4.8,4.1-7,7-8.1,8.9c0.5,0,1,0,1.5,0h2.1c1.5-2,3.2-3.8,5.1-5.5l0.7-0.6l1.1-0.9c0.3-0.3,0.7-0.5,1-0.8
		l0,0l0.2-0.1l0.5-0.3c0.3-0.2,0.7-0.5,1.1-0.7l0.2-0.1c0.4-0.2,0.8-0.5,1.3-0.7l0.2-0.1c0.4-0.2,0.8-0.4,1.3-0.6s0.9-0.4,1.4-0.6
		h0.1c0.4-0.1,0.8-0.3,1.2-0.4l0.3-0.1h0.1l0,0l1.3-0.4l0,0l1.2-0.3h0.1l1.1-0.4h0.2l1-0.2H52l0.9-0.1H53h0.2l0.9-0.2h0.2H55l0,0
		h0.5h0.9c0,0-1.6,10-5.4,16.4l0.2,0.1c0.9,0.4,1.8,0.8,2.6,1.2c3.8-6.6,5.4-15.8,5.6-17.1l0.6-3.4l-3.4-0.1h-0.1
		c0-1.6-0.2-3.4-0.5-5.7c-0.2-1.4-0.4-3.1-0.6-5l-0.6-5.7l-4.3,3.6c-1.6,1.3-3.4,2.5-5.2,3.5c-1,0.6-2,1.2-2.9,1.8l-0.2-0.6
		l-2.1-5.3l-3.2,4.7c-1.2,1.7-2.6,3.3-4,4.8c-1,1-1.9,2-2.7,3.1c-1-0.5-2.1-0.9-3.2-1.3l-3.3-1L22.9,19c-0.2,1.1-1.4,9.9,0.7,15.7
		C24.7,34.7,25.7,34.6,26.8,34.6z M52.2,8c0.5,5,1,8.1,1.1,10.5c-1.8,0.2-3.6,0.5-5.3,0.9c0.2-0.8,0.4-1.6,0.5-2.4
		c-0.4,1-1,1.9-1.6,2.8l-1.1,0.3c-0.5-1.5-1.2-3.1-2-5L43.3,14C45.8,12.1,48.9,10.9,52.2,8z M39.1,11.6l0.6,1.5l0,0l0,0
		c1.5,3.6,2.6,6,3.2,8c-1.5,0.6-3,1.4-4.4,2.3c-0.2-0.8-0.4-1.6-0.6-2.3c0,0.9,0,1.7-0.1,2.5c-1.6-1.7-3.4-3.2-5.3-4.4
		C34.3,17.1,36.8,15,39.1,11.6z"/>
	<path d="M44,35.8c1.9-2.3,3.3-5,3.8-8c-1.8,3.3-4.5,5.8-7.9,7.4C41.3,35.3,42.7,35.5,44,35.8z"/>
</g>
<path d="M36.6,50.6h3v-1.5c0-1.4,0.2-3.9,0.6-6.9c0.2-1.6,0.3-3.1,0.4-3.8c-2.7-0.4-5.4-0.6-8-0.7c0,0.1,0,0.2-0.1,0.4l-0.2,1
	c-0.1,0.4-0.2,1-0.3,1.6c1.7,0,3.4,0.1,5.2,0.3c-0.3,2.5-0.7,5.9-0.7,8.1L36.6,50.6L36.6,50.6z"/>
<g>
	<path d="M21.2,40.5c0,0.2-0.1,0.4-0.1,0.6c1.7-0.2,3.4-0.4,5-0.4c-0.3,2.5-0.7,6-0.7,8.3v1.5h3V49c0-0.5,0-1,0.1-1.7
		c0.1-2.7,0.6-7.2,0.9-8.9l0.2-0.8H29c-2.3,0-4.9,0.1-7.4,0.4C21.5,38.7,21.4,39.2,21.2,40.5z"/>
	<path d="M43.6,38.8c-0.1,0.7-0.2,1.8-0.3,3c7.4,1.6,13.8,4.7,13.8,9.9c0,4.5-3.1,5.2-5,5.2H8c-1.9,0-5-0.7-5-5.2
		c0-4.8,5.4-7.9,12-9.5c-0.3,2.6-0.5,4.8-0.5,6.7v1.5h3v-1.5c0-0.7,0-1.5,0.1-2.3c0-0.3,0-0.6,0.1-0.9v-0.1c0.1-1.7,0.3-3.6,0.6-5.5
		c0.1-0.7,0.2-1.2,0.2-1.7C8.9,40,0,44,0,51.8C0,57.3,3.6,60,8,60h44c4.4,0,8-2.7,8-8.2C60,44.6,52.3,40.6,43.6,38.8z"/>
</g>
</svg>
