<?xml version="1.0" encoding="utf-8"?>
<!-- Generator: Adobe Illustrator 22.1.0, SVG Export Plug-In . SVG Version: 6.00 Build 0)  -->
<svg version="1.1" id="Ebene_1" xmlns="http://www.w3.org/2000/svg" xmlns:xlink="http://www.w3.org/1999/xlink" x="0px" y="0px"
	 viewBox="0 0 60 60" style="enable-background:new 0 0 60 60;" xml:space="preserve">
<title>national-food-2</title>
<g id="Apfel">
	<path d="M16.7,37.5L16.7,37.5L16.7,37.5z"/>
	<path d="M13,56.9c-0.3-0.6-0.6-1.3-0.9-1.9H3v-4.9h7.7c-0.1-0.8-0.2-1.5-0.3-2.3c0-0.2,0-0.5,0-0.7H3V32h12v3l0.1-0.1l0.2-0.2
		c0.4-0.2,0.8-0.4,1.3-0.5l0.4-0.1c0.3-0.1,0.6-0.2,0.9-0.2H18V20.7c0-5.3-5-7.7-5-7.7V0H5v13.1c-3,1.8-4.9,5-5,8.5V58h13.6
		C13.4,57.7,13.2,57.3,13,56.9z M8,3h2v4H8V3z M3,21.6c0-2.4,1.3-4.6,3.4-5.8L8,15v-5h2v3v1.9l1.7,0.8c0.1,0.1,3.3,1.7,3.3,5V29H3
		V21.6z"/>
	<path d="M31.1,35.9c-0.4-0.1-0.8-0.1-1.3-0.1c-1.2,0-2.3,0.3-3.4,0.7c0.1-0.7,0.1-1.5,0.1-2.4l0,0l0.3,0.1l0,0l0.3,0.1h0.1l0.3,0.1
		h0.2l0.3,0.1l0.2,0.1l0.3,0.1l0.3,0.1l0.2,0.1l0.4,0.1h0.2l0.7,0.1c2.6,0.3,5.3-0.2,7.6-1.5c0,0-4-4.8-7-5.3c-0.2,0-0.5,0-0.7,0H30
		c-0.2,0-0.3,0-0.5,0.1h-0.2c-0.2,0.1-0.4,0.1-0.6,0.2h-0.1c-0.2,0.1-0.3,0.2-0.5,0.2L28,28.9l-0.4,0.3l-0.1,0.1
		c-0.2,0.1-0.3,0.3-0.5,0.4v0.1l-0.4,0.4l-0.1,0.1c-0.1,0.1-0.2,0.3-0.3,0.5c-0.1-0.8-0.5-1.6-0.9-2.2c-0.5-0.7-1.4-0.8-2.1-0.4
		s-0.8,1.4-0.4,2.1l0.1,0.1c0.6,0.8,0.7,3.9,0.5,6.4c-0.8-0.2-1.7-0.3-2.6-0.3c-2.7,0-5.7,1-6.8,4.3c-1.8,5.7,0.1,17.9,7,19.1
		c0.2,0,0.4,0.1,0.7,0.1c1.5,0,2.5-0.9,3.4-0.9h0.1C26,59,27,59.9,29,59.9c0.4,0,0.9,0,1.3-0.1c3-0.5,6.7-7.2,6.9-12.1
		S37.1,37.3,31.1,35.9z M34.3,47.5c-0.2,2.1-0.8,4.2-1.9,6.1c-0.6,1.3-1.5,2.4-2.6,3.2c-0.3,0-0.5,0.1-0.8,0.1
		c-0.6,0-1.1-0.1-1.7-0.4C26.6,56.2,25.8,56,25,56l0,0c-0.8,0.1-1.6,0.3-2.3,0.6c-0.3,0.2-0.7,0.3-1,0.3h-0.1
		c-1.3-0.4-2.5-1.3-3.1-2.5c-2.1-3.9-2.6-8.4-1.6-12.8c0.2-0.5,0.7-2.2,3.9-2.2c0.9,0,1.8,0.1,2.7,0.5l1.4,0.7l1.4-0.8
		c1.1-0.6,2.3-0.9,3.6-1c0.2,0,0.4,0,0.6,0.1C33.6,39.6,34.6,41.8,34.3,47.5z"/>
	<path d="M56,21.7V15H33.1v6.7L31,25.3h0.3c0.9,0.2,1.8,0.5,2.6,0.9l1.8-3l0,0h17.6l0,0l3.6,6V55H38.5c-0.5,1-1,2-1.6,3h20.4
		c1.5,0,2.7-1.1,2.7-2.6v-0.1V28.4L56,21.7z M53,20.2H36.1V18H53V20.2z"/>
	<path d="M44.5,36.2c-2.1,0-4.2,0.5-6.1,1.5c0.5,0.9,0.9,1.8,1.2,2.7c1.5-0.8,3.2-1.3,4.9-1.2c4.1,0,7,2.1,7,4.1s-2.9,4.1-7,4.1
		c-1.4,0-2.9-0.3-4.2-0.8c0,0.5,0,1,0,1.4c0,0.6-0.1,1.1-0.2,1.7c1.4,0.5,2.9,0.7,4.4,0.7c5.5,0,10-3.2,10-7.1S50.1,36.2,44.5,36.2z
		"/>
</g>
</svg>
