<svg id="wine-alcohol-level" xmlns="http://www.w3.org/2000/svg" viewBox="0 0 60 60"><defs><style>.cls-1{fill:#1d1d1b;}</style></defs><title>Alcohol-level_konv</title><path class="cls-1" d="M9,57H4.6C3.21,57,3,56.8,3,55.43V28.23C3,26.14,3,24,4.4,22.29l.07-.08C6.6,19.67,7.6,17.59,7.6,15.67V3h2.8V15.67c0,1.92,1,4,3.13,6.54l.07.08A5.26,5.26,0,0,1,14.54,24h3.12a8.43,8.43,0,0,0-1.76-3.64l-.07-.08c-1.61-1.92-2.42-3.47-2.42-4.61V0H4.6V15.67c0,1.14-.82,2.7-2.42,4.61l-.07.08C0,22.88,0,25.85,0,28.24V55.43C0,58.46,1.55,60,4.6,60H9V57Z"/><path class="cls-1" d="M22,28l-.33-1H11.34L11,28C8.9,34.58,8.37,39.81,9.53,42.83A7.88,7.88,0,0,0,15,47.49h0V57H12v3h9V57H18V47.49a7.91,7.91,0,0,0,5.49-4.71C24.63,39.81,24.1,34.58,22,28Zm-4,6.1c-.54,0-1.08-.08-1.63-.08s-.94,0-1.37,0a17.64,17.64,0,0,0-2.56.31,44.65,44.65,0,0,1,1.1-4.4h5.92a44.57,44.57,0,0,1,1.11,4.47A22.89,22.89,0,0,0,18,34.15Z"/><path class="cls-1" d="M60.06,52.61a7.36,7.36,0,1,1-7.36-7.36A7.33,7.33,0,0,1,60.06,52.61Zm-10.77,0a3.41,3.41,0,1,0,3.41-3.41A3.38,3.38,0,0,0,49.3,52.61Z"/><path class="cls-1" d="M41.78,34.09a7.36,7.36,0,1,1-14.71,0,7.36,7.36,0,0,1,14.71,0ZM31,34.13a3.41,3.41,0,0,0,6.82,0,3.41,3.41,0,1,0-6.82,0Z"/><path class="cls-1" d="M50.88,26.77h3.23L36.21,60H33Z"/></svg>