<svg id="grapes" xmlns="http://www.w3.org/2000/svg" viewBox="0 0 60 60"><defs><style>.cls-1{fill:#1d1d1b;}</style></defs><title>grapes_konv</title><ellipse class="cls-1" cx="21.39" cy="54.69" rx="5.36" ry="5.29"/><ellipse class="cls-1" cx="14.25" cy="44.11" rx="5.36" ry="5.29"/><ellipse class="cls-1" cx="7.11" cy="33.53" rx="5.36" ry="5.29"/><path class="cls-1" d="M27.75,38.9a5.29,5.29,0,1,0,6,6.3C31.34,44.15,29.34,41.72,27.75,38.9Z"/><path class="cls-1" d="M26.21,35.79a52.75,52.75,0,0,1-2-5.41c-.34-.57-.69-1.18-1-1.82a5.28,5.28,0,1,0,3,7.23Z"/><path class="cls-1" d="M44.51,11.73c-2-1.2-4.41-2.4-6.45-2.4-2.43,0-4.33,1.69-4.43,7.05l-1.87-1.85A5.78,5.78,0,0,1,30,10.44L30,0H27l0,3.54a4.8,4.8,0,0,1-1.12,2.92,3.51,3.51,0,0,1-2.73.88,10.06,10.06,0,0,0-7.37,2.79,11.29,11.29,0,0,0-3.06,7.54v.22a5.35,5.35,0,1,0,3,0v-.19a8.44,8.44,0,0,1,2.17-5.41,7.17,7.17,0,0,1,5.26-1.92,7.16,7.16,0,0,0,3.89-1v1.1a8.77,8.77,0,0,0,2.63,6.21l2,2c-10.39,0-7.74,6.38-5,10.76,3.86,12.67,8.07,13.28,8.83,13.28h.12c1.87-1.84,3.85-7.5,3.85-7.5A16.12,16.12,0,0,0,51,40.08a13.51,13.51,0,0,0,3.82-.49l0,0a15.39,15.39,0,0,0-4.45-15.17s5.72-2,7.59-3.81C57.94,20.58,59.71,14.95,44.51,11.73Zm-5.88,20A3.56,3.56,0,0,0,36.06,34a38.63,38.63,0,0,1-1.65,3.92,13.29,13.29,0,0,1-1-1.48c-2.41-3.29-6.84-13.06.25-14.23h0A3.6,3.6,0,0,0,35,22c.32,1.38,1.65,6.75,3.83,9.74Zm13.09,4.78h-.19S35.85,27.71,38.81,22c0-1,8.16,1.34,8.16,1.34s-.07.16-.09.24a3.5,3.5,0,0,0,1,3.28A12.27,12.27,0,0,1,51.73,36.53ZM37.16,19.45a3.46,3.46,0,0,0,.09-1c-.27-4.25.5-5.45.64-5.62h.16c.55,0,1.87.24,4.6,1.88a3.6,3.6,0,0,0,1.11.44c4.68,1,8.81,2.63,8.81,3.1C56.78,21.77,37.16,19.45,37.16,19.45Z"/></svg>