<svg xmlns="http://www.w3.org/2000/svg" viewBox="0 0 60 60"><title>20180604_Icons_Wein_Pairings_konvertiert</title><g id="barbeque"><path d="M51,22.61a18.18,18.18,0,0,0-.34-3.56c-.15-2.78-3.81-4.67-8.78-5.77a9.93,9.93,0,0,1,.2,3.13c.39.1.78.2,1.14.31,3.66,1.09,4.46,2.27,4.46,2.51h0a.52.52,0,0,1,0,.11,4,4,0,0,1-1.84,1.41C43.18,22,37.83,23.3,30,23.3S16.82,22,14.2,20.75a4,4,0,0,1-1.83-1.41.52.52,0,0,1,0-.11h0c0-.23.79-1.42,4.46-2.51.73-.22,1.53-.41,2.38-.59a.64.64,0,0,0,.18-.62,10.64,10.64,0,0,0-.57-1.43c-.11-.24-.24-.54-.37-.86-5.09,1.08-8.88,3-9.06,5.79A16.6,16.6,0,0,0,9,22.61C9,30.23,13.8,36.83,20.75,40L15.33,58.77l2.88.83,5.35-18.54a22.41,22.41,0,0,0,4.9.87V56.31h3V41.93a22.41,22.41,0,0,0,5-.87L41.79,59.6l2.88-.83L39.25,40C46.2,36.83,51,30.23,51,22.61ZM38.41,37.09l-1-3.36-2.88.83,1,3.61a19.42,19.42,0,0,1-11.2,0l1-3.61-2.88-.83-1,3.36A16.33,16.33,0,0,1,12,23l.11.06c.23.13.47.26.72.39l.05,0c4,2,10.7,2.89,17.11,2.89s12.9-.89,16.9-2.78c.39-.18.77-.36,1.1-.55A16.33,16.33,0,0,1,38.41,37.09Z"/><path d="M22.81,20l-1.86-2.35c2-1.54,1.57-2.66.52-5S19,7,22.92,3.84L24.78,6.2c-2,1.62-1.66,2.75-.58,5.17C25.19,13.57,26.67,16.91,22.81,20Z"/><path d="M29.22,20l-1.86-2.35c2.72-2.15,2.13-3.84.78-6.88C26.85,7.9,25.08,3.94,29.88.15l1.86,2.35c-2.83,2.24-2.24,4-.86,7.07C32.15,12.43,33.9,16.34,29.22,20Z"/><path d="M36.6,20l-1.86-2.35c2-1.54,1.57-2.66.52-5S32.76,7,36.72,3.84L38.58,6.2c-2,1.62-1.66,2.75-.58,5.17C39,13.57,40.47,16.91,36.6,20Z"/></g></svg>