<?xml version="1.0" encoding="utf-8"?>
<!-- Generator: Adobe Illustrator 20.1.0, SVG Export Plug-In . SVG Version: 6.00 Build 0)  -->
<svg version="1.1" id="Ebene_1" xmlns="http://www.w3.org/2000/svg" xmlns:xlink="http://www.w3.org/1999/xlink" x="0px" y="0px"
	 viewBox="0 0 60 60" style="enable-background:new 0 0 60 60;" xml:space="preserve">
<path d="M28,0.5c-7.2,8,0.4,15.6-3.3,25.6C35.3,14.3,24.9,11.4,28,0.5z"/>
<path d="M36,7c-7.2,5.9,0.4,11.6-3.2,19.1C43.4,17.2,32.8,15.2,36,7z"/>
<path d="M20.1,7c-7.2,5.9,0.4,11.6-3.3,19.1C27.3,17.2,16.9,15.2,20.1,7z"/>
<path d="M45.3,35.9c-0.1,0-0.1,0-0.2,0h-4.2l0.5-6.9H11.9l1.5,21.9c0.3,4.8,4.2,8.6,9,8.6h8.4c4.8,0,8.9-3.7,9-8.6h4.6
	c1.6,0,2.9-1.2,3-2.8l0.7-8.9C48.2,37.5,47,36,45.3,35.9z M38,35.9l-0.4,6.6L37,50.7c-0.2,3.2-2.9,5.8-6.2,5.8h-8.4
	c-3.2,0-5.9-2.6-6.1-5.8L15.1,32h23.2L38,35.9z M45.1,38.9l-0.7,8.9H40l0.3-5.3l0.3-3.7L45.1,38.9C45.1,38.8,45.1,38.8,45.1,38.9
	L45.1,38.9z"/>
</svg>
