<svg id="aperif" xmlns="http://www.w3.org/2000/svg" viewBox="0 0 60 60"><defs><style>.cls-1{fill:#1d1d1b;}</style></defs><title>aperif</title><circle class="cls-1" cx="36.31" cy="22.4" r="3.12"/><path class="cls-1" d="M48,53.74V32.25A2.23,2.23,0,0,0,45.75,30H40.93A9.51,9.51,0,0,0,45,22.51c0-5.41-5.26-9.86-12-10.44V0H30V12.07c-6.75.59-12,5-12,10.43A9.51,9.51,0,0,0,22.07,30H17.24A2.23,2.23,0,0,0,15,32.25v6h0V51.67h0v6.08A2.23,2.23,0,0,0,17.24,60H45.75A2.23,2.23,0,0,0,48,57.76V54.25c0-.09,0-.17,0-.25S48,53.83,48,53.74ZM39,34.51A1.5,1.5,0,1,1,37.43,33h.11A1.5,1.5,0,0,1,39,34.51Zm-18-12c0-3.7,4-6.87,9-7.42v2.22h3V15.09c5,.54,9,3.71,9,7.42C42,26.58,37.2,30,31.5,30S21,26.58,21,22.51Zm-3,17.3A6,6,0,1,1,21,51a5.87,5.87,0,0,1-3-.81ZM45,54.12A3,3,0,0,1,42.05,57h-.11a3,3,0,1,1,3-3.12Zm0-5.33A6,6,0,0,0,36.8,57H18V53.47a9,9,0,1,0,0-16.94V33H33.26a4.5,4.5,0,1,0,8.45,0H45Z"/></svg>