<?xml version="1.0" encoding="utf-8"?>
<!-- Generator: Adobe Illustrator 20.1.0, SVG Export Plug-In . SVG Version: 6.00 Build 0)  -->
<svg version="1.1" id="Ebene_2" xmlns="http://www.w3.org/2000/svg" xmlns:xlink="http://www.w3.org/1999/xlink" x="0px" y="0px"
	 viewBox="0 0 60 60" style="enable-background:new 0 0 60 60;" xml:space="preserve">
<title>pretzel</title>
<path d="M59.8,25.5c0-10-6.7-16-17.9-16c-4.6-0.1-9,1.5-12.4,4.5C26,11,21.6,9.4,17,9.5c-10.8,0-16.8,5.7-16.8,16
	c0,6.2,2,15.5,12.8,20.1c-2,1.3-3.3,2-3.4,2.1c-0.7,0.4-1,1.3-0.5,2.1c0.4,0.7,1.3,0.9,2,0.6c0.3-0.2,2.5-1.4,5.4-3.5
	c4.2,1.1,8.5,1.6,12.8,1.6c4.3,0.1,8.7-0.5,12.9-1.5c2.9,2,5.1,3.3,5.4,3.4c0.7,0.4,1.6,0.1,2-0.6c0.4-0.7,0.1-1.6-0.6-2
	c0,0-1.3-0.8-3.3-2C58.5,40.5,59.8,29.6,59.8,25.5z M29.4,18.7c0.9,1.4,1.4,2.9,1.4,4.5c0,2-0.5,4-1.4,5.8c-0.9-1.8-1.4-3.8-1.4-5.8
	C28,21.6,28.5,20,29.4,18.7z M16,43.5C5.8,40,3.2,32.3,3.2,25.5c0-8.7,4.6-13,13.8-13c3.8-0.1,7.5,1.2,10.4,3.7
	c-1.5,2-2.3,4.5-2.3,7c0.1,3.2,1,6.2,2.6,9C24.6,36.7,19.9,40.7,16,43.5z M29.4,45.4c-3.2,0-6.5-0.3-9.7-0.9c3.7-2.8,6.9-6,9.7-9.7
	c2.7,3.6,6,6.8,9.6,9.6C35.8,45.1,32.6,45.4,29.4,45.4z M42.7,43.5L42.7,43.5c-3.8-2.8-8.5-6.8-11.5-11.4c1.6-2.7,2.5-5.8,2.6-8.9
	c0-2.5-0.8-5-2.3-7c2.9-2.5,6.6-3.8,10.4-3.7c9.5,0,14.9,4.8,14.9,13C56.8,36.2,49.8,41.1,42.7,43.5z"/>
</svg>
