<svg id="salat" xmlns="http://www.w3.org/2000/svg" viewBox="0 0 60 60"><defs><style>.cls-1{fill:#1d1d1b;}</style></defs><title>salat_konv</title><path class="cls-1" d="M57,36v3H54v3c0,.07-.1,6.87-4.41,11.2-2.49,2.5-6,3.77-10.49,3.77H21c-6.15,0-10.5-2.41-13-7.16A19.61,19.61,0,0,1,6,42V39H3V36H57m3-3H0v6a2.94,2.94,0,0,0,3,3S3,60,21,60H39.08C57.06,60,57,42,57,42a2.94,2.94,0,0,0,3-3V33Z"/><path class="cls-1" d="M54.15,28.88C60.58,22.11,60,12,60,12a33,33,0,0,0-4.77-.32A26.9,26.9,0,0,0,43,14.34a25.46,25.46,0,0,1,.15,3.43c3.78-2.56,8.89-3,12.09-3h0c.6,0,1.16,0,1.67,0-.27,3-1.28,8.19-4.91,12l-.06.07-.06.07A9.82,9.82,0,0,1,47.59,30h5.52A14.91,14.91,0,0,0,54.15,28.88Z"/><path class="cls-1" d="M42.19,28A24.28,24.28,0,0,1,50.52,22l-1.12-2.81a28,28,0,0,0-7.18,4.44,16.54,16.54,0,0,1-2.7,5.88c-.06.07-.32.46-.32.46h1.38C41,29.36,41.57,28.68,42.19,28Z"/><path class="cls-1" d="M39.36,22.1c2.43-9.45-3.23-18.35-3.23-18.35S24.19,8.07,20.37,17a13.92,13.92,0,0,1,2.43,2.61c1.72-6,8.22-10,11.88-11.8,1.3,2.94,3,8.18,1.62,13.47l0,.09,0,.09c-1.13,5.84-5.76,7.82-8.53,8.5H34.8A13.09,13.09,0,0,0,39.36,22.1Z"/><path class="cls-1" d="M28,27.33a25.39,25.39,0,0,1,4.6-9.65l-2.45-2A29,29,0,0,0,25.3,25a14,14,0,0,1,.38,4.64c0,.26,0,.41,0,.41h1.89C27.62,29.18,27.76,28.3,28,27.33Z"/><path class="cls-1" d="M5.89,21.8h.48a6.38,6.38,0,0,0,2.36-.37,5.93,5.93,0,0,0,1.91-1.47l.38-.38a8.26,8.26,0,0,1,1.53-.15h0c3.2,0,5.88,2,7.34,5.62a8.89,8.89,0,0,1,.51,5H23a11.48,11.48,0,0,0-.74-5.95c-1.83-4.48-5.42-7.23-9.74-7.23a11,11,0,0,0-2.53.3c-.58.14-1.7,1.65-2.27,1.89-.86.35-2.39,0-3.12.49A10.76,10.76,0,0,0,.13,30H2.77A8.09,8.09,0,0,1,5.89,21.8Zm5.32-2.4h0ZM6.16,21.61h0Z"/></svg>