<svg xmlns="http://www.w3.org/2000/svg" viewBox="0 0 60 60"><title>20180604_Icons_Wein_Pairings_konvertiert</title><g id="salami"><path d="M51,6H21c-4,0-9.22,4.27-11.19,10.19L9.59,16,5.94,12.9C3.58,10.9,2.54,10,1.78,10a1.35,1.35,0,0,0-1,.57c-.45.5-.75,1.33.38,2.47a1.07,1.07,0,0,1,0,1.48,4.08,4.08,0,0,0,0,5.72,1,1,0,0,1,.3.74,1,1,0,0,1-.3.74,4.09,4.09,0,0,0,0,5.73,1.06,1.06,0,0,1,0,1.48C0,30.09.34,30.92.79,31.42a1.35,1.35,0,0,0,1,.57c.76,0,1.8-.89,4.16-2.88L9.59,26l.21-.2a17,17,0,0,0,2.53,4.79,26.33,26.33,0,0,1,3.48-.5A13.24,13.24,0,0,1,12,21c0-6.93,5.92-12,9-12H45.62C43.42,11.74,42,16.09,42,21s1.42,9.26,3.62,12H30a14.32,14.32,0,0,1,3.65,3H51c5,0,9-6.72,9-15S56,6,51,6ZM9,21.27a3.6,3.6,0,0,1-1.33,2.44l-3.53,3a4,4,0,0,0-.89-1.36,1.06,1.06,0,0,1,0-1.48A4,4,0,0,0,4.44,21a4,4,0,0,0-1.17-2.86,1.06,1.06,0,0,1,0-1.48,4,4,0,0,0,.88-1.36l3.53,3A3.6,3.6,0,0,1,9,20.73c0,.09,0,.18,0,.27S9,21.18,9,21.27ZM46.5,13.5c0-1.66.67-3,1.5-3s1.5,1.34,1.5,3-.67,3-1.5,3S46.5,15.16,46.5,13.5ZM49,31.5c-.83,0-1.5-1.34-1.5-3s.67-3,1.5-3,1.5,1.34,1.5,3S49.79,31.5,49,31.5Zm3.73-15.7c0-1.66.67-3,1.5-3s1.5,1.34,1.5,3-.67,3-1.5,3S52.69,17.46,52.69,15.8Zm3,13.08c-.83,0-1.5-1.34-1.5-3s.67-3,1.5-3,1.5,1.34,1.5,3S56.52,28.87,55.69,28.87Z"/><path d="M18,33c-6.64,0-12.26,2.59-14.23,6.17.17,4,6.27,7.33,13.48,7.33a1.5,1.5,0,0,1,0,3c-6.16,0-11.41-2-14.25-5.15V45c0,5,6.72,9,15,9s15-4,15-9V42C33,37,26.28,33,18,33ZM8.68,37.23c0-.83,1.34-1.5,3-1.5s3,.67,3,1.5-1.34,1.5-3,1.5S8.68,38.06,8.68,37.23Zm8.57,5.36c-1.66,0-3-.67-3-1.5s1.34-1.5,3-1.5,3,.67,3,1.5S18.91,42.59,17.25,42.59Zm2.21-5.73c0-.83,1.34-1.5,3-1.5s3,.67,3,1.5-1.34,1.5-3,1.5S19.46,37.68,19.46,36.85Zm6.89,7.29c-1.66,0-3-.67-3-1.5s1.34-1.5,3-1.5,3,.67,3,1.5S28,44.15,26.35,44.15Z"/></g></svg>