<svg id="clam" xmlns="http://www.w3.org/2000/svg" viewBox="0 0 60 60"><defs><style>.cls-1{fill:#1d1e1c;}</style></defs><title>clam_konv</title><path class="cls-1" d="M56.35,19c-.23-2-1.54-6.59-2.77-7.81s-4.22-2-5.3-3-4-4.78-5.53-5.61a5.6,5.6,0,0,0-2.55-.42l-1.67,0A4.85,4.85,0,0,1,36.83,2c-1.3-.53-4.6-2-6.83-2h0c-2.23,0-5.52,1.44-6.83,2a4.85,4.85,0,0,1-1.7.21l-1.67,0a5.6,5.6,0,0,0-2.55.42c-1.54.83-4.46,4.55-5.53,5.61s-4.07,1.82-5.3,3S3.89,17,3.66,19-4,30.47,3,38.73a61,61,0,0,0,9.05,8.14c.43,4.31,1.37,10.79,3.2,12.33a5.07,5.07,0,0,0,3.14.72c3.1,0,7.66-1,11.59-2.06,3.94,1.06,8.49,2.06,11.6,2.06a5.08,5.08,0,0,0,3.14-.72c1.83-1.55,2.77-8.07,3.2-12.38a60.83,60.83,0,0,0,9-8.1C64,30.47,56.58,21.07,56.35,19ZM17.21,56.88c-.6-.78-1.3-4-1.79-7.57a121.1,121.1,0,0,0,10.24,6.54C21.82,56.7,18.19,57.22,17.21,56.88Zm25.66,0c-1,.34-4.63-.18-8.5-1a121.27,121.27,0,0,0,10.29-6.57C44.16,52.84,43.46,56.14,42.86,56.88Zm11.82-20.1C48.43,44.09,33.48,53.26,30,54.71,26.53,53.26,11.57,44.09,5.33,36.78c-4-4.66-2.11-9.62.15-14.3a10,10,0,0,0,1.16-3.12,19.26,19.26,0,0,1,1.92-6,12.16,12.16,0,0,1,1.93-1,11.48,11.48,0,0,0,3.35-2c.4-.39.89-1,1.51-1.66a30.71,30.71,0,0,1,3.31-3.42,5,5,0,0,1,1.15-.08h1.67a7.51,7.51,0,0,0,2.83-.43l.36-.15A20,20,0,0,1,30,3h0c1.46,0,4.28,1.16,5.34,1.6l.36.15a7.51,7.51,0,0,0,2.83.43H40.2a5.09,5.09,0,0,1,1.15.08,30.73,30.73,0,0,1,3.31,3.42c.62.71,1.11,1.27,1.51,1.66a11.48,11.48,0,0,0,3.35,2,12.16,12.16,0,0,1,1.93,1,19.26,19.26,0,0,1,1.92,6,10,10,0,0,0,1.16,3.12C56.79,27.16,58.67,32.12,54.68,36.78Z"/><rect class="cls-1" x="28.51" y="7.99" width="3" height="31.26"/><path class="cls-1" d="M41.4,13.18a128.49,128.49,0,0,1-6.86,26l2.81,1.06a129.3,129.3,0,0,0,7-26.67Z"/><path class="cls-1" d="M40.8,40.6l2.45,1.73c6.34-9,8.16-16.3,8.23-16.61L48.56,25A51.67,51.67,0,0,1,40.8,40.6Z"/><path class="cls-1" d="M15.64,13.56a129.26,129.26,0,0,0,7,26.67l2.81-1.06a128.82,128.82,0,0,1-6.86-26Z"/><path class="cls-1" d="M8.54,25.72c.07.31,1.89,7.64,8.23,16.61l2.45-1.73A51.66,51.66,0,0,1,11.45,25Z"/></svg>