<svg id="red-meat" xmlns="http://www.w3.org/2000/svg" viewBox="0 0 60 60"><title>20180604_Icons_Wein_Pairings_konvertiert</title><path d="M17.68,18.87v0h0q.69.31,1.39.67c.43.22.86.45,1.28.71l.11.06c.45.27.89.55,1.33.85s.62.44.93.67l.44.35c.45.36.89.75,1.31,1.16a4.05,4.05,0,0,0,4.63.7s.79-.35,1.08-.45l.1,0a8.68,8.68,0,0,1,1-.24l.15,0c.37-.06.67-.1,1-.12l.15,0h1.3l.45,0,.61.08.4.07.54.13.45.13.52.19.2.08a3,3,0,0,0,.57.22,4.69,4.69,0,0,0,.6-1c.15-.33.34-.71.54-1.08.27-.53.57-1.06.89-1.59a53,53,0,0,0-15-2.19A35.37,35.37,0,0,0,17.68,18.87Z"/><path d="M34.88,28.31l0,0a4.19,4.19,0,0,0-.82-.18l-.14,0-.62,0h-.39a3,3,0,0,0-2.55,1.24c-1,1.52-.71,4.21-.43,5.81a33.16,33.16,0,0,1,7.92-1.72,7.65,7.65,0,0,0-1.58-4.22A3.26,3.26,0,0,0,34.88,28.31Z"/><path d="M60,30.79c0-4.44-2.31-10.57-12.75-14.89-6.29-2.6-14.67-4.1-23-4.1C11.94,11.8,5.64,16,2.6,21.34,1,23.51.08,26.54.08,30.79l0,1.06c0,1.34,0,1.54,0,1.63V34c0,.16,0,.31,0,.9C0,44,5.65,53.8,14.79,53.8c3.84,0,7.72-1.75,11.52-5.19,5.23-4.74,12.47-4.85,18.86-4.95,3.65-.06,6.81-.1,9.39-1A7.61,7.61,0,0,0,60,34.89V32.29c0-.29,0-.57,0-.85s0-.31,0-.48h0v-.18ZM57,31v.07c-.06,4.33-2.51,5.49-11.9,5.63-6.58.1-14.77.23-20.83,5.73-3.23,2.93-6.42,4.41-9.49,4.41C8.14,46.89,3.91,40,3.19,33.11l0-2.72C3.89,20,10.81,15,24.3,15c7.93,0,15.89,1.41,21.83,3.87C53.31,21.84,57,25.93,57,31Z"/><path d="M21,26.71l-.23-.2-.12-.11a26.47,26.47,0,0,0-8.7-4.9,1.83,1.83,0,0,0-.45-.09c-.19,0-.35.1-.75.36-3.38,2.79-3.78,6.79-3.78,9.6,0,5.72,3.23,11.84,8,11.84,2.16,0,4.56-1.16,7.12-3.44a23.31,23.31,0,0,1,2.48-1.94c.25-2.43.37-4.84-.2-6.31A12.7,12.7,0,0,0,21,26.71Z"/><path d="M44.27,22.11a20.48,20.48,0,0,0-1.47,2.35l-.22.44c-.89,1.86-1.11,3.31-.7,4.39.88,2.3,4.76,3.39,6.75,3.66,4.42-.24,4.42-.78,4.42-1.59C53.06,27.92,49.94,24.65,44.27,22.11Z"/></svg>