<svg id="vegetables" xmlns="http://www.w3.org/2000/svg" viewBox="0 0 60 60"><defs><style>.cls-1{fill:#1d1e1c;}</style></defs><title>vegetables_konv</title><path class="cls-1" d="M52.77,7a8.06,8.06,0,0,0-.9-.05,8.54,8.54,0,0,0-7.62,5,8,8,0,0,0-4.44-2c0-.61,0-1.17.09-1.7a8.45,8.45,0,0,0,3.36-1.82,1.5,1.5,0,1,0-1.93-2.3,7.58,7.58,0,0,1-.93.67,12.59,12.59,0,0,1,.79-2.53A1.5,1.5,0,0,0,38.54.83,16.21,16.21,0,0,0,37.29,5a3.48,3.48,0,0,1-1-.89,1.5,1.5,0,0,0-2.5,1.66A6.18,6.18,0,0,0,36.9,8.12q-.07.93-.09,2a8,8,0,0,0-3.19,1.68A8.54,8.54,0,0,0,26,6.9a8.05,8.05,0,0,0-.9.05,8.4,8.4,0,0,0-7.18,9.54c.35,3,.79,5.72,1.25,8.39a4.46,4.46,0,0,1,2.94-.6c-.45-2.6-.87-5.28-1.21-8.13a5.82,5.82,0,0,1,1.18-4.33,5,5,0,0,1,3.35-1.88,5.06,5.06,0,0,1,.57,0,5.56,5.56,0,0,1,4.89,3.2l1.71,3.51,2.95-2.56a5.1,5.1,0,0,1,6.66,0l3,2.68L47,13.16A5.55,5.55,0,0,1,51.87,9.9a5.07,5.07,0,0,1,.57,0A5,5,0,0,1,57,14.71,78.85,78.85,0,0,1,55.4,27.5a145.83,145.83,0,0,0-2.3,17.41,3.34,3.34,0,0,1-2.36,3,2.81,2.81,0,0,1-.77.11,4,4,0,0,1-2.12-.68l-3.13-2-1.28,3.47a4.79,4.79,0,0,1-4.55,3,5.11,5.11,0,0,1-2.33-.57,18.69,18.69,0,0,1-1.43,2.63,8.06,8.06,0,0,0,3.76.93,7.78,7.78,0,0,0,7.36-4.95A7,7,0,0,0,50,51.06a5.8,5.8,0,0,0,1.59-.22,6.32,6.32,0,0,0,4.54-5.75c.79-13,3.84-21.89,3.91-30.35A8,8,0,0,0,52.77,7Z"/><path class="cls-1" d="M30.84,33.34a8.44,8.44,0,0,0-6-2.27,15.5,15.5,0,0,0-6.76,1.8L22.36,30a1.5,1.5,0,0,0-1.7-2.47l-3.32,2.28-3-2.58a1.5,1.5,0,1,0-2,2.27l3.39,2.92a15.87,15.87,0,0,0-5.32-1,9.33,9.33,0,0,0-6.28,2.22A13.91,13.91,0,0,0,0,43.42C0,53.13,7.88,60,17.59,60s17.58-6.87,17.58-16.58A14.77,14.77,0,0,0,30.84,33.34ZM17.59,57C9.28,57,3,51.16,3,43.42a11,11,0,0,1,3.13-7.56,6.29,6.29,0,0,1,4.32-1.49,13.88,13.88,0,0,1,5.7,1.44,3,3,0,0,0,1.43.36,3,3,0,0,0,1.56-.43,12.87,12.87,0,0,1,5.74-1.66,5.44,5.44,0,0,1,3.9,1.46,11.79,11.79,0,0,1,3.38,7.89C32.18,51.16,25.91,57,17.59,57Z"/></svg>