<svg id="Wine-color" xmlns="http://www.w3.org/2000/svg" viewBox="0 0 60 60"><defs><style>.cls-1{fill:#1d1d1b;}</style></defs><title>Wine-color_konv</title><path class="cls-1" d="M55.8,27.13c2.24-5.46,1.35-12.5-3.27-25.95L52.12,0H31.87l-.29.84q.87,2.55,1.56,4.83c.27-.86.56-1.74.88-2.67H50c.89,2.64,1.62,5,2.21,7.15A61.21,61.21,0,0,0,34.3,9.8c.27,1,.49,2,.69,2.95a58.2,58.2,0,0,1,18,.6c1.29,5.73,1.26,9.6.05,12.6-1.51,3.29-5.11,5.85-9.9,7.06H40.82a17.51,17.51,0,0,1-6.95-3.36,16.15,16.15,0,0,1-1.73,2.48A21,21,0,0,0,40.46,36h.07V57H33v3H54V57H43.53V36h0C49,34.71,53.71,31.75,55.8,27.13Z"/><path class="cls-1" d="M31.8,27.13c2.24-5.46,1.35-12.5-3.27-25.95L28.12,0H7.87L7.46,1.18C2.85,14.63,2,21.67,4.22,27.19,6.28,31.75,11,34.71,16.46,36h.07V57H6v3H30V57H19.53V36h0C25,34.71,29.71,31.75,31.8,27.13Zm-18,4.23c-6.95-2-9.24-7.43-7-16.63l2.92.71c-2.33,9.58,1.18,12,4.91,13Zm-6-21.2C8.38,8,9.11,5.66,10,3H26c.89,2.65,1.62,5,2.21,7.15A61.4,61.4,0,0,0,7.8,10.16Z"/></svg>