<svg id="wine-taste" xmlns="http://www.w3.org/2000/svg" viewBox="0 0 60 60"><title>wine-glas</title><path d="M42.91,25.43c2.09-5.12,1.26-11.7-3.06-24.3L39.47,0h-19l-.38,1.11c-4.32,12.6-5.15,19.18-3,24.35,1.75,3.86,8.59,6.48,11.4,7.84V57H18v3H42V57H31.49V33.32C34.25,32,41.14,29.34,42.91,25.43ZM22.65,3H37.33c2.55,7.6,3.72,12.81,3.67,16.68-6.45-.19-3.16-13-11.4-13a2.58,2.58,0,0,0,0,5.16H30a5,5,0,1,1-3.51,8.57l-.26-.21a5,5,0,0,0-2.8-.85,4.78,4.78,0,0,0-4.26,2.6C18.48,17.82,19.54,12.25,22.65,3Z"/></svg>