<?xml version="1.0" encoding="utf-8"?>
<!-- Generator: Adobe Illustrator 21.1.0, SVG Export Plug-In . SVG Version: 6.00 Build 0)  -->
<svg version="1.1" id="EPS" xmlns="http://www.w3.org/2000/svg" xmlns:xlink="http://www.w3.org/1999/xlink" x="0px" y="0px"
	 viewBox="0 0 60 60" style="enable-background:new 0 0 60 60;" xml:space="preserve">
<path d="M58.5,40.5c0-4.63-3.51-8.45-8.01-8.95c0.01-0.21,0.01-0.4,0.01-0.57c0-11.3-9.2-20.5-20.5-20.5
	c-8.99,0-17.02,5.98-19.62,14.55C5.17,26.65,1.5,31.68,1.5,37.35V38c0,6.34,5.15,11.49,11.48,11.5l0,0h36.54l0,0
	C54.47,49.49,58.5,45.46,58.5,40.5z M49.5,46.5H13c-4.69,0-8.5-3.81-8.5-8.5v-0.66c0-5.08,3.84-9.51,8.91-9.82
	c1.43-0.09,2.83,0.14,4.12,0.66c1.1,0.44,2.36,0.08,3.02-0.91l0.14-0.21c0.16-0.23,0.1-0.56-0.15-0.71
	c-2.04-1.26-4.39-1.89-6.81-1.85c2.62-6.56,9.08-11.02,16.25-11.02c9.65,0,17.5,7.85,17.5,17.5c0,0.51-0.07,1.56-0.1,1.92l0,0
	c-0.07,0.91,0.67,1.67,1.58,1.62c0.01,0,0.35-0.02,0.52-0.02c3.31,0,6,2.69,6,6S52.81,46.5,49.5,46.5z"/>
</svg>
