<?xml version="1.0" encoding="utf-8"?>
<!-- Generator: Adobe Illustrator 21.1.0, SVG Export Plug-In . SVG Version: 6.00 Build 0)  -->
<svg version="1.1" id="EPS" xmlns="http://www.w3.org/2000/svg" xmlns:xlink="http://www.w3.org/1999/xlink" x="0px" y="0px"
	 viewBox="0 0 60 60" style="enable-background:new 0 0 60 60;" xml:space="preserve">
<path d="M30,1.5C14.29,1.5,1.5,14.29,1.5,30S14.29,58.5,30,58.5S58.5,45.71,58.5,30S45.71,1.5,30,1.5z M54.29,37.77
	c-0.31-0.39-0.59-0.89-0.8-1.72c-0.06-0.23-0.12-0.5-0.17-0.79c-0.39-1.86-1.29-6.2-5.99-5.37c-2.27,0.4-4.04,0.02-5.27-1.13
	c-1.59-1.49-1.93-3.95-1.74-5.59c0.64-5.58,4.38-6.23,9.19-6.52c0.78-0.05,1.48-0.09,2.09-0.18c2.46,3.92,3.9,8.56,3.9,13.52
	C55.5,32.71,55.07,35.32,54.29,37.77z M19.87,6.6c2.11,0.14,2.57,0.62,2.64,0.72c0.26,0.38-0.15,1.62-0.45,2.52
	c-0.62,1.85-1.47,4.38,0.65,6.11c1.76,1.44,2.2,3.9,1.85,5.7c-0.26,1.35-0.93,2.34-1.76,2.6c-1.33,0.41-2.25,1.14-2.73,2.18
	c-0.83,1.76-0.05,3.67,0.37,4.7c0.06,0.14,0.1,0.25,0.13,0.34c0.89,2.67,2.06,3.13,3.5,3.46c0.41,0.09,0.8,0.18,1.25,0.41
	c1.99,1,3.14,2.24,3.5,3.8c0.53,2.28-0.6,5.33-3.27,8.82c-0.53,0.7-0.84,1.66-1.19,2.77c-0.45,1.44-1.02,3.19-1.99,3.6
	c-1.66-0.52-3.25-1.21-4.75-2.05l0.02-0.03c-0.81-0.45-0.77-2.66-0.75-4.44c0.04-2.64,0.09-5.62-2.07-7.07
	c-0.99-0.66-2.8-2.76-2.66-4.07c0.02-0.19,0.08-0.77,1.38-1.29c2.06-0.82,5.49-2.57,5.42-5.06c-0.02-0.72-0.37-2.04-2.5-2.75
	c-1.21-0.4-2.33-0.69-3.31-0.95c-2.67-0.7-4-1.09-4.92-2.46c-0.99-1.47-1.56-3.31-1.69-4.19C9.12,14,13.91,9.19,19.87,6.6z M4.5,30
	c0-1.83,0.2-3.62,0.57-5.34c0.21,0.41,0.44,0.8,0.69,1.18c1.59,2.38,3.94,2.99,6.66,3.7c0.98,0.26,2,0.52,3.12,0.89
	c0.13,0.04,0.24,0.09,0.31,0.12c-0.34,0.4-1.28,1.21-3.4,2.06C9.98,33.6,9.32,35.2,9.2,36.37c-0.31,2.96,2.6,5.96,3.98,6.88
	c0.8,0.53,0.77,2.75,0.74,4.52c-0.01,0.65-0.02,1.33,0,1.99C8.17,45.08,4.5,37.96,4.5,30z M30,55.5c-1.44,0-2.86-0.13-4.24-0.36
	c0.7-1.1,1.12-2.4,1.47-3.5c0.22-0.7,0.5-1.57,0.71-1.85c3.27-4.28,4.56-8.09,3.81-11.32c-0.57-2.46-2.28-4.41-5.08-5.81
	c-0.78-0.39-1.44-0.54-1.93-0.65c-0.78-0.18-0.9-0.21-1.32-1.48c-0.05-0.14-0.12-0.32-0.2-0.53c-0.23-0.56-0.7-1.72-0.44-2.28
	c0.14-0.3,0.57-0.49,0.91-0.59c1.91-0.59,3.33-2.42,3.81-4.89c0.63-3.27-0.5-6.65-2.9-8.6c-0.44-0.36-0.28-1.13,0.29-2.83
	c0.56-1.67,1.19-3.55,0.08-5.17c-0.13-0.19-0.29-0.36-0.46-0.53c1.76-0.39,3.59-0.6,5.47-0.6c7.84,0,14.87,3.56,19.55,9.15
	c-0.07,0-0.14,0.01-0.21,0.01c-3.85,0.22-11.01,0.64-12,9.17c-0.28,2.45,0.27,5.87,2.66,8.12c1.34,1.26,3.79,2.62,7.85,1.9
	c1.49-0.26,1.96,0.3,2.53,3.03c0.07,0.34,0.14,0.65,0.21,0.93c0.51,1.97,1.35,2.88,1.97,3.54c0.28,0.3,0.41,0.45,0.48,0.6
	C48.92,49.54,40.14,55.5,30,55.5z"/>
</svg>
