<?xml version="1.0" encoding="utf-8"?>
<!-- Generator: Adobe Illustrator 21.1.0, SVG Export Plug-In . SVG Version: 6.00 Build 0)  -->
<svg version="1.1" id="eps" xmlns="http://www.w3.org/2000/svg" xmlns:xlink="http://www.w3.org/1999/xlink" x="0px" y="0px"
	 viewBox="0 0 60 60" style="enable-background:new 0 0 60 60;" xml:space="preserve">
<g>
	<circle cx="30" cy="10" r="1.99"/>
	<path d="M28.79,24.89c0.6,0.82,1.82,0.82,2.42,0l0,0C35.94,18.44,38.5,14.16,38.5,10c0-5.13-4.57-9.21-9.85-8.4
		c-4.36,0.67-7.36,4.5-7.14,8.9C21.71,14.51,24.25,18.7,28.79,24.89z M29.31,4.54c3.34-0.41,6.19,2.2,6.19,5.46
		c0,2.99-2,6.53-5.5,11.44c-3.62-5.07-5.63-8.68-5.49-11.73C24.62,7.09,26.7,4.86,29.31,4.54z"/>
	<path d="M39.41,18.76c-0.24-0.12-0.53-0.03-0.66,0.2c-0.06,0.11-0.13,0.23-0.2,0.35c-0.57,0.99-0.19,2.24,0.79,2.83
		c0.01,0,0.01,0.01,0.02,0.01c1.42,0.87,2.71,1.93,3.84,3.15c-2.77,0.17-8.09,0.65-8.82,6.97c-0.22,1.87,0.21,4.48,2.05,6.22
		c1.04,0.98,2.93,2.03,6.03,1.48c0.65-0.11,0.92-0.17,1.34,1.86c0.05,0.25,0.1,0.48,0.15,0.69c0.43,1.66,1.18,2.79,1.83,3.58
		c-2.75,5.01-7.81,8.62-13.72,9.29c-1.53,0.17-3.03,0.14-4.47-0.05c0.36-0.71,0.6-1.46,0.8-2.08c0.13-0.42,0.33-1.05,0.45-1.21
		c2.44-3.2,3.4-6.06,2.83-8.52c-0.44-1.9-1.75-3.41-3.89-4.48c-0.6-0.3-1.11-0.42-1.48-0.5c-0.13-0.03-0.3-0.07-0.32-0.07
		c-0.01,0-0.14-0.14-0.33-0.72c-0.04-0.11-0.09-0.25-0.16-0.41c-0.36-0.89-0.38-1.2-0.32-1.32c0.01-0.02,0.11-0.11,0.4-0.21
		c1.26-0.39,2.15-1.4,2.43-2.77c0.47-2.27-0.76-5.27-2.93-7.13c-0.17-0.14-0.29-0.27-0.39-0.4c-0.1-0.12-0.19-0.69-0.25-1.1
		c-0.04-0.24-0.25-0.42-0.5-0.42h-0.75c-1.02,0-1.83,0.92-1.64,1.92c0.01,0.04,0.02,0.08,0.02,0.1c0.23,0.67,0.68,1.43,1.55,2.18
		c1.48,1.27,2.16,3.19,1.94,4.24c-0.09,0.42-0.26,0.47-0.38,0.51c-1.34,0.42-1.95,1.2-2.23,1.79c-0.32,0.69-0.34,1.4-0.25,2.04
		c-0.26-0.51-0.78-1.07-1.84-1.43c-0.89-0.3-1.7-0.51-2.41-0.69c-1.83-0.48-2.73-0.74-3.31-1.61c-0.64-0.96-1.02-2.14-1.13-2.73
		c1.51-3.45,4.07-6.33,7.27-8.25c0.93-0.56,1.26-1.74,0.72-2.68c-0.08-0.14-0.16-0.29-0.24-0.43c-0.13-0.23-0.42-0.33-0.66-0.21
		c-7,3.53-11.78,10.85-11.58,19.26c0.18,7.55,4.49,14.22,10.75,17.77c0.03,0.02,0.04,0.04,0.07,0.05l0.01-0.01
		c2.69,1.51,5.72,2.46,8.96,2.64C40.92,59.15,51,49.48,51,37.5C51,29.31,46.27,22.21,39.41,18.76z M12,37.5
		c0-0.92,0.08-1.81,0.21-2.69c1.24,1.77,3.06,2.26,4.98,2.76c0.57,0.15,1.15,0.3,1.77,0.49c-0.37,0.26-0.94,0.6-1.8,0.94
		c-2.08,0.83-2.53,2.27-2.61,3.06c-0.24,2.34,1.95,4.62,3.06,5.36c0.39,0.26,0.36,1.99,0.35,2.91c0,0.17,0,0.36-0.01,0.54
		C14.3,47.57,12,42.8,12,37.5z M20.96,50.38c0.03-2.01,0.07-4.29-1.68-5.46c-0.71-0.47-1.81-1.86-1.74-2.55
		c0.03-0.26,0.48-0.48,0.74-0.59c1.57-0.63,4.17-1.97,4.17-3.98c0.09,0.27,0.18,0.5,0.26,0.68c0.04,0.09,0.07,0.16,0.09,0.22
		c0.71,2.13,1.7,2.51,2.83,2.77c0.28,0.06,0.53,0.12,0.81,0.26c1.32,0.66,2.08,1.47,2.31,2.47c0.35,1.5-0.47,3.64-2.29,6.02
		c-0.43,0.56-0.67,1.32-0.93,2.13c-0.25,0.79-0.61,1.93-1.07,2.28c-1.12-0.36-2.18-0.83-3.19-1.39l0.01-0.02
		C20.92,53.01,20.95,51.23,20.96,50.38z M46.86,41.77c-0.04-0.16-0.08-0.35-0.12-0.55c-0.28-1.33-1.01-4.88-4.8-4.21
		c-1.5,0.27-2.67,0.03-3.45-0.71c-1.03-0.97-1.25-2.59-1.13-3.69c0.43-3.71,2.86-4.14,6.25-4.34c0.65-0.04,1.22-0.08,1.73-0.17
		c1.94,3.15,2.94,6.94,2.59,10.98c-0.11,1.26-0.37,2.48-0.73,3.65C47.07,42.45,46.96,42.13,46.86,41.77z"/>
</g>
</svg>
