<?xml version="1.0" encoding="utf-8"?>
<!-- Generator: Adobe Illustrator 21.1.0, SVG Export Plug-In . SVG Version: 6.00 Build 0)  -->
<svg version="1.1" id="EPS" xmlns="http://www.w3.org/2000/svg" xmlns:xlink="http://www.w3.org/1999/xlink" x="0px" y="0px"
	 viewBox="0 0 60 60" style="enable-background:new 0 0 60 60;" xml:space="preserve">
<path d="M58.04,40.02c-0.56-1.03-1.5-1.77-2.66-2.07c-1.12-0.3-2.31-0.15-3.31,0.39l-10.19,5.05l-2.24-0.75
	c0.58-0.8,0.9-1.8,0.85-2.88c-0.13-2.42-2.27-4.26-4.7-4.26h-2.47c-0.6-0.97-1.83-3.47-1.83-7.5c0-3.68,1.68-6.04,2.68-7.12
	c1.43,0.81,4.17,2.03,7.68,2.03c2.04,0,4.33-0.41,6.77-1.55c5.93-2.77,8.58-9.09,9.46-11.78c0.06-0.19,0.14-0.46,0.22-0.75
	c0.26-0.97-0.23-1.99-1.16-2.38c-0.26-0.11-0.51-0.21-0.68-0.27c-2.74-1.02-9.85-3.16-15.14-0.52c-5.79,2.89-8.6,6.93-8.81,12.65
	c-0.9,0.85-2.61,2.79-3.48,5.83c-1.01-3.92-3.73-6.62-8.49-8.52c-4.17-1.67-8.81-0.32-10.99,0.52c-0.24,0.09-0.54,0.22-0.84,0.36
	c-0.77,0.35-1.24,1.16-1.16,2.01c0.03,0.38,0.08,0.78,0.16,1.1c0.33,1.43,1.13,3.71,3.09,6.33c3.26,4.19,7.1,5.55,10.51,5.55
	c2.52,0,4.81-0.74,6.47-1.62c0.18,0.33,0.4,0.87,0.59,1.76c0.31,1.46-1.07,3.09-1.95,3.89H18.1c-0.25,0-0.51,0.05-0.74,0.14
	l-14.5,5.8c-0.94,0.38-1.45,1.4-1.19,2.38l2.75,10.1c0.29,1.05,1.36,1.68,2.41,1.41L18,52.55l11.54,2.89
	c0.24,0.06,0.5,0.08,0.75,0.04l14.78-1.97c0.32-0.04,0.62-0.16,0.89-0.35c2.03-1.43,11.07-7.82,11.16-7.9
	C58.59,43.88,58.97,41.73,58.04,40.02z M42.67,8.35C46.74,6.31,52.62,8,55.16,8.9c-0.83,2.39-3.12,7.56-7.79,9.75
	c-4.12,1.92-7.69,1.3-9.94,0.45l5.92-2.69c1.26-0.57,1.81-2.05,1.24-3.31c-0.11-0.25-0.41-0.36-0.66-0.25l-8.23,3.74
	C36.33,12.97,38.51,10.43,42.67,8.35z M13.2,24.1c-1.68-2.24-2.31-4.11-2.55-5.17c1.76-0.67,5.59-1.82,8.8-0.54
	c4.71,1.88,6.8,4.46,7.03,8.76C24.43,28.23,18.28,30.63,13.2,24.1z M55.11,43.03c-0.68,0.5-6.58,4.67-10.67,7.54l-14.35,1.91
	l-11.6-2.9c-0.32-0.08-0.65-0.08-0.97,0L7.06,52.19L4.8,43.9l13.49-5.4H36c0.83,0,1.5,0.67,1.5,1.5s-0.67,1.5-1.5,1.5h-6.5
	c-1.38,0-2.5,1.12-2.5,2.5c0,0.28,0.22,0.5,0.5,0.5h8.26l5.57,1.86c0.5,0.17,1.05,0.13,1.52-0.11L53.46,41
	c0.37-0.2,0.78-0.25,1.16-0.15c0.35,0.09,0.63,0.3,0.79,0.6C55.67,41.94,55.55,42.58,55.11,43.03z"/>
</svg>
