<?xml version="1.0" encoding="utf-8"?>
<!-- Generator: Adobe Illustrator 21.1.0, SVG Export Plug-In . SVG Version: 6.00 Build 0)  -->
<svg version="1.1" id="eps" xmlns="http://www.w3.org/2000/svg" xmlns:xlink="http://www.w3.org/1999/xlink" x="0px" y="0px"
	 viewBox="0 0 60 60" style="enable-background:new 0 0 60 60;" xml:space="preserve">
<g>
	<path d="M48.29,34.83L30,54.78L11.64,34.75c-0.93-1.01-2.49-1.05-3.46-0.08l0,0c-0.2,0.19-0.22,0.5-0.03,0.71l20.38,22.23
		c0.79,0.86,2.16,0.86,2.95,0l20.38-22.23c0.19-0.21,0.17-0.53-0.04-0.71C50.79,33.74,49.22,33.81,48.29,34.83z"/>
	<path d="M56.5,27.5H46.27c-0.67,0-1.29,0.33-1.66,0.89l-2.05,3.08L37.9,15.14c-0.54-1.89-3.2-1.95-3.82-0.08L27,36.26l-6.23-18.68
		c-0.54-1.63-2.76-1.86-3.62-0.38l-6.01,10.3H5.5C4.12,27.5,3,28.62,3,30l0,0c0,0.28,0.22,0.5,0.5,0.5h8.21
		c0.71,0,1.37-0.38,1.73-0.99l5.19-8.89l6.48,19.43c0.61,1.82,3.19,1.82,3.79,0l6.99-20.98l4.37,15.3c0.47,1.64,2.64,1.98,3.59,0.56
		l2.95-4.43h7.7c1.38,0,2.5-1.12,2.5-2.5C57,27.72,56.78,27.5,56.5,27.5z"/>
	<path d="M52.35,5.45c-3.54-3.08-7.96-4.43-12.44-3.8L39.8,1.67c-0.35,0.05-0.7,0.12-1.04,0.19C35.4,2.59,32.29,4.58,30,7.41
		c-2.29-2.83-5.4-4.83-8.75-5.56c-0.35-0.08-0.69-0.14-1.04-0.19l-0.12-0.02c-4.48-0.63-8.9,0.72-12.44,3.8
		C3.74,8.85,1.5,13.91,1.5,19.33v0.62c0,1.29,0.12,2.58,0.35,3.85c0.05,0.28,0.33,0.46,0.6,0.4l0.14-0.03
		c1.23-0.26,2.08-1.39,1.98-2.64c-0.05-0.52-0.07-1.05-0.07-1.58v-0.62c0-4.55,1.87-8.79,5.12-11.62c2.88-2.5,6.45-3.6,10.14-3.08
		c0.28,0.04,0.57,0.09,0.85,0.16c3.13,0.68,6.02,2.76,7.93,5.71l0,0c0.69,1.06,2.24,1.06,2.93,0c1.91-2.95,4.79-5.03,7.93-5.71
		c0.28-0.06,0.56-0.11,0.94-0.17c3.6-0.51,7.18,0.59,10.05,3.09c3.25,2.83,5.12,7.06,5.12,11.62v0.62c0,0.53-0.02,1.05-0.07,1.58
		c-0.11,1.25,0.75,2.38,1.97,2.64l0.14,0.03c0.28,0.06,0.55-0.12,0.6-0.4c0.23-1.26,0.35-2.56,0.35-3.85v-0.62
		C58.5,13.91,56.26,8.85,52.35,5.45z"/>
</g>
</svg>
