<?xml version="1.0" encoding="utf-8"?>
<!-- Generator: Adobe Illustrator 21.1.0, SVG Export Plug-In . SVG Version: 6.00 Build 0)  -->
<svg version="1.1" id="EPS" xmlns="http://www.w3.org/2000/svg" xmlns:xlink="http://www.w3.org/1999/xlink" x="0px" y="0px"
	 viewBox="0 0 60 60" style="enable-background:new 0 0 60 60;" xml:space="preserve">
<path d="M49.92,5c-0.09-0.57-0.24-1.29-0.38-1.92c-0.21-0.93-1.04-1.58-2-1.56c-0.53,0.01-1.1,0.03-1.53,0.06
	c-5.13,0.34-18.98,2.11-29.07,11.36c-14.39,14.39-6,30.74-4.44,33.47V47c0,6.35,5.15,11.5,11.5,11.5h11.5c0.28,0,0.5-0.22,0.5-0.5
	c0-1.38-1.12-2.5-2.5-2.5H24c-4.45,0-8.1-3.43-8.46-7.79c0.67,0.06,1.51,0.11,2.48,0.11c5.56,0,15.51-1.51,24.09-10.8
	C52.17,26.11,50.88,10.83,49.92,5z M39.9,34.98c-9.03,9.79-19.69,10.08-23.84,9.76c1.39-3.34,5.49-11.29,15.48-19.26
	c0.21-0.17,0.26-0.48-0.03-0.84l-1.12-1.43c-0.17-0.22-0.49-0.25-0.71-0.08c-9.51,7.58-13.96,15.1-15.87,19.23
	c-2.27-5.2-5.35-16.71,5.21-27.26C28.68,6.25,42.63,4.79,46.79,4.55C47.59,8.92,49.59,24.48,39.9,34.98z"/>
</svg>
