<?xml version="1.0" encoding="utf-8"?>
<!-- Generator: Adobe Illustrator 21.1.0, SVG Export Plug-In . SVG Version: 6.00 Build 0)  -->
<svg version="1.1" id="eps" xmlns="http://www.w3.org/2000/svg" xmlns:xlink="http://www.w3.org/1999/xlink" x="0px" y="0px"
	 viewBox="0 0 60 60" style="enable-background:new 0 0 60 60;" xml:space="preserve">
<path d="M53.88,17.38c-0.69-1.2-2.22-1.61-3.41-0.92l-4.19,2.42l1.1-4.16c0.07-0.27-0.09-0.54-0.36-0.61l0,0
	c-1.33-0.35-2.7,0.44-3.05,1.78l-1.34,5.1l-7.42,4.28l-0.55-0.32l2.4-4.16c0.14-0.24,0.06-0.54-0.18-0.68l0,0
	c-1.2-0.69-2.72-0.28-3.41,0.91l-1.4,2.43l-0.55-0.32v-8.46l3.79-3.79c0.98-0.98,0.98-2.56,0-3.53l0,0c-0.2-0.2-0.51-0.2-0.71,0
	l-3.08,3.08V3.51c0-0.28-0.22-0.5-0.5-0.5l0,0c-1.38,0-2.5,1.12-2.5,2.5v4.84l-3.05-3.03c-0.2-0.19-0.51-0.19-0.71,0l0,0
	c-0.97,0.98-0.97,2.56,0.01,3.53l3.74,3.71v8.56l-0.55,0.32l-2.4-4.16c-0.14-0.24-0.44-0.32-0.68-0.18l0,0
	c-1.2,0.69-1.6,2.22-0.91,3.41l1.4,2.43l-0.55,0.32l-7.32-4.23l-1.39-5.17c-0.36-1.33-1.73-2.12-3.06-1.77l0,0
	c-0.27,0.07-0.43,0.35-0.35,0.61l1.13,4.2l-5.99-3.46C7.6,15.3,7.3,15.38,7.16,15.62l0,0c-0.69,1.19-0.28,2.72,0.91,3.41l4.19,2.42
	L8.09,22.6c-0.27,0.07-0.42,0.35-0.35,0.61l0,0c0.36,1.33,1.74,2.12,3.07,1.75l5.09-1.39l7.27,4.2v0.72H18.5
	c-0.28,0-0.5,0.22-0.5,0.5l0,0c0,1.38,1.12,2.5,2.5,2.5h2.66v0.71l-7.19,4.15l-5.18-1.39c-1.33-0.36-2.7,0.43-3.06,1.77l0,0
	C7.66,37,7.82,37.27,8.08,37.34l4.2,1.13l-5.99,3.46c-0.24,0.14-0.32,0.44-0.18,0.68l0,0c0.69,1.2,2.22,1.61,3.41,0.92l4.19-2.42
	l-1.1,4.16c-0.07,0.27,0.09,0.54,0.36,0.61l0,0c1.33,0.35,2.7-0.45,3.05-1.78l1.34-5.1l7.14-4.12l0.69,0.4l-2.26,3.92
	c-0.14,0.24-0.06,0.54,0.18,0.68c1.2,0.69,2.72,0.28,3.41-0.91l1.26-2.19l0.69,0.4v8.14l-3.79,3.79c-0.98,0.98-0.98,2.56,0,3.53l0,0
	c0.2,0.2,0.51,0.2,0.71,0l3.08-3.08v6.92c0,0.28,0.22,0.5,0.5,0.5l0,0c1.38,0,2.5-1.12,2.5-2.5v-4.84l3.05,3.03
	c0.2,0.19,0.51,0.19,0.71,0l0,0c0.97-0.98,0.97-2.56-0.01-3.53l-3.74-3.71v-8.24l0.69-0.4l2.26,3.92c0.14,0.24,0.44,0.32,0.68,0.18
	l0,0c1.2-0.69,1.6-2.22,0.91-3.41l-1.26-2.19l0.69-0.4l7.04,4.07l1.39,5.17c0.36,1.33,1.73,2.12,3.06,1.77l0,0
	c0.27-0.07,0.42-0.35,0.35-0.61l-1.13-4.2l5.99,3.46c0.24,0.14,0.54,0.06,0.68-0.18l0,0c0.69-1.2,0.28-2.72-0.91-3.41l-4.19-2.42
	l4.15-1.13c0.27-0.07,0.42-0.35,0.35-0.61l0,0c-0.36-1.33-1.74-2.12-3.07-1.75l-5.09,1.39l-7.27-4.2V31.5h4.66
	c0.28,0,0.5-0.22,0.5-0.5l0,0c0-1.38-1.12-2.5-2.5-2.5H36.8v-0.71l7.19-4.14l5.18,1.39c1.33,0.36,2.7-0.43,3.06-1.77
	c0.07-0.27-0.09-0.54-0.35-0.61l-4.21-1.13l5.99-3.46C53.93,17.93,54.02,17.62,53.88,17.38z M33.84,27.95v4.43L30,34.59l-3.84-2.21
	v-4.43L30,25.73L33.84,27.95z"/>
</svg>
