<?xml version="1.0" encoding="utf-8"?>
<!-- Generator: Adobe Illustrator 21.1.0, SVG Export Plug-In . SVG Version: 6.00 Build 0)  -->
<svg version="1.1" id="EPS" xmlns="http://www.w3.org/2000/svg" xmlns:xlink="http://www.w3.org/1999/xlink" x="0px" y="0px"
	 viewBox="0 0 60 60" style="enable-background:new 0 0 60 60;" xml:space="preserve">
<g>
	<path d="M29,12h2c0.28,0,0.5-0.22,0.5-0.5v-8C31.5,3.22,31.28,3,31,3c-1.38,0-2.5,1.12-2.5,2.5v6C28.5,11.78,28.72,12,29,12z"/>
	<path d="M31.02,48h-2c-0.28,0-0.5,0.22-0.5,0.5v8c0,0.28,0.22,0.5,0.5,0.5l0,0c1.38,0,2.5-1.12,2.5-2.5v-6
		C31.52,48.22,31.3,48,31.02,48z"/>
	<path d="M12,31.01v-2c0-0.28-0.22-0.5-0.5-0.5H3.51c-0.28,0-0.5,0.22-0.5,0.5c0,1.38,1.12,2.5,2.5,2.5h5.99
		C11.78,31.51,12,31.29,12,31.01z"/>
	<path d="M54.51,28.49H48.5c-0.28,0-0.5,0.22-0.5,0.5v2c0,0.28,0.22,0.5,0.5,0.5h8.01c0.28,0,0.5-0.22,0.5-0.5l0,0
		C57.01,29.61,55.89,28.49,54.51,28.49z"/>
	<path d="M15.86,17.99c0.2,0.2,0.51,0.2,0.71,0l1.41-1.41c0.2-0.2,0.2-0.51,0-0.71l-5.66-5.66c-0.2-0.2-0.51-0.2-0.71,0l0,0
		c-0.98,0.98-0.98,2.56,0,3.53L15.86,17.99z"/>
	<path d="M44.16,42.01c-0.2-0.2-0.51-0.2-0.71,0l-1.41,1.41c-0.2,0.2-0.2,0.51,0,0.71l5.66,5.66c0.2,0.2,0.51,0.2,0.71,0l0,0
		c0.98-0.98,0.98-2.56,0-3.53L44.16,42.01z"/>
	<path d="M16.58,42.04c-0.2-0.2-0.51-0.2-0.71,0l-5.65,5.65c-0.2,0.2-0.2,0.51,0,0.71l0,0c0.98,0.98,2.56,0.98,3.53,0l4.24-4.24
		c0.2-0.2,0.2-0.51,0-0.71L16.58,42.04z"/>
	<path d="M43.43,17.98c0.2,0.2,0.51,0.2,0.71,0l5.66-5.66c0.2-0.2,0.2-0.51,0-0.71l0,0c-0.98-0.98-2.56-0.98-3.53,0l-4.25,4.25
		c-0.2,0.2-0.2,0.51,0,0.71L43.43,17.98z"/>
	<path d="M30.01,15.09c-8.23,0-14.92,6.69-14.92,14.91s6.69,14.91,14.92,14.91S44.93,38.22,44.93,30S38.24,15.09,30.01,15.09z
		 M30.01,41.91c-6.57,0-11.92-5.34-11.92-11.91s5.35-11.91,11.92-11.91S41.93,23.43,41.93,30S36.58,41.91,30.01,41.91z"/>
</g>
</svg>
