<?xml version="1.0" encoding="utf-8"?>
<!-- Generator: Adobe Illustrator 21.1.0, SVG Export Plug-In . SVG Version: 6.00 Build 0)  -->
<svg version="1.1" id="EPS" xmlns="http://www.w3.org/2000/svg" xmlns:xlink="http://www.w3.org/1999/xlink" x="0px" y="0px"
	 viewBox="0 0 60 60" style="enable-background:new 0 0 60 60;" xml:space="preserve">
<g>
	<path d="M27.5,42.34V3.5c0-1.1-0.9-2-2-2h-7c-1.1,0-2,0.9-2,2v38.87c-2.16,1.67-3.45,4.21-3.5,6.97c-0.08,4.89,3.95,9.07,8.84,9.16
		c5.04,0.09,9.16-3.98,9.16-9C31,46.52,29.74,43.95,27.5,42.34z M24.5,4.5v25.48h-5V4.5H24.5z M20.79,55.38
		c-2.29-0.45-4.15-2.28-4.64-4.55c-0.5-2.34,0.36-4.62,2.12-6.03c0.05-0.04,0.18-0.13,0.34-0.24c0.56-0.37,0.89-0.99,0.89-1.66
		V32.56h5v9.46l0.01,0.88c0.01,0.69,0.37,1.34,0.97,1.7c0.1,0.06,0.18,0.11,0.21,0.13c1.5,1.05,2.32,2.73,2.32,4.77
		C28,53.21,24.62,56.14,20.79,55.38z"/>
	<path d="M45.5,7.49h-4V3.5C41.5,3.22,41.28,3,41,3h-2c-0.28,0-0.5,0.22-0.5,0.5v3.99h-4c-0.28,0-0.5,0.22-0.5,0.5
		c0,1.38,1.12,2.5,2.5,2.5h2v4.01c0,0.28,0.22,0.5,0.5,0.5c1.38,0,2.5-1.12,2.5-2.5v-2.01h4c0.28,0,0.5-0.22,0.5-0.5v-2
		C46,7.71,45.78,7.49,45.5,7.49z"/>
	<path d="M45.5,41.5h-11c-0.28,0-0.5,0.22-0.5,0.5c0,1.38,1.12,2.5,2.5,2.5h9c0.28,0,0.5-0.22,0.5-0.5v-2
		C46,41.72,45.78,41.5,45.5,41.5z"/>
</g>
</svg>
