<?xml version="1.0" encoding="utf-8"?>
<!-- Generator: Adobe Illustrator 21.1.0, SVG Export Plug-In . SVG Version: 6.00 Build 0)  -->
<svg version="1.1" id="EPS" xmlns="http://www.w3.org/2000/svg" xmlns:xlink="http://www.w3.org/1999/xlink" x="0px" y="0px"
	 viewBox="0 0 60 60" style="enable-background:new 0 0 60 60;" xml:space="preserve">
<g>
	<path d="M50.88,50.92l-6.24-14.25c3.63-3.7,5.87-8.76,5.87-14.34c0-11.3-9.2-20.5-20.5-20.5s-20.5,9.2-20.5,20.5
		c0,5.57,2.24,10.62,5.86,14.32L9.12,50.92c-0.72,1.65,0.94,3.34,2.6,2.65l5.58-2.33l2.83,5.43c0.81,1.55,3.07,1.39,3.66-0.26
		l4.86-13.66c0.45,0.03,0.9,0.07,1.36,0.07c0.45,0,0.89-0.04,1.34-0.07l4.86,13.66c0.58,1.65,2.85,1.8,3.66,0.26l2.83-5.43
		l5.58,2.33C49.94,54.27,51.6,52.58,50.88,50.92z M21.74,53.26l-2.2-4.21c-0.48-0.92-1.58-1.32-2.54-0.92l-4.13,1.72l4.87-11.13
		c2.3,1.73,4.97,2.99,7.88,3.63L21.74,53.26z M30.01,39.83c-9.65,0-17.5-7.85-17.5-17.5s7.85-17.5,17.5-17.5s17.5,7.85,17.5,17.5
		S39.66,39.83,30.01,39.83z M43,48.12c-0.96-0.4-2.06,0-2.54,0.92l-2.2,4.21l-3.88-10.9c2.91-0.63,5.58-1.9,7.88-3.62l4.86,11.12
		L43,48.12z"/>
	<path d="M40.09,17.93l-5.72-0.83l-2.56-5.19c-0.73-1.49-2.85-1.49-3.59,0l-2.56,5.19l-5.72,0.83c-1.64,0.24-2.3,2.25-1.11,3.41
		l4.14,4.04l-0.98,5.7c-0.28,1.63,1.43,2.88,2.9,2.11l5.12-2.69l5.12,2.69c1.47,0.77,3.18-0.47,2.9-2.11l-0.98-5.7l4.14-4.04
		C42.39,20.18,41.73,18.17,40.09,17.93z M34.59,23.6c-0.47,0.46-0.69,1.12-0.58,1.77l0.72,4.22l-3.79-1.99
		c-0.58-0.31-1.28-0.31-1.86,0l-3.79,1.99l0.72-4.22c0.11-0.65-0.1-1.31-0.58-1.77l-3.07-2.99l4.24-0.62
		c0.65-0.09,1.21-0.5,1.51-1.09l1.9-3.84l1.9,3.84c0.29,0.59,0.85,1,1.51,1.09l4.24,0.62L34.59,23.6z"/>
</g>
</svg>
