<?xml version="1.0" encoding="utf-8"?>
<!-- Generator: Adobe Illustrator 21.1.0, SVG Export Plug-In . SVG Version: 6.00 Build 0)  -->
<svg version="1.1" id="EPS" xmlns="http://www.w3.org/2000/svg" xmlns:xlink="http://www.w3.org/1999/xlink" x="0px" y="0px"
	 viewBox="0 0 60 60" style="enable-background:new 0 0 60 60;" xml:space="preserve">
<g>
	<path d="M56.5,10.5h-23c-1.1,0-2,0.9-2,2V28c0,0.28,0.22,0.5,0.5,0.5c1.38,0,2.5-1.12,2.5-2.5V13.5h21v21h-5
		c-1.38,0-2.5,1.12-2.5,2.5c0,0.28,0.22,0.5,0.5,0.5h8c1.1,0,2-0.9,2-2v-23C58.5,11.4,57.6,10.5,56.5,10.5z"/>
	<path d="M43,31.5H20c-1.1,0-2,0.9-2,2V47c0,6.35,5.15,11.5,11.5,11.5H43c1.1,0,2-0.9,2-2v-23C45,32.4,44.1,31.5,43,31.5z M42,55.5
		H29.5c-4.69,0-8.5-3.81-8.5-8.5V34.5h21V55.5z"/>
	<ellipse transform="matrix(0.9343 -0.3564 0.3564 0.9343 -13.9188 14.2166)" cx="31.62" cy="44.88" rx="2.75" ry="2.75"/>
	<ellipse transform="matrix(0.9343 -0.3564 0.3564 0.9343 -4.3861 15.8538)" cx="40.83" cy="19.83" rx="2.75" ry="2.75"/>
	<ellipse transform="matrix(0.9343 -0.3564 0.3564 0.9343 -6.8109 19.3743)" cx="49.17" cy="28.17" rx="2.75" ry="2.75"/>
	<path d="M25.71,3.71L24.3,2.3c-0.2-0.2-0.51-0.2-0.71,0L3.71,22.17c-0.98,0.98-0.98,2.56,0,3.54c0.2,0.2,0.51,0.2,0.71,0
		l21.29-21.3C25.9,4.22,25.9,3.9,25.71,3.71z"/>
	<path d="M7,12.5c3.03,0,5.5-2.47,5.5-5.5S10.03,1.5,7,1.5S1.5,3.97,1.5,7S3.97,12.5,7,12.5z M7,4.5c1.38,0,2.5,1.12,2.5,2.5
		S8.38,9.5,7,9.5S4.5,8.38,4.5,7S5.62,4.5,7,4.5z"/>
	<path d="M26.5,21c0-3.03-2.47-5.5-5.5-5.5s-5.5,2.47-5.5,5.5s2.47,5.5,5.5,5.5S26.5,24.03,26.5,21z M18.5,21
		c0-1.38,1.12-2.5,2.5-2.5s2.5,1.12,2.5,2.5s-1.12,2.5-2.5,2.5S18.5,22.38,18.5,21z"/>
</g>
</svg>
