<?xml version="1.0" encoding="utf-8"?>
<!-- Generator: Adobe Illustrator 21.1.0, SVG Export Plug-In . SVG Version: 6.00 Build 0)  -->
<svg version="1.1" id="eps" xmlns="http://www.w3.org/2000/svg" xmlns:xlink="http://www.w3.org/1999/xlink" x="0px" y="0px"
	 viewBox="0 0 60 60" style="enable-background:new 0 0 60 60;" xml:space="preserve">
<g>
	<path d="M56.5,1.45h-53c-1.1,0-2,0.9-2,2L1.51,36c0,6.34,5.16,11.5,11.5,11.5H23.5v8.21c0,1.83,2.25,2.7,3.48,1.35l8.68-9.55H56.5
		c1.1,0,2-0.9,2-2V3.45C58.5,2.34,57.6,1.45,56.5,1.45z M55.5,44.5H35.22c-0.56,0-1.1,0.24-1.48,0.65l-7.24,7.96V46.5
		c0-1.1-0.9-2-2-2H13.01c-4.69,0-8.5-3.8-8.5-8.5L4.5,4.45h51V44.5z"/>
	<path d="M27.88,28.65c0,0.19,0.06,0.34,0.18,0.45s0.28,0.16,0.47,0.16h2.95c0.19,0,0.35-0.05,0.47-0.16
		c0.12-0.11,0.18-0.26,0.18-0.45c0.17-5.21,0.29-9.14,0.38-11.79c0.08-2.65,0.13-4.01,0.13-4.09c0-0.22-0.05-0.37-0.14-0.47
		c-0.1-0.1-0.24-0.14-0.43-0.14h-4.1c-0.19,0-0.34,0.05-0.43,0.14c-0.1,0.1-0.14,0.25-0.14,0.47c0,0.07,0.04,1.43,0.13,4.09
		C27.58,19.51,27.71,23.44,27.88,28.65z"/>
	<path d="M29.96,37.32c0.84,0,1.52-0.25,2.05-0.76c0.53-0.5,0.79-1.18,0.79-2.02s-0.26-1.52-0.79-2.05
		c-0.53-0.53-1.21-0.79-2.05-0.79c-0.82,0-1.48,0.26-2,0.79c-0.52,0.53-0.77,1.21-0.77,2.05c0,0.82,0.26,1.48,0.77,2
		S29.15,37.32,29.96,37.32z"/>
</g>
</svg>
