<?xml version="1.0" encoding="utf-8"?>
<!-- Generator: Adobe Illustrator 21.1.0, SVG Export Plug-In . SVG Version: 6.00 Build 0)  -->
<svg version="1.1" id="eps" xmlns="http://www.w3.org/2000/svg" xmlns:xlink="http://www.w3.org/1999/xlink" x="0px" y="0px"
	 viewBox="0 0 60 60" style="enable-background:new 0 0 60 60;" xml:space="preserve">
<path d="M48.37,15.5h-7.5c0.44-0.19,0.8-0.37,1.06-0.52c1.23-0.71,2.12-1.86,2.49-3.24c0.37-1.38,0.18-2.81-0.53-4.05
	c-0.71-1.23-1.86-2.12-3.24-2.48c-1.38-0.37-2.81-0.18-4.05,0.53c-0.98,0.57-2.96,2.17-4.72,3.95c0.05-0.67,0.1-1.36,0.17-2.04
	c0.22-2.16,2.36-3.65,3.26-4.18c0.22-0.13,0.31-0.41,0.19-0.64c-0.63-1.31-2.32-1.66-3.43-0.71c-0.72,0.62-1.47,1.42-2.05,2.39
	c-0.58-1.01-1.35-1.84-2.09-2.47c-1.1-0.94-2.8-0.59-3.43,0.72c-0.11,0.23-0.03,0.51,0.19,0.64c0.9,0.54,3.04,2.04,3.27,4.18
	c0.07,0.69,0.13,1.39,0.17,2.07c-1.76-1.8-3.76-3.42-4.75-3.99c-2.55-1.47-5.82-0.6-7.29,1.95c-0.71,1.23-0.9,2.67-0.53,4.05
	s1.25,2.53,2.48,3.24c0.3,0.17,0.73,0.38,1.25,0.6h-7.75c-1.1,0-2,0.9-2,2v9.09c0,1.06,0.83,1.92,1.88,1.99v18.36
	c0,6.35,5.15,11.5,11.5,11.5h23.54c1.1,0,2-0.9,2-2V28.58c1.05-0.06,1.88-0.92,1.88-1.99V17.5C50.37,16.4,49.47,15.5,48.37,15.5z
	 M47.37,25.59H31.5V18.5h15.87V25.59z M38.09,8.35L38.09,8.35c0.54-0.31,1.17-0.4,1.77-0.23c0.6,0.16,1.11,0.55,1.42,1.09
	s0.39,1.17,0.23,1.77s-0.55,1.1-1.09,1.42c-1.7,0.98-6.88,2.52-8.74,2.38c0-0.03,0-0.07,0-0.11C32.56,12.97,36.41,9.32,38.09,8.35z
	 M18.71,9.12c0.43-0.75,1.22-1.17,2.03-1.17c0.4,0,0.8,0.1,1.16,0.31c1.7,0.98,5.63,4.72,6.44,6.38c0,0.02,0,0.03,0,0.05
	c-1.82,0.15-7.06-1.4-8.77-2.38C18.45,11.67,18.07,10.24,18.71,9.12z M12.57,18.5H28.5v7.09H12.57V18.5z M14.45,46.94V28.59H28.5
	v26.84h-5.55C18.25,55.44,14.45,51.63,14.45,46.94z M31.5,55.44V28.59h13.99v26.84L31.5,55.44L31.5,55.44z"/>
</svg>
