<?xml version="1.0" encoding="utf-8"?>
<!-- Generator: Adobe Illustrator 21.1.0, SVG Export Plug-In . SVG Version: 6.00 Build 0)  -->
<svg version="1.1" id="eps_1_" xmlns="http://www.w3.org/2000/svg" xmlns:xlink="http://www.w3.org/1999/xlink" x="0px" y="0px"
	 viewBox="0 0 60 60" style="enable-background:new 0 0 60 60;" xml:space="preserve">
<g>
	<path d="M6.5,17.5h3c1.38,0,2.5-1.12,2.5-2.5c0-0.28-0.22-0.5-0.5-0.5h-5C6.22,14.5,6,14.72,6,15v2C6,17.28,6.22,17.5,6.5,17.5z"/>
	<path d="M11.23,10.34c0.98,0.98,2.56,0.98,3.54,0c0.2-0.2,0.2-0.51,0-0.71L11.23,6.1c-0.2-0.2-0.51-0.2-0.71,0L9.11,7.51
		c-0.2,0.2-0.2,0.51,0,0.71L11.23,10.34z"/>
	<path d="M20,9c0.28,0,0.5-0.22,0.5-0.5v-5C20.5,3.22,20.28,3,20,3h-2c-0.28,0-0.5,0.22-0.5,0.5v3C17.5,7.88,18.62,9,20,9z"/>
	<path d="M57.66,33.03l-3.89-3.82c0.63-0.27,1.28-0.71,1.94-1.38c1.44-1.46,1.57-2.94,1.43-3.93c-0.32-2.27-2.42-4.2-4.28-5.26
		c-0.73-0.41-1.5-0.68-2.28-0.82c0.01,0,0.01-0.01,0.02-0.01c1.66-1.4,4.23-0.98,5.25-0.74c0.25,0.06,0.51-0.08,0.59-0.33
		c0.46-1.38-0.52-2.81-1.97-2.89c-0.88-0.05-1.89-0.01-2.9,0.23c0.21-1.02,0.21-2.03,0.13-2.91c-0.14-1.45-1.6-2.37-2.96-1.87l0,0
		c-0.24,0.09-0.38,0.35-0.31,0.6c0.27,1.01,0.77,3.58-0.56,5.28c0,0.01-0.01,0.01-0.01,0.02c-0.16-0.78-0.46-1.53-0.9-2.25
		c-1.12-1.82-3.13-3.86-5.4-4.1c-0.99-0.11-2.46,0.08-3.88,1.57c-0.59,0.62-0.98,1.23-1.23,1.8l-4.49-4.4
		c-0.79-0.78-2.07-0.76-2.84,0.04l-4.86,5.03c-0.77,0.79-0.75,2.06,0.05,2.83l4.84,4.69H3.47c-1.1,0-2,0.9-2,2V47
		c0,6.35,5.15,11.5,11.5,11.5h22.17c1.1,0,2-0.9,2-2V28.15l12.98,12.58c0.79,0.77,2.05,0.75,2.82-0.04l4.75-4.84
		C58.46,35.07,58.45,33.8,57.66,33.03z M54.17,24.32c0.04,0.3,0.02,0.77-0.6,1.41c-1.3,1.33-2.16,0.77-2.46,0.47l-4.57-4.48
		c1.17-0.8,2.96-1.53,4.84-0.47C52.62,21.96,54.02,23.22,54.17,24.32z M39.86,12.49c0.53-0.55,0.95-0.66,1.24-0.66
		c0.05,0,0.1,0,0.14,0.01c1.11,0.12,2.42,1.47,3.16,2.68c1.13,1.84,0.46,3.66-0.3,4.85l-4.64-4.41c0,0-0.32-0.31-0.38-0.77
		C39.01,13.68,39.27,13.11,39.86,12.49z M30.59,10.67l11.39,11.17l-1.57,1.65l-1.83,1.87l-11.45-11.1L30.59,10.67z M4.47,47V23.41
		h13.17V55.5h-4.67C8.28,55.5,4.47,51.69,4.47,47z M34.14,55.5h-13.5V23.41h11.61l1.89,1.83V55.5z M51.5,37.88L40.75,27.47
		l1.79-1.88l1.6-1.63l10.71,10.51L51.5,37.88z"/>
</g>
</svg>
