<?xml version="1.0" encoding="utf-8"?>
<!-- Generator: Adobe Illustrator 21.1.0, SVG Export Plug-In . SVG Version: 6.00 Build 0)  -->
<svg version="1.1" id="EPS" xmlns="http://www.w3.org/2000/svg" xmlns:xlink="http://www.w3.org/1999/xlink" x="0px" y="0px"
	 viewBox="0 0 60 60" style="enable-background:new 0 0 60 60;" xml:space="preserve">
<g>
	<path d="M57.54,20.1L52.53,8.54c-0.44-1.02-1.64-1.49-2.66-1.03l-16.24,7.33h-9.46c-0.56,0-1.1,0.24-1.48,0.66l-6.15,6.77
		c-1.21,1.32-1.62,3.23-0.95,5.03c0.57,1.54,1.97,2.68,3.58,2.99c1.18,0.23,2.36,0.04,3.44-0.6l6.44-4.18h3.39
		c1.38,0,2.5-1.12,2.5-2.5c0-0.28-0.22-0.5-0.5-0.5h-5.68c-0.39,0-0.76,0.11-1.09,0.32l-6.63,4.3c-0.28,0.16-0.6,0.25-0.92,0.25
		c-1.02,0-1.85-0.83-1.85-1.85c0-0.46,0.17-0.9,0.49-1.25l5.85-6.44h9.23c0.28,0,0.56-0.06,0.82-0.18l15.51-7l4.61,10.64
		c1.52,3.5,0.48,7.48-2.27,9.84c-0.21,0.17-0.44,0.34-0.69,0.5c-1.01,0.66-1.38,1.96-0.9,3.07l0.09,0.2
		c0.11,0.26,0.41,0.37,0.67,0.26c0.51-0.23,1.3-0.62,1.73-0.96C57.92,31.18,59.77,25.26,57.54,20.1z"/>
	<path d="M47.03,35.58l-0.06-0.06c-0.02-0.02-0.04-0.04-0.06-0.06l0,0l-6.71-6.3c-0.2-0.19-0.52-0.18-0.71,0.02
		c-0.94,1.01-0.89,2.59,0.11,3.53l5.31,4.98c0.53,0.52,0.77,1.25,0.64,2.02c-0.13,0.83-0.77,1.56-1.58,1.8
		c-0.65,0.19-1.31,0.1-1.85-0.22l-1.07-1.06l-4.02-3.68c-0.2-0.19-0.52-0.17-0.71,0.03l0,0c-0.93,1.02-0.87,2.59,0.14,3.53
		l2.43,2.24c0.45,0.41,0.7,0.98,0.7,1.58c0,1.18-0.96,2.14-2.14,2.14c-0.49,0-0.95-0.16-1.33-0.47l-4.41-4.34
		c-0.2-0.19-0.51-0.19-0.71,0l0,0c-0.97,0.98-0.96,2.56,0.02,3.53L33,46.75c0.36,0.37,0.55,0.85,0.55,1.37
		c0,1.09-0.88,1.97-1.94,1.97c-0.79-0.02-1.71-0.68-1.97-0.9L8.01,32.2c-1.95-1.54-3.11-3.79-3.23-6.3
		c-0.1-2.21,0.74-4.35,2.16-6.05l7.57-9.05l1.96,1.7c1.04,0.9,2.62,0.79,3.53-0.25l0,0c0.18-0.21,0.16-0.52-0.05-0.71L15.7,7.87
		c-0.85-0.73-2.13-0.63-2.84,0.23l-8.17,9.76c-1.97,2.35-3.1,5.35-2.89,8.41c0.22,3.29,1.78,6.25,4.36,8.28l21.55,16.93
		c0.33,0.29,1.94,1.59,3.9,1.63c2.45,0,4.5-1.78,4.9-4.12c0.32,0.06,0.65,0.09,0.97,0.09c2.62,0,4.79-1.98,5.1-4.52
		c0.24,0.03,0.48,0.05,0.72,0.05c2.92,0,5.29-2.37,5.29-5.29C48.59,37.93,48.03,36.57,47.03,35.58L47.03,35.58z"/>
</g>
</svg>
