<?xml version="1.0" encoding="utf-8"?>
<!-- Generator: Adobe Illustrator 21.1.0, SVG Export Plug-In . SVG Version: 6.00 Build 0)  -->
<svg version="1.1" id="EPS" xmlns="http://www.w3.org/2000/svg" xmlns:xlink="http://www.w3.org/1999/xlink" x="0px" y="0px"
	 viewBox="0 0 60 60" style="enable-background:new 0 0 60 60;" xml:space="preserve">
<g>
	<path d="M51.65,6.49c-0.11-0.05-0.21-0.09-0.28-0.11C48.82,5.34,38.72,1.5,30,1.5c-7.96,0-17.04,3.2-20.5,4.55
		C9.19,6.17,8.79,6.33,8.4,6.49C7.65,6.8,7.17,7.53,7.17,8.34v28.47c0,3.74,1.82,7.25,4.88,9.4l16.8,11.81
		c0.69,0.48,1.61,0.49,2.3,0l16.84-11.81c3.07-2.15,4.9-5.67,4.9-9.41V8.33C52.88,7.53,52.4,6.8,51.65,6.49z M49.88,36.8
		c0,2.77-1.35,5.37-3.62,6.96L30,55.17L13.78,43.76c-2.26-1.59-3.61-4.19-3.61-6.95V9.01C13.06,7.87,22.27,4.5,30,4.5
		c7.72,0,16.98,3.38,19.88,4.51C49.88,9.01,49.88,36.8,49.88,36.8z"/>
	<path d="M19.41,27.29c-0.2-0.2-0.51-0.2-0.71,0l-1.41,1.41c-0.2,0.2-0.2,0.51,0,0.71l7.29,7.29c0.78,0.78,2.05,0.78,2.83,0
		L42.7,21.41c0.2-0.2,0.2-0.51,0-0.71c-0.98-0.98-2.56-0.98-3.54,0L26,33.88L19.41,27.29z"/>
</g>
</svg>
