<?xml version="1.0" encoding="utf-8"?>
<!-- Generator: Adobe Illustrator 21.1.0, SVG Export Plug-In . SVG Version: 6.00 Build 0)  -->
<svg version="1.1" id="eps" xmlns="http://www.w3.org/2000/svg" xmlns:xlink="http://www.w3.org/1999/xlink" x="0px" y="0px"
	 viewBox="0 0 60 60" style="enable-background:new 0 0 60 60;" xml:space="preserve">
<g>
	<path d="M30,1.5C14.29,1.5,1.5,14.29,1.5,30S14.29,58.5,30,58.5S58.5,45.71,58.5,30S45.71,1.5,30,1.5z M30,55.5
		C15.94,55.5,4.5,44.06,4.5,30S15.94,4.5,30,4.5S55.5,15.94,55.5,30S44.06,55.5,30,55.5z"/>
	<path d="M42.17,19.71L25,36.88l-8.59-8.59c-0.2-0.2-0.51-0.2-0.71,0l-1.41,1.41c-0.2,0.2-0.2,0.51,0,0.71l9.29,9.29
		c0.78,0.78,2.05,0.78,2.83,0L45.7,20.41c0.2-0.2,0.2-0.51,0-0.71C44.73,18.73,43.15,18.73,42.17,19.71z"/>
</g>
</svg>
