<?xml version="1.0" encoding="utf-8"?>
<!-- Generator: Adobe Illustrator 21.1.0, SVG Export Plug-In . SVG Version: 6.00 Build 0)  -->
<svg version="1.1" id="eps" xmlns="http://www.w3.org/2000/svg" xmlns:xlink="http://www.w3.org/1999/xlink" x="0px" y="0px"
	 viewBox="0 0 60 60" style="enable-background:new 0 0 60 60;" xml:space="preserve">
<g>
	<path d="M56.5,1.5h-53c-1.1,0-2,0.9-2,2V47c0,6.35,5.15,11.5,11.5,11.5h43.5c1.1,0,2-0.9,2-2v-53C58.5,2.4,57.6,1.5,56.5,1.5z
		 M55.5,55.5H13c-4.69,0-8.5-3.81-8.5-8.5V4.5h51V55.5z"/>
	<path d="M22.59,41.71c0.78,0.78,2.05,0.78,2.83,0l23.29-23.29c0.2-0.2,0.2-0.51,0-0.71c-0.98-0.98-2.56-0.98-3.54,0L24,38.88
		L13.94,28.81c-0.2-0.2-0.51-0.2-0.71,0l-1.41,1.41c-0.2,0.2-0.2,0.51,0,0.71L22.59,41.71z"/>
</g>
</svg>
