<?xml version="1.0" encoding="utf-8"?>
<!-- Generator: Adobe Illustrator 21.1.0, SVG Export Plug-In . SVG Version: 6.00 Build 0)  -->
<svg version="1.1" id="EPS" xmlns="http://www.w3.org/2000/svg" xmlns:xlink="http://www.w3.org/1999/xlink" x="0px" y="0px"
	 viewBox="0 0 60 60" style="enable-background:new 0 0 60 60;" xml:space="preserve">
<g>
	<path d="M43.74,25.42C43.73,17.75,37.57,11.51,30,11.51s-13.74,6.25-13.73,13.88c0,0.14-0.08,3.48,2.22,8.15
		c0.7,1.43,1.35,2.52,1.97,3.57c1.36,2.3,2.55,4.3,3.84,9.25c0.03,0.1,0.09,0.34,0.16,0.63c0.22,0.89,1.02,1.52,1.94,1.52h7.2
		c0.96,0,1.78-0.68,1.96-1.62c0.07-0.34,0.13-0.64,0.15-0.76c1.01-4.69,2.25-6.64,3.67-8.87c0.69-1.09,1.41-2.22,2.15-3.72
		C43.72,29.06,43.74,25.8,43.74,25.42z M38.83,32.21c-0.67,1.35-1.34,2.41-1.99,3.43c-1.51,2.38-2.94,4.63-4.07,9.86h-5.6
		c-1.38-5.3-2.72-7.55-4.14-9.93c-0.59-1-1.21-2.04-1.86-3.36c-1.94-3.94-1.91-6.71-1.91-6.78c0-6.03,4.82-10.93,10.74-10.93
		s10.74,4.9,10.74,10.93v0.05C40.74,25.51,40.77,28.27,38.83,32.21z"/>
	<path d="M34,50.53h-8c-0.28,0-0.5,0.22-0.5,0.5c0,1.35,1.09,2.44,2.44,2.44H34c0.28,0,0.5-0.22,0.5-0.5v-1.94
		C34.5,50.75,34.28,50.53,34,50.53z"/>
	<path d="M32.5,55.5h-5c-0.28,0-0.5,0.22-0.5,0.5v0.06c0,1.35,1.09,2.44,2.44,2.44h3.06c0.28,0,0.5-0.22,0.5-0.5v-2
		C33,55.72,32.78,55.5,32.5,55.5z"/>
	<path d="M29,9h2c0.28,0,0.5-0.22,0.5-0.5v-3C31.5,4.12,30.38,3,29,3l0,0c-0.28,0-0.5,0.22-0.5,0.5v5C28.5,8.78,28.72,9,29,9z"/>
	<path d="M14,26v-2c0-0.28-0.22-0.5-0.5-0.5h-3C9.12,23.5,8,24.62,8,26l0,0c0,0.28,0.22,0.5,0.5,0.5h5C13.78,26.5,14,26.28,14,26z"
		/>
	<path d="M51.5,23.5h-5c-0.28,0-0.5,0.22-0.5,0.5v2c0,0.28,0.22,0.5,0.5,0.5h3c1.38,0,2.5-1.12,2.5-2.5l0,0
		C52,23.72,51.78,23.5,51.5,23.5z"/>
	<path d="M16.94,14.71c0.2,0.2,0.51,0.2,0.71,0l1.41-1.41c0.2-0.2,0.2-0.51,0-0.71l-2.23-2.23c-0.98-0.98-2.56-0.98-3.53,0l0,0
		c-0.2,0.2-0.2,0.51,0,0.71L16.94,14.71z"/>
	<path d="M42.35,14.71c0.2,0.2,0.51,0.2,0.71,0l2.23-2.23c0.98-0.98,0.98-2.56,0-3.53l0,0c-0.2-0.2-0.51-0.2-0.71,0l-3.65,3.65
		c-0.2,0.2-0.2,0.51,0,0.71L42.35,14.71z"/>
	<path d="M16.29,35.29c-0.2-0.2-0.51-0.2-0.71,0l-2.12,2.12c-0.98,0.98-0.98,2.56,0,3.53c0.2,0.2,0.51,0.2,0.71,0l3.54-3.54
		c0.2-0.2,0.2-0.51,0-0.71L16.29,35.29z"/>
	<path d="M44.41,35.29c-0.2-0.2-0.51-0.2-0.71,0l-1.41,1.41c-0.2,0.2-0.2,0.51,0,0.71l2.12,2.12c0.98,0.98,2.56,0.98,3.53,0l0,0
		c0.2-0.2,0.2-0.51,0-0.71L44.41,35.29z"/>
</g>
</svg>
