<?xml version="1.0" encoding="utf-8"?>
<!-- Generator: Adobe Illustrator 21.1.0, SVG Export Plug-In . SVG Version: 6.00 Build 0)  -->
<svg version="1.1" id="eps" xmlns="http://www.w3.org/2000/svg" xmlns:xlink="http://www.w3.org/1999/xlink" x="0px" y="0px"
	 viewBox="0 0 60 60" style="enable-background:new 0 0 60 60;" xml:space="preserve">
<g>
	<path d="M9.5,28c-1.1,0-2,0.9-2,2v12c0,1.1,0.9,2,2,2h10c1.1,0,2-0.9,2-2V30c0-1.1-0.9-2-2-2H9.5z M18.5,41h-8V31h8V41z"/>
	<path d="M22.14,23h1.27c0.07,0,0.12-0.02,0.16-0.05c0.04-0.04,0.05-0.09,0.05-0.16v-2.07c0-0.42,0-0.76-0.01-1.01
		s-0.02-0.53-0.04-0.84h0.03c0.06,0.16,0.13,0.33,0.21,0.49s0.24,0.52,0.51,1.06l1.2,2.41c0.03,0.06,0.06,0.1,0.1,0.12
		c0.04,0.03,0.09,0.04,0.14,0.04h1.2c0.07,0,0.12-0.02,0.16-0.05c0.04-0.04,0.05-0.09,0.05-0.16v-6.97c0-0.07-0.02-0.12-0.05-0.16
		c-0.04-0.04-0.09-0.05-0.16-0.05H25.7c-0.07,0-0.12,0.02-0.16,0.05s-0.05,0.09-0.05,0.16v2.07c0,0.42,0,0.76,0.01,1.01
		s0.02,0.53,0.04,0.84h-0.03c-0.09-0.24-0.19-0.48-0.29-0.71s-0.24-0.51-0.41-0.85l-1.21-2.42c-0.03-0.05-0.06-0.09-0.1-0.11
		c-0.04-0.02-0.09-0.04-0.14-0.04h-1.2c-0.07,0-0.12,0.02-0.16,0.05c-0.04,0.04-0.05,0.09-0.05,0.16v6.97
		c0,0.07,0.02,0.12,0.05,0.16C22.02,22.98,22.07,23,22.14,23z"/>
	<path d="M28.75,23h3.42c0.07,0,0.12-0.02,0.16-0.05c0.04-0.04,0.05-0.09,0.05-0.16V21.7c0-0.07-0.02-0.12-0.05-0.16
		c-0.04-0.04-0.09-0.05-0.16-0.05h-1.88v-1.51h1.59c0.07,0,0.12-0.02,0.16-0.05s0.05-0.09,0.05-0.16v-1.02
		c0-0.07-0.02-0.12-0.05-0.16c-0.04-0.04-0.09-0.05-0.16-0.05h-1.59v-1.46h1.8c0.07,0,0.12-0.02,0.16-0.05s0.05-0.09,0.05-0.16
		v-1.04c0-0.07-0.02-0.12-0.05-0.16s-0.09-0.05-0.16-0.05h-3.35c-0.07,0-0.12,0.02-0.16,0.05c-0.04,0.04-0.05,0.09-0.05,0.16v6.97
		c0,0.07,0.02,0.12,0.05,0.16C28.62,22.98,28.68,23,28.75,23z"/>
	<path d="M34.57,22.83c0.02,0.06,0.05,0.1,0.09,0.13C34.7,22.99,34.75,23,34.82,23h1.23c0.06,0,0.12-0.02,0.16-0.05
		c0.04-0.03,0.06-0.08,0.07-0.14l0.85-4.47h0.03L38,22.81c0.01,0.06,0.04,0.11,0.08,0.14c0.04,0.03,0.09,0.05,0.15,0.05h1.26
		c0.06,0,0.12-0.01,0.16-0.04s0.07-0.07,0.09-0.13c0.44-1.23,0.77-2.44,1.01-3.62c0.24-1.19,0.37-2.32,0.4-3.39
		c0-0.07-0.02-0.12-0.05-0.16c-0.04-0.04-0.09-0.05-0.16-0.05h-1.25c-0.07,0-0.12,0.02-0.16,0.05c-0.04,0.04-0.06,0.09-0.06,0.16
		c-0.03,0.83-0.09,1.59-0.18,2.29s-0.22,1.39-0.38,2.08h-0.03l-0.83-4.39c-0.01-0.06-0.03-0.11-0.07-0.14
		c-0.04-0.03-0.09-0.05-0.16-0.05h-1.31c-0.06,0-0.12,0.02-0.15,0.05c-0.04,0.03-0.06,0.08-0.08,0.14l-0.82,4.39h-0.03
		c-0.16-0.69-0.29-1.38-0.38-2.07s-0.15-1.46-0.18-2.29c-0.01-0.07-0.03-0.12-0.06-0.16c-0.04-0.04-0.09-0.05-0.16-0.05h-1.3
		c-0.07,0-0.12,0.02-0.16,0.05c-0.04,0.04-0.05,0.09-0.05,0.16c0.04,1.08,0.18,2.21,0.42,3.4C33.8,20.4,34.14,21.61,34.57,22.83z"/>
	<path d="M42.61,22.95c0.3,0.12,0.65,0.18,1.05,0.18c0.74,0,1.32-0.2,1.76-0.6s0.65-0.93,0.65-1.59c0-0.35-0.06-0.67-0.17-0.94
		c-0.11-0.28-0.28-0.53-0.51-0.76c-0.09-0.09-0.2-0.19-0.32-0.28s-0.3-0.22-0.55-0.39c-0.39-0.25-0.64-0.45-0.75-0.61
		s-0.17-0.32-0.17-0.5c0-0.16,0.04-0.29,0.12-0.39c0.08-0.09,0.19-0.14,0.34-0.14c0.14,0,0.25,0.04,0.33,0.12s0.16,0.21,0.21,0.39
		c0.02,0.07,0.06,0.12,0.1,0.15c0.05,0.02,0.11,0.03,0.18,0.01l1.01-0.31c0.06-0.01,0.11-0.04,0.13-0.09
		c0.03-0.05,0.03-0.1,0.01-0.17c-0.14-0.49-0.38-0.88-0.72-1.15c-0.34-0.28-0.76-0.41-1.27-0.41c-0.68,0-1.21,0.19-1.61,0.56
		c-0.39,0.37-0.59,0.88-0.59,1.51c0,0.33,0.05,0.62,0.16,0.88c0.11,0.26,0.28,0.51,0.53,0.76c0.07,0.07,0.19,0.17,0.36,0.3
		c0.17,0.13,0.38,0.29,0.65,0.48c0.27,0.2,0.46,0.38,0.56,0.53c0.1,0.15,0.16,0.31,0.16,0.47c0,0.21-0.06,0.38-0.17,0.49
		c-0.11,0.11-0.28,0.17-0.5,0.17c-0.14,0-0.28-0.03-0.4-0.09c-0.12-0.06-0.25-0.16-0.37-0.29c-0.05-0.06-0.1-0.09-0.16-0.09
		s-0.11,0.03-0.16,0.09l-0.71,0.83c-0.04,0.04-0.06,0.09-0.06,0.14s0.02,0.1,0.06,0.15C42.04,22.62,42.31,22.82,42.61,22.95z"/>
	<circle cx="43.5" cy="42" r="1.5"/>
	<path d="M56.5,14.5h-4v-4c0-1.1-0.9-2-2-2H17.21c-0.53,0-1.04,0.21-1.41,0.59L2.09,22.79C1.71,23.17,1.5,23.67,1.5,24.2V40
		c0,6.35,5.15,11.5,11.5,11.5h37h2.5h4c1.1,0,2-0.9,2-2v-33C58.5,15.4,57.6,14.5,56.5,14.5z M16,13.12V22H7.12L16,13.12z M49.5,48.5
		H13c-4.69,0-8.5-3.81-8.5-8.5V25H17c1.1,0,2-0.9,2-2V11.5h30.5V48.5z M55.5,48.5h-3v-31h3V48.5z"/>
	<path d="M44.5,28.5h-18c-0.28,0-0.5,0.22-0.5,0.5c0,1.38,1.12,2.5,2.5,2.5h16c0.28,0,0.5-0.22,0.5-0.5v-2
		C45,28.72,44.78,28.5,44.5,28.5z"/>
	<path d="M44.5,34.5h-18c-0.28,0-0.5,0.22-0.5,0.5c0,1.38,1.12,2.5,2.5,2.5h16c0.28,0,0.5-0.22,0.5-0.5v-2
		C45,34.72,44.78,34.5,44.5,34.5z"/>
	<path d="M26,41.01c0.01,1.37,1.12,2.49,2.5,2.49h10c0.28,0,0.5-0.22,0.5-0.5v-2c0-0.28-0.22-0.5-0.5-0.5h-12
		C26.22,40.5,26,40.73,26,41.01z"/>
</g>
</svg>
