<?xml version="1.0" encoding="utf-8"?>
<!-- Generator: Adobe Illustrator 21.1.0, SVG Export Plug-In . SVG Version: 6.00 Build 0)  -->
<svg version="1.1" id="eps" xmlns="http://www.w3.org/2000/svg" xmlns:xlink="http://www.w3.org/1999/xlink" x="0px" y="0px"
	 viewBox="0 0 60 60" style="enable-background:new 0 0 60 60;" xml:space="preserve">
<g>
	<path d="M30,1.5C14.29,1.5,1.5,14.29,1.5,30S14.29,58.5,30,58.5S58.5,45.71,58.5,30S45.71,1.5,30,1.5z M30,55.5
		C15.94,55.5,4.5,44.06,4.5,30S15.94,4.5,30,4.5S55.5,15.94,55.5,30S44.06,55.5,30,55.5z"/>
	<path d="M31.89,23.97c-1.44-0.5-2.44-0.97-2.99-1.39s-0.83-0.95-0.83-1.6c0-0.5,0.22-0.9,0.65-1.19s1.02-0.43,1.76-0.43
		c0.67,0,1.25,0.13,1.73,0.4c0.48,0.26,0.85,0.66,1.12,1.19c0.1,0.22,0.21,0.35,0.34,0.41s0.31,0.04,0.52-0.05l2.09-0.79
		c0.17-0.05,0.28-0.14,0.34-0.27c0.06-0.13,0.07-0.28,0.02-0.45c-0.41-1.3-1.15-2.29-2.23-2.99c-1.08-0.7-2.42-1.04-4.03-1.04
		c-1.92,0-3.47,0.5-4.64,1.49c-1.18,1-1.76,2.32-1.76,3.98c0,0.7,0.09,1.33,0.27,1.89s0.45,1.09,0.81,1.57
		c-0.96,0.53-1.69,1.18-2.18,1.96c-0.49,0.78-0.74,1.69-0.74,2.72c0,1.42,0.43,2.59,1.3,3.51c0.86,0.92,2.36,1.78,4.5,2.57
		c1.56,0.58,2.61,1.09,3.15,1.53s0.81,0.99,0.81,1.64c0,0.53-0.25,0.94-0.74,1.24c-0.49,0.3-1.17,0.45-2.03,0.45
		c-0.65,0-1.28-0.11-1.89-0.32s-1.16-0.52-1.64-0.9c-0.19-0.14-0.36-0.2-0.5-0.16s-0.26,0.16-0.36,0.38l-1.08,2.27
		c-0.07,0.17-0.09,0.32-0.05,0.45s0.13,0.25,0.27,0.34c0.74,0.55,1.57,0.97,2.48,1.24c0.91,0.28,1.91,0.41,2.99,0.41
		c2.09,0,3.75-0.52,4.99-1.57c1.24-1.04,1.85-2.44,1.85-4.19c0-0.7-0.1-1.34-0.31-1.94s-0.52-1.15-0.95-1.66
		c0.94-0.5,1.65-1.14,2.14-1.91c0.49-0.77,0.74-1.66,0.74-2.66c0-1.46-0.46-2.68-1.39-3.64S33.98,24.67,31.89,23.97z M33.37,31.95
		c-0.22,0.32-0.54,0.61-0.97,0.85c-0.31-0.17-0.66-0.34-1.04-0.5c-0.38-0.17-0.83-0.34-1.33-0.5c-1.49-0.53-2.5-1-3.02-1.42
		c-0.53-0.42-0.79-1-0.79-1.75c0-0.43,0.11-0.82,0.32-1.15c0.22-0.34,0.53-0.62,0.94-0.86c0.38,0.19,0.77,0.37,1.15,0.52
		s0.76,0.29,1.12,0.41c1.49,0.5,2.52,0.99,3.1,1.46s0.86,1.07,0.86,1.82C33.69,31.24,33.58,31.62,33.37,31.95z"/>
</g>
</svg>
