<?xml version="1.0" encoding="utf-8"?>
<!-- Generator: Adobe Illustrator 21.1.0, SVG Export Plug-In . SVG Version: 6.00 Build 0)  -->
<svg version="1.1" id="eps" xmlns="http://www.w3.org/2000/svg" xmlns:xlink="http://www.w3.org/1999/xlink" x="0px" y="0px"
	 viewBox="0 0 60 60" style="enable-background:new 0 0 60 60;" xml:space="preserve">
<g>
	<path d="M56.5,1.45h-53c-1.1,0-2,0.9-2,2L1.51,36c0,6.34,5.16,11.5,11.5,11.5H23.5v8.21c0,1.83,2.25,2.7,3.48,1.35l8.68-9.55H56.5
		c1.1,0,2-0.9,2-2V3.45C58.5,2.34,57.6,1.45,56.5,1.45z M55.5,44.5H35.22c-0.56,0-1.1,0.24-1.48,0.65l-7.24,7.96V46.5
		c0-1.1-0.9-2-2-2H13.01c-4.69,0-8.5-3.8-8.5-8.5L4.5,4.45h51V44.5z"/>
	<path d="M29.53,31.71c-0.84,0-1.52,0.26-2.03,0.79c-0.52,0.53-0.77,1.21-0.77,2.05c0,0.82,0.26,1.48,0.79,2s1.2,0.77,2.02,0.77
		c0.84,0,1.52-0.26,2.03-0.77c0.52-0.52,0.77-1.18,0.77-2c0-0.86-0.26-1.55-0.77-2.07C31.05,31.97,30.37,31.71,29.53,31.71z"/>
	<path d="M23.16,17.78l2.45,0.97c0.22,0.07,0.39,0.08,0.52,0.02c0.13-0.06,0.23-0.2,0.31-0.41c0.26-0.84,0.67-1.48,1.21-1.91
		s1.21-0.65,2-0.65c0.82,0,1.45,0.25,1.91,0.74s0.68,1.18,0.68,2.07c0,0.96-0.34,1.81-1.03,2.56c-0.68,0.74-1.84,1.44-3.47,2.09
		c-0.17,0.05-0.29,0.13-0.38,0.25c-0.08,0.12-0.11,0.28-0.09,0.47l0.29,4.72c0.02,0.19,0.09,0.34,0.2,0.43s0.25,0.14,0.41,0.14h2.95
		c0.19,0,0.34-0.05,0.45-0.14c0.11-0.1,0.17-0.24,0.2-0.43l0.22-3.82c1.82-0.86,3.12-1.85,3.89-2.95s1.15-2.41,1.15-3.92
		c0-1.92-0.62-3.44-1.87-4.57s-2.94-1.69-5.08-1.69c-1.85,0-3.41,0.47-4.7,1.4c-1.28,0.94-2.14,2.23-2.57,3.89
		c-0.05,0.17-0.04,0.32,0.02,0.45C22.88,17.6,22.99,17.7,23.16,17.78z"/>
</g>
</svg>
