<?xml version="1.0" encoding="utf-8"?>
<!-- Generator: Adobe Illustrator 21.1.0, SVG Export Plug-In . SVG Version: 6.00 Build 0)  -->
<svg version="1.1" id="EPS" xmlns="http://www.w3.org/2000/svg" xmlns:xlink="http://www.w3.org/1999/xlink" x="0px" y="0px"
	 viewBox="0 0 60 60" style="enable-background:new 0 0 60 60;" xml:space="preserve">
<g>
	<path d="M57.91,17.61L42.39,2.09c-0.38-0.38-0.88-0.59-1.41-0.59H19.02c-0.53,0-1.04,0.21-1.41,0.59L2.09,17.61
		c-0.38,0.38-0.59,0.88-0.59,1.41v21.95c0,0.53,0.21,1.04,0.59,1.41L17.61,57.9c0.38,0.38,0.88,0.59,1.41,0.59h21.95
		c0.53,0,1.04-0.21,1.41-0.59L57.9,42.38c0.38-0.38,0.59-0.88,0.59-1.41V19.02C58.5,18.49,58.29,17.98,57.91,17.61z M55.5,40.56
		L40.56,55.5H19.44L4.5,40.56V19.44L19.44,4.5h21.12L55.5,19.44V40.56z"/>
	<path d="M16.51,30.04c-0.36-0.36-0.77-0.64-1.23-0.83s-0.89-0.37-1.3-0.53s-0.75-0.33-1.04-0.52c-0.28-0.19-0.43-0.45-0.43-0.79
		c0-0.28,0.1-0.5,0.29-0.65s0.45-0.23,0.77-0.23c0.29,0,0.57,0.09,0.82,0.26c0.25,0.18,0.46,0.39,0.6,0.65
		c0.07,0.12,0.14,0.2,0.21,0.22c0.07,0.02,0.17,0.01,0.3-0.05l1.65-0.82c0.2-0.09,0.26-0.24,0.17-0.44
		c-0.34-0.74-0.82-1.31-1.43-1.71c-0.61-0.4-1.36-0.6-2.24-0.6c-0.63,0-1.2,0.08-1.71,0.25c-0.5,0.17-0.94,0.41-1.29,0.72
		c-0.36,0.31-0.63,0.69-0.82,1.12c-0.19,0.44-0.29,0.92-0.29,1.45c0,0.54,0.08,1,0.25,1.36c0.16,0.36,0.39,0.69,0.69,0.99
		c0.37,0.37,0.79,0.66,1.24,0.87c0.45,0.2,0.88,0.39,1.28,0.55c0.4,0.17,0.74,0.34,1.01,0.53c0.27,0.19,0.41,0.45,0.41,0.77
		c0,0.29-0.11,0.52-0.33,0.69s-0.58,0.25-1.06,0.25c-0.51,0-0.95-0.09-1.33-0.26s-0.69-0.36-0.94-0.55c-0.2-0.18-0.37-0.15-0.49,0.1
		l-0.9,1.67c-0.09,0.17-0.07,0.32,0.07,0.44c0.32,0.28,0.77,0.55,1.37,0.81c0.6,0.25,1.33,0.38,2.22,0.38c0.74,0,1.38-0.1,1.94-0.3
		c0.56-0.2,1.02-0.46,1.39-0.8s0.65-0.72,0.83-1.17c0.19-0.44,0.28-0.91,0.28-1.41c0-0.58-0.09-1.06-0.26-1.44
		C17.02,30.66,16.79,30.33,16.51,30.04z"/>
	<path d="M27.1,24.21h-8.43c-0.23,0-0.34,0.11-0.34,0.34v1.79c0,0.23,0.11,0.34,0.34,0.34h2.74v8.93c0,0.23,0.11,0.34,0.34,0.34
		h2.28c0.23,0,0.34-0.11,0.34-0.34v-8.93h2.74c0.23,0,0.34-0.11,0.34-0.34v-1.79C27.44,24.33,27.33,24.21,27.1,24.21z"/>
	<path d="M38.38,25.63c-0.52-0.53-1.14-0.93-1.87-1.21S34.95,24,34.04,24s-1.74,0.14-2.48,0.42c-0.74,0.28-1.36,0.68-1.87,1.21
		s-0.9,1.16-1.18,1.91s-0.42,1.59-0.42,2.53s0.14,1.79,0.42,2.53c0.28,0.75,0.67,1.39,1.18,1.91c0.51,0.53,1.13,0.93,1.87,1.21
		s1.56,0.42,2.48,0.42s1.74-0.14,2.47-0.42s1.35-0.68,1.87-1.21s0.91-1.16,1.18-1.91s0.41-1.59,0.41-2.53s-0.14-1.78-0.41-2.53
		S38.9,26.16,38.38,25.63z M36.17,32.66c-0.53,0.59-1.24,0.88-2.13,0.88c-0.91,0-1.62-0.29-2.15-0.88s-0.79-1.45-0.79-2.58
		c0-1.14,0.26-2.02,0.79-2.63c0.53-0.61,1.24-0.91,2.15-0.91c0.9,0,1.61,0.3,2.13,0.91c0.53,0.61,0.79,1.48,0.79,2.63
		C36.96,31.21,36.7,32.07,36.17,32.66z"/>
	<path d="M41.5,26.63h0.77v8.98c0,0.23,0.11,0.34,0.34,0.34h2.28c0.23,0,0.34-0.11,0.34-0.34v-3.09h0.9c1.69,0,2.99-0.38,3.89-1.13
		c0.91-0.75,1.36-1.8,1.36-3.14c0-1.33-0.43-2.33-1.28-3.01s-2.14-1.02-3.87-1.02H41.5c-0.23,0-0.34,0.11-0.34,0.34v1.73
		C41.16,26.51,41.27,26.63,41.5,26.63z M45.22,26.61h0.93c0.77,0,1.33,0.14,1.69,0.43c0.36,0.29,0.54,0.73,0.54,1.33
		c0,0.58-0.18,1.02-0.54,1.33s-0.93,0.47-1.7,0.47h-0.92V26.61z"/>
</g>
</svg>
