<?xml version="1.0" encoding="utf-8"?>
<!-- Generator: Adobe Illustrator 21.1.0, SVG Export Plug-In . SVG Version: 6.00 Build 0)  -->
<svg version="1.1" id="eps" xmlns="http://www.w3.org/2000/svg" xmlns:xlink="http://www.w3.org/1999/xlink" x="0px" y="0px"
	 viewBox="0 0 60 60" style="enable-background:new 0 0 60 60;" xml:space="preserve">
<g>
	<path d="M30,1.5C14.29,1.5,1.5,14.29,1.5,30S14.29,58.5,30,58.5S58.5,45.71,58.5,30S45.71,1.5,30,1.5z M30,55.5
		C15.94,55.5,4.5,44.06,4.5,30S15.94,4.5,30,4.5S55.5,15.94,55.5,30S44.06,55.5,30,55.5z"/>
	<circle cx="22" cy="21" r="3"/>
	<circle cx="38" cy="21" r="3"/>
	<path d="M38.53,34h-7.36c-3.05,0-5.98,1.21-8.13,3.37l-2.72,2.72c-0.2,0.2-0.2,0.51,0,0.71l1.41,1.41c0.2,0.2,0.51,0.2,0.71,0
		l2.72-2.72c1.6-1.59,3.76-2.49,6.02-2.49h5.36c1.38,0,2.5-1.12,2.5-2.5C39.03,34.22,38.81,34,38.53,34z"/>
</g>
</svg>
