<?xml version="1.0" encoding="utf-8"?>
<!-- Generator: Adobe Illustrator 21.1.0, SVG Export Plug-In . SVG Version: 6.00 Build 0)  -->
<svg version="1.1" id="eps" xmlns="http://www.w3.org/2000/svg" xmlns:xlink="http://www.w3.org/1999/xlink" x="0px" y="0px"
	 viewBox="0 0 60 60" style="enable-background:new 0 0 60 60;" xml:space="preserve">
<g>
	<path d="M30,1.5C14.29,1.5,1.5,14.29,1.5,30S14.29,58.5,30,58.5S58.5,45.71,58.5,30S45.71,1.5,30,1.5z M30,55.5
		C15.94,55.5,4.5,44.06,4.5,30S15.94,4.5,30,4.5S55.5,15.94,55.5,30S44.06,55.5,30,55.5z"/>
	<circle cx="22" cy="21" r="3"/>
	<circle cx="38" cy="21" r="3"/>
	<path d="M45.93,30.67c-1.28-0.23-2.53,0.56-2.87,1.82v0.01c-1.17,4.33-4.18,7.85-8.32,9.57c-0.27,0.11-0.55,0.21-0.83,0.3
		c-2.41,0.8-6.35,0.63-8.7-0.32c-0.02-0.01-0.03-0.01-0.05-0.02c-4.05-1.69-7.06-5.2-8.22-9.53c-0.06-0.22-0.25-1.19-0.37-1.79
		c-0.05-0.27-0.31-0.44-0.58-0.39l-1.97,0.36c-0.27,0.05-0.45,0.31-0.4,0.58c0.09,0.46,0.21,1.09,0.24,1.24
		c1.25,5.59,5,10.15,10.16,12.3l0.11,0.04c0.32,0.13,0.64,0.25,0.97,0.36c1.57,0.54,3.24,0.8,4.9,0.8s3.33-0.26,4.91-0.79
		c0.33-0.11,0.65-0.23,0.97-0.36l0.11-0.04c5.16-2.15,8.92-6.71,10.16-12.3c0.03-0.14,0.14-0.73,0.23-1.19
		C46.43,31.02,46.23,30.73,45.93,30.67z"/>
</g>
</svg>
