<?xml version="1.0" encoding="utf-8"?>
<!-- Generator: Adobe Illustrator 21.1.0, SVG Export Plug-In . SVG Version: 6.00 Build 0)  -->
<svg version="1.1" id="eps" xmlns="http://www.w3.org/2000/svg" xmlns:xlink="http://www.w3.org/1999/xlink" x="0px" y="0px"
	 viewBox="0 0 60 60" style="enable-background:new 0 0 60 60;" xml:space="preserve">
<g>
	<path d="M30,1.5C14.29,1.5,1.5,14.29,1.5,30S14.29,58.5,30,58.5S58.5,45.71,58.5,30S45.71,1.5,30,1.5z M30,55.5
		C15.94,55.5,4.5,44.06,4.5,30S15.94,4.5,30,4.5S55.5,15.94,55.5,30S44.06,55.5,30,55.5z"/>
	<circle cx="22" cy="21" r="3"/>
	<circle cx="38" cy="21" r="3"/>
	<path d="M45.48,40.58c-3.42-5.49-9.38-8.72-15.87-8.57c-6.27,0.14-11.97,3.68-15.28,9l-0.3,0.48c-0.15,0.23-0.07,0.54,0.16,0.69
		l1.7,1.06c0.23,0.15,0.54,0.07,0.69-0.16l0.32-0.52c2.76-4.44,7.51-7.42,12.74-7.55c4.9-0.12,9.44,2.05,12.38,5.85
		c0.08,0.11,0.24,0.33,0.42,0.61c0.75,1.12,2.26,1.45,3.4,0.74l0.04-0.02c0.23-0.15,0.31-0.45,0.16-0.69L45.48,40.58z"/>
</g>
</svg>
