<?xml version="1.0" encoding="utf-8"?>
<!-- Generator: Adobe Illustrator 21.1.0, SVG Export Plug-In . SVG Version: 6.00 Build 0)  -->
<svg version="1.1" id="eps" xmlns="http://www.w3.org/2000/svg" xmlns:xlink="http://www.w3.org/1999/xlink" x="0px" y="0px"
	 viewBox="0 0 60 60" style="enable-background:new 0 0 60 60;" xml:space="preserve">
<g>
	<path d="M30,1.5C14.29,1.5,1.5,14.29,1.5,30S14.29,58.5,30,58.5S58.5,45.71,58.5,30S45.71,1.5,30,1.5z M30,55.5
		C15.94,55.5,4.5,44.06,4.5,30S15.94,4.5,30,4.5S55.5,15.94,55.5,30S44.06,55.5,30,55.5z"/>
	<circle cx="22" cy="21" r="3"/>
	<circle cx="38" cy="21" r="3"/>
	<path d="M45.44,28.5H14.56c-0.59,0-1.06,0.48-1.06,1.06c0,9.23,7.55,17.09,16.78,16.93C39.25,46.35,46.5,39,46.5,30v-0.44
		C46.5,28.98,46.02,28.5,45.44,28.5z M30,43.5c-6.94,0-12.67-5.26-13.42-12h26.83C42.67,38.24,36.94,43.5,30,43.5z"/>
</g>
</svg>
