<?xml version="1.0" encoding="utf-8"?>
<!-- Generator: Adobe Illustrator 21.1.0, SVG Export Plug-In . SVG Version: 6.00 Build 0)  -->
<svg version="1.1" id="eps" xmlns="http://www.w3.org/2000/svg" xmlns:xlink="http://www.w3.org/1999/xlink" x="0px" y="0px"
	 viewBox="0 0 60 60" style="enable-background:new 0 0 60 60;" xml:space="preserve">
<g>
	<path d="M30,1.5C14.29,1.5,1.5,14.29,1.5,30S14.29,58.5,30,58.5S58.5,45.71,58.5,30S45.71,1.5,30,1.5z M30,55.5
		C15.94,55.5,4.5,44.06,4.5,30S15.94,4.5,30,4.5S55.5,15.94,55.5,30S44.06,55.5,30,55.5z"/>
	<circle cx="22" cy="21" r="3"/>
	<circle cx="38" cy="21" r="3"/>
	<path d="M45.9,34.81l-0.72-0.25c-0.88-0.3-1.84-0.06-2.51,0.58c-0.9,0.86-2.38,1.96-4.13,2.85C35.98,39.31,33.02,40,30,40
		s-5.98-0.69-8.55-2.01c-2.36-1.21-4.24-2.8-4.85-3.65c-0.13-0.19-0.36-0.27-0.58-0.19l-1.93,0.66c-0.3,0.1-0.43,0.44-0.28,0.72
		c1.13,2.09,4.5,4.23,6.26,5.13C23.07,42.19,26.5,43,30,43s6.93-0.81,9.92-2.34c1.76-0.9,5.13-3.04,6.26-5.13
		C46.33,35.25,46.2,34.91,45.9,34.81z"/>
</g>
</svg>
