<?xml version="1.0" encoding="utf-8"?>
<!-- Generator: Adobe Illustrator 22.1.0, SVG Export Plug-In . SVG Version: 6.00 Build 0)  -->
<svg version="1.1" id="Ebene_2_1_" xmlns="http://www.w3.org/2000/svg" xmlns:xlink="http://www.w3.org/1999/xlink" x="0px" y="0px"
	 viewBox="0 0 60 60" style="enable-background:new 0 0 60 60;" xml:space="preserve">
<title>quality</title>
<polygon points="33.5,16.9 30,9.9 26.5,17 18.8,18.1 24.3,23.6 23,31.3 30,27.7 37,31.3 35.6,23.5 41.2,18.1 "/>
<path d="M50.6,20.6C50.6,9.2,41.4,0,30,0S9.4,9.2,9.4,20.6c0,7.6,4.2,14.6,10.9,18.2l0,0l-4.9,18.3l6.4-2.2l4.5,5.1L30,45.9L33.8,60
	l4.5-5.1l6.4,2.2l-4.9-18.3C46.4,35.2,50.6,28.2,50.6,20.6z M30,38.2c-9.7,0-17.6-7.9-17.6-17.6S20.2,3,30,3
	c9.7,0,17.6,7.9,17.6,17.6c0,0,0,0,0,0C47.6,30.4,39.7,38.2,30,38.2z"/>
</svg>
