<svg id="Certificate" xmlns="http://www.w3.org/2000/svg" viewBox="0 0 60 60"><defs><style>.cls-1{fill:#1d1d1b;}</style></defs><title>Certificate_konv</title><path class="cls-1" d="M23.51,27.55q-.28-.25-.52-.52h-14v3H22.82A7.43,7.43,0,0,1,23.54,28,.34.34,0,0,0,23.51,27.55Z"/><path class="cls-1" d="M2.94,51V3h33V6.3a7.44,7.44,0,0,1,3-2.55V0h-39V54H26.26l.58-3Z"/><path class="cls-1" d="M21.09,21H8.94v3H21.3a7.33,7.33,0,0,1-.21-3Z"/><path class="cls-1" d="M25.69,15.13a.26.26,0,0,0,.12-.1H8.94v3H22.19a7.29,7.29,0,0,1,3.5-2.9Z"/><path class="cls-1" d="M8.94,9v3H26a7.48,7.48,0,0,1,1.47-3Z"/><polygon class="cls-1" points="45.09 19.49 42.22 13.71 39.35 19.55 32.95 20.46 37.55 24.98 36.45 31.36 42.22 28.34 47.99 31.36 46.86 24.94 51.5 20.42 45.09 19.49"/><path class="cls-1" d="M57.27,17.92a3.27,3.27,0,0,1-2-3.6,4.37,4.37,0,0,0-4.33-5,4.34,4.34,0,0,0-1.4.23,3.12,3.12,0,0,1-1,.17,3.22,3.22,0,0,1-2.75-1.56,4.39,4.39,0,0,0-1.48-1.48A4.32,4.32,0,0,0,42.05,6a4.4,4.4,0,0,0-3.77,2.14,3.2,3.2,0,0,1-2.73,1.53,3.11,3.11,0,0,1-1-.17,4.37,4.37,0,0,0-5.72,4.87,3.25,3.25,0,0,1-2,3.51,4.44,4.44,0,0,0-1.66,1.16,4.41,4.41,0,0,0,.36,6.24,3.32,3.32,0,0,1,.68,4.09,4.39,4.39,0,0,0,3.76,6.47,3.16,3.16,0,0,1,2.62,1.5l-3.8,19.48,5.8-2.31,4,5.42L42,44.89,45.47,60l4-5.42,5.8,2.31-3.8-19.5a3.18,3.18,0,0,1,2.62-1.49,4.39,4.39,0,0,0,3.73-6.52,3.3,3.3,0,0,1,.72-4,4.41,4.41,0,0,0-1.31-7.38ZM57,22.54a1.44,1.44,0,0,1-.37.53,6.3,6.3,0,0,0-1.37,7.71,1.4,1.4,0,0,1,.13,1.11,1.37,1.37,0,0,1-.68.83,1.38,1.38,0,0,1-.61.16,6.17,6.17,0,0,0-5.93,5,1.4,1.4,0,0,1-.6.95,1.31,1.31,0,0,1-.74.23l-.27,0a1.38,1.38,0,0,1-.59-.28,6.19,6.19,0,0,0-7.77,0,1.33,1.33,0,0,1-.84.3h-.16a1.34,1.34,0,0,1-.91-.49,1.39,1.39,0,0,1-.28-.6A6.22,6.22,0,0,0,30,32.87a1.39,1.39,0,0,1-1.36-1.43,1.4,1.4,0,0,1,.16-.61,6.33,6.33,0,0,0-1.32-7.75,1.41,1.41,0,0,1-.12-2,1.43,1.43,0,0,1,.52-.37A6.24,6.24,0,0,0,31.79,14a1.41,1.41,0,0,1,1.14-1.65h.2a1.39,1.39,0,0,1,.44.07,6.1,6.1,0,0,0,2,.33,6.22,6.22,0,0,0,5.3-3A1.4,1.4,0,0,1,42.05,9a1.32,1.32,0,0,1,.69.19,1.39,1.39,0,0,1,.46.46,6.25,6.25,0,0,0,5.32,3,6.11,6.11,0,0,0,2-.33,1.35,1.35,0,0,1,.44-.07,1.38,1.38,0,0,1,1.3.93,1.41,1.41,0,0,1,.06.64,6.29,6.29,0,0,0,3.86,6.83A1.41,1.41,0,0,1,57,22.54Z"/></svg>