<?xml version="1.0" encoding="utf-8"?>
<!-- Generator: Adobe Illustrator 22.1.0, SVG Export Plug-In . SVG Version: 6.00 Build 0)  -->
<svg version="1.1" id="Ebene_2_1_" xmlns="http://www.w3.org/2000/svg" xmlns:xlink="http://www.w3.org/1999/xlink" x="0px" y="0px"
	 viewBox="0 0 60 60" style="enable-background:new 0 0 60 60;" xml:space="preserve">
<title>secure-shopping</title>
<path d="M30,3c11.1,0,16.6,1.5,19.3,2.7c2,0.9,2.6,1.8,2.7,2.2v29.3c0,5.3-6,10.3-11.1,13.6c-3.5,2.3-7.1,4.2-10.9,5.9
	C23.2,53.8,8,45.5,8,37.2V7.9c0.1-0.3,0.7-1.2,2.7-2.2C13.4,4.5,18.9,3,30,3 M30,0C3.7,0,5,8.1,5,8.1v29.1C5,50,30,60,30,60
	s25-10,25-22.8V8.1C55,8.1,56.3,0,30,0z"/>
<polygon points="26.8,40.4 14.9,28.5 17.1,26.4 26.5,35.9 42.8,14.9 45.2,16.8 "/>
</svg>
