<svg id="Ebene_4" data-name="Ebene 4" xmlns="http://www.w3.org/2000/svg" viewBox="0 0 60 60"><title>idea-bulb-svg</title><path d="M24.08,57h12v3h-12Zm-2-3h16V51h-16ZM45.63,26.42a14.52,14.52,0,0,1-2.73,8.37c-1.62,2.65-3.29,5.38-3.29,11.71V48h-19V46.5A19.33,19.33,0,0,0,17.3,35.41c-1.44-2.46-2.92-5-2.92-9a15.63,15.63,0,0,1,31.25,0Zm-3,0a12.63,12.63,0,0,0-25.25,0c0,3.17,1.16,5.16,2.51,7.47A22.14,22.14,0,0,1,23.54,45h13.1a21.71,21.71,0,0,1,3.69-11.77C41.61,31.13,42.63,29.47,42.63,26.42ZM1,31.5H9v-3H1Zm50-3v3h8v-3ZM31.5,0h-3V8h3ZM51,6.59l-5.68,5.68,2.12,2.12,5.68-5.68Zm-42,0L6.89,8.71l5.68,5.68,2.12-2.12Z"/></svg>