<?xml version="1.0" encoding="utf-8"?>
<!-- Generator: Adobe Illustrator 20.1.0, SVG Export Plug-In . SVG Version: 6.00 Build 0)  -->
<svg version="1.1" id="Ebene_1" xmlns="http://www.w3.org/2000/svg" xmlns:xlink="http://www.w3.org/1999/xlink" x="0px" y="0px"
	 viewBox="0 0 60 60" style="enable-background:new 0 0 60 60;" xml:space="preserve">
<title>impressum</title>
<g>
	<path d="M30,0C13.4,0,0,13.4,0,30s13.4,30,30,30s30-13.4,30-30S46.6,0,30,0z M30,57C15.1,57,3,44.9,3,30S15.1,3,30,3s27,12.1,27,27
		S44.9,57,30,57z"/>
	<path d="M31,20.8c-1.8-1.8-2.9-3-2.9-4c-0.1-1.2,0.9-2.2,2.1-2.3c0.1,0,0.1,0,0.2,0c1.2,0,2.3,0.8,3.7,2.4l3.2-2.3
		c-1.7-2.4-4.4-3.8-7.2-3.8c-3.7,0-6.4,2.4-6.4,5.7c0,1.8,0.8,3.2,2.3,4.9c-3.1,0.5-5,2.6-5,5.4c0,2.5,1.5,4.4,3.9,7l4.6,4.8
		c1.7,1.7,2.7,2.8,2.7,4.3c0.1,1.3-0.9,2.3-2.2,2.4c-0.1,0-0.2,0-0.3,0c-1.2,0-2.5-0.9-4-2.7L22.5,45c1.7,2.5,4.5,4,7.5,4.1
		c4,0,6.6-2.3,6.6-6.2c0-2.1-0.9-4-2.4-5.4c3.3-0.6,4.9-2.3,4.9-5.3c0-2.4-1.4-4.7-4-7.3L31,20.8z M33.2,34.4L33.2,34.4
		c-1.5,0-2.8-1.2-4.9-3.4s-3.1-3.4-3.1-4.6c0-1,0.7-1.8,1.7-1.8c0,0,0,0,0,0c1.2,0,2.6,1.2,4.7,3.5c1.9,2,3.2,3.4,3.2,4.6
		C34.9,33.6,34.2,34.4,33.2,34.4z"/>
</g>
</svg>
