<?xml version="1.0" encoding="utf-8"?>
<!-- Generator: Adobe Illustrator 20.1.0, SVG Export Plug-In . SVG Version: 6.00 Build 0)  -->
<svg version="1.1" id="Ebene_1" xmlns="http://www.w3.org/2000/svg" xmlns:xlink="http://www.w3.org/1999/xlink" x="0px" y="0px"
	 viewBox="0 0 60 60" style="enable-background:new 0 0 60 60;" xml:space="preserve">
<title>help</title>
<g>
	<path d="M30.3,15.1c-3.7,0-6.2,2.4-6.7,6.6l3.6,0.6c0.2-2.2,1.2-3.4,2.8-3.4c1.2,0,1.9,0.7,1.9,2.1c0,2.1-2.2,4.4-3.6,7.8
		C27.5,31,27,33.3,27,35.6v0.7h3.8v-0.6c0-2,0.4-4,1.2-5.8c1.3-2.8,2.9-4.4,3.3-5.5c0.6-1.2,1-2.5,1.1-3.8
		C36.3,17.3,34,15.1,30.3,15.1z"/>
	<rect x="26.5" y="40.1" width="4.6" height="4.8"/>
	<path d="M30,0C13.4,0,0,13.4,0,30s13.4,30,30,30s30-13.4,30-30S46.6,0,30,0z M30,57C15.1,57,3,44.9,3,30S15.1,3,30,3s27,12.1,27,27
		S44.9,57,30,57z"/>
</g>
</svg>
