<?xml version="1.0" encoding="utf-8"?>
<!-- Generator: Adobe Illustrator 20.1.0, SVG Export Plug-In . SVG Version: 6.00 Build 0)  -->
<svg version="1.1" id="Ebene_1" xmlns="http://www.w3.org/2000/svg" xmlns:xlink="http://www.w3.org/1999/xlink" x="0px" y="0px"
	 viewBox="0 0 60 60" style="enable-background:new 0 0 60 60;" xml:space="preserve">
<path d="M0,0v47.1h10.7V60l21.4-12.9H60V0H0z M57,44.1H31.3l-0.7,0.4L13.7,54.7V44.1H3V3h54V44.1z"/>
<path d="M15.2,40.1h6c0.4,0,0.8-0.2,1.1-0.4c0.9,0.1,1.8,0.2,2.7,0.3h14.4c2.3,0,4.1-1.7,4.3-4c1.3-5.6,2.8-12.3,2.8-13.2
	c0-1.7-1-3.3-2.5-4.2c-0.7-0.3-1.4-0.5-2.2-0.5h-8.3c0.4-2.3,0.5-4.7,0.4-7.1v-0.2C33.9,9.4,33.3,8,32.4,7c-0.8-0.8-1.9-1.3-3.1-1.3
	c-0.3,0-0.5,0-0.8,0.1c-0.4,0.1-0.8,0.3-1.2,0.5l-1,0.6c-0.5,0.3-0.8,0.9-0.9,1.5V11c0,1.2-0.2,2.5-0.7,3.6
	c-0.5,1.2-1.2,2.2-2.1,3.1l-0.2,0.2c-0.3-0.3-0.8-0.5-1.2-0.5h-6c-0.9,0-1.7,0.8-1.7,1.7v19.3C13.5,39.4,14.3,40.1,15.2,40.1z
	 M24.4,20.3l0.4-0.5c1.1-1.2,2-2.5,2.7-4v-0.1v-0.1c0.6-1.5,0.9-3.1,0.9-4.7V9.1l0.4-0.3L29,8.8l0,0l0,0h0.2c0.3,0,0.7,0.1,0.9,0.4
	c0.5,0.5,0.8,1.1,0.9,1.8v0.2c0.1,2.1,0,4.3-0.4,6.4L30,21.1h11.8c0.3,0,0.5,0.1,0.8,0.2c0.5,0.3,0.9,0.9,0.9,1.5
	c-0.1,1-1.1,5.6-2.7,12.5l0,0.2v0.2c0,0.7-0.6,1.3-1.3,1.3H25.1c-0.2,0-0.4,0-0.7,0L24.4,20.3z"/>
</svg>
