<?xml version="1.0" encoding="utf-8"?>
<!-- Generator: Adobe Illustrator 21.1.0, SVG Export Plug-In . SVG Version: 6.00 Build 0)  -->
<svg version="1.1" id="eps" xmlns="http://www.w3.org/2000/svg" xmlns:xlink="http://www.w3.org/1999/xlink" x="0px" y="0px"
	 viewBox="0 0 60 60" style="enable-background:new 0 0 60 60;" xml:space="preserve">
<g>
	<circle cx="30" cy="27" r="5"/>
	<path d="M58.46,28.64C55.04,24.94,44.48,15,30,15S4.96,24.94,1.54,28.64c-0.71,0.77-0.71,1.96,0,2.73C4.96,35.06,15.52,45,30,45
		s25.04-9.94,28.46-13.64C59.18,30.59,59.18,29.41,58.46,28.64z M30,18c4.99,0,9.05,4.06,9.05,9.05c0,4.99-4.06,9.05-9.05,9.05
		c-4.99,0-9.05-4.06-9.05-9.05C20.95,22.06,25.01,18,30,18z M30,42.02C17.4,42.02,7.8,33.54,4.35,30
		c2.52-2.59,8.34-7.81,16.22-10.43c-1.63,2.06-2.62,4.65-2.62,7.48c0,6.65,5.39,12.05,12.05,12.05s12.05-5.39,12.05-12.05
		c0-2.83-0.98-5.43-2.62-7.48C47.3,22.19,53.12,27.41,55.65,30C52.2,33.54,42.6,42.02,30,42.02z"/>
</g>
</svg>
