<?xml version="1.0" encoding="utf-8"?>
<!-- Generator: Adobe Illustrator 21.1.0, SVG Export Plug-In . SVG Version: 6.00 Build 0)  -->
<svg version="1.1" id="eps" xmlns="http://www.w3.org/2000/svg" xmlns:xlink="http://www.w3.org/1999/xlink" x="0px" y="0px"
	 viewBox="0 0 60 60" style="enable-background:new 0 0 60 60;" xml:space="preserve">
<path d="M55.82,19.33L31.16,1.98c-0.69-0.49-1.61-0.49-2.3,0L22.5,6.45V4.5c0-1.1-0.9-2-2-2h-5c-1.1,0-2,0.9-2,2v8.28l-9.32,6.55
	c-1.13,0.79-1.4,2.35-0.61,3.48l0,0c0.16,0.23,0.47,0.28,0.7,0.12l6.23-4.38V56.5c0,1.1,0.9,2,2,2H27h1c1.1,0,2-0.9,2-2v-1h0v-13
	h10.5v14c0,1.1,0.9,2,2,2h1h4c1.1,0,2-0.9,2-2V18.55l6.23,4.38c0.23,0.16,0.54,0.1,0.7-0.12h0C57.22,21.69,56.95,20.13,55.82,19.33z
	 M16.5,5.5h3v3.06l-3,2.11V5.5z M46.5,55.5h-3v-14c0-1.1-0.9-2-2-2H29c-1.1,0-2,0.9-2,2v14H13.5V16.45L30.01,4.83L46.5,16.44V55.5z"
	/>
</svg>
