<svg id="eps" xmlns="http://www.w3.org/2000/svg" viewBox="0 0 60 60"><title>placeholder</title><path d="M50.12,48a27,27,0,0,0,0-36l7.59-7.59a.5.5,0,0,0,0-.71L56.3,2.29a.5.5,0,0,0-.71,0L48,9.88a27,27,0,0,0-36,0L4.41,2.29a.5.5,0,0,0-.71,0L2.29,3.71a.5.5,0,0,0,0,.71L9.88,12a27,27,0,0,0,0,36L2.29,55.59a.5.5,0,0,0,0,.71,2.5,2.5,0,0,0,3.54,0L12,50.12a27,27,0,0,0,36,0l6.17,6.17a2.5,2.5,0,0,0,3.54,0,.5.5,0,0,0,0-.71ZM30,6a24,24,0,0,1,15.87,6L30,27.88,14.13,12A24,24,0,0,1,30,6ZM6,30a23.86,23.86,0,0,1,6-15.86L27.88,30,12,45.87A24,24,0,0,1,6,30ZM30,54a23.86,23.86,0,0,1-15.86-6L30,32.12,45.87,48A24,24,0,0,1,30,54Zm18-8.14L32.12,30,48,14.13a23.94,23.94,0,0,1,0,31.73Z"/></svg>