<?xml version="1.0" encoding="utf-8"?>
<!-- Generator: Adobe Illustrator 21.1.0, SVG Export Plug-In . SVG Version: 6.00 Build 0)  -->
<svg version="1.1" id="eps" xmlns="http://www.w3.org/2000/svg" xmlns:xlink="http://www.w3.org/1999/xlink" x="0px" y="0px"
	 viewBox="0 0 60 60" style="enable-background:new 0 0 60 60;" xml:space="preserve">
<path d="M32.12,30L57.71,4.41c0.2-0.2,0.2-0.51,0-0.71L56.3,2.29c-0.2-0.2-0.51-0.2-0.71,0L30,27.88L4.41,2.29
	c-0.2-0.2-0.51-0.2-0.71,0L2.29,3.71c-0.2,0.2-0.2,0.51,0,0.71L27.88,30L2.29,55.59c-0.2,0.2-0.2,0.51,0,0.71
	c0.98,0.98,2.56,0.98,3.54,0L30,32.12l24.17,24.17c0.98,0.98,2.56,0.98,3.54,0c0.2-0.2,0.2-0.51,0-0.71L32.12,30z"/>
</svg>
