<?xml version="1.0" encoding="utf-8"?>
<!-- Generator: Adobe Illustrator 21.1.0, SVG Export Plug-In . SVG Version: 6.00 Build 0)  -->
<svg version="1.1" id="EPS" xmlns="http://www.w3.org/2000/svg" xmlns:xlink="http://www.w3.org/1999/xlink" x="0px" y="0px"
	 viewBox="0 0 60 60" style="enable-background:new 0 0 60 60;" xml:space="preserve">
<g>
	<path d="M32.51,3.47C32.23,3.46,32,3.69,32,3.97v0.11c0,1.3,1,2.36,2.29,2.48c0.13,0.01,0.25,0.03,0.37,0.04
		c10.06,1.14,18.19,8.62,20.3,18.35c0.19,0.88,0.33,1.78,0.42,2.7c0.13,1.3,1.18,2.3,2.49,2.3h0.11c0.28,0,0.51-0.23,0.51-0.51
		C58.22,15.24,46.72,3.74,32.51,3.47z"/>
	<path d="M32.52,15.47C32.24,15.46,32,15.7,32,15.98v0.21c0,1.21,0.87,2.24,2.06,2.45c0.67,0.12,1.32,0.3,1.94,0.53
		c3.02,1.12,5.44,3.48,6.66,6.45c0.3,0.74,0.52,1.51,0.67,2.31c0.21,1.18,1.25,2.02,2.45,2.02h0.21c0.28,0,0.52-0.24,0.51-0.52
		C46.22,21.86,40.1,15.74,32.52,15.47z"/>
	<path d="M32.52,9.47C32.23,9.46,32,9.69,32,9.98v0.2c0,1.26,0.96,2.27,2.21,2.43c0.72,0.09,1.43,0.23,2.13,0.4
		c5.73,1.46,10.33,5.75,12.23,11.29c0.38,1.12,0.66,2.3,0.81,3.51c0.15,1.24,1.22,2.16,2.47,2.16H52c0.28,0,0.52-0.23,0.51-0.52
		C52.22,18.55,43.41,9.74,32.52,9.47z"/>
	<path d="M26.1,21.39c-0.78-0.78-2.05-0.78-2.83,0L2.29,42.37c-0.78,0.78-0.78,2.05,0,2.83l7.9,7.9c2.24,2.24,5.19,3.36,8.13,3.36
		s5.89-1.12,8.13-3.36l14.26-14.26c0.78-0.78,0.78-2.05,0-2.83L26.1,21.39z M7.83,46.49l-2.71-2.71l19.56-19.56l2.71,2.71
		L7.83,46.49z M24.33,50.97c-3.31,3.31-8.7,3.31-12.02,0l-0.94-0.94l19.56-19.56l6.95,6.95L24.33,50.97z"/>
</g>
</svg>
