<?xml version="1.0" encoding="utf-8"?>
<!-- Generator: Adobe Illustrator 22.1.0, SVG Export Plug-In . SVG Version: 6.00 Build 0)  -->
<svg version="1.1" id="Ebene_1" xmlns="http://www.w3.org/2000/svg" xmlns:xlink="http://www.w3.org/1999/xlink" x="0px" y="0px"
	 viewBox="0 0 60 60" style="enable-background:new 0 0 60 60;" xml:space="preserve">
<g id="EPS">
	<g>
		<path d="M58,43c-0.6-1-1.5-1.8-2.7-2.1c-1.1-0.3-2.3-0.2-3.3,0.4l-10.2,5l-2.2-0.8c0.6-0.8,0.9-1.8,0.8-2.9
			c-0.1-2.4-2.3-4.3-4.7-4.3H18.1c-0.2,0-0.5,0-0.7,0.1L2.9,44.4c-0.9,0.4-1.5,1.4-1.2,2.4l2.8,10.1c0.3,1,1.4,1.7,2.4,1.4L18,55.5
			l11.5,2.9c0.2,0.1,0.5,0.1,0.8,0l14.8-2c0.3,0,0.6-0.2,0.9-0.3c2-1.4,11.1-7.8,11.2-7.9C58.5,46.9,58.9,44.7,58,43z M55.1,46
			c-0.7,0.5-6.6,4.7-10.7,7.5l-14.3,1.9l-11.6-2.9c-0.3-0.1-0.6-0.1-1,0L7.1,55.2l-2.3-8.3l13.5-5.4H36c0.8,0,1.5,0.7,1.5,1.5
			s-0.7,1.5-1.5,1.5h-6.5c-1.4,0-2.5,1.1-2.5,2.5c0,0.3,0.2,0.5,0.5,0.5h8.2l5.6,1.9c0.5,0.2,1,0.1,1.5-0.1L53.4,44
			c0.4-0.2,0.8-0.2,1.2-0.2c0.3,0.1,0.6,0.3,0.8,0.6C55.6,44.9,55.5,45.6,55.1,46z"/>
		<path d="M30.6,19.5c0.1,0,0.2,0,0.3,0l2.1-0.8v10.7c0,0.1,0,0.2,0.1,0.2s0.1,0.1,0.2,0.1h2.1c0.1,0,0.2,0,0.2-0.1s0.1-0.1,0.1-0.2
			V16.2c0-0.1,0-0.2-0.1-0.2c-0.1-0.1-0.1-0.1-0.2-0.1h-1.5c-0.1,0-0.1,0-0.2,0s-0.1,0-0.2,0.1l-3.4,1.4c-0.1,0-0.2,0.1-0.2,0.2
			s0,0.2,0,0.3l0.5,1.5C30.4,19.4,30.5,19.5,30.6,19.5z"/>
		<path d="M17.8,20.3c0.3,0.1,0.6-0.1,0.7-0.4l0.1-0.2c0.3-1.1-0.1-2.2-1.1-2.9c-1.9-1.3-3.1-3.6-2.9-6.1c0.2-2.8,2.9-5.7,5.7-6.1
			c2.6-0.4,5,0.8,6.4,2.7c0.7,0.9,1.8,1.4,2.9,1l0.3-0.1c0.3-0.1,0.4-0.4,0.3-0.7c-1.7-4.1-6-6.7-10.6-5.9c-3.9,0.7-7.7,4.7-8.1,8.7
			C11.1,14.8,13.7,18.8,17.8,20.3z"/>
		<path d="M21.5,23c0,6.9,5.6,12.5,12.5,12.5S46.5,29.9,46.5,23S40.9,10.5,34,10.5S21.5,16.1,21.5,23z M34,13.5
			c5.2,0,9.5,4.3,9.5,9.5s-4.3,9.5-9.5,9.5s-9.5-4.3-9.5-9.5S28.8,13.5,34,13.5z"/>
	</g>
</g>
</svg>
