<?xml version="1.0" encoding="utf-8"?>
<!-- Generator: Adobe Illustrator 21.1.0, SVG Export Plug-In . SVG Version: 6.00 Build 0)  -->
<svg version="1.1" id="EPS" xmlns="http://www.w3.org/2000/svg" xmlns:xlink="http://www.w3.org/1999/xlink" x="0px" y="0px"
	 viewBox="0 0 60 60" style="enable-background:new 0 0 60 60;" xml:space="preserve">
<g>
	<path d="M56.5,6.5h-53c-1.1,0-2,0.9-2,2V25c0,6.35,5.15,11.5,11.5,11.5h11.58c1.34,0,2.42-1.08,2.42-2.42V34
		c0-0.28-0.22-0.5-0.5-0.5H13c-4.69,0-8.5-3.81-8.5-8.5V9.5h36.04v12.08c0,1.34,1.08,2.42,2.42,2.42c0.28,0,0.5-0.22,0.5-0.5v-14
		H55.5v23.08c0,1.34,1.08,2.42,2.42,2.42H58c0.28,0,0.5-0.22,0.5-0.5v-26C58.5,7.4,57.6,6.5,56.5,6.5z"/>
	<path d="M44.27,31.19c0.67,0.93,1.82,1.36,2.9,0.99l0.32-0.11c0.27-0.09,0.42-0.4,0.31-0.66c-1.64-4.03-5.88-6.51-10.36-5.78
		c-3.87,0.63-7.56,4.6-7.9,8.51c-0.38,4.36,2.16,8.29,6.14,9.77c0.27,0.1,0.56-0.06,0.65-0.33l0.11-0.35
		c0.34-1.08-0.14-2.2-1.08-2.83c-1.72-1.15-2.81-3.08-2.86-5.24c-0.08-3.23,2.36-6.13,5.56-6.59
		C40.54,28.21,42.89,29.29,44.27,31.19z"/>
	<path d="M49,34.5c-5.24,0-9.5,4.26-9.5,9.5s4.26,9.5,9.5,9.5s9.5-4.26,9.5-9.5S54.24,34.5,49,34.5z M49,50.5
		c-3.58,0-6.5-2.92-6.5-6.5s2.92-6.5,6.5-6.5s6.5,2.92,6.5,6.5S52.58,50.5,49,50.5z"/>
	<path d="M9.16,24.7c0.05,0.05,0.13,0.08,0.23,0.08h1.87c0.1,0,0.17-0.03,0.22-0.08s0.08-0.13,0.08-0.23v-11.8
		c0-0.1-0.03-0.17-0.08-0.23c-0.05-0.05-0.13-0.08-0.22-0.08H9.89c-0.06,0-0.12,0.01-0.18,0.02s-0.11,0.03-0.16,0.05L6.5,13.67
		c-0.08,0.04-0.14,0.09-0.17,0.15c-0.03,0.07-0.03,0.15-0.01,0.24l0.45,1.33c0.04,0.1,0.09,0.16,0.16,0.19
		c0.07,0.03,0.15,0.03,0.23-0.01l1.91-0.72v9.61C9.08,24.57,9.1,24.65,9.16,24.7z"/>
	<path d="M18.67,12.14c-1.44,0-2.58,0.56-3.42,1.69s-1.26,2.71-1.26,4.73s0.42,3.61,1.26,4.73c0.84,1.13,1.98,1.69,3.42,1.69
		c1.43,0,2.56-0.56,3.4-1.69c0.84-1.13,1.26-2.71,1.26-4.73s-0.42-3.61-1.26-4.73S20.1,12.14,18.67,12.14z M20.26,21.73
		c-0.37,0.71-0.9,1.07-1.59,1.07c-0.7,0-1.23-0.36-1.6-1.08s-0.56-1.77-0.56-3.15c0-1.4,0.19-2.47,0.56-3.19
		c0.37-0.73,0.91-1.09,1.6-1.09c0.7,0,1.23,0.36,1.59,1.09s0.55,1.79,0.55,3.19C20.81,19.96,20.63,21.02,20.26,21.73z"/>
	<path d="M33.25,23.3c0.84-1.13,1.26-2.71,1.26-4.73s-0.42-3.61-1.26-4.73s-1.97-1.69-3.4-1.69c-1.44,0-2.58,0.56-3.42,1.69
		s-1.26,2.71-1.26,4.73s0.42,3.61,1.26,4.73c0.84,1.13,1.98,1.69,3.42,1.69C31.28,25,32.41,24.43,33.25,23.3z M28.25,21.72
		c-0.37-0.72-0.56-1.77-0.56-3.15c0-1.4,0.19-2.47,0.56-3.19c0.37-0.73,0.91-1.09,1.6-1.09c0.7,0,1.23,0.36,1.59,1.09
		s0.55,1.79,0.55,3.19c0,1.39-0.18,2.45-0.55,3.16s-0.9,1.07-1.59,1.07C29.15,22.8,28.62,22.44,28.25,21.72z"/>
</g>
</svg>
