<?xml version="1.0" encoding="utf-8"?>
<!-- Generator: Adobe Illustrator 21.1.0, SVG Export Plug-In . SVG Version: 6.00 Build 0)  -->
<svg version="1.1" id="EPS" xmlns="http://www.w3.org/2000/svg" xmlns:xlink="http://www.w3.org/1999/xlink" x="0px" y="0px"
	 viewBox="0 0 60 60" style="enable-background:new 0 0 60 60;" xml:space="preserve">
<g>
	<path d="M46.55,22.07c-0.3-1.06-1.41-1.68-2.47-1.37L3.07,32.46c-1.06,0.3-1.68,1.41-1.37,2.47l4.28,14.92
		c0.74,2.58,2.25,4.93,4.44,6.48c2.01,1.43,4.33,2.15,6.68,2.15c1.06,0,2.14-0.15,3.19-0.45l31.88-9.14
		c1.06-0.3,1.68-1.41,1.37-2.47L46.55,22.07z M19.46,55.15c-2.18,0.63-4.48,0.36-6.46-0.74c-1.99-1.1-3.42-2.91-4.05-5.09
		L4.86,35.06l39.09-11.21l6.43,22.43L19.46,55.15z"/>
	<path d="M33.95,44.27c-0.1-0.11-0.19-0.16-0.29-0.15c-0.1,0-0.19,0.06-0.28,0.17c-0.32,0.41-0.64,0.72-0.96,0.94
		c-0.32,0.22-0.68,0.38-1.08,0.5c-0.94,0.27-1.75,0.23-2.44-0.11s-1.29-1.01-1.81-1.99l4.48-1.28c0.12-0.04,0.21-0.1,0.26-0.19
		c0.05-0.09,0.06-0.2,0.02-0.32l-0.26-0.92c-0.04-0.12-0.1-0.21-0.19-0.26s-0.19-0.06-0.32-0.02l-4.66,1.34
		c-0.04-0.07-0.07-0.16-0.1-0.26s-0.07-0.26-0.14-0.47c-0.03-0.09-0.05-0.18-0.08-0.27c-0.02-0.08-0.05-0.17-0.08-0.27l4.68-1.34
		c0.12-0.04,0.21-0.1,0.26-0.19c0.05-0.09,0.06-0.2,0.02-0.32l-0.26-0.9c-0.04-0.12-0.1-0.21-0.19-0.26s-0.19-0.06-0.32-0.02
		l-4.52,1.3c-0.11-1.1-0.02-1.97,0.28-2.63c0.3-0.65,0.82-1.08,1.54-1.29c0.55-0.16,1.04-0.17,1.47-0.02
		c0.42,0.14,0.8,0.44,1.13,0.9c0.09,0.13,0.18,0.2,0.27,0.21s0.2-0.03,0.33-0.13l1.72-1.24c0.1-0.06,0.16-0.14,0.17-0.24
		c0.01-0.1-0.01-0.19-0.07-0.29c-0.58-0.97-1.37-1.63-2.38-1.98c-1.01-0.35-2.14-0.35-3.38,0.01c-1.58,0.45-2.75,1.35-3.51,2.68
		s-1.01,2.98-0.77,4.94l-1.48,0.42c-0.12,0.04-0.21,0.1-0.26,0.19c-0.05,0.09-0.06,0.2-0.02,0.32l0.26,0.9
		c0.04,0.12,0.1,0.21,0.19,0.26s0.19,0.06,0.32,0.02l1.32-0.38c0.01,0.08,0.02,0.16,0.05,0.25c0.02,0.08,0.06,0.22,0.12,0.4
		c0.03,0.11,0.06,0.21,0.09,0.31c0.03,0.1,0.06,0.2,0.09,0.31l-1.29,0.37c-0.12,0.04-0.21,0.1-0.26,0.19
		c-0.05,0.09-0.06,0.2-0.02,0.32l0.26,0.92c0.04,0.12,0.1,0.21,0.19,0.26s0.19,0.06,0.32,0.02l1.45-0.42
		c0.83,1.86,1.91,3.14,3.25,3.84c1.33,0.7,2.88,0.8,4.63,0.3c0.78-0.22,1.48-0.54,2.08-0.94c0.6-0.4,1.09-0.89,1.48-1.45
		c0.06-0.1,0.08-0.19,0.08-0.29c0-0.09-0.04-0.18-0.12-0.28L33.95,44.27z"/>
	<path d="M58.44,25.3C57.66,13.19,48.15,3.14,36.09,1.69C23.68,0.19,12.35,7.85,8.71,19.23l-1.42-2.38
		c-0.71-1.18-2.24-1.57-3.43-0.86c-0.24,0.14-0.31,0.45-0.17,0.69l4.11,6.87c0.57,0.95,1.8,1.26,2.74,0.69l6.87-4.11
		c0.24-0.14,0.31-0.45,0.17-0.69l0,0c-0.71-1.18-2.24-1.57-3.43-0.86l-2.55,1.53C14.82,10.09,24.79,3.35,35.72,4.66
		c10.3,1.24,18.58,9.61,19.65,19.93c0.24,2.28,0.14,4.55-0.29,6.75c-0.25,1.27,0.47,2.53,1.71,2.91l0.12,0.04
		c0.27,0.08,0.56-0.07,0.64-0.34C58.33,31.16,58.64,28.24,58.44,25.3z"/>
</g>
</svg>
