<?xml version="1.0" encoding="utf-8"?>
<!-- Generator: Adobe Illustrator 21.1.0, SVG Export Plug-In . SVG Version: 6.00 Build 0)  -->
<svg version="1.1" id="EPS" xmlns="http://www.w3.org/2000/svg" xmlns:xlink="http://www.w3.org/1999/xlink" x="0px" y="0px"
	 viewBox="0 0 60 60" style="enable-background:new 0 0 60 60;" xml:space="preserve">
<g>
	<path d="M43.5,52.5h4c0.28,0,0.5-0.22,0.5-0.5v-2c0-0.28-0.22-0.5-0.5-0.5h-6c-0.28,0-0.5,0.22-0.5,0.5
		C41,51.38,42.12,52.5,43.5,52.5z"/>
	<path d="M52.38,27.75H51l0.57-6.88c0.11-1.28-1-2.33-2.28-2.15l-4.76,0.68c-0.27,0.04-0.46,0.29-0.42,0.57l0,0
		c0.2,1.37,1.46,2.32,2.83,2.12l1.54-0.22l-0.49,5.87H11.5c0.63-0.24,1.38-0.48,2.26-0.72c0.31-0.08,0.64-0.17,0.97-0.25
		c1.31-0.33,2.13-1.64,1.84-2.96l-0.01-0.03c-0.06-0.27-0.33-0.44-0.6-0.38c-1.09,0.24-2.09,0.49-2.99,0.74
		c-4.87,1.33-7.35,3.05-7.35,5.06c-0.04,0.99-0.05,6.99-0.03,17.83c0.01,6.34,5.16,11.48,11.5,11.48h35.28c1.1,0,2-0.9,2-2V29.75
		C54.38,28.65,53.48,27.75,52.38,27.75z M51.38,55.5H17.12c-4.7,0-8.51-3.81-8.52-8.51c-0.02-9.57-0.01-14.15,0-16.24h42.77
		L51.38,55.5L51.38,55.5z"/>
	<path d="M18.04,23.38c0.01,0.37,0.04,0.74,0.09,1.11c0.17,1.41,1.65,2.27,2.99,1.8l0,0c0.25-0.09,0.38-0.36,0.3-0.62
		c-0.26-0.88-0.39-1.78-0.39-2.71c0-5.33,4.41-9.65,9.77-9.5c4.99,0.14,9.13,4.33,9.22,9.32c0.02,0.98-0.11,1.95-0.39,2.89
		c-0.08,0.26,0.05,0.53,0.3,0.61c1.38,0.49,2.84-0.45,3.01-1.9c0.05-0.47,0.08-0.94,0.08-1.42c0-7.07-5.9-12.79-13.03-12.49
		C23.25,10.75,17.82,16.62,18.04,23.38z"/>
	<path d="M30,26.25h1.76c0.28,0,0.5-0.22,0.5-0.5V16.2c0-0.11-0.03-0.19-0.09-0.25c-0.06-0.06-0.14-0.09-0.25-0.09H30.4
		c-0.07,0-0.13,0.01-0.2,0.02c-0.07,0.01-0.13,0.03-0.18,0.06l-3.38,1.38c-0.09,0.04-0.16,0.1-0.19,0.17s-0.04,0.16-0.01,0.27
		l0.5,1.48c0.04,0.11,0.1,0.18,0.18,0.21s0.17,0.03,0.26-0.01l2.12-0.8v7.11C29.5,26.03,29.72,26.25,30,26.25z"/>
	<path d="M14.19,20.26c0.27,0.1,0.56-0.06,0.67-0.38l0.08-0.25c0.34-1.1-0.14-2.25-1.1-2.88c-1.95-1.3-3.12-3.57-2.94-6.05
		c0.2-2.83,2.87-5.7,5.68-6.12c2.58-0.38,5.02,0.75,6.44,2.74c0.66,0.93,1.82,1.36,2.92,0.98l0.29-0.1c0.27-0.09,0.41-0.4,0.31-0.66
		c-1.67-4.11-6-6.65-10.57-5.9c-3.95,0.65-7.7,4.69-8.05,8.67C7.52,14.75,10.12,18.76,14.19,20.26z"/>
</g>
</svg>
