<svg id="CAKE" xmlns="http://www.w3.org/2000/svg" viewBox="0 0 990 990"><defs><style>.cls-1{fill:#3a3a3a;}</style></defs><title>CAKE</title><path class="cls-1" d="M13.57,13.57c74.11,0,429.78-1.16,551.52-.32,3.18,52.87,25.63,104.65,63.16,142a215.68,215.68,0,0,0,153.46,63.53,216.2,216.2,0,0,0,47.81-5.33,157.42,157.42,0,0,0,147,128.19v634.8H13.66V13.57M0,990H990V328.07h-4.87A145,145,0,0,1,840.85,196.69a201,201,0,0,1-59.14,8.7c-112.38,0-203.43-93-203.43-205.42C457.67,0,0,0,0,0"/><path class="cls-1" d="M372.1,517.07q-1.92,20.25-15,31.59T322.48,560q-15.12,0-26.63-7.17a47,47,0,0,1-17.77-20.38q-6.27-13.2-6.52-30.67V490q0-17.9,6.34-31.54a47.76,47.76,0,0,1,18.21-21Q308,430,323.52,430q20.94,0,33.72,11.34t14.86,32.11H350.2q-1.56-13.65-7.95-19.68t-18.73-6q-14.34,0-22,10.48T293.63,489v11.23q0,20.52,7.34,31.31t21.51,10.78q12.94,0,19.47-5.82t8.25-19.38Z"/><path class="cls-1" d="M467,528.8H418l-10.26,29.46H384.89l47.79-126.52h19.73l47.88,126.52H477.35Zm-42.84-17.72h36.67L442.5,458.59Z"/><path class="cls-1" d="M555.4,503.6l-14.33,15.21v39.45h-22V431.74h22v59.35l12.16-15,37-44.32h26.59l-47,56.05,49.7,70.47H593.46Z"/><path class="cls-1" d="M709.66,501.78h-52v38.93h60.74v17.55H635.71V431.74h82.12v17.73H657.7V484.4h52Z"/></svg>
