<?xml version="1.0" encoding="utf-8"?>
<!-- Generator: Adobe Illustrator 22.1.0, SVG Export Plug-In . SVG Version: 6.00 Build 0)  -->
<svg version="1.1" id="eps" xmlns="http://www.w3.org/2000/svg" xmlns:xlink="http://www.w3.org/1999/xlink" x="0px" y="0px"
	 viewBox="0 0 60 60" style="enable-background:new 0 0 60 60;" xml:space="preserve">
<g>
	<path d="M30,1.5C14.3,1.5,1.5,14.3,1.5,30S14.3,58.5,30,58.5S58.5,45.7,58.5,30S45.7,1.5,30,1.5z M30,55.5
		C15.9,55.5,4.5,44.1,4.5,30S15.9,4.5,30,4.5S55.5,15.9,55.5,30S44.1,55.5,30,55.5z"/>
	<path d="M30,37.6c-0.8,0-1.5,0.3-2,0.8s-0.8,1.2-0.8,1.9s0.3,1.4,0.8,1.9s1.2,0.8,2,0.8c0.9,0,1.5-0.3,2.1-0.8
		c0.6-0.5,0.8-1.1,0.8-1.9s-0.3-1.4-0.8-1.9S30.8,37.6,30,37.6z"/>
	<polygon points="32,34.8 32.7,17 27.2,17 27.8,34.8 	"/>
</g>
</svg>
