<?xml version="1.0" encoding="utf-8"?>
<!-- Generator: Adobe Illustrator 22.1.0, SVG Export Plug-In . SVG Version: 6.00 Build 0)  -->
<svg version="1.1" id="eps" xmlns="http://www.w3.org/2000/svg" xmlns:xlink="http://www.w3.org/1999/xlink" x="0px" y="0px"
	 viewBox="0 0 60 60" style="enable-background:new 0 0 60 60;" xml:space="preserve">
<g>
	<path d="M57.9,52.5L31.8,5.1c-0.8-1.4-2.7-1.4-3.5,0L2.1,52.5c-0.7,1.3,0.2,3,1.8,3h52.3C57.7,55.5,58.6,53.9,57.9,52.5z M5.5,52.5
		L30,8.1l24.5,44.4H5.5z"/>
	<path d="M30,43.9c-0.8,0-1.5,0.3-2,0.8s-0.8,1.2-0.8,1.9s0.3,1.4,0.8,1.9s1.2,0.8,2,0.8c0.9,0,1.5-0.3,2.1-0.8s0.8-1.1,0.8-1.9
		c0-0.8-0.3-1.4-0.8-1.9S30.8,43.9,30,43.9z"/>
	<polygon points="27.9,41.1 32.1,41.1 32.7,23.3 27.3,23.3 	"/>
</g>
</svg>
