<?xml version="1.0" encoding="utf-8"?>
<!-- Generator: Adobe Illustrator 22.1.0, SVG Export Plug-In . SVG Version: 6.00 Build 0)  -->
<svg version="1.1" id="eps" xmlns="http://www.w3.org/2000/svg" xmlns:xlink="http://www.w3.org/1999/xlink" x="0px" y="0px"
	 viewBox="0 0 60 60" style="enable-background:new 0 0 60 60;" xml:space="preserve">
<g>
	<path d="M30,1.5C14.3,1.5,1.5,14.3,1.5,30S14.3,58.5,30,58.5S58.5,45.7,58.5,30S45.7,1.5,30,1.5z M30,55.5
		C15.9,55.5,4.5,44.1,4.5,30S15.9,4.5,30,4.5S55.5,15.9,55.5,30S44.1,55.5,30,55.5z"/>
	<rect x="27.5" y="24.3" width="5.1" height="19"/>
	<path d="M30,16.7c-0.9,0-1.6,0.2-2.1,0.7s-0.8,1.1-0.8,1.9c0,0.8,0.3,1.4,0.8,1.9S29.1,22,30,22s1.5-0.2,2.1-0.7s0.8-1.1,0.8-1.9
		c0-0.8-0.3-1.4-0.8-1.9S30.9,16.7,30,16.7z"/>
</g>
</svg>
