<svg id="Region" xmlns="http://www.w3.org/2000/svg" viewBox="0 0 60 60"><defs><style>.cls-1{fill:#1d1d1b;}</style></defs><title>Region_konv</title><path class="cls-1" d="M30.08,0A11.73,11.73,0,0,0,18.35,11.73c0,7.13,11.08,21.19,11.73,21.19S41.81,18.86,41.81,11.73A11.73,11.73,0,0,0,30.08,0Zm0,16.58a5,5,0,1,1,5-5A5,5,0,0,1,30.08,16.58Z"/><path class="cls-1" d="M43.92,16.45a30.58,30.58,0,0,1-1.16,2.9,21.32,21.32,0,0,1,1.84,1.59C38.87,24.48,37,32.57,37.15,35.58c.08,1.23.54,2,1.37,2.26a1.85,1.85,0,0,0,2-.64A16.07,16.07,0,0,1,42,39a17.91,17.91,0,0,0,3.16,3.65,5.13,5.13,0,0,0,3.29,1.11,7.12,7.12,0,0,0,1.11-.1A21,21,0,0,1,30,57a4.11,4.11,0,0,1-.45-2.77,1.79,1.79,0,0,1,1.11-1,7.78,7.78,0,0,0,4.59-4.79,8.42,8.42,0,0,0-1.12-6.83c-1.38-2.23-3.79-1.17-5.24-.53-1.12.5-2.29,1-3,.62-.51-.27-1.47-1.25-2.18-4.85C22.86,32.62,21,29.65,18.15,28a11.76,11.76,0,0,0-6.9-1.41,21.21,21.21,0,0,1,6.12-7.31,30.25,30.25,0,0,1-1.16-2.9,24,24,0,1,0,27.71.09ZM9,36a20.82,20.82,0,0,1,.94-6.2,9.66,9.66,0,0,1,6.72.79c2.06,1.21,3.44,3.5,4.09,6.79.75,3.79,1.93,6,3.74,6.93,2,1.06,4.11.13,5.63-.54a8.39,8.39,0,0,1,1.52-.57,5.42,5.42,0,0,1,.77,4.3,4.92,4.92,0,0,1-2.95,2.93,4.84,4.84,0,0,0-2.72,2.79,5.83,5.83,0,0,0,0,3.49A21,21,0,0,1,9,36Zm38,4.34a15.67,15.67,0,0,1-2.59-3.05c-1.22-1.7-2.27-3.17-3.86-3.23H40.2c.39-2.91,2.29-8.61,6.44-10.84a20.87,20.87,0,0,1,3.92,17C49.42,40.76,48,41.11,47,40.34Z"/></svg>