<svg id="Ebene_2" data-name="Ebene 2" xmlns="http://www.w3.org/2000/svg" viewBox="0 0 60 60"><title>Zeichenfläche 1</title><path d="M54.73,21.15a26.19,26.19,0,0,1,1.22,13.09c-3.7-2.94-7.11-2.14-8.67-1.06-3.22,1.84-7.14,3.15-7.91,2.68a1.36,1.36,0,0,1,0-.59c.53-6.75-2.17-8.77-2.73-9.12l-4.29-2.57c-.13-.11-.35-.35-.39-.38a1.28,1.28,0,0,1,.43-.41,4.67,4.67,0,0,0,2.07-3.18,5.32,5.32,0,0,0-1.07-3.78,1.77,1.77,0,0,0-.3-.29l-2.8-2.2-.12-.09a5.92,5.92,0,0,0-4.72-.77A5.44,5.44,0,0,0,22.05,16c-.75,1.95-1.5,2.54-1.75,2.61l-.11,0s-3.3-.37-5.8-.9a3.16,3.16,0,0,1-2.12-1.95l-1-4A26.19,26.19,0,0,1,37.59,4.91S48.5,7.48,54.73,21.15ZM38.42,1.42A29.81,29.81,0,1,0,58.13,20,29.82,29.82,0,0,0,38.42,1.42Zm-3.66,27.8h0Zm-.11-.07,0,0,0,0ZM6.15,40.93l.07,0c.89-4.36,2.47-6.08,3.43-6.75a8.62,8.62,0,0,0,4.7,3.3,4.61,4.61,0,0,0,3.74-1c1.36-1.06,3.29.39,4.22,1.25L21,46.39l-7,4.37A26.4,26.4,0,0,1,6.15,40.93ZM30,56.3a26.08,26.08,0,0,1-12.81-3.35L23.55,49a1.79,1.79,0,0,0,.82-1.24L26,37.45A1.79,1.79,0,0,0,25.59,36c-1.76-2-6-5.13-9.69-2.28A1,1,0,0,1,15,34c-1.2-.22-2.66-2-3.18-2.9a1.79,1.79,0,0,0-1.68-.86c-.44,0-3.57.49-5.82,5.12A26.22,26.22,0,0,1,8.43,15.16l.42,1.68a6.72,6.72,0,0,0,4.78,4.38c2.47.53,5.52.89,6.07,1,.91.17,3.74.23,5.69-4.86.21-.55.57-1.23,1.1-1.41a2.33,2.33,0,0,1,1.62.32l2.51,2a1.64,1.64,0,0,1,.25.93,1.26,1.26,0,0,1-.6.76,4,4,0,0,0-1.93,3.26,4.56,4.56,0,0,0,1.93,3.4l.12.08,4.28,2.56c.18.18,1.42,1.55,1.09,5.82a3.87,3.87,0,0,0,1.66,3.85,4.57,4.57,0,0,0,2.47.61c3.36,0,7.73-2.34,9.26-3.22l.17-.12s2.29-1.62,5.65,2.1A26.29,26.29,0,0,1,30,56.3Z"/></svg>