<svg id="Ebene_2" data-name="Ebene 2" xmlns="http://www.w3.org/2000/svg" viewBox="0 0 60 60"><title>health</title><path d="M45,3a17.34,17.34,0,0,0-15,8.5A17.34,17.34,0,0,0,15,3C4.45,3,0,14,0,19a19.81,19.81,0,0,0,1.64,8H5a16.31,16.31,0,0,1-2-8C3,15.3,6.57,6,15,6a14.27,14.27,0,0,1,12.34,6.89l2.62,5,2.68-5A14.27,14.27,0,0,1,45,6c8.43,0,12,9.3,12,13a15.18,15.18,0,0,1-4.11,10.86C50.24,32.52,35.55,47.21,30,52.76L13.24,36H9L30,57S51.71,35.3,55,32a18.15,18.15,0,0,0,5-13C60,14,55.55,3,45,3Z"/><polygon points="29.76 42.32 22.48 24.85 18.99 33 0.08 32.98 0.08 29.98 17.01 30 22.52 17.15 30.24 35.68 33.65 30 45 30 45 33 35.35 33 29.76 42.32"/></svg>