<?xml version="1.0" encoding="utf-8"?>
<!-- Generator: Adobe Illustrator 20.1.0, SVG Export Plug-In . SVG Version: 6.00 Build 0)  -->
<svg version="1.1" id="Ebene_5" xmlns="http://www.w3.org/2000/svg" xmlns:xlink="http://www.w3.org/1999/xlink" x="0px" y="0px"
	 viewBox="0 0 60 60" style="enable-background:new 0 0 60 60;" xml:space="preserve">
<title>fresh</title>
<path d="M59.2,0c0,0-0.6,0-1.7,0c-5.9,0-25.8,1.1-39.9,14.4C0.5,28.8,6.7,48.5,9,54.1c-2.3,1.3-4.9,2.2-7.5,2.7
	c-0.8,0-1.5,0.7-1.4,1.6c0,0.8,0.7,1.5,1.6,1.4h0.2c0.2,0,3.7-0.4,9.2-3.3c4.5,2.3,9.5,3.5,14.6,3.6c5.4,0,10.6-1.4,15.2-4.1
	C65.8,40.6,59.2,0,59.2,0z M56.4,21.9c-1.8,15-7.6,25.6-17,31.5c-4.2,2.4-8.9,3.7-13.8,3.7c-3.9,0-7.8-0.8-11.4-2.4
	c3.2-2,6.2-4.2,9-6.7C34,38.8,39.2,25.9,39.4,25.3c0.3-0.8,0-1.6-0.8-2c-0.8-0.3-1.6,0-2,0.8c0,0,0,0,0,0.1
	c0,0.1-5.2,12.8-15.3,21.5c-3,2.6-6.2,5-9.7,7c-2.2-5.4-7.6-23,7.9-35.9l0.1-0.1l0.1-0.1C32.3,4.6,50.1,3.1,56.6,3
	C57.2,9.3,57.1,15.6,56.4,21.9z"/>
</svg>
