<svg id="Ice" xmlns="http://www.w3.org/2000/svg" viewBox="0 0 60 60"><title>snowflake</title><polygon points="53.28 37.66 52.51 34.77 44.84 36.83 40.4 34.25 40.58 34.2 39.8 31.31 36.73 32.13 33.05 30 36.69 27.89 39.75 28.72 40.53 25.82 40.35 25.77 44.74 23.23 52.4 25.29 53.18 22.4 48.4 21.11 56.72 16.3 55.22 13.7 47.01 18.45 48.29 13.66 45.4 12.89 43.34 20.58 38.91 23.14 38.95 22.97 36.05 22.19 35.23 25.27 31.56 27.4 31.56 23.19 33.8 20.94 31.68 18.82 31.56 18.94 31.56 13.87 37.17 8.24 35.05 6.12 31.56 9.62 31.56 0 28.56 0 28.56 9.5 25.07 6 22.94 8.12 28.56 13.75 28.56 18.89 28.44 18.77 26.31 20.88 28.56 23.14 28.56 27.4 24.93 25.3 24.1 22.22 21.2 22.99 21.25 23.17 16.88 20.64 14.82 12.95 11.92 13.72 13.2 18.51 4.9 13.7 3.39 16.3 11.61 21.05 6.83 22.34 7.61 25.23 15.27 23.17 19.72 25.75 19.53 25.8 20.31 28.69 23.38 27.87 27.06 30 23.42 32.11 20.36 31.28 19.58 34.18 19.76 34.23 15.37 36.77 7.71 34.71 6.93 37.6 11.71 38.89 3.39 43.7 4.9 46.3 13.1 41.55 11.82 46.34 14.72 47.11 16.77 39.42 21.21 36.86 21.16 37.03 24.06 37.81 24.88 34.73 28.56 32.6 28.56 36.81 26.31 39.06 28.44 41.18 28.56 41.06 28.56 46.13 22.94 51.76 25.07 53.88 28.56 50.38 28.56 60 31.56 60 31.56 50.5 35.05 54 37.17 51.88 31.56 46.25 31.56 41.11 31.68 41.24 33.8 39.12 31.56 36.86 31.56 32.6 35.19 34.7 36.01 37.78 38.91 37.01 38.86 36.83 43.24 39.36 45.29 47.05 48.19 46.28 46.91 41.49 55.22 46.3 56.72 43.7 48.51 38.95 53.28 37.66"/></svg>