<svg id="aperif" xmlns="http://www.w3.org/2000/svg" viewBox="0 0 60 60"><defs><style>.cls-1{fill:#1d1d1b;}</style></defs><title>Wine-temperature_konv</title><path class="cls-1" d="M39,42.2,37.78,41V6.29a6.29,6.29,0,0,0-12.57,0V9H21v3h4.21v3H21v3h4.21v3H21v3h4.21v3H21v3h4.21v3H21v3h4.21v5L24,42.2a10.48,10.48,0,1,0,15,0ZM31.5,57a7.47,7.47,0,0,1-5.34-12.7l1.2-1.22.86-.87V6.29a3.29,3.29,0,0,1,6.57,0V42.2l.86.87,1.2,1.22A7.47,7.47,0,0,1,31.5,57Z"/><path class="cls-1" d="M33,45.28V27H30V45.28a4.5,4.5,0,1,0,3,0Z"/></svg>