<?xml version="1.0" encoding="utf-8"?>
<!-- Generator: Adobe Illustrator 20.0.0, SVG Export Plug-In . SVG Version: 6.00 Build 0)  -->
<svg version="1.1" id="Ebene_2" xmlns="http://www.w3.org/2000/svg" xmlns:xlink="http://www.w3.org/1999/xlink" x="0px" y="0px"
	 viewBox="0 0 60 60" style="enable-background:new 0 0 60 60;" xml:space="preserve">
<g>
	<path d="M47.9,5.9h9v-3H42.4v14.5h3V7.8c7.1,4.9,11.7,13,11.7,22.2c0,14.9-12.1,27-27,27c-3,0-5.9-0.5-8.5-1.4
		c-0.4,0.8-0.7,1.5-1.3,2.7c3.1,1.1,6.4,1.7,9.8,1.7c16.6,0,30-13.4,30-30C60.1,20.1,55.3,11.3,47.9,5.9z"/>
	<path d="M13.5,51.3C7.2,46.3,3.1,38.6,3.1,30c0-14.9,12.1-27,27-27c2.8,0,5.5,0.5,8.1,1.3c0.4-0.9,0.6-1.6,1.2-2.8
		c-2.9-0.9-6-1.5-9.3-1.5c-16.6,0-30,13.4-30,30c0,9.3,4.2,17.6,10.8,23.1H2v3h14.5V41.6h-3V51.3z"/>
</g>
<g>
	<path d="M18,32.9V33c0,1.4,0.4,2.2,1.2,2.2c0.8,0,1.1-0.7,1.1-2.1c0-1.8-0.5-2.5-1.9-2.5h-0.2v-1.9h0.1c1.4,0,2-0.7,2-2.1
		c0-1.2-0.4-1.8-1.1-1.8s-1.1,0.6-1.1,1.9v0.1H16c0-2.5,1.1-3.8,3.1-3.8s3.2,1.3,3.2,3.7c0.1,1.2-0.5,2.4-1.6,3.1
		c1.3,0.6,1.8,1.8,1.8,3.6c0,2.4-1.3,3.9-3.4,3.9s-3.2-1.4-3.2-4v-0.2L18,32.9z"/>
	<path d="M27.6,28.4c1.6,0,2.6,1.4,2.6,4c0,3.1-1.2,4.7-3.2,4.7c-2.7,0-3.4-2.3-3.4-7.2c0-4.8,0.9-7,3.5-7c1.9,0,3.1,1.4,3.1,3.8
		v0.1h-2c0-1.3-0.4-2-1.1-2c-1.1,0-1.2,1.4-1.2,4.4C26.2,28.7,26.9,28.4,27.6,28.4z M25.7,32.4c0,1.9,0.4,2.9,1.2,2.9
		c0.8,0,1-0.9,1-2.7c0-1.5-0.3-2.2-1.1-2.2c-0.4,0.1-0.8,0.3-1.1,0.7C25.7,31.5,25.7,32,25.7,32.4L25.7,32.4z"/>
	<path d="M34.6,22.9c2.6,0,3.4,2.3,3.4,7.1s-0.9,7.1-3.4,7.1c-2.6,0-3.4-2.3-3.4-7.1S32,22.9,34.6,22.9z M34.6,35.2
		c1,0,1.2-1.6,1.2-5.2c0-3.5-0.2-5.2-1.2-5.2c-1,0-1.2,1.6-1.2,5.2C33.4,33.6,33.6,35.2,34.6,35.2z"/>
	<path d="M44.1,26.1c0,1.5-1.2,2.7-2.7,2.7c-1.5,0-2.7-1.2-2.7-2.7c0,0,0,0,0-0.1c0-1.5,1.2-2.7,2.7-2.7
		C42.9,23.4,44.1,24.6,44.1,26.1z M39.7,26.1c0,0.9,0.8,1.7,1.7,1.7c0.9,0,1.7-0.8,1.7-1.7l0,0c0-0.9-0.8-1.7-1.7-1.7
		C40.4,24.4,39.7,25.2,39.7,26.1z"/>
</g>
</svg>
