<?xml version="1.0" encoding="utf-8"?>
<!-- Generator: Adobe Illustrator 20.1.0, SVG Export Plug-In . SVG Version: 6.00 Build 0)  -->
<svg version="1.1" id="Ebene_2" xmlns="http://www.w3.org/2000/svg" xmlns:xlink="http://www.w3.org/1999/xlink" x="0px" y="0px"
	 viewBox="0 0 60 60" style="enable-background:new 0 0 60 60;" xml:space="preserve">
<title>browse</title>
<path d="M42.8,3.5c-4.7,0.1-9.3,1.8-12.8,5c-3.5-3.2-8.1-4.9-12.8-5H0v49h15.7c4.3,0.1,8.5,1.5,12,4h4.6c3.5-2.5,7.7-3.9,12-4H60
	v-49H42.8z M28.5,53.4c-3.8-2.5-8.3-3.9-12.8-3.9v0H3v-43h14.2c4,0.1,7.8,1.5,10.7,4.2l0.6,0.6V53.4z M57,49.5H44.3
	c-4.6,0.1-9,1.4-12.8,3.9V11.3l0.6-0.6c3-2.6,6.8-4.1,10.7-4.1H57V49.5z"/>
</svg>
