<svg id="Ebene_1" data-name="Ebene 1" xmlns="http://www.w3.org/2000/svg" viewBox="0 0 60 60"><defs><style>.cls-1{fill:#1d1d1b;}</style></defs><title>watchlist</title><path class="cls-1" d="M10.07,44a7,7,0,1,0,7,7A7,7,0,0,0,10.07,44Zm0,11a4,4,0,1,1,4-4A4,4,0,0,1,10.07,55Z"/><path class="cls-1" d="M10.07,23a7,7,0,1,0,7,7A7,7,0,0,0,10.07,23Zm0,11a4,4,0,1,1,4-4A4,4,0,0,1,10.07,34Z"/><polygon class="cls-1" points="8.83 12.54 4.13 7.84 2.01 9.96 9.3 17.25 18.32 3.73 15.82 2.07 8.83 12.54"/><rect class="cls-1" x="23" y="7.5" width="37" height="3"/><rect class="cls-1" x="23" y="28.5" width="37" height="3"/><rect class="cls-1" x="23" y="49.5" width="37" height="3"/></svg>