<?xml version="1.0" encoding="utf-8"?>
<!-- Generator: Adobe Illustrator 20.1.0, SVG Export Plug-In . SVG Version: 6.00 Build 0)  -->
<svg version="1.1" id="Ebene_2" xmlns="http://www.w3.org/2000/svg" xmlns:xlink="http://www.w3.org/1999/xlink" x="0px" y="0px"
	 viewBox="0 0 60 60" style="enable-background:new 0 0 60 60;" xml:space="preserve">
<title>locate</title>
<g>
	<circle cx="30" cy="30" r="5"/>
	<path d="M55,28.5C54.3,15.8,44.2,5.7,31.5,5V0h-3v5C15.8,5.7,5.7,15.8,5,28.5H0v3h5c0.8,12.6,10.8,22.7,23.5,23.4V60h3v-5.1
		C44.1,54.2,54.2,44.1,55,31.5h5v-3H55z M51.9,31.5c-0.8,10.9-9.5,19.7-20.4,20.4V47h-3v4.9c-11-0.8-19.7-9.5-20.4-20.4H13v-3H8
		C8.8,17.5,17.5,8.8,28.5,8v5h3V8c11,0.8,19.7,9.5,20.5,20.5h-5v3H51.9z"/>
</g>
</svg>
