<svg id="Ebene_3" data-name="Ebene 3" xmlns="http://www.w3.org/2000/svg" viewBox="0 0 60 60"><title>invisible</title><path d="M15.33,38.29A45.19,45.19,0,0,1,4.06,30,42.5,42.5,0,0,1,20.61,19.52a12,12,0,0,0-.66,14.16L37.73,15.93A33,33,0,0,0,30,15C12,15,0,30,0,30A46.66,46.66,0,0,0,13.1,40.52Z"/><rect x="-3.92" y="28.46" width="67.84" height="3" transform="translate(-12.4 29.96) rotate(-44.96)"/><path d="M30,39.1A12,12,0,0,0,41.77,24.52L27.46,38.82A12,12,0,0,0,30,39.1Z"/><path d="M46.85,19.45,44.6,21.7A45.15,45.15,0,0,1,55.94,30C52.2,33.8,42.65,42,30,42a29.19,29.19,0,0,1-5.24-.49l-2.54,2.54A33,33,0,0,0,30,45c18,0,30-15,30-15A46.71,46.71,0,0,0,46.85,19.45Z"/></svg>