<?xml version="1.0" encoding="utf-8"?>
<!-- Generator: Adobe Illustrator 20.1.0, SVG Export Plug-In . SVG Version: 6.00 Build 0)  -->
<svg version="1.1" id="Ebene_2" xmlns="http://www.w3.org/2000/svg" xmlns:xlink="http://www.w3.org/1999/xlink" x="0px" y="0px"
	 viewBox="0 0 60 60" style="enable-background:new 0 0 60 60;" xml:space="preserve">
<title>pointer-hand</title>
<path d="M49,22h-3c0-1.7-1.3-3-3-3h-5c0-1.7-1.3-3-3-3h-5V6c0,0,0-6-6-6s-6,6-6,6v26l-4.5-4c-0.6-0.4-1.3-0.6-2-0.5
	c-1.1,0-2.1,0.4-3,1c-2.1,1.3-2.8,4.1-1.6,6.2L23,60h25l6-21V27C54,24.2,51.8,22,49,22z M51,38.6L45.7,57H24.7L9.5,33.2
	c-0.4-0.8-0.1-1.8,0.7-2.2c0.4-0.3,0.8-0.4,1.3-0.5c0.1,0,0.2,0,0.3,0l4.2,3.8l5,4.4V6c0-1.4,0.6-3,3-3c1.5-0.2,2.8,0.9,3,2.5
	c0,0.2,0,0.4,0,0.5v13v8h3v-8h5v3v8h3v-8h5v3v8h3v-8h3c1.1,0,2,0.9,2,2V38.6z"/>
</svg>
