<?xml version="1.0" encoding="utf-8"?>
<!-- Generator: Adobe Illustrator 20.1.0, SVG Export Plug-In . SVG Version: 6.00 Build 0)  -->
<svg version="1.1" id="Ebene_2" xmlns="http://www.w3.org/2000/svg" xmlns:xlink="http://www.w3.org/1999/xlink" x="0px" y="0px"
	 viewBox="0 0 60 60" style="enable-background:new 0 0 60 60;" xml:space="preserve">
<title>lock</title>
<g>
	<path d="M27.5,42v9.2h5V42c2.4-1.4,3.2-4.4,1.8-6.8c-1.4-2.4-4.4-3.2-6.8-1.8c-2.4,1.4-3.2,4.4-1.8,6.8
		C26.1,40.9,26.7,41.6,27.5,42z"/>
	<path d="M47.5,24v-6.4c0-9.7-7.8-17.5-17.5-17.5S12.5,7.9,12.5,17.6V24H6v36h48V24H47.5z M15.5,17.6c0-8,6.5-14.5,14.5-14.5
		s14.5,6.5,14.5,14.5V24h-29V17.6z M51,57H9V27h42V57z"/>
</g>
</svg>
