<?xml version="1.0" encoding="utf-8"?>
<!-- Generator: Adobe Illustrator 20.1.0, SVG Export Plug-In . SVG Version: 6.00 Build 0)  -->
<svg version="1.1" id="Ebene_1" xmlns="http://www.w3.org/2000/svg" xmlns:xlink="http://www.w3.org/1999/xlink" x="0px" y="0px"
	 viewBox="0 0 60 60" style="enable-background:new 0 0 60 60;" xml:space="preserve">
<title>search</title>
<path d="M41.7,34.3c6.5-10.6,3.2-24.4-7.4-30.9C23.7-3.2,9.8,0.1,3.3,10.7c-6.5,10.6-3.2,24.4,7.4,30.9c7.2,4.4,16.3,4.4,23.5,0
	L52.6,60l7.4-7.4L41.7,34.3z M22.5,42C11.7,42,3,33.3,3,22.5C3,11.7,11.7,3,22.5,3S42,11.7,42,22.5S33.3,42,22.5,42z M36.7,39.9
	c1.2-1,2.2-2,3.2-3.2l15.8,15.8l-3.2,3.2L36.7,39.9z"/>
</svg>
