<?xml version="1.0" encoding="utf-8"?>
<!-- Generator: Adobe Illustrator 20.1.0, SVG Export Plug-In . SVG Version: 6.00 Build 0)  -->
<svg version="1.1" id="Ebene_1" xmlns="http://www.w3.org/2000/svg" xmlns:xlink="http://www.w3.org/1999/xlink" x="0px" y="0px"
	 viewBox="0 0 60 60" style="enable-background:new 0 0 60 60;" xml:space="preserve">
<style type="text/css">
	.st0{fill:#1D1D1B;}
</style>
<title>zoom-in</title>
<g>
	<polygon class="st0" points="24,10.5 21,10.5 21,21 10.5,21 10.5,24 21,24 21,34.5 24,34.5 24,24 34.5,24 34.5,21 24,21 	"/>
	<path class="st0" d="M41.7,34.2c6.5-10.6,3.1-24.4-7.5-30.9C23.6-3.2,9.8,0.2,3.3,10.8c-6.5,10.6-3.1,24.4,7.5,30.9
		c7.2,4.4,16.2,4.4,23.4,0l18.4,18.4l7.5-7.5L41.7,34.2z M22.5,42C11.7,42,3,33.3,3,22.5C3,11.7,11.7,3,22.5,3S42,11.7,42,22.5
		S33.3,42,22.5,42z M36.7,40c1.2-1,2.3-2.1,3.3-3.3l15.8,15.9l-3.3,3.3L36.7,40z"/>
</g>
</svg>
