<?xml version="1.0" encoding="utf-8"?>
<!-- Generator: Adobe Illustrator 20.0.0, SVG Export Plug-In . SVG Version: 6.00 Build 0)  -->
<svg version="1.1" id="Ebene_1" xmlns="http://www.w3.org/2000/svg" xmlns:xlink="http://www.w3.org/1999/xlink" x="0px" y="0px"
	 viewBox="0 0 60 60" style="enable-background:new 0 0 60 60;" xml:space="preserve">
<path d="M30,0C18.4,0,9,9.4,9,21c0,15,21,39,21,39s21-24,21-39C51,9.4,41.6,0,30,0z M30,55.3C23.5,47.3,12,31.1,12,21
	c0-9.9,8.1-18,18-18s18,8.1,18,18C48,31.1,36.5,47.3,30,55.3z"/>
<path d="M30,9c-6.6,0-12,5.4-12,12s5.4,12,12,12s12-5.4,12-12S36.6,9,30,9z M30,30c-5,0-9-4-9-9s4-9,9-9s9,4,9,9S35,30,30,30z"/>
</svg>
