<?xml version="1.0" encoding="utf-8"?>
<!-- Generator: Adobe Illustrator 20.1.0, SVG Export Plug-In . SVG Version: 6.00 Build 0)  -->
<svg version="1.1" id="Ebene_1" xmlns="http://www.w3.org/2000/svg" xmlns:xlink="http://www.w3.org/1999/xlink" x="0px" y="0px"
	 viewBox="0 0 60 60" style="enable-background:new 0 0 60 60;" xml:space="preserve">
<title>contact--slim</title>
<g>
	<path d="M59.1,46.1L47.8,34.8c-0.1-0.1-0.2-0.2-0.4-0.3c-0.1-0.1-0.2-0.1-0.3-0.2c-1-0.5-2.1-0.5-3.1,0.1l-0.2,0.2
		c-0.1,0.1-0.2,0.1-0.2,0.2l-0.1,0.1l-6,8c0,0-3.8-0.7-11.7-8.6s-8.6-11.7-8.6-11.7l8-6c1.2-1.2,1.2-3.2,0-4.4c0,0,0,0,0,0L13.9,0.9
		c-1.2-1.2-3.2-1.2-4.4,0L1.8,8.6c0,0-4.5,4.4,0.6,16.4C6.9,35.5,16,44,16,44s8.5,9.1,19,13.6c3.2,1.5,6.7,2.3,10.2,2.4
		c4.4,0,6.2-1.8,6.2-1.8l7.7-7.7C60.3,49.3,60.3,47.3,59.1,46.1C59.1,46.1,59.1,46.1,59.1,46.1z M57,48.4L49.3,56
		c-1.2,0.8-2.7,1.1-4.1,1c-3.1-0.1-6.2-0.9-9-2.2C26.4,50.7,18.3,42,18.2,42l-0.1-0.1L18,41.8c-0.1-0.1-8.7-8.2-12.8-18
		C1.3,14.6,3.8,10.9,4,10.7L11.6,3c0.1,0,0.1,0,0.2,0l11.3,11.3c0,0,0,0.1,0,0.1l-7.7,5.8l-1.5,1.1l0.4,1.8
		c0.2,0.8,1.3,5.2,9.4,13.2s12.4,9.2,13.2,9.4l1.8,0.4l1.1-1.5l5.8-7.7c0,0,0.1,0,0.1,0L57,48.2C57,48.3,57,48.3,57,48.4z"/>
	<path d="M43.5,34.7l-0.1,0.1c0.1-0.1,0.2-0.2,0.4-0.3L43.5,34.7z"/>
	<path d="M24.2,7l3,3h27.4L40.5,22.7c-2.5,2.2-3.4,2.2-6,0l-6.1-5.5c-0.3,0.6-0.6,1.1-1.1,1.5l-0.1,0.2L27,19l-0.6,0.4l2.9,2.6
		l-5.7,5.4c0.6,0.7,1.2,1.5,2,2.3l6-5.7l1,0.9c1.9,1.6,3.5,2.4,5,2.4s3.1-0.8,5-2.4l1-0.9L54,34h-2.8l3,3H60V7H24.2z M57,32.7
		L45.7,22L57,11.9V32.7z"/>
	<path d="M40.2,34H29.8c1.3,1.2,2.5,2.2,3.5,3H38L40.2,34z"/>
</g>
</svg>
