<?xml version="1.0" encoding="utf-8"?>
<!-- Generator: Adobe Illustrator 20.1.0, SVG Export Plug-In . SVG Version: 6.00 Build 0)  -->
<svg version="1.1" id="Ebene_2" xmlns="http://www.w3.org/2000/svg" xmlns:xlink="http://www.w3.org/1999/xlink" x="0px" y="0px"
	 viewBox="0 0 60 60" style="enable-background:new 0 0 60 60;" xml:space="preserve">
<path d="M58.6,45.8L47.5,34.7c-1.2-1.2-3.1-1.2-4.4,0l-5.9,7.9c0,0-3.8-0.7-11.5-8.4s-8.4-11.5-8.4-11.5l7.9-5.9
	c1.2-1.2,1.2-3.1,0-4.3L14.2,1.4c-0.6-0.6-1.4-0.9-2.2-0.9l0.1,0c-0.8,0-1.6,0.3-2.2,0.9L2.3,9c0,0-4.4,4.3,0.6,16.1
	c4.4,10.3,13.3,18.7,13.3,18.7s8.4,9,18.7,13.3c3.1,1.5,6.5,2.3,10,2.4c4.3,0,6.1-1.8,6.1-1.8l7.6-7.5C59.8,49,59.8,47,58.6,45.8z
	 M56.5,48l-7.6,7.6c-1.2,0.7-2.6,1-4,0.9c-3.1-0.1-6.1-0.9-8.8-2.2c-9.6-4-17.6-12.5-17.7-12.6l-0.1-0.1l-0.1-0.1
	c-0.1-0.1-8.6-8.1-12.6-17.7c-3.8-9-1.4-12.6-1.2-12.9L12,3.5c0,0,0,0,0.1,0l-0.1,0c0,0,0,0,0,0l11.1,11.1c0,0,0,0,0,0l-7.6,5.7
	l-1.5,1.1l0.4,1.8c0.2,0.8,1.3,5.1,9.2,13s12.2,9.1,13,9.2l1.9,0.4l1.1-1.5l5.7-7.6c0,0,0,0,0.1,0l11.1,11.1
	C56.5,48,56.5,48,56.5,48z"/>
</svg>
