<svg id="Ebene_1" data-name="Ebene 1" xmlns="http://www.w3.org/2000/svg" viewBox="0 0 60 60"><title>placeholder</title><path d="M60,30A29.89,29.89,0,0,0,52.25,9.87l7.69-7.69L57.81.06,50.13,7.75a30,30,0,0,0-40.25,0L2.19.06.06,2.19,7.75,9.87a30,30,0,0,0,0,40.25L.06,57.81l2.12,2.12,7.69-7.69a30,30,0,0,0,40.25,0l7.69,7.69,2.12-2.12-7.69-7.69A29.89,29.89,0,0,0,60,30ZM30,3A26.89,26.89,0,0,1,48,9.89l-18,18-18-18A26.89,26.89,0,0,1,30,3ZM3,30A26.89,26.89,0,0,1,9.89,12l18,18-18,18A26.89,26.89,0,0,1,3,30ZM30,57a26.89,26.89,0,0,1-18-6.89l18-18,18,18A26.89,26.89,0,0,1,30,57Zm20.11-9-18-18,18-18a26.94,26.94,0,0,1,0,36Z"/></svg>