<?xml version="1.0" encoding="utf-8"?>
<!-- Generator: Adobe Illustrator 20.1.0, SVG Export Plug-In . SVG Version: 6.00 Build 0)  -->
<svg version="1.1" id="Ebene_2" xmlns="http://www.w3.org/2000/svg" xmlns:xlink="http://www.w3.org/1999/xlink" x="0px" y="0px"
	 viewBox="0 0 60 60" style="enable-background:new 0 0 60 60;" xml:space="preserve">
<title>basket</title>
<g>
	<path d="M27.5,39.6c-3.5,0-6.2,2.8-6.2,6.2c0,3.5,2.8,6.2,6.2,6.2c3.5,0,6.3-2.8,6.3-6.2S31,39.6,27.5,39.6z M27.5,49.1
		c-1.8,0-3.2-1.5-3.2-3.2s1.5-3.2,3.2-3.2c1.8,0,3.2,1.5,3.2,3.2S29.3,49.1,27.5,49.1z"/>
	<path d="M44.8,39.6c-3.5,0-6.2,2.8-6.2,6.2s2.8,6.2,6.2,6.2s6.2-2.8,6.2-6.2S48.3,39.6,44.8,39.6z M44.8,49.1
		c-1.8,0-3.2-1.5-3.2-3.2s1.5-3.2,3.2-3.2s3.2,1.5,3.2,3.2S46.6,49.1,44.8,49.1z"/>
	<path d="M15.2,15.9l-3.6-9.4H0v3h9.5l7.6,19.8l2.8,7.4h32.5L60,15.9H15.2z M50.4,33.6H22.1l-5.7-14.8h39.4L50.4,33.6z"/>
</g>
</svg>
