<?xml version="1.0" encoding="utf-8"?>
<!-- Generator: Adobe Illustrator 20.1.0, SVG Export Plug-In . SVG Version: 6.00 Build 0)  -->
<svg version="1.1" id="Ebene_1" xmlns="http://www.w3.org/2000/svg" xmlns:xlink="http://www.w3.org/1999/xlink" x="0px" y="0px"
	 viewBox="0 0 60 60" style="enable-background:new 0 0 60 60;" xml:space="preserve">
<title>social-sharing</title>
<path d="M53.6,42.4C52.8,42.1,51.9,42,51,42c-2.9,0-5.6,1.4-7.3,3.7L17.6,32.6c0.5-1.7,0.5-3.5,0-5.2l26.1-13.1
	c2.9,4,8.5,4.8,12.5,1.9S61,7.7,58.1,3.7c-2.9-4-8.5-4.8-12.5-1.9c-3,2.2-4.3,6.2-3.2,9.8L16.3,24.7c-2.9-4-8.6-4.9-12.6-2
	c-4,2.9-4.9,8.6-2,12.6c2.9,4,8.6,4.9,12.6,2c0.8-0.5,1.4-1.2,2-2l26.1,13.1c-1.5,4.8,1.2,9.8,6,11.2c4.8,1.5,9.8-1.2,11.2-6
	S58.4,43.8,53.6,42.4z"/>
</svg>
