<?xml version="1.0" encoding="utf-8"?>
<!-- Generator: Adobe Illustrator 20.1.0, SVG Export Plug-In . SVG Version: 6.00 Build 0)  -->
<svg version="1.1" id="Ebene_1" xmlns="http://www.w3.org/2000/svg" xmlns:xlink="http://www.w3.org/1999/xlink" x="0px" y="0px"
	 viewBox="0 0 60 60" style="enable-background:new 0 0 60 60;" xml:space="preserve">
<polygon points="58.7,21.1 59.8,18.3 30.5,7.3 29.5,7.3 0.2,18.3 1.3,21.1 30,10.3 "/>
<path d="M21.4,46H7V26h13.9c0.7-1.1,1.5-2.1,2.5-3H4v26h20.2C23.1,48.1,22.2,47.1,21.4,46z"/>
<path d="M48.1,43.3c4.2-6.9,2.1-15.9-4.8-20.2S27.3,21,23.1,27.9S21,43.9,27.9,48.1c4.7,2.9,10.6,2.9,15.3,0l0,0L55.2,60l4.8-4.8
	L48.1,43.3z M35.6,47.3c-6.4,0-11.6-5.2-11.6-11.6C24,29.2,29.2,24,35.6,24c6.4,0,11.6,5.2,11.6,11.6C47.2,42,42,47.2,35.6,47.3
	L35.6,47.3z M55.2,55.8l-9.5-9.5c0.2-0.2,0.4-0.4,0.6-0.6l0,0l9.5,9.5L55.2,55.8z"/>
</svg>
