<?xml version="1.0" encoding="utf-8"?>
<!-- Generator: Adobe Illustrator 21.1.0, SVG Export Plug-In . SVG Version: 6.00 Build 0)  -->
<svg version="1.1" id="eps" xmlns="http://www.w3.org/2000/svg" xmlns:xlink="http://www.w3.org/1999/xlink" x="0px" y="0px"
	 viewBox="0 0 60 60" style="enable-background:new 0 0 60 60;" xml:space="preserve">
<g>
	<path d="M29,22.5h2c0.28,0,0.5-0.22,0.5-0.5v-5c0-0.28-0.22-0.5-0.5-0.5c-1.38,0-2.5,1.12-2.5,2.5v3C28.5,22.28,28.72,22.5,29,22.5
		z"/>
	<path d="M57.45,4.5c-1.34-0.82-5.65-3-13.45-3c-9.04,0-13.55,6.57-14.91,9h-2.1c-6.22,0-11.42,4.48-12.36,10.65
		C13.88,26.02,13.5,30.68,13.5,35c0,9.57,1.84,17.79,2.67,21c0.07,0.29,0.18,0.67,0.29,1.05c0.24,0.86,1.03,1.45,1.92,1.45h23.23
		c0.89,0,1.68-0.59,1.92-1.45c0.11-0.38,0.21-0.76,0.29-1.05c0.83-3.21,2.67-11.43,2.67-21c0-9.71-1.9-18.64-2.7-22
		c-0.06-0.27-0.16-0.64-0.25-1c-0.23-0.88-1.03-1.49-1.93-1.49h-8.95c1.75-2.4,5.36-6,11.34-6c5.13,0,8.53,1.03,10.39,1.81
		c1.06,0.45,2.29,0.12,2.98-0.8l0.22-0.29C57.76,4.99,57.7,4.65,57.45,4.5z M40.86,55.5H19.15c-0.38-1.46-1.06-4.31-1.63-8h24.97
		C41.91,51.19,41.23,54.04,40.86,55.5z M43.5,35c0,3.38-0.25,6.61-0.6,9.5H17.1c-0.35-2.89-0.6-6.12-0.6-9.5
		c0-4.17,0.37-8.67,1.09-13.39c0.72-4.7,4.67-8.11,9.4-8.11h13.84C41.56,16.55,43.5,25.5,43.5,35z"/>
</g>
</svg>
