<?xml version="1.0" encoding="utf-8"?>
<!-- Generator: Adobe Illustrator 21.1.0, SVG Export Plug-In . SVG Version: 6.00 Build 0)  -->
<svg version="1.1" id="eps" xmlns="http://www.w3.org/2000/svg" xmlns:xlink="http://www.w3.org/1999/xlink" x="0px" y="0px"
	 viewBox="0 0 60 60" style="enable-background:new 0 0 60 60;" xml:space="preserve">
<g>
	<path d="M26.39,30.1l10.38-5.19c1.47-0.74,1.47-2.84,0-3.58l-10.38-5.19c-1.33-0.66-2.89,0.3-2.89,1.79v10.38
		C23.5,29.8,25.06,30.76,26.39,30.1z M26.5,19.55l7.15,3.57l-7.15,3.57C26.5,26.69,26.5,19.55,26.5,19.55z"/>
	<path d="M56.5,7.5h-53c-1.1,0-2,0.9-2,2V35c0,6.35,5.15,11.5,11.5,11.5h11.5v3h-5c-0.28,0-0.5,0.22-0.5,0.5
		c0,1.38,1.12,2.5,2.5,2.5h19c0.28,0,0.5-0.22,0.5-0.5v-2c0-0.28-0.22-0.5-0.5-0.5h-5v-3h21c1.1,0,2-0.9,2-2v-35
		C58.5,8.4,57.6,7.5,56.5,7.5z M4.5,10.5h51v25H4.53C4.52,35.33,4.5,35.17,4.5,35V10.5z M32.5,49.5h-5v-3h5V49.5z M13,43.5
		c-3.45,0-6.4-2.05-7.74-5H55.5v5H13z"/>
</g>
</svg>
