<?xml version="1.0" encoding="utf-8"?>
<!-- Generator: Adobe Illustrator 21.1.0, SVG Export Plug-In . SVG Version: 6.00 Build 0)  -->
<svg version="1.1" id="eps" xmlns="http://www.w3.org/2000/svg" xmlns:xlink="http://www.w3.org/1999/xlink" x="0px" y="0px"
	 viewBox="0 0 60 60" style="enable-background:new 0 0 60 60;" xml:space="preserve">
<g>
	<path d="M44.5,1.5h-29c-1.1,0-2,0.9-2,2V47c0,6.35,5.15,11.5,11.5,11.5h19.5c1.1,0,2-0.9,2-2v-53C46.5,2.4,45.6,1.5,44.5,1.5z
		 M43.5,55.5H25c-4.69,0-8.5-3.81-8.5-8.5V4.5h27V55.5z"/>
	<circle cx="30" cy="51" r="2"/>
	<path d="M26.5,10h7c0.28,0,0.5-0.22,0.5-0.5v-2C34,7.22,33.78,7,33.5,7h-5C27.12,7,26,8.12,26,9.5C26,9.78,26.22,10,26.5,10z"/>
</g>
</svg>
