<?xml version="1.0" encoding="utf-8"?>
<!-- Generator: Adobe Illustrator 21.1.0, SVG Export Plug-In . SVG Version: 6.00 Build 0)  -->
<svg version="1.1" id="EPS" xmlns="http://www.w3.org/2000/svg" xmlns:xlink="http://www.w3.org/1999/xlink" x="0px" y="0px"
	 viewBox="0 0 60 60" style="enable-background:new 0 0 60 60;" xml:space="preserve">
<g>
	<ellipse transform="matrix(0.7071 -0.7071 0.7071 0.7071 -23.0408 34.3721)" cx="29.97" cy="45" rx="4" ry="4"/>
	<path d="M57.7,22.58c-15.38-14.99-40.02-14.99-55.4,0c-0.2,0.2-0.2,0.52,0,0.72l0.05,0.05c0.94,0.94,2.44,0.96,3.44,0.09
		c0.34-0.3,0.68-0.59,1.02-0.87c13.7-11.19,33.67-10.97,47.13,0.64c0.09,0.08,0.18,0.16,0.27,0.24c1,0.88,2.49,0.85,3.43-0.09
		l0.05-0.05C57.9,23.1,57.9,22.78,57.7,22.58z"/>
	<path d="M8.96,29.21c-0.2,0.2-0.2,0.52,0,0.72L9.02,30c0.93,0.93,2.4,0.96,3.4,0.12c0.44-0.37,0.9-0.73,1.36-1.07
		c9.81-7.27,23.42-7.13,33.08,0.43c0.29,0.22,0.57,0.46,0.85,0.69c0.98,0.83,2.44,0.74,3.35-0.17l0.07-0.07c0.2-0.2,0.2-0.53,0-0.72
		C39.38,17.87,20.68,17.87,8.96,29.21z"/>
	<path d="M29.97,30.7c-5.25,0-10.19,1.98-13.97,5.58c-0.2,0.19-0.2,0.52-0.01,0.72l0.1,0.1c0.89,0.89,2.3,0.98,3.29,0.21
		c0.37-0.29,0.74-0.56,1.13-0.81c2.79-1.83,6.04-2.81,9.45-2.81c3.59,0,7.01,1.09,9.89,3.1c0.25,0.17,0.49,0.35,0.73,0.54
		c0.98,0.76,2.38,0.64,3.26-0.23l0.1-0.1c0.2-0.2,0.2-0.53-0.01-0.72C40.15,32.68,35.21,30.7,29.97,30.7z"/>
</g>
</svg>
