<?xml version="1.0" encoding="utf-8"?>
<!-- Generator: Adobe Illustrator 21.1.0, SVG Export Plug-In . SVG Version: 6.00 Build 0)  -->
<svg version="1.1" id="EPS" xmlns="http://www.w3.org/2000/svg" xmlns:xlink="http://www.w3.org/1999/xlink" x="0px" y="0px"
	 viewBox="0 0 60 60" style="enable-background:new 0 0 60 60;" xml:space="preserve">
<path d="M47.5,27.5c-0.64,0-1.27,0.07-1.89,0.17l-5.07-15.79c-0.27-0.83-1.04-1.39-1.9-1.39h-5.17c-0.28,0-0.5,0.22-0.5,0.5
	c0,1.38,1.12,2.5,2.5,2.5h2.44l2.25,7H22.65l-1.34-3h2.19c0.28,0,0.5-0.22,0.5-0.5c0-1.38-1.12-2.5-2.5-2.5h-6
	c-0.28,0-0.5,0.22-0.5,0.5v2c0,0.28,0.22,0.5,0.5,0.5h2.53l1.67,3.74l-3.72,6.83c-1.09-0.37-2.26-0.57-3.47-0.57
	c-6.07,0-11,4.93-11,11s4.93,11,11,11c5.56,0,10.15-4.14,10.89-9.5h5.4c0.61,0,1.19-0.28,1.57-0.76L41.6,24.95l1.17,3.64
	c-3.69,1.78-6.26,5.54-6.26,9.91c0,6.07,4.93,11,11,11s11-4.93,11-11S53.57,27.5,47.5,27.5z M12.5,46.5c-4.41,0-8-3.59-8-8
	s3.59-8,8-8c0.69,0,1.36,0.1,2.01,0.26l-3.42,6.28C10.36,38.38,11.32,40,12.84,40h7.51C19.65,43.7,16.4,46.5,12.5,46.5z M14.52,37
	l2.69-4.95c1.6,1.17,2.75,2.92,3.14,4.95H14.52z M23.39,37c-0.43-3.15-2.2-5.89-4.72-7.6l2.56-4.71L26.72,37H23.39z M29.38,35.62
	l-5.4-12.12h14.93L29.38,35.62z M47.5,46.5c-4.41,0-8-3.59-8-8c0-3.03,1.69-5.67,4.18-7.03l2.12,6.61c0.42,1.31,1.83,2.04,3.14,1.61
	c0.26-0.08,0.41-0.37,0.32-0.63l-2.73-8.5c0.31-0.04,0.63-0.06,0.96-0.06c4.41,0,8,3.59,8,8S51.91,46.5,47.5,46.5z"/>
</svg>
