<?xml version="1.0" encoding="utf-8"?>
<!-- Generator: Adobe Illustrator 21.1.0, SVG Export Plug-In . SVG Version: 6.00 Build 0)  -->
<svg version="1.1" id="EPS_1_" xmlns="http://www.w3.org/2000/svg" xmlns:xlink="http://www.w3.org/1999/xlink" x="0px" y="0px"
	 viewBox="0 0 60 60" style="enable-background:new 0 0 60 60;" xml:space="preserve">
<g>
	<path d="M19.61,40.23c0.56,0.28,1.23,0.28,1.79,0l17-8.5c0.68-0.34,1.11-1.03,1.11-1.79V13.06c0-0.76-0.43-1.45-1.11-1.79l-17-8.5
		c-0.56-0.28-1.23-0.28-1.79,0l-17,8.5C1.93,11.61,1.5,12.3,1.5,13.06v11.01c0,4.36,2.46,8.34,6.36,10.29L19.61,40.23z M36.5,29.32
		L22,36.57V22.43l14.5-7.25V29.32z M34.65,12.75L20.5,19.82l-5.4-2.7l14.15-7.07L34.65,12.75z M20.5,5.68l5.4,2.7l-14.15,7.07
		l-5.4-2.7L20.5,5.68z M4.5,24.07v-8.89L19,22.43v14.15l-9.8-4.9C6.3,30.22,4.5,27.31,4.5,24.07z"/>
	<path d="M30.51,1.5C30.23,1.5,30,1.73,30,2.01v0.11c0,1.31,1.01,2.37,2.31,2.49C45.29,5.78,55.5,16.72,55.5,30
		c0,14.52-12.21,26.25-26.9,25.46c-6.42-0.34-12.45-3.24-17-7.79l-1.17-1.17h5.9c1.38,0,2.5-1.12,2.5-2.5c0-0.28-0.22-0.5-0.5-0.5
		h-11c-1.1,0-2,0.9-2,2v11c0,0.28,0.22,0.5,0.5,0.5c1.38,0,2.5-1.12,2.5-2.5v-5.85l1.1,1.1c5.08,5.08,11.82,8.33,19,8.71
		C44.86,59.34,58.5,46.23,58.5,30C58.5,14.46,45.99,1.78,30.51,1.5z"/>
</g>
</svg>
