<?xml version="1.0" encoding="utf-8"?>
<!-- Generator: Adobe Illustrator 21.1.0, SVG Export Plug-In . SVG Version: 6.00 Build 0)  -->
<svg version="1.1" id="EPS" xmlns="http://www.w3.org/2000/svg" xmlns:xlink="http://www.w3.org/1999/xlink" x="0px" y="0px"
	 viewBox="0 0 60 60" style="enable-background:new 0 0 60 60;" xml:space="preserve">
<g>
	<path d="M57.83,32.61l-4.15-4.95c-0.71-0.85-1.97-0.96-2.82-0.25l-4.95,4.14c-0.21,0.18-0.24,0.49-0.06,0.7l0,0
		c0.89,1.06,2.46,1.2,3.52,0.31l1.06-0.88c-0.69,8.5-6.56,15.66-14.71,18c-1.21,0.35-1.94,1.58-1.72,2.82l0.02,0.12
		c0.05,0.28,0.32,0.47,0.59,0.41c10.31-2.05,17.92-10.67,18.79-21.04l0.84,1c0.89,1.06,2.46,1.2,3.52,0.31
		C57.98,33.14,58.01,32.83,57.83,32.61z"/>
	<path d="M7.06,24.68c0.46,1.01,1.64,1.45,2.65,1l5.89-2.66c0.25-0.11,0.36-0.41,0.25-0.66l0,0c-0.57-1.26-2.05-1.82-3.31-1.25
		l-1.27,0.57c1.09-2.45,2.64-4.66,4.59-6.52c0.91-0.87,1-2.3,0.23-3.3l-0.08-0.1c-0.17-0.22-0.5-0.27-0.72-0.09
		c-2.98,2.39-5.29,5.43-6.8,8.88l-0.53-1.18c-0.57-1.26-2.05-1.82-3.31-1.25l0,0c-0.25,0.11-0.36,0.41-0.25,0.66L7.06,24.68z"/>
	<path d="M12.76,35.24c0.64,0.79,1.73,1.05,2.72,0.71l0.39-0.13c0.27-0.09,0.41-0.39,0.3-0.66c-1.43-3.38-5.16-5.38-8.97-4.41
		c-2.86,0.73-5.1,3.14-5.59,6.05c-0.63,3.73,1.42,7.18,4.76,8.47c0.26,0.1,0.56-0.05,0.65-0.33l0.13-0.42
		c0.31-0.98-0.01-2.07-0.83-2.69c-1.4-1.06-2.13-2.88-1.7-4.78c0.35-1.56,1.55-2.85,3.07-3.33C9.65,33.11,11.61,33.81,12.76,35.24z"
		/>
	<path d="M20,37.5c-5.79,0-10.5,4.71-10.5,10.5S14.21,58.5,20,58.5S30.5,53.79,30.5,48S25.79,37.5,20,37.5z M20,55.5
		c-4.14,0-7.5-3.36-7.5-7.5s3.36-7.5,7.5-7.5s7.5,3.36,7.5,7.5S24.14,55.5,20,55.5z"/>
	<path d="M21.13,43.48h-1.26c-0.1,0-0.19,0.02-0.3,0.07l-2.28,0.92c-0.16,0.05-0.21,0.16-0.16,0.32l0.42,1.25
		c0.05,0.16,0.16,0.21,0.32,0.16l1.24-0.47v6.46c0,0.17,0.09,0.26,0.26,0.26h1.75c0.17,0,0.26-0.09,0.26-0.26v-8.45
		C21.39,43.57,21.31,43.48,21.13,43.48z"/>
	<path d="M26.86,27.36l7.75,3.87c0.56,0.28,1.23,0.28,1.79,0l13-6.5c0.68-0.34,1.11-1.03,1.11-1.79V10.06
		c0-0.76-0.43-1.45-1.11-1.79l-13-6.5c-0.56-0.28-1.23-0.28-1.79,0l-13,6.5c-0.68,0.34-1.11,1.03-1.11,1.79v7.01
		C20.5,21.45,22.94,25.39,26.86,27.36z M47.5,22.32L37,27.57V17.43l10.5-5.25V22.32z M45.65,9.75L35.5,14.82l-3.4-1.7l10.15-5.07
		L45.65,9.75z M35.5,4.68l3.4,1.7l-10.15,5.07l-3.4-1.7L35.5,4.68z M23.5,12.18L34,17.43v10.15l-5.8-2.9c-2.9-1.45-4.7-4.36-4.7-7.6
		V12.18z"/>
</g>
</svg>
