<?xml version="1.0" encoding="utf-8"?>
<!-- Generator: Adobe Illustrator 21.1.0, SVG Export Plug-In . SVG Version: 6.00 Build 0)  -->
<svg version="1.1" id="eps" xmlns="http://www.w3.org/2000/svg" xmlns:xlink="http://www.w3.org/1999/xlink" x="0px" y="0px"
	 viewBox="0 0 60 60" style="enable-background:new 0 0 60 60;" xml:space="preserve">
<path d="M57.39,15.02L30.89,1.77c-0.56-0.28-1.23-0.28-1.79,0L2.61,15.02c-0.68,0.34-1.11,1.03-1.11,1.79v20.51
	c0,4.36,2.46,8.34,6.36,10.29l21.25,10.62c0.56,0.28,1.23,0.28,1.79,0l26.5-13.25c0.68-0.34,1.11-1.03,1.11-1.79V16.81
	C58.5,16.05,58.07,15.36,57.39,15.02z M30,4.68L53.65,16.5L30,28.32L6.35,16.5L30,4.68z M4.5,37.32V18.93l24,12v23.65L9.2,44.92
	C6.3,43.47,4.5,40.56,4.5,37.32z M31.5,54.57V30.93l24-12v23.65L31.5,54.57z"/>
</svg>
