<?xml version="1.0" encoding="utf-8"?>
<!-- Generator: Adobe Illustrator 21.1.0, SVG Export Plug-In . SVG Version: 6.00 Build 0)  -->
<svg version="1.1" id="eps_1_" xmlns="http://www.w3.org/2000/svg" xmlns:xlink="http://www.w3.org/1999/xlink" x="0px" y="0px"
	 viewBox="0 0 60 60" style="enable-background:new 0 0 60 60;" xml:space="preserve">
<g>
	<path d="M52.3,24.76c-1.62-0.88-3.46-1.26-5.3-1.26l0,0h-2l0,0h-1.18l-6.41-10.07c-0.37-0.58-1-0.93-1.69-0.93h-20.4
		c-0.78,0-1.5,0.46-1.82,1.17L9.04,23.5h-3.6c-1,0-1.84,0.73-1.98,1.72l-1.86,13c-0.17,1.2,0.76,2.28,1.98,2.28h3.95
		c0.26,3.9,3.51,7,7.48,7s7.22-3.1,7.47-7h16.05c0.26,3.9,3.51,7,7.47,7s7.22-3.1,7.47-7h3.01c1.1,0,2-0.89,2-2v-3.49
		C58.5,30.79,56.24,26.91,52.3,24.76z M40.26,23.5H28.5v-8h6.68L40.26,23.5z M15.97,15.5h9.53v8H12.33L15.97,15.5z M15.01,44.5
		c-2.31,0-4.2-1.76-4.45-4h8.9C19.21,42.74,17.32,44.5,15.01,44.5z M46.01,44.5c-2.31,0-4.2-1.76-4.45-4h8.9
		C50.21,42.74,48.32,44.5,46.01,44.5z M55.5,37.5h-2.49h-1h-43H8.36H4.74l1.57-11H10h0.97h31.2l0,0h4.82l0,0
		c2.45,0,4.75,1.03,6.39,2.89c1.43,1.62,2.11,3.76,2.11,5.92L55.5,37.5z"/>
</g>
</svg>
