<?xml version="1.0" encoding="utf-8"?>
<!-- Generator: Adobe Illustrator 21.1.0, SVG Export Plug-In . SVG Version: 6.00 Build 0)  -->
<svg version="1.1" id="eps_1_" xmlns="http://www.w3.org/2000/svg" xmlns:xlink="http://www.w3.org/1999/xlink" x="0px" y="0px"
	 viewBox="0 0 60 60" style="enable-background:new 0 0 60 60;" xml:space="preserve">
<path d="M22.38,57.21l-7.3-12.28L2.79,37.62c-1.12-0.67-1.31-2.21-0.39-3.13l2.34-2.34C5.25,31.63,6,31.44,6.7,31.64l10.81,3.12
	l12.45-12.45L11.8,11.62c-1.13-0.66-1.32-2.21-0.4-3.14l5.31-5.31c0.57-0.57,1.42-0.74,2.17-0.44l21.77,8.89
	c4.02-4.02,6.94-6.94,7.02-7.02c1.51-1.51,3.28-2.6,5-3.08c2.01-0.56,3.75-0.24,4.9,0.91c2.17,2.17,1.21,6.51-2.17,9.89
	c-0.06,0.06-5.11,5.13-7,7.02l8.87,21.77c0.3,0.75,0.13,1.6-0.44,2.17l-5.22,5.22c-0.92,0.92-2.47,0.73-3.13-0.39L37.7,30.02
	L25.24,42.48l3.12,10.82c0.2,0.7,0.01,1.45-0.51,1.97l-2.34,2.34C24.59,58.53,23.05,58.34,22.38,57.21z M5.42,35.7l11.41,6.79
	c0.29,0.17,0.53,0.41,0.7,0.7l6.78,11.39l1.01-1.01L22.2,42.75c-0.2-0.7-0.01-1.45,0.51-1.97L36.5,26.99
	c0.92-0.92,2.47-0.73,3.13,0.39l10.77,18.1l3.84-3.84l-8.87-21.77c-0.3-0.74-0.13-1.59,0.43-2.16c0.63-0.63,1.48-1.48,2.2-2.21
	c2.25-2.25,5.24-5.26,5.27-5.29c1.13-1.13,1.97-2.47,2.31-3.68c0.25-0.9,0.2-1.63-0.14-1.97s-1.07-0.39-1.97-0.14
	c-1.21,0.34-2.55,1.18-3.68,2.31c-0.04,0.04-2.16,2.16-5.27,5.27l-2.22,2.22c-0.57,0.57-1.42,0.74-2.17,0.44L18.36,5.77l-3.92,3.92
	L32.6,20.38c1.13,0.66,1.33,2.21,0.4,3.14L19.21,37.3c-0.51,0.51-1.27,0.71-1.97,0.51L6.43,34.69L5.42,35.7z"/>
</svg>
