<?xml version="1.0" encoding="utf-8"?>
<!-- Generator: Adobe Illustrator 21.1.0, SVG Export Plug-In . SVG Version: 6.00 Build 0)  -->
<svg version="1.1" id="eps_1_" xmlns="http://www.w3.org/2000/svg" xmlns:xlink="http://www.w3.org/1999/xlink" x="0px" y="0px"
	 viewBox="0 0 60 60" style="enable-background:new 0 0 60 60;" xml:space="preserve">
<path d="M47,16h-2.5v-4.5c0-1.1-0.9-2-2-2h-39c-1.1,0-2,0.9-2,2V42c0,1.1,0.9,2,2,2h5.35c0.18,3.61,3.16,6.5,6.82,6.5
	s6.64-2.89,6.82-6.5H41.5h0.03c0.18,3.61,3.16,6.5,6.82,6.5c3.65,0,6.64-2.89,6.82-6.5h1.34c1.1,0,2-0.9,2-2V30.5v-3
	C58.5,21.16,53.34,16,47,16z M47,19c4.69,0,8.5,3.81,8.5,8.5h-11V19H47z M15.67,47.5c-2,0-3.63-1.54-3.8-3.5h7.6
	C19.29,45.96,17.67,47.5,15.67,47.5z M41.5,41h-37V12.5h37V16v11.5v3V41z M48.35,47.5c-2,0-3.63-1.54-3.8-3.5h7.6
	C51.97,45.96,50.35,47.5,48.35,47.5z M55.5,41h-11V30.5h11V41z"/>
</svg>
