<?xml version="1.0" encoding="UTF-8"?>
<svg width="280px" height="85px" viewBox="0 0 280 85" version="1.1" xmlns="http://www.w3.org/2000/svg" xmlns:xlink="http://www.w3.org/1999/xlink">
    <!-- Generator: Sketch 51.2 (57519) - http://www.bohemiancoding.com/sketch -->
    <title>logos / RGB</title>
    <desc>Created with Sketch.</desc>
    <defs></defs>
    <g id="logos-/-RGB" stroke="none" stroke-width="1" fill="none" fill-rule="evenodd">
        <path d="M51.4009662,84.5675872 L48.1422925,84.5675872 L48.1422925,68.8771802 L51.4009662,68.8771802 L51.4009662,84.5675872 Z M66.0342556,71.6569767 L57.7338603,71.6569767 L57.7338603,74.9927326 L65.3579271,74.9927326 L65.3579271,77.7107558 L57.7338603,77.7107558 L57.7338603,81.7260174 L66.4031621,81.7260174 L66.4031621,84.5675872 L54.5366711,84.5675872 L54.5366711,68.8771802 L66.0342556,68.8771802 L66.0342556,71.6569767 Z M68.9240228,68.8771802 L72.3671498,68.8771802 L78.5770751,79.8110465 L78.5770751,68.8771802 L81.6512956,68.8771802 L81.6512956,84.5675872 L78.3926219,84.5675872 L71.9367589,73.4484012 L71.9367589,84.6293605 L68.8625384,84.6293605 L68.8625384,68.8771802 L68.9240228,68.8771802 Z M87.0004392,79.7492733 C87.123408,80.4905523 87.3078612,80.9847384 87.6152833,81.3553779 C88.168643,81.9731105 89.0909091,82.34375 90.3820817,82.34375 C91.181379,82.34375 91.7962231,82.2819767 92.2880984,82.096657 C93.2103645,81.7877907 93.7022398,81.1700581 93.7022398,80.2434593 C93.7022398,79.7492733 93.4563022,79.3168605 93.0259113,79.0079942 C92.5955204,78.7609012 91.8577075,78.5138081 90.873957,78.2667151 L89.1523935,77.8960756 C87.4923144,77.525436 86.3241107,77.1547965 85.7092666,76.7223837 C84.6640316,75.9811047 84.1106719,74.869186 84.1106719,73.3248547 C84.1106719,71.9040698 84.6025472,70.7303779 85.6477822,69.8037791 C86.6930171,68.8771802 88.168643,68.3829942 90.1976285,68.3829942 C91.8577075,68.3829942 93.2718489,68.815407 94.4400527,69.6802326 C95.6082565,70.5450581 96.2231006,71.8422965 96.284585,73.5101744 L93.1488801,73.5101744 C93.0873957,72.5835756 92.6570048,71.9040698 91.8577075,71.471657 C91.3658322,71.224564 90.6895037,71.1010174 89.8902064,71.1010174 C89.0294247,71.1010174 88.3530962,71.2863372 87.7997365,71.5952035 C87.3078612,71.965843 87.0004392,72.3982558 87.0004392,73.0159884 C87.0004392,73.5719477 87.2463768,74.0043605 87.7382521,74.2514535 C88.0456741,74.4367733 88.783487,74.622093 89.828722,74.9309593 L92.5955204,75.6104651 C93.8252086,75.9193314 94.6859903,76.2899709 95.3008344,76.7223837 C96.2231006,77.4636628 96.7149758,78.5138081 96.7149758,79.934593 C96.7149758,81.3553779 96.1616162,82.590843 95.0548968,83.5174419 C93.9481774,84.4440407 92.4110672,84.9382267 90.3820817,84.9382267 C88.3530962,84.9382267 86.6930171,84.4440407 85.5248134,83.5174419 C84.3566096,82.590843 83.7417655,81.2936047 83.7417655,79.6875 L87.0004392,79.6875 L87.0004392,79.7492733 Z M110.548968,68.8771802 L110.548968,71.6569767 L105.876153,71.6569767 L105.876153,84.5675872 L102.555995,84.5675872 L102.555995,71.6569767 L97.8831796,71.6569767 L97.8831796,68.8771802 L110.548968,68.8771802 Z M112.454985,68.8771802 L115.713658,68.8771802 L115.713658,81.7877907 L123.522178,81.7877907 L123.522178,84.6293605 L112.454985,84.6293605 L112.454985,68.8771802 Z M137.294686,71.6569767 L128.994291,71.6569767 L128.994291,74.9927326 L136.618357,74.9927326 L136.618357,77.7107558 L128.994291,77.7107558 L128.994291,81.7260174 L137.663592,81.7260174 L137.663592,84.5675872 L125.797101,84.5675872 L125.797101,68.8771802 L137.294686,68.8771802 L137.294686,71.6569767 Z M143.197189,84.5675872 L139.938516,84.5675872 L139.938516,68.8771802 L143.197189,68.8771802 L143.197189,84.5675872 Z M148.607817,79.7492733 C148.730786,80.4905523 148.915239,80.9847384 149.222661,81.3553779 C149.776021,81.9731105 150.698287,82.34375 151.98946,82.34375 C152.788757,82.34375 153.403601,82.2819767 153.895477,82.096657 C154.817743,81.7877907 155.309618,81.1700581 155.309618,80.2434593 C155.309618,79.7492733 155.06368,79.3168605 154.633289,79.0079942 C154.202899,78.7609012 153.465086,78.5138081 152.481335,78.2667151 L150.759772,77.8960756 C149.099693,77.525436 147.931489,77.1547965 147.316645,76.7223837 C146.27141,75.9811047 145.71805,74.869186 145.71805,73.3248547 C145.71805,71.9040698 146.209925,70.7303779 147.25516,69.8037791 C148.300395,68.8771802 149.776021,68.3829942 151.805007,68.3829942 C153.465086,68.3829942 154.879227,68.815407 156.047431,69.6802326 C157.215635,70.5450581 157.830479,71.8422965 157.891963,73.5101744 L154.756258,73.5101744 C154.694774,72.5835756 154.264383,71.9040698 153.465086,71.471657 C152.97321,71.224564 152.296882,71.1010174 151.497585,71.1010174 C150.636803,71.1010174 149.960474,71.2863372 149.407115,71.5952035 C148.853755,71.9040698 148.607817,72.3982558 148.607817,73.0159884 C148.607817,73.5719477 148.853755,74.0043605 149.34563,74.2514535 C149.653052,74.4367733 150.390865,74.622093 151.4361,74.9309593 L154.202899,75.6104651 C155.432587,75.9193314 156.293368,76.2899709 156.908213,76.7223837 C157.830479,77.4636628 158.322354,78.5138081 158.322354,79.934593 C158.322354,81.3553779 157.768994,82.590843 156.662275,83.5174419 C155.555556,84.4440407 154.018445,84.9382267 151.98946,84.9382267 C149.960474,84.9382267 148.300395,84.4440407 147.132191,83.5174419 C145.963988,82.590843 145.349144,81.2936047 145.349144,79.6875 L148.607817,79.6875 L148.607817,79.7492733 Z M172.094862,68.8771802 L172.094862,71.6569767 L167.422047,71.6569767 L167.422047,84.5675872 L164.163373,84.5675872 L164.163373,71.6569767 L159.490558,71.6569767 L159.490558,68.8771802 L172.094862,68.8771802 Z M174.000878,68.8771802 L177.321036,68.8771802 L177.321036,78.5138081 C177.321036,79.5639535 177.444005,80.3670058 177.689943,80.8611919 C178.058849,81.7260174 178.919631,82.1584302 180.272288,82.1584302 C181.563461,82.1584302 182.424242,81.7260174 182.854633,80.8611919 C183.100571,80.3670058 183.22354,79.5639535 183.22354,78.5138081 L183.22354,68.8771802 L186.543698,68.8771802 L186.543698,78.5138081 C186.543698,80.181686 186.29776,81.4789244 185.744401,82.4055233 C184.76065,84.1351744 182.977602,84.9382267 180.272288,84.9382267 C177.566974,84.9382267 175.722442,84.0734012 174.738691,82.4055233 C174.246816,81.4789244 173.939394,80.181686 173.939394,78.5138081 L173.939394,68.8771802 L174.000878,68.8771802 Z M189.679403,68.8771802 L193.12253,68.8771802 L199.332455,79.8110465 L199.332455,68.8771802 L202.406675,68.8771802 L202.406675,84.5675872 L199.148002,84.5675872 L192.753623,73.3866279 L192.753623,84.5675872 L189.679403,84.5675872 L189.679403,68.8771802 Z M215.933245,73.7572674 C215.687308,72.7071221 215.072464,71.9040698 214.088713,71.5334302 C213.535354,71.2863372 212.981994,71.1627907 212.305665,71.1627907 C211.075977,71.1627907 210.030742,71.6569767 209.231445,72.5835756 C208.432148,73.5101744 208.001757,74.9927326 208.001757,76.9077035 C208.001757,78.8226744 208.432148,80.181686 209.292929,80.9847384 C210.153711,81.7877907 211.137462,82.1584302 212.305665,82.1584302 C213.412385,82.1584302 214.273166,81.849564 215.010979,81.2318314 C215.687308,80.6140988 216.117699,79.7492733 216.302152,78.7609012 L212.674572,78.7609012 L212.674572,76.1664244 L219.191919,76.1664244 L219.191919,84.6293605 L217.039965,84.6293605 L216.732543,82.6526163 C216.117699,83.3938953 215.564339,83.9498547 215.010979,84.1969477 C214.150198,84.752907 213.104963,85 211.81379,85 C209.72332,85 208.063241,84.2587209 206.710584,82.837936 C205.357927,81.4171512 204.620114,79.3786337 204.620114,76.9077035 C204.620114,74.375 205.296443,72.3364826 206.710584,70.7921512 C208.124726,69.2478198 209.969258,68.5065407 212.244181,68.5065407 C214.211682,68.5065407 215.810277,69.0007267 217.039965,70.0508721 C218.269653,71.0392442 218.945982,72.3364826 219.130435,73.8190407 L215.933245,73.8190407 L215.933245,73.7572674 Z M233.886693,71.6569767 L225.586298,71.6569767 L225.586298,74.9927326 L233.210365,74.9927326 L233.210365,77.7107558 L225.586298,77.7107558 L225.586298,81.7260174 L234.255599,81.7260174 L234.255599,84.5675872 L222.389108,84.5675872 L222.389108,68.8771802 L233.886693,68.8771802 L233.886693,71.6569767 Z M236.77646,68.8771802 L240.219587,68.8771802 L246.429513,79.8110465 L246.429513,68.8771802 L249.503733,68.8771802 L249.503733,84.5675872 L246.245059,84.5675872 L239.789196,73.4484012 L239.789196,84.6293605 L236.714976,84.6293605 L236.714976,68.8771802 L236.77646,68.8771802 Z M41.8708827,69.1860465 C42.9776021,69.556686 43.8383838,70.2361919 44.5147123,71.1627907 C45.068072,71.965843 45.4369785,72.7688953 45.6214317,73.6954942 C45.8058849,74.622093 45.9288538,75.4869186 45.9288538,76.2899709 C45.9288538,78.3902616 45.4984629,80.1199128 44.6991656,81.6024709 C43.5924462,83.5792151 41.8093983,84.505814 39.4729908,84.505814 L32.7097058,84.505814 L32.7097058,68.815407 L39.4729908,68.815407 C40.4567413,68.8771802 41.2560386,69.0007267 41.8708827,69.1860465 Z M35.906895,71.5952035 L35.906895,81.849564 L38.9196311,81.849564 C40.4567413,81.849564 41.5634607,81.1082849 42.1783048,79.5639535 C42.4857268,78.6991279 42.6701801,77.7107558 42.6701801,76.5988372 C42.6701801,74.9927326 42.4242424,73.7572674 41.9323671,72.8924419 C41.4404919,72.0276163 40.4567413,71.5952035 38.9811155,71.5952035 L35.906895,71.5952035 Z M260.75538,30.2688953 L279.139218,9.76017442 L279.139218,0.988372093 L246.060606,0.988372093 L246.060606,11.0574128 L263.214756,11.0574128 L245.015371,30.8248547 L245.015371,40.337936 L280,40.337936 L280,30.2688953 L260.75538,30.2688953 Z M217.285903,26.6242733 L223.680281,26.6242733 C228.476065,26.6242733 228.783487,30.5159884 229.090909,34.284157 C229.275362,36.3226744 229.459816,38.3611919 230.07466,40.337936 L242.125604,40.337936 C241.018884,38.5465116 240.9574,33.8517442 240.834431,31.875 C240.40404,26.9949128 238.375055,23.3502907 235.054897,22.0530523 C239.051383,20.5704942 240.9574,16.2463663 240.9574,12.1693314 C240.9574,4.7565407 235.054897,0.926598837 228.168643,0.926598837 L205.173474,0.926598837 L205.173474,40.2761628 L217.224418,40.2761628 L217.224418,26.6242733 L217.285903,26.6242733 Z M217.285903,10.3161337 L222.942468,10.3161337 C227.553799,10.3161337 228.906456,11.7369186 228.906456,14.2078488 C228.906456,17.7289244 225.832235,18.099564 223.557312,18.099564 L217.224418,18.099564 L217.224418,10.3161337 L217.285903,10.3161337 Z M175.41502,40.337936 L177.198068,34.7165698 L189.679403,34.7165698 L191.339482,40.337936 L203.820817,40.337936 L189.556434,0.988372093 L177.751427,0.988372093 L163.302591,40.337936 L175.41502,40.337936 Z M183.592446,14.1460756 L183.715415,14.1460756 L187.220026,26.2536337 L179.780413,26.2536337 L183.592446,14.1460756 Z M18.2608696,32.5545058 C15.9859464,32.5545058 13.4036012,32.0603198 12.4813351,29.712936 C12.2353975,28.971657 12.0509442,28.1068314 12.0509442,27.1184593 L0,27.1184593 C0.122968819,39.6584302 12.7887571,41.2645349 17.2156346,41.2645349 C25.9464207,41.2645349 35.3535354,37.9287791 35.3535354,27.6744186 C35.3535354,20.4469477 29.8814229,17.8524709 24.3478261,16.3081395 C18.8142292,14.7638081 13.219148,14.1460756 12.9732104,11.3662791 C12.9732104,9.14244186 15.6785244,8.71002907 17.3386034,8.71002907 C18.5682916,8.71002907 19.9209486,8.95712209 20.9046992,9.69840116 C21.8884497,10.377907 22.5647782,11.3662791 22.3188406,12.8488372 L33.7549407,12.8488372 C33.3245498,3.27398256 25.8234519,0 17.3386034,0 C9.28414581,0 1.53711023,3.89171512 1.53711023,13.034157 C1.53711023,21.002907 8.6078173,22.6707849 14.8177426,24.4622093 C21.5810277,26.3771802 23.2411067,26.9331395 23.2411067,28.971657 C23.2411067,31.875 20.2283707,32.5545058 18.2608696,32.5545058 Z M137.90953,40.337936 L142.028986,16.3699128 L142.151954,16.3699128 L146.394379,40.337936 L158.137901,40.337936 L169.082126,0.988372093 L157.15415,0.988372093 L152.296882,25.6359012 L152.173913,25.6359012 L147.562582,0.988372093 L136.92578,0.988372093 L132.19148,25.2652616 L132.068511,25.2652616 L127.272727,0.926598837 L115.406236,0.926598837 L126.043039,40.2761628 L137.90953,40.2761628 L137.90953,40.337936 Z M56.9960474,41.2645349 C68.493632,41.2645349 74.8880105,32.8015988 74.8880105,24.8946221 L63.0215195,24.8946221 C62.2837066,28.6010174 60.7465964,31.4425872 56.627141,31.4425872 C51.0320597,31.4425872 49.1875274,25.9447674 49.1875274,20.6322674 C49.1875274,15.3197674 50.9705753,9.82194767 56.627141,9.82194767 C61.6073781,9.82194767 62.7140975,14.1460756 62.9600351,15.6286337 L74.7035573,15.6286337 C73.6583224,5.74491279 67.7558191,0.0617732558 56.9960474,1.42108547e-14 C44.9451032,1.42108547e-14 37.1365832,8.21584302 37.1365832,20.6322674 C37.1365832,32.3074128 44.3302591,41.2645349 56.9960474,41.2645349 Z M90.0746596,24.7093023 L90.0746596,40.337936 L77.962231,40.337936 L77.962231,0.988372093 L90.0746596,0.988372093 L90.0746596,14.6402616 L101.326307,14.6402616 L101.326307,0.988372093 L113.438735,0.988372093 L113.438735,40.337936 L101.326307,40.337936 L101.326307,24.7093023 L90.0746596,24.7093023 Z M2.27492314,56.4607558 L279.938516,56.4607558 L279.938516,49.3568314 L2.27492314,49.3568314 L2.27492314,56.4607558 Z" id="Shape" fill="#B1B2B3" fill-rule="nonzero"></path>
    </g>
</svg>