<svg id="beef" xmlns="http://www.w3.org/2000/svg" viewBox="0 0 60 60"><title>beef_konv</title><path d="M58.29,24.05c-2.9-1.58-5.37-5.5-5.37-5.5A7.44,7.44,0,0,0,53.65,12s-2.88,3.39-6,3.75-8.29,2.82-15.23,4.08a26.11,26.11,0,0,1-4.6.35c-6,0-12.83-1.38-13.84-1.38a15.09,15.09,0,0,0-6.06,1h0l-.06,0a7.28,7.28,0,0,0-1.58,1C3.94,22.4,0,25.52,0,29.12V48H3V29.12a3.11,3.11,0,0,1,.42-1.44,20.16,20.16,0,0,0,.8,7.74,6.16,6.16,0,0,1,.32,1.42l-.19,4L4.31,45l-.07.52.1.52L6.08,57h9l-1.4-8.58a9.85,9.85,0,0,0,2.94.49,7,7,0,0,0,2.17-.33,6.78,6.78,0,0,0,3.73-3.06A14.89,14.89,0,0,0,28,46.93a28.27,28.27,0,0,0,7.66-1.5l-.24,5.92v.27l0,.27L36.07,57h9l-.51-5.6.27-5.79a13.06,13.06,0,0,1,1.41-4.76c.67-1.22,2.1-1.47,2.84-2.94,1.78-3.61,1.17-5.32,2-6.77a23,23,0,0,0,5.12,1h.27C58,32,62.38,26.28,58.29,24.05ZM17.88,45.75A5.94,5.94,0,0,1,14,45.38a22.83,22.83,0,0,0,.82-2.82,2.8,2.8,0,0,0,.47,0c.32,0,.63,0,1,0a4.54,4.54,0,0,1,2.78,1c.27.19.54.35.81.52A3.78,3.78,0,0,1,17.88,45.75ZM55.8,29.12a22.85,22.85,0,0,1-3.8-.85l-2.27-.71-1.22,2a8.29,8.29,0,0,0-1,3.16,11.52,11.52,0,0,1-1.16,3.81,2.51,2.51,0,0,1-.64.57,6.94,6.94,0,0,0-2.13,2.26,15.15,15.15,0,0,0-1.69,5.37l-.06.36,0,.17v.17l-.27,5.79v.21l0,.2L41.76,54h-3l-.31-2.49v-.15l.24-5.81.18-4.43-4.18,1.47A24.67,24.67,0,0,1,28,43.92a14.86,14.86,0,0,1-7.16-2.77,7.6,7.6,0,0,0-4.52-1.59l-.69,0-.26,0-2.58-.44L12,41.65c-.25.78-.37,1.34-.46,1.75a2.68,2.68,0,0,1-.61,1.33l-.69,1,.2,1.2L11.55,54H8.65L7.32,45.54v-.17l0-.17V45L7.39,41l.19-4v-.31a8.77,8.77,0,0,0-.43-2.1,17.38,17.38,0,0,1-.68-6.88c.12-2,.52-3.53,1.75-4.51.33-.21.65-.4.95-.57a11.84,11.84,0,0,1,4.78-.76c.26,0,1.07.14,1.78.25a84.52,84.52,0,0,0,12.1,1.13,29,29,0,0,0,5.14-.4A78.2,78.2,0,0,0,43.19,20.1,31.85,31.85,0,0,1,48,18.77a8.31,8.31,0,0,0,1.32-.27l1,1.65c.3.47,3,4.63,6.48,6.54l.14.09A4.28,4.28,0,0,1,55.8,29.12Z"/></svg>