<svg xmlns="http://www.w3.org/2000/svg" viewBox="0 0 60 60"><title>20180604_Icons_Wein_Pairings_konvertiert</title><g id="poultry"><path d="M28.2,40a20,20,0,0,1-8.29-1.76,1.5,1.5,0,0,1-.58-2.18l3.32-5,2.5,1.66-2.29,3.43a16.45,16.45,0,0,0,16.25-3.46l2,2.25A19.06,19.06,0,0,1,28.2,40Z"/><path d="M59.81,18.81a16,16,0,0,0-2.1-3.24c-.41-.53-.79-1-1-1.39l0-.06a8.94,8.94,0,0,0-1.28-6.57,9.42,9.42,0,0,0-8-4.28h-.16a5.2,5.2,0,0,0-4.56,2.07c-1.7,2.42-.91,6.19-.34,8.13a9.67,9.67,0,0,0-1.09,1.73C39.7,18.41,34.3,23,28.42,23c-3.44,0-5.95-1.5-8.84-3.24-3.73-2.24-8-4.78-15.1-4.78H3v1.5c0,4.26,3.5,12.65,7.09,20.88A21.76,21.76,0,0,0,30,50.41V57H27.14v3h11.7V57H33V50.2a22.52,22.52,0,0,0,13.93-7.5,18,18,0,0,0,4.4-14.56c1.6-.18,3.75-.68,4.81-2a7,7,0,0,0,1-5.07l.66,0a2,2,0,0,0,1.88-.74l.49-.76ZM45.06,7.06a2.42,2.42,0,0,1,2.1-.79h.09a6.5,6.5,0,0,1,5.58,2.89,6.59,6.59,0,0,1,.87,2.17,10.74,10.74,0,0,0-5.44-1.55,6.28,6.28,0,0,0-3.5,1.29C44.49,9.52,44.47,7.91,45.06,7.06Zm8.73,17.19a5.49,5.49,0,0,1-3,.94c-.31-1.53-.55-3.14,0-3.7s1.81-.57,3.14-.57H54l.12.07A4.8,4.8,0,0,1,53.79,24.26Zm.1-6.33c-2.71,0-4.23.42-5.26,1.45-1.82,1.82-1.2,4.72-.65,7.29.15.71.29,1.34.37,1.92a15.06,15.06,0,0,1-3.71,12.17,19.48,19.48,0,0,1-14.59,6.67A18.76,18.76,0,0,1,12.82,36.2C10.7,31.33,6.95,22.73,6.14,18.08c5.32.35,8.66,2.35,11.89,4.3C21,24.18,24.14,26,28.42,26c7.22,0,13.63-5.57,15.47-9.56.77-1.63,3-3.71,4.38-3.71a7.19,7.19,0,0,1,5.85,2.95,18.78,18.78,0,0,0,1.21,1.68l.44.57C55.22,17.95,54.57,17.92,53.89,17.92Z"/></g></svg>