<svg id="crab" xmlns="http://www.w3.org/2000/svg" viewBox="0 0 60 60"><title>crab</title><path d="M50.6,36a12.42,12.42,0,0,0,.4-3.3,10.13,10.13,0,0,0-.8-4.2,7.47,7.47,0,0,0,3.7-2,6.15,6.15,0,0,0,1.9-6c2.4-1.4,4.1-5.3,4.1-10C60,4.7,57.3,0,54,0V4.2c-3.3,0-6,3.8-6,8.4a10.27,10.27,0,0,0,1.8,5.9A8,8,0,0,0,47.7,20,6.5,6.5,0,0,0,46,22.7a21.61,21.61,0,0,0-5.4-2.9,4.53,4.53,0,1,0-7.3-1.7,37.48,37.48,0,0,0-6.7,0,4.61,4.61,0,0,0-2.5-5.9,4.52,4.52,0,0,0-5.9,2.5,4.48,4.48,0,0,0,1.2,5.1,21,21,0,0,0-5.3,2.9,7.82,7.82,0,0,0-1.7-2.6,8,8,0,0,0-2.1-1.5A9.5,9.5,0,0,0,12,12.7C12,8,9.3,4.2,6,4.2V0C2.7,0,0,4.7,0,10.5c0,4.6,1.7,8.5,4.1,10a6.15,6.15,0,0,0,1.9,6,7.47,7.47,0,0,0,3.7,2A12,12,0,0,0,9,32.7,12.42,12.42,0,0,0,9.4,36h-6L0,47.1l2.9.9,2.7-9h4.9a11.73,11.73,0,0,0,1.9,3H7.6L4.3,53.1l2.9.9,2.7-9h5.2a24.71,24.71,0,0,0,4.2,3H11.9L8.6,59.1l2.9.9,2.7-9H45.9l2.7,9,2.9-.9L48.1,48H40.7a24.71,24.71,0,0,0,4.2-3h5.2l2.7,9,2.9-.9L52.3,42H47.6a22,22,0,0,0,1.9-3h4.9l2.7,9,2.9-.9L56.6,36ZM54,7.2h2.6a18.59,18.59,0,0,1,.4,3.3c0,4.6-2,7.5-3,7.5-1.4,0-3-2.3-3-5.4S52.6,7.2,54,7.2Zm-4.3,15A4.2,4.2,0,0,1,52.3,21c.2,0,.5,0,.6.2a1.42,1.42,0,0,1,.2.6,4.16,4.16,0,0,1-3.8,3.7c-.2,0-.5,0-.6-.2a1.42,1.42,0,0,1-.2-.6,4.2,4.2,0,0,1,1.2-2.5ZM3,10.5a12.42,12.42,0,0,1,.4-3.3H6c1.4,0,3,2.3,3,5.4S7.4,18,6,18C5,18,3,15.1,3,10.5ZM6.9,21.7a1.42,1.42,0,0,1,.2-.6,1.42,1.42,0,0,1,.6-.2,4.2,4.2,0,0,1,2.6,1.2,3.7,3.7,0,0,1,1.2,2.5,1.42,1.42,0,0,1-.2.6,1.42,1.42,0,0,1-.6.2,4.2,4.2,0,0,1-2.6-1.2,3.72,3.72,0,0,1-1.2-2.5ZM30,48c-8.1,0-18-7.1-18-15.3C12,24.1,22.7,21,30,21s18,3.1,18,11.7C48,40.9,38.1,48,30,48Z"/></svg>