<svg xmlns="http://www.w3.org/2000/svg" viewBox="0 0 60 60"><title>20180604_Icons_Wein_Pairings_konvertiert</title><g id="game"><path d="M59,20.49a16.48,16.48,0,0,0-3.47-3.08l-1.7-1.28c-1.8-1.41-3.83-3-7.18-3H44.4A4.67,4.67,0,0,1,43,10.26a44.45,44.45,0,0,0,7,.63c6.93,0,9.16-2.28,9.61-2.86L57.21,6.19C56.35,7.29,53.9,7.75,51,7.82c.25-1.09.86-2.58,2.4-2.83l-.48-3c-3.28.54-4.59,3.54-5,5.74-1.58-.09-3.17-.26-4.6-.48a18.49,18.49,0,0,1,3.18-5.36,3,3,0,0,0,.38-.53L45.29.56l-.92-.69-.15.19c-4.44,5.5-4.79,9.46-3.88,12.13A6.63,6.63,0,0,0,39.08,12a4.77,4.77,0,0,0-4.14,2.21,3.38,3.38,0,0,0-.46,2.57c.39,1.82,2.12,3,4,4.22a15.63,15.63,0,0,1-.79,2.49c-.09,0-2.53,0-4.16,0a109,109,0,0,1-16.57-1,26.43,26.43,0,0,0-4.11-.36c-6.49,0-10.26,3.36-10.62,9.46A19.39,19.39,0,0,0,3,39.23,5.9,5.9,0,0,1,3.3,40.6l-.18,3.87-.53,4-.07.5.1.5L4.79,60H14L12.15,49.83A23.43,23.43,0,0,0,14.8,44a24.74,24.74,0,0,0,4.1.3A85.46,85.46,0,0,0,31,43l2,6.25,0,5.33v.26l0,.26L33.94,60h8.52l-.59-5.38L42.13,49A22.15,22.15,0,0,1,44,43,12.26,12.26,0,0,1,46,40.3a17.27,17.27,0,0,0,2.5-3.16,11.92,11.92,0,0,0,2.07-5.93V31a7.16,7.16,0,0,1,.48-2.51h0l2.51,0c4,0,5.53-2.14,6-3.06A4.71,4.71,0,0,0,59,20.49Zm-2.14,3.66c-.2.42-.93,1.38-3.29,1.38l-2.44,0-1.33,0-.91,1c-.87.92-1.12,2.18-1.3,4.36l0,.22c-.06.91-.13,2-1.65,4.58a14.37,14.37,0,0,1-2.11,2.64,15.08,15.08,0,0,0-2.52,3.3,25.5,25.5,0,0,0-2.17,7l0,.17v.17l-.26,5.57v.23l0,.23L39.11,57H36.45L36,54.53l0-5.33v-.47l-.15-.45-2-6.25L33,39.58,30.46,40A83.59,83.59,0,0,1,18.9,41.27,22,22,0,0,1,15.3,41l-2.57-.43-.79,2.48a20.09,20.09,0,0,1-2.25,5.07l-.72,1,.23,1.23L10.44,57H7.24L5.57,48.81l.53-4,0-.13V44.6l.18-3.87v-.31a8.49,8.49,0,0,0-.42-2,16.54,16.54,0,0,1-.65-6.57c.27-4.53,2.69-6.64,7.62-6.64a23.45,23.45,0,0,1,3.64.32,111.93,111.93,0,0,0,17,1.08c1.6,0,4,0,4.21,0l1.9,0,.78-1.73a18.55,18.55,0,0,0,1-3l.53-2.09-1.81-1.17c-1-.62-2.55-1.65-2.7-2.33a.39.39,0,0,1,0-.3A1.77,1.77,0,0,1,39.08,15a7.93,7.93,0,0,1,3,.9l.93.42.89-.21c.13,0,.56,0,1.68,0H46.7c2.31,0,3.71,1.1,5.33,2.36.22.17,1.38,1.05,1.78,1.35a14.08,14.08,0,0,1,2.87,2.49A1.71,1.71,0,0,1,56.91,24.16Z"/></g></svg>