<svg xmlns="http://www.w3.org/2000/svg" viewBox="0 0 60 60"><title>20180604_Icons_Wein_Pairings_konvertiert</title><g id="fish"><path d="M54.19,22.34A28.87,28.87,0,0,0,39.43,15a19,19,0,0,0-2.06-4.4C36,8.41,33,6,26.65,6A30,30,0,0,0,15.83,8.57,1.5,1.5,0,0,0,15.45,11s3.38,3.73,2.32,6.87a27.68,27.68,0,0,0-3.36,2l-.22.17a3.85,3.85,0,0,1-2,.8,1.52,1.52,0,0,1-1.08-.47,22.54,22.54,0,0,0-6.64-5.62A3,3,0,0,0,.89,19.48c2.51,2.52,4,6.64,4,11A15.75,15.75,0,0,1,1,41.33a3,3,0,0,0,2.15,5.09h.09A3,3,0,0,0,4.71,46a22.14,22.14,0,0,0,6.4-5.32,1.5,1.5,0,0,1,1.08-.45,4.19,4.19,0,0,1,2.11.8l.14.1a31,31,0,0,0,13.12,5,4.4,4.4,0,0,1,.5,2.07,3.94,3.94,0,0,1-1,2.74l-.65.72a1.5,1.5,0,0,0,.93,2.49,11.9,11.9,0,0,0,1.48.09A13.38,13.38,0,0,0,36.42,52a12.81,12.81,0,0,0,4.34-6.48,28.28,28.28,0,0,0,13.47-7.24l.08-.08C60,32.16,60,31.1,60,30.08S60,27.9,54.19,22.34ZM26.65,9c4,0,6.85,1.11,8.21,3.22A14.89,14.89,0,0,1,36,14.51c-1.07-.1-2.15-.15-3.24-.15A34.11,34.11,0,0,0,21,16.45a11.31,11.31,0,0,0-2.09-5.88A24.38,24.38,0,0,1,26.65,9Zm8,40.65a9.39,9.39,0,0,1-4.15,1.5,7.42,7.42,0,0,0,.59-2.92,7.77,7.77,0,0,0-.21-1.77c.59,0,1.18.06,1.77.06a35.76,35.76,0,0,0,4.71-.31A9.63,9.63,0,0,1,34.62,49.65ZM52.12,36.2c-4.65,4.65-11.76,7.31-19.49,7.31a29.23,29.23,0,0,1-16.48-4.82h0l0,0a7.2,7.2,0,0,0-3.92-1.41A4.51,4.51,0,0,0,9.1,38.49l-.18.16-.15.19a19.18,19.18,0,0,1-5.54,4.58H3.13A18.8,18.8,0,0,0,7.9,30.5C7.9,25.34,6.07,20.43,3,17.36H3a19.54,19.54,0,0,1,5.75,4.86l.15.19.18.16a4.51,4.51,0,0,0,3.1,1.25,6.82,6.82,0,0,0,3.89-1.47l0,0,0,0a29.12,29.12,0,0,1,16.66-4.95c7.62,0,14.65,2.6,19.31,7.14,4.09,3.93,4.76,5.17,4.87,5.44,0,0,0,.09,0,.13s0,.08,0,.12C56.87,30.53,56.18,31.84,52.12,36.2Z"/></g></svg>