<svg xmlns="http://www.w3.org/2000/svg" viewBox="0 0 60 60"><title>20180604_Icons_Wein_Pairings_konvertiert</title><g id="goose"><path d="M56.87,10.26A13.5,13.5,0,0,1,54,7.38a7.5,7.5,0,0,0-15,.11V25.74A53.6,53.6,0,0,0,25.73,24h0a50.37,50.37,0,0,0-15,2.24,2.23,2.23,0,0,1-.68.09c-2.33,0-7-2.31-9-2.31a1.16,1.16,0,0,0-.76.21C-1,25.35,3,31.49,3,33c0,11.11,9.37,17.37,21,17.93v6H21v3H33V57H27V51c11.81-.43,21-6.83,21-18.08l0-.61V15h6.74c4.25,0,4.93-.12,5.22-1.24C60.36,12.13,58.75,11.26,56.87,10.26ZM53,12H48a3,3,0,0,0-3,3V32.21l0,.56s0,.07,0,.1C45,44,34.61,48,25.73,48c-5.65,0-10.7-1.43-14.24-4A12.92,12.92,0,0,1,6,33c0-1.18-.52-2.35-1.51-4.48l-.27-.58.09,0a19.48,19.48,0,0,0,5.75,1.38,5.14,5.14,0,0,0,1.61-.24A47.39,47.39,0,0,1,25.73,27a50.69,50.69,0,0,1,12.5,1.64A3,3,0,0,0,42,25.74V7.49a4.5,4.5,0,0,1,9-.07A3,3,0,0,0,51.46,9a18,18,0,0,0,2.72,3Z"/><path d="M25.5,43.5a22.54,22.54,0,0,1-13.64-4.76l1.95-2.28a19.82,19.82,0,0,0,11.69,4c4.24,0,7.47-.89,8.64-2.38a2.76,2.76,0,0,0,.4-2.58l2.92-.71a5.78,5.78,0,0,1-1,5.14C34.09,43,28.57,43.5,25.5,43.5Z"/></g></svg>