<svg id="pork" xmlns="http://www.w3.org/2000/svg" viewBox="0 0 60 60"><title>pig</title><path d="M60,30.1v-.9c0-1.3-1.2-1.8-2.3-2.3l-1.2-.6a7.57,7.57,0,0,0-2.6-2.1,11.34,11.34,0,0,0,1.4-5.4,1.36,1.36,0,0,0-.6-1.1c-1.3-1-3.9.7-5.8,2.3l-9.2-2.6c-7-2.1-15.4-2.4-23.4-2.4a13.28,13.28,0,0,0-8.1,2.8H8a3.85,3.85,0,0,1-2-1.3,3.1,3.1,0,0,0,.9-1.8,2.27,2.27,0,0,0-1.7-2.4,2.27,2.27,0,0,0-2.9,1.39h0v.2a3.47,3.47,0,0,0-.1,1.4,2.18,2.18,0,0,1-.8.1C.6,15.3,0,16,0,16.9a1.53,1.53,0,0,0,1.6,1.4A10.91,10.91,0,0,0,3.4,18a7.85,7.85,0,0,0,2.4,2A12,12,0,0,0,3,27.7a14.39,14.39,0,0,0,1.2,6.5,14.51,14.51,0,0,0,1.1,5.4A38,38,0,0,1,6,46.5V48h9.3V46.5a13,13,0,0,0-.4-2.7,3.32,3.32,0,0,1-.1-2.2,8.26,8.26,0,0,1,2.1-2.8H17a11.39,11.39,0,0,0,6.2,1.5h1a43.52,43.52,0,0,0,10.8-1h0a3.87,3.87,0,0,1,.8,1.7c.2,2.7.2,5.5.2,5.6V48h9V46.5a5.68,5.68,0,0,0-.2-1.3,10.89,10.89,0,0,1-.3-4.4c.2-1.1.4-2.3.6-3.2a47.54,47.54,0,0,0,5.6.1,7.11,7.11,0,0,0,4.5-1.2,3.2,3.2,0,0,1,2.3-.6,2,2,0,0,0,1.6-.7C60.1,34.2,60,32.1,60,30.1ZM56.9,33a5.94,5.94,0,0,0-3.4,1,4.48,4.48,0,0,1-3,.7c-3.4,0-6.7-.2-6.7-.2l-1.4-.1-.2,1.4s-.3,2.3-.8,4.4a15.47,15.47,0,0,0,.2,4.8H39c0-1.1-.1-2.7-.2-4.3a6.91,6.91,0,0,0-2.2-4.2,8.17,8.17,0,0,1-.8-2.2,1.41,1.41,0,0,0-1.58-1.22l-.12,0a1.45,1.45,0,0,0-1.2,1.68V35a7.47,7.47,0,0,0,.4,1.4,45.23,45.23,0,0,1-9,.7H23.2a10.55,10.55,0,0,1-3.9-.6,5.26,5.26,0,0,0,1.1-1.9,1.52,1.52,0,1,0-2.86-1s0,.09,0,.14A6.52,6.52,0,0,1,16,35.5a12.13,12.13,0,0,0-4,4.7,6.07,6.07,0,0,0,0,4.2l.1.5H9c-.1-2.1-.4-5.7-1-6.8a12.41,12.41,0,0,1-.8-4.3v-.4L7,33.1a11.29,11.29,0,0,1-1-5.4,10.1,10.1,0,0,1,10.2-9.8c7.8,0,15.9.3,22.6,2.3l7.9,2.2A1.55,1.55,0,0,0,48,24.1a1.34,1.34,0,0,0,1.4-.6,12.86,12.86,0,0,1,2.4-2.2,9.1,9.1,0,0,1-1.5,2.9,1.47,1.47,0,0,0,.25,2.06l.05,0a1.44,1.44,0,0,0,1.4.2,7.53,7.53,0,0,1,1.9,1.2,5.49,5.49,0,0,0,2.6,1.9l.5.2v.3A14.06,14.06,0,0,1,56.9,33Z"/></svg>