<svg id="shrimp" xmlns="http://www.w3.org/2000/svg" viewBox="0 0 48 60"><title>shrimp</title><path d="M27.5,0C15.1,0,3.3,9,.6,20.8A22.42,22.42,0,0,0,0,26C0,42.2,12.7,50.3,25.6,51.7a26.71,26.71,0,0,0,7,7.6A5.13,5.13,0,0,0,35,60a6.39,6.39,0,0,0,5.1-3.1c.8-1.3-2.2-3.7-2.4-5.1.9-1.1,4.7-1.6,4.7-3.1a5.69,5.69,0,0,0-5.3-6h0a25.69,25.69,0,0,0-10.1,3c-4.7-2.9-9.1-7.1-9.1-13.6,0-9.3,9.4-13.8,18.5-13.8h4.5C41.1,8,48,10.8,48,7.9,48,1.7,35.2,0,27.5,0Zm1.9,52c4.2,0,2.9-2.9.7-4.5a21.27,21.27,0,0,1,7-1.8h0a2,2,0,0,1,1.5.6,3.29,3.29,0,0,1,.7,1.3l-.7.3a8,8,0,0,0-3.2,1.9,3,3,0,0,0-.7,2.4,9.08,9.08,0,0,0,1.7,3.4l.4.6A2.5,2.5,0,0,1,35,57a1.69,1.69,0,0,1-1-.3,27.26,27.26,0,0,1-4.8-4.8l.2.1ZM6.3,37.8A21.27,21.27,0,0,1,3,26a16.28,16.28,0,0,1,.3-3.1c2.5-1.1,8.6-2.8,13.1,2.6a15.17,15.17,0,0,0-1.5,6.6v1.1A11.78,11.78,0,0,0,6.3,37.8Zm18.4,10a1.88,1.88,0,0,0-.2.8c-6.2-.9-12.2-3.6-16.2-8.1a8.28,8.28,0,0,1,7.2-4.2C16.6,40.6,19.7,44.5,24.7,47.8ZM22.1,19.1A20.51,20.51,0,0,0,18,22.8,13.78,13.78,0,0,0,4.1,19.3,25.19,25.19,0,0,1,16,5.9c5.7.2,9.4,4,10.6,11A23.47,23.47,0,0,0,22.1,19.1Zm16.1-3.8H36.5a32.66,32.66,0,0,0-7,.8C28.3,10,25.3,5.8,21,3.9A23.72,23.72,0,0,1,27.5,3C36.2,3,43,5,44.6,7,42.6,7.8,39.1,9.4,38.2,15.3Z"/></svg>