<?xml version="1.0" encoding="utf-8"?>
<!-- Generator: Adobe Illustrator 21.1.0, SVG Export Plug-In . SVG Version: 6.00 Build 0)  -->
<svg version="1.1" id="EPS" xmlns="http://www.w3.org/2000/svg" xmlns:xlink="http://www.w3.org/1999/xlink" x="0px" y="0px"
	 viewBox="0 0 60 60" style="enable-background:new 0 0 60 60;" xml:space="preserve">
<g>
	<path d="M46.55,23.75c-2.88-4.43-8.58-5.92-13.24-3.47c-2.08,1.09-4.56,1.09-6.63,0c-1.46-0.77-3.1-1.18-4.73-1.18
		c-3.43,0-6.62,1.74-8.51,4.65c-4.4,6.76-4.94,15.46-1.42,22.72l3.26,6.72c1.61,3.32,5.04,5.3,9.16,5.3h11.12
		c4.12,0,7.54-1.98,9.15-5.3l3.26-6.72C51.5,39.22,50.95,30.51,46.55,23.75z M45.28,45.17l-3.26,6.72
		c-1.09,2.26-3.51,3.61-6.45,3.61H24.45c-2.95,0-5.37-1.35-6.46-3.61l-3.26-6.72c-3.06-6.32-2.59-13.9,1.24-19.78
		c1.34-2.06,3.58-3.28,6-3.28c1.15,0,2.3,0.29,3.33,0.83c2.96,1.55,6.48,1.55,9.43,0c3.28-1.72,7.29-0.67,9.33,2.45
		C47.87,31.27,48.34,38.85,45.28,45.17z"/>
	<path d="M21.77,4.59c1.15,0.45,4.25,1.83,5.37,4.12c1.51,3.06,1.38,7.42,1.37,7.52v1.54c0,0.28,0.22,0.5,0.5,0.5h2
		c0.28,0,0.5-0.22,0.5-0.5v-1.48c0.01-0.21,0.16-5.14-1.68-8.89c-1.13-2.29-3.39-3.84-5.16-4.76c-1.24-0.65-2.77-0.01-3.19,1.32
		l-0.01,0.03C21.39,4.22,21.52,4.49,21.77,4.59z"/>
</g>
</svg>
