<?xml version="1.0" encoding="utf-8"?>
<!-- Generator: Adobe Illustrator 21.1.0, SVG Export Plug-In . SVG Version: 6.00 Build 0)  -->
<svg version="1.1" id="eps" xmlns="http://www.w3.org/2000/svg" xmlns:xlink="http://www.w3.org/1999/xlink" x="0px" y="0px"
	 viewBox="0 0 60 60" style="enable-background:new 0 0 60 60;" xml:space="preserve">
<path d="M57.1,34.36c-0.19-0.18-0.39-0.31-0.6-0.44v-3.05c0-0.28-0.22-0.5-0.5-0.5h-2c-0.28,0-0.5,0.22-0.5,0.5v2.44h-2V13.26
	c0-0.92-0.63-1.72-1.52-1.94l-2.07-0.51C41.84,9.32,34.23,8.5,26.5,8.5c-7.74,0-15.34,0.82-21.41,2.31l-2.07,0.51
	c-0.89,0.22-1.52,1.02-1.52,1.94v29.48c0,0.92,0.63,1.72,1.53,1.94l2,0.49l-1.23,3.7c-0.43,1.3,0.53,2.63,1.9,2.63h4.97
	c0.82,0,1.55-0.5,1.86-1.26l1.39-3.48l0.04,0.01c4,0.49,8.22,0.73,12.55,0.73c4.27,0,8.48-0.25,12.59-0.74l1.39,3.49
	c0.3,0.76,1.04,1.26,1.86,1.26h4.97c1.37,0,2.33-1.34,1.9-2.63l-1.23-3.7l2-0.49c0.9-0.22,1.53-1.02,1.53-1.94v-6.42h2.65h0.11
	c0.01,0,0.51-0.02,0.83,0.28c0.06,0.05,0.1,0.11,0.15,0.18C55.68,37.48,56.37,38,57.2,38h0.78c0.28,0,0.52-0.24,0.5-0.52
	C58.36,35.84,57.68,34.89,57.1,34.36z M48.5,26.5h-4v-6.38c1.38,0.1,2.72,0.21,4,0.34V26.5z M41.5,26.5h-30v-6.63
	c4.53-0.24,9.42-0.37,14.5-0.37c5.46,0,10.7,0.15,15.5,0.43V26.5z M8.5,26.5h-4v-6.13c1.29-0.12,2.62-0.22,4-0.32V26.5z M4.5,29.5h4
	v5.73c-1.38-0.15-2.71-0.33-4-0.52V29.5z M11.5,29.5h30v5.93c-4.8,0.45-10.03,0.7-15.5,0.7c-5.09,0-9.98-0.21-14.5-0.6V29.5z
	 M44.5,29.5h4v5.06c-1.28,0.2-2.62,0.38-4,0.55V29.5z M48.5,14.05v3.4c-1.29-0.12-2.62-0.23-4-0.33v-3.98
	c0.92,0.18,1.83,0.38,2.69,0.59L48.5,14.05z M41.5,12.61v4.31C36.69,16.64,31.45,16.5,26,16.5c-5.07,0-9.96,0.13-14.5,0.37v-4.26
	c4.62-0.72,9.77-1.11,15-1.11C31.73,11.5,36.88,11.89,41.5,12.61z M5.81,13.72c0.86-0.21,1.77-0.41,2.69-0.59v3.91
	c-1.38,0.09-2.71,0.2-4,0.31v-3.31L5.81,13.72z M4.5,37.74c1.29,0.19,2.62,0.35,4,0.5v4.61l-0.36-0.06
	c-0.89-0.18-1.62-0.35-2.33-0.52L4.5,41.96V37.74z M9.98,48.5h-2.9l0.9-2.7l2.9,0.47L9.98,48.5z M14.37,43.8l-2.87-0.46v-4.81
	c4.54,0.39,9.43,0.59,14.5,0.59c5.45,0,10.69-0.23,15.5-0.68v4.89l-2.59,0.42c-4,0.49-8.18,0.74-12.41,0.74
	C22.29,44.5,18.19,44.26,14.37,43.8z M43.02,48.5l-0.89-2.23l2.89-0.47l0.9,2.7H43.02z M47.19,42.27c-0.69,0.17-1.39,0.33-2.03,0.46
	l-0.67,0.11v-4.72c1.38-0.16,2.71-0.34,4-0.54v4.37L47.19,42.27z"/>
</svg>
