<?xml version="1.0" encoding="utf-8"?>
<!-- Generator: Adobe Illustrator 21.1.0, SVG Export Plug-In . SVG Version: 6.00 Build 0)  -->
<svg version="1.1" id="eps" xmlns="http://www.w3.org/2000/svg" xmlns:xlink="http://www.w3.org/1999/xlink" x="0px" y="0px"
	 viewBox="0 0 60 60" style="enable-background:new 0 0 60 60;" xml:space="preserve">
<g>
	<path d="M55.99,6.2c0,0-6.63,0.04-8.53,0.04c-1.62,0-2.48-0.72-3.66-1.72c-1.59-1.35-3.58-3.02-7.72-3.02H3.5c-1.1,0-2,0.9-2,2v13
		C1.5,16.78,1.72,17,2,17c1.38,0,2.5-1.12,2.5-2.5v-10h27v10c0,1.38,1.12,2.5,2.5,2.5c0.28,0,0.5-0.22,0.5-0.5v-12h1.58
		c3.05,0,4.38,1.12,5.79,2.31c1.35,1.14,2.87,2.43,5.59,2.43c1.33,0,4.96-0.02,7.04-0.03v4.65c-2.08-0.01-5.71-0.03-7.04-0.03
		c-1.23,0-2.22,0.27-3.05,0.66c-1.36,0.64-1.74,2.4-0.77,3.55c0.18,0.21,0.48,0.23,0.7,0.06c0.98-0.8,1.78-1.27,3.12-1.27
		c1.9,0,8.53,0.04,8.53,0.04c0.83,0.01,1.51-0.67,1.51-1.5V7.7C57.5,6.87,56.82,6.19,55.99,6.2z"/>
	<path d="M55.99,43.79c0,0-6.63,0.04-8.53,0.04c-1.62,0-2.48-0.72-3.66-1.72c-1.59-1.35-3.58-3.02-7.72-3.02H3.5c-1.1,0-2,0.9-2,2
		v6.57c0,6.35,5.15,11.5,11.5,11.5h23.08c4.15,0,6.13-1.68,7.72-3.02c1.18-1,2.03-1.72,3.66-1.72c1.9,0,8.53,0.04,8.53,0.04
		c0.83,0.01,1.51-0.67,1.51-1.5v-7.67C57.5,44.46,56.82,43.79,55.99,43.79z M4.5,47.67V42.1h27v14.07H13
		C8.31,56.17,4.5,52.36,4.5,47.67z M54.5,51.46c-2.08-0.01-5.71-0.03-7.04-0.03c-2.72,0-4.25,1.29-5.59,2.43
		c-1.41,1.19-2.74,2.31-5.79,2.31H34.5V42.09h1.58c3.05,0,4.38,1.12,5.79,2.31c1.35,1.14,2.87,2.43,5.59,2.43
		c1.33,0,4.96-0.02,7.04-0.03C54.5,46.8,54.5,51.46,54.5,51.46z"/>
	<path d="M55.99,25c0,0-6.63,0.04-8.53,0.04c-1.62,0-2.48-0.72-3.66-1.72c-1.59-1.35-3.58-3.02-7.72-3.02H3
		c-0.83,0-1.5,0.67-1.5,1.5v11.7C1.5,34.88,2.62,36,4,36c0.28,0,0.5-0.22,0.5-0.5V23.3h27v10.2c0,1.38,1.12,2.5,2.5,2.5
		c0.28,0,0.5-0.22,0.5-0.5V23.3h1.58c3.05,0,4.38,1.12,5.79,2.31c1.35,1.14,2.87,2.43,5.59,2.43c1.33,0,4.96-0.02,7.04-0.03v4.65
		c-2.08-0.01-5.71-0.03-7.04-0.03c-1.23,0-2.22,0.27-3.05,0.66c-1.36,0.64-1.74,2.4-0.77,3.55c0.18,0.21,0.48,0.23,0.7,0.06
		c0.98-0.8,1.78-1.27,3.12-1.27c1.9,0,8.53,0.04,8.53,0.04c0.83,0.01,1.51-0.67,1.51-1.5V26.5C57.5,25.66,56.82,24.99,55.99,25z"/>
</g>
</svg>
