<?xml version="1.0" encoding="utf-8"?>
<!-- Generator: Adobe Illustrator 21.1.0, SVG Export Plug-In . SVG Version: 6.00 Build 0)  -->
<svg version="1.1" id="EPS" xmlns="http://www.w3.org/2000/svg" xmlns:xlink="http://www.w3.org/1999/xlink" x="0px" y="0px"
	 viewBox="0 0 60 60" style="enable-background:new 0 0 60 60;" xml:space="preserve">
<g>
	<path d="M51.4,31.69C47.49,29.48,40.89,28.5,30,28.5c-10.8,0-17.1,0.96-21.07,3.19C1.2,36.05,1.44,43.15,1.5,44.06V47
		c0,6.35,5.15,11.5,11.5,11.5h43.5c1.1,0,2-0.9,2-2V44.09C58.62,43.03,59.07,36.02,51.4,31.69z M55.51,43.79L55.5,55.5H13
		c-4.69,0-8.5-3.81-8.5-8.5v-3l-0.01-0.14c-0.02-0.24-0.43-5.98,5.91-9.56c2.03-1.14,4.96-1.91,9.1-2.35v7.21
		c0,1.38,1.12,2.5,2.5,2.5c0.28,0,0.5-0.22,0.5-0.5V31.7c1.81-0.11,3.8-0.18,6-0.2v7.66c0,1.38,1.12,2.5,2.5,2.5
		c0.28,0,0.5-0.22,0.5-0.5V31.5c2.19,0.02,4.18,0.09,6,0.2v7.46c0,1.38,1.12,2.5,2.5,2.5c0.28,0,0.5-0.22,0.5-0.5v-9.22
		c4.32,0.44,7.4,1.22,9.43,2.36C56.2,37.85,55.55,43.51,55.51,43.79z"/>
	<path d="M17.56,17.69l0.38,0.37c0.42,0.42,0.99,1.17,1.27,2.3c0.19,0.77,0.26,2.26,0.28,3.15C19.5,23.79,19.72,24,20.18,24H22
		c0.28,0,0.5-0.23,0.5-0.51c-0.02-0.9-0.09-2.72-0.37-3.86c-0.45-1.8-1.37-3.01-2.06-3.7l-0.41-0.4c-0.73-0.71-2.26-2.18-2.71-3.08
		c-0.45-0.89-0.6-2.69-0.06-4.02c0.27-0.68,0.78-1.67,1.25-2.56c0.64-1.19,0.22-2.67-0.96-3.35L17.13,2.5
		c-0.24-0.14-0.54-0.06-0.68,0.18c-0.54,0.95-1.81,3.25-2.37,4.63c-0.79,1.98-0.72,4.7,0.16,6.48
		C14.88,15.05,16.29,16.46,17.56,17.69z"/>
	<path d="M26.56,17.69l0.38,0.37c0.42,0.42,0.99,1.17,1.27,2.3c0.19,0.77,0.26,2.26,0.28,3.15C28.5,23.79,28.72,24,29.18,24H31
		c0.28,0,0.5-0.23,0.5-0.51c-0.02-0.9-0.09-2.72-0.37-3.86c-0.45-1.8-1.37-3.01-2.06-3.7l-0.41-0.4c-0.73-0.71-2.26-2.19-2.71-3.08
		c-0.45-0.89-0.6-2.69-0.06-4.02c0.27-0.68,0.77-1.67,1.25-2.56c0.64-1.19,0.22-2.67-0.96-3.35L26.13,2.5
		c-0.24-0.14-0.54-0.06-0.68,0.18c-0.54,0.95-1.81,3.25-2.37,4.63c-0.79,1.98-0.72,4.7,0.16,6.48
		C23.88,15.05,25.29,16.46,26.56,17.69z"/>
	<path d="M35.61,17.7l0.37,0.36c0.42,0.42,0.99,1.17,1.27,2.3c0.19,0.77,0.26,2.26,0.28,3.15c0.01,0.27,0.23,0.49,0.69,0.49h1.82
		c0.28,0,0.5-0.23,0.5-0.51c-0.02-0.9-0.09-2.72-0.37-3.86c-0.45-1.8-1.37-3.01-2.06-3.7l-0.41-0.4c-0.73-0.71-2.26-2.19-2.71-3.09
		c-0.45-0.89-0.6-2.68-0.06-4.02c0.27-0.68,0.77-1.67,1.25-2.56c0.64-1.19,0.21-2.67-0.96-3.35L35.18,2.5
		c-0.24-0.14-0.54-0.06-0.68,0.18c-0.54,0.95-1.81,3.25-2.37,4.63c-0.79,1.98-0.72,4.7,0.16,6.48
		C32.92,15.05,34.33,16.47,35.61,17.7z"/>
</g>
</svg>
