<?xml version="1.0" encoding="utf-8"?>
<!-- Generator: Adobe Illustrator 21.1.0, SVG Export Plug-In . SVG Version: 6.00 Build 0)  -->
<svg version="1.1" id="eps" xmlns="http://www.w3.org/2000/svg" xmlns:xlink="http://www.w3.org/1999/xlink" x="0px" y="0px"
	 viewBox="0 0 60 60" style="enable-background:new 0 0 60 60;" xml:space="preserve">
<g>
	<path d="M30,26.5c-11.85,0-21.5,7.58-21.5,16.9c0,4.91,2.61,9.43,7.13,12.6c0.74,0.52,2.34,1.38,3.12,1.8
		c0.29,0.15,0.6,0.23,0.93,0.23c0.63,0,1.7,0,2.32,0c5.26,0,13.1,0,17,0c0.35,0,0.94,0,1.35,0c0.31,0,0.62-0.07,0.9-0.21
		c0.47-0.24,1.2-0.61,1.55-0.81c5.48-3.18,8.7-8.15,8.7-13.6C51.5,34.08,41.86,26.5,30,26.5z M40.14,55.02c-3.7,0-14.79,0-20.27,0
		c-5.25-2.59-8.37-6.92-8.37-11.62c0-7.67,8.3-13.9,18.5-13.9s18.5,6.24,18.5,13.9C48.5,48.11,45.38,52.43,40.14,55.02z"/>
	<path d="M41.28,36.04c-1.29-0.24-4.95-0.76-10.52-0.18c0.16-0.77,0.36-1.47,0.5-1.89c0.08-0.25-0.05-0.53-0.31-0.62l-1.88-0.69
		c-0.27-0.1-0.56,0.04-0.64,0.31c-0.22,0.67-0.59,1.94-0.79,3.31c-6.04,0.98-9.4,2.59-10.55,3.23c-0.25,0.14-0.33,0.46-0.06,0.86
		l1.01,1.52c0.14,0.21,0.42,0.29,0.64,0.17c0.97-0.52,3.8-1.83,8.82-2.71v3.16c0,0.28,0.22,0.5,0.5,0.5c1.38,0,2.5-1.12,2.5-2.5
		v-1.59c3.79-0.44,6.68-0.33,8.46-0.16c1.23,0.12,2.35-0.69,2.65-1.89l0.05-0.21C41.74,36.37,41.56,36.09,41.28,36.04z"/>
	<path d="M38.74,22.27c0,0.27,0.23,0.5,0.69,0.5l1.82-0.01c0.28,0,0.5-0.23,0.5-0.51c-0.04-2.45-0.3-4.27-2.21-6.18
		c-2.41-2.41-4.65-6.06-2.69-10.38c0.51-1.11,0.2-2.43-0.81-3.14l-0.16-0.12c-0.23-0.16-0.56-0.1-0.71,0.13
		c-3.39,5.13-2.58,10.8,2.25,15.63C38.49,19.27,38.71,20.09,38.74,22.27z"/>
	<path d="M29.65,22.27c0,0.27,0.23,0.5,0.69,0.5l1.82-0.01c0.28,0,0.5-0.23,0.5-0.51c-0.04-2.45-0.3-4.27-2.21-6.18
		c-2.41-2.41-4.65-6.06-2.69-10.38c0.51-1.11,0.2-2.43-0.81-3.14l-0.16-0.12c-0.23-0.16-0.56-0.1-0.71,0.13
		c-3.39,5.13-2.58,10.8,2.25,15.63C29.4,19.27,29.62,20.09,29.65,22.27z"/>
	<path d="M20.49,22.27c0,0.27,0.23,0.5,0.69,0.5L23,22.76c0.28,0,0.5-0.23,0.5-0.51c-0.04-2.45-0.3-4.27-2.21-6.18
		c-2.41-2.41-4.65-6.06-2.69-10.38c0.51-1.11,0.2-2.43-0.81-3.14l-0.16-0.12c-0.23-0.16-0.56-0.1-0.71,0.13
		c-3.39,5.13-2.58,10.8,2.25,15.63C20.23,19.27,20.45,20.09,20.49,22.27z"/>
</g>
</svg>
