<?xml version="1.0" encoding="utf-8"?>
<!-- Generator: Adobe Illustrator 21.1.0, SVG Export Plug-In . SVG Version: 6.00 Build 0)  -->
<svg version="1.1" id="eps" xmlns="http://www.w3.org/2000/svg" xmlns:xlink="http://www.w3.org/1999/xlink" x="0px" y="0px"
	 viewBox="0 0 60 60" style="enable-background:new 0 0 60 60;" xml:space="preserve">
<g>
	<path d="M39.66,44.91c3.42,0,6.2-2.8,6.2-6.25s-2.78-6.25-6.2-6.25s-6.2,2.8-6.2,6.25C33.46,42.1,36.24,44.91,39.66,44.91z
		 M39.66,35.41c1.76,0,3.2,1.46,3.2,3.25s-1.44,3.25-3.2,3.25s-3.2-1.46-3.2-3.25S37.9,35.41,39.66,35.41z"/>
	<path d="M48.05,31.56c2.48,0,4.49-2.02,4.49-4.51s-2.02-4.51-4.49-4.51s-4.5,2.02-4.5,4.51S45.58,31.56,48.05,31.56z M48.05,25.53
		c0.82,0,1.49,0.68,1.49,1.51s-0.67,1.51-1.49,1.51s-1.5-0.68-1.5-1.51S47.23,25.53,48.05,25.53z"/>
	<path d="M24.99,35.49c3.02,0,5.48-2.47,5.48-5.5s-2.46-5.5-5.48-5.5s-5.48,2.47-5.48,5.5C19.52,33.03,21.97,35.49,24.99,35.49z
		 M24.99,27.49c1.37,0,2.48,1.12,2.48,2.5s-1.11,2.5-2.48,2.5c-1.36,0-2.48-1.12-2.48-2.5C22.52,28.61,23.63,27.49,24.99,27.49z"/>
	<path d="M16.07,45.58c2.48,0,4.49-2.02,4.49-4.51s-2.02-4.51-4.49-4.51s-4.49,2.02-4.49,4.51S13.6,45.58,16.07,45.58z M16.07,39.55
		c0.82,0,1.49,0.68,1.49,1.51c0,0.83-0.67,1.51-1.49,1.51s-1.49-0.68-1.49-1.51S15.25,39.55,16.07,39.55z"/>
	<path d="M57.7,16.14c-0.16-0.12-0.31-0.24-0.42-0.32c-1.5-1.14-5.43-3.99-9.07-5.6c-3.68-1.63-9.13-2.33-11.28-2.55
		c-0.24-0.03-0.54-0.05-0.78-0.07c-0.33-0.03-0.65,0.02-0.95,0.15L2.67,21.56c-0.74,0.31-1.22,1.04-1.22,1.85v3.14
		c0,1.09,0.92,1.89,2.02,1.88c0.01,0,0.02,0,0.02,0c1.66,0,3.01,1.36,3.01,3.03c0,1.67-1.35,3.03-3.01,3.03c-0.01,0-0.02,0-0.02,0
		c-1.09-0.01-2,0.79-1.99,1.88l0.04,4.65c0.01,1.33,0.17,2.66,0.61,3.91c1.7,4.92,6.2,7.82,10.9,7.82c0.36,0,0.72-0.02,1.08-0.05
		l42.55-4.06c1.03-0.1,1.81-0.96,1.81-1.99V17.71C58.48,17.1,58.19,16.52,57.7,16.14z M36.14,10.6c1.49,0.14,7.29,0.78,10.86,2.36
		c2.37,1.05,4.94,2.72,6.74,3.99l-41.56,3.83L36.14,10.6z M55.48,45.75l-41.65,3.97c-2.55,0.24-4.99-0.63-6.83-2.46
		c-1.64-1.64-2.47-3.93-2.48-6.25l-0.01-3.6c2.83-0.49,4.99-2.96,4.99-5.94c0-3-2.19-5.48-5.04-5.95v-1.01l51.02-4.7V45.75z"/>
</g>
</svg>
