<?xml version="1.0" encoding="utf-8"?>
<!-- Generator: Adobe Illustrator 21.1.0, SVG Export Plug-In . SVG Version: 6.00 Build 0)  -->
<svg version="1.1" id="käse_1_" xmlns="http://www.w3.org/2000/svg" xmlns:xlink="http://www.w3.org/1999/xlink" x="0px" y="0px"
	 viewBox="0 0 60 60" style="enable-background:new 0 0 60 60;" xml:space="preserve">
<path d="M57.71,16.14c-0.12-0.09-0.22-0.17-0.29-0.23c-1.39-1.06-5.45-4.04-9.2-5.7c-3.72-1.64-9.24-2.34-11.35-2.56
	c-0.03,0-0.4-0.04-0.72-0.06c-0.33-0.03-0.65,0.02-0.96,0.15L2.67,21.56c-0.74,0.31-1.22,1.04-1.22,1.85l0.07,17.62
	c0.01,1.33,0.17,2.66,0.61,3.91c1.7,4.92,6.2,7.82,10.9,7.82c0.36,0,0.72-0.02,1.08-0.05l42.55-4.06c1.03-0.1,1.81-0.96,1.81-1.99
	V17.72C58.48,17.1,58.19,16.52,57.71,16.14z M36.14,10.6c1.49,0.14,7.29,0.78,10.86,2.36c2.37,1.05,4.94,2.72,6.74,3.99l-41.56,3.83
	L36.14,10.6z M55.48,45.75l-41.65,3.97c-2.55,0.24-5-0.63-6.83-2.46c-1.64-1.64-2.47-3.93-2.48-6.25L4.45,24.5l51.02-4.7
	L55.48,45.75L55.48,45.75z"/>
</svg>
