<?xml version="1.0" encoding="utf-8"?>
<!-- Generator: Adobe Illustrator 21.1.0, SVG Export Plug-In . SVG Version: 6.00 Build 0)  -->
<svg version="1.1" id="eps" xmlns="http://www.w3.org/2000/svg" xmlns:xlink="http://www.w3.org/1999/xlink" x="0px" y="0px"
	 viewBox="0 0 60 60" style="enable-background:new 0 0 60 60;" xml:space="preserve">
<path d="M58.48,21.76C58.91,14.53,53.15,8.5,46,8.5c-0.72,0-1.44,0.07-2.14,0.19C40.78,4.35,35.72,1.5,30,1.5S19.22,4.35,16.14,8.69
	c-1.84-0.32-3.77-0.23-5.64,0.3c-4.79,1.36-8.35,5.6-8.91,10.55c-0.39,3.41,0.61,6.58,2.49,9.04C6.44,33.63,7.54,38.87,7.5,45v2
	c0,6.35,5.15,11.5,11.5,11.5h31.5c1.1,0,2-0.9,2-2v-3.43c0-0.04,0.05-1.12,0-8.08c-0.04-6.17,1.08-11.46,3.48-16.55
	C57.41,26.55,58.33,24.26,58.48,21.76z M4.59,19.71c0.49-3.71,3.21-6.87,6.82-7.86c1.02-0.28,2.06-0.37,3.09-0.32
	c-0.61,1.35-1.05,2.79-1.29,4.3c-0.22,1.4,0.89,2.66,2.31,2.66c0.27,0,0.48-0.22,0.49-0.49C16.26,10.52,22.44,4.5,30,4.5
	c7.72,0,14,6.28,14,14c0,1.07-0.12,2.13-0.36,3.16c-0.1,0.45-0.23,0.91-0.38,1.35c-0.09,0.26,0.04,0.53,0.29,0.63l0.32,0.12
	c1.14,0.43,2.42-0.22,2.7-1.4c0-0.01,0-0.01,0.01-0.02C46.85,21.09,47,19.8,47,18.5c0-2.48-0.55-4.84-1.51-6.97
	c0.17-0.01,0.34-0.03,0.51-0.03c5.68,0,10.21,5.01,9.41,10.84c-0.64,4.66-4.79,8.2-9.5,8.16c-1-0.01-1.98-0.17-2.92-0.48
	c-0.25-0.08-0.53,0.03-0.62,0.28c-0.52,1.32,0.29,2.84,1.7,3.05c0.36,0.06,0.73,0.1,1.1,0.12c2.16,0.14,4.24-0.3,6.09-1.18
	c-1.22,3.95-1.79,8.11-1.76,12.72c0.01,1.92,0.02,3.37,0.02,4.49H10.88c-0.24-0.79-0.38-1.63-0.38-2.5v-1.99
	c0.03-4.59-0.53-8.73-1.74-12.67c1.6,0.74,3.37,1.16,5.24,1.16c3.33,0,6.47-1.31,8.78-3.6c1-0.99,0.77-2.68-0.41-3.45l0,0
	c-0.22-0.15-0.52-0.08-0.67,0.13c-1.8,2.46-4.64,3.92-7.7,3.92C8.34,30.5,3.81,25.52,4.59,19.71z M49.5,55.5H19
	c-2.6,0-4.92-1.17-6.47-3h36.98c0,0.34-0.01,0.47-0.01,0.5C49.5,53,49.5,55.5,49.5,55.5z"/>
</svg>
