<?xml version="1.0" encoding="utf-8"?>
<!-- Generator: Adobe Illustrator 21.1.0, SVG Export Plug-In . SVG Version: 6.00 Build 0)  -->
<svg version="1.1" id="eps" xmlns="http://www.w3.org/2000/svg" xmlns:xlink="http://www.w3.org/1999/xlink" x="0px" y="0px"
	 viewBox="0 0 60 60" style="enable-background:new 0 0 60 60;" xml:space="preserve">
<g>
	<path d="M27.47,7.51h-8.49c-0.28,0-0.5,0.22-0.5,0.5v5.56c0,0.28,0.22,0.5,0.5,0.5c1.38,0,2.5-1.12,2.5-2.5v-0.56
		c0-0.28,0.22-0.5,0.5-0.5h3.49c1.38,0,2.5-1.12,2.5-2.5C27.97,7.74,27.74,7.51,27.47,7.51z"/>
	<path d="M27.47,17.51h-8.49c-0.28,0-0.5,0.22-0.5,0.5v5.56c0,0.28,0.22,0.5,0.5,0.5c1.38,0,2.5-1.12,2.5-2.5v-1.06h3.99
		c1.38,0,2.5-1.12,2.5-2.5C27.97,17.74,27.74,17.51,27.47,17.51z"/>
	<path d="M32.51,14.03c1.38,0,2.5-1.12,2.5-2.5v-0.56c0-0.28,0.22-0.5,0.5-0.5H39c1.38,0,2.5-1.12,2.5-2.5c0-0.28-0.22-0.5-0.5-0.5
		h-8.49c-0.28,0-0.5,0.22-0.5,0.5v5.56C32.01,13.81,32.23,14.03,32.51,14.03z"/>
	<path d="M32.51,24.03c1.38,0,2.5-1.12,2.5-2.5v-0.56c0-0.28,0.22-0.5,0.5-0.5H39c1.38,0,2.5-1.12,2.5-2.5c0-0.28-0.22-0.5-0.5-0.5
		h-8.49c-0.28,0-0.5,0.22-0.5,0.5v5.56C32.01,23.81,32.23,24.03,32.51,24.03z"/>
	<path d="M32.51,34.03c1.38,0,2.5-1.12,2.5-2.5v-1.06H39c1.38,0,2.5-1.12,2.5-2.5c0-0.28-0.22-0.5-0.5-0.5h-8.49
		c-0.28,0-0.5,0.22-0.5,0.5v5.56C32.01,33.81,32.23,34.03,32.51,34.03z"/>
	<path d="M49.53,34.3c-0.54-0.54-1.38-1.34-2.15-1.99V3.58c0-1.1-0.9-2-2-2H14.46c-1.1,0-2,0.9-2,2v14.98
		c-1.27-0.59-2.83,0.3-2.83,1.81v26.55c0,6.35,5.15,11.5,11.5,11.5h26.99c1.1,0,2-0.9,2-2V38.53c0.01-0.14,0.01-0.28,0-0.43v-2.39
		C50.12,35.18,49.9,34.67,49.53,34.3z M15.46,4.58h28.92V34.6c-6.54-1.05-11.78,3.02-14.11,5.27c-4.81-6.35-11.12-13.59-14.8-17.72
		V4.58H15.46z M47.12,55.42h-26c-4.69,0-8.5-3.81-8.5-8.5V23.47c3.78,4.23,11.2,12.7,16.29,19.61c0.58,0.79,1.75,0.82,2.37,0.06l0,0
		c0.27-0.33,6.72-8.02,14.8-5c0,0,0.32,0.12,1.03,0.51L47.12,55.42L47.12,55.42z"/>
</g>
</svg>
