<?xml version="1.0" encoding="utf-8"?>
<!-- Generator: Adobe Illustrator 21.1.0, SVG Export Plug-In . SVG Version: 6.00 Build 0)  -->
<svg version="1.1" id="EPS" xmlns="http://www.w3.org/2000/svg" xmlns:xlink="http://www.w3.org/1999/xlink" x="0px" y="0px"
	 viewBox="0 0 60 60" style="enable-background:new 0 0 60 60;" xml:space="preserve">
<g>
	<path d="M30.02,25.52c4.42,0,8.01-3.59,8.01-8.01c0-2.38-1.05-4.51-2.7-5.98c2.78-3.17,6.65-6.46,12.63-7.08
		C49.12,4.33,50,3.33,50,2.16c0-0.28-0.24-0.51-0.52-0.51c-8.21,0.18-13.28,4.7-16.47,8.43c-0.92-0.37-1.93-0.58-2.99-0.58
		c-4.42,0-8.01,3.59-8.01,8.01S25.61,25.52,30.02,25.52z M30.02,12.5c2.76,0,5.01,2.25,5.01,5.01s-2.25,5.01-5.01,5.01
		s-5.01-2.25-5.01-5.01S27.26,12.5,30.02,12.5z"/>
	<path d="M53.67,29.36c-2.86-4.78-7.22-8.37-12.66-10.39c-0.26-0.1-0.56,0.04-0.65,0.31l-0.04,0.11c-0.43,1.23,0.16,2.56,1.34,3.11
		c4,1.86,7.23,4.73,9.43,8.41c1.9,3.18-2.16,6.72-3.82,7.78c-1.46-1.44-3.22-2.18-5.27-2.18c-2.1,0-4.32,0.89-6,2.34
		c-1.68-1.46-3.9-2.34-6-2.34c-2.11,0-4.33,0.89-6,2.34c-1.68-1.45-3.89-2.34-6-2.34c-2.05,0-3.81,0.75-5.27,2.19
		c-4.11-2.49-5.39-5.09-3.81-7.76c2.2-3.69,5.43-6.57,9.44-8.44c1.18-0.55,1.77-1.88,1.34-3.11l-0.04-0.11
		c-0.09-0.26-0.39-0.41-0.65-0.31C13.57,21.01,9.2,24.61,6.35,29.4c-2.4,4.03-0.85,8.19,4.25,11.49l0.88,7.45
		c0.68,5.79,5.59,10.16,11.42,10.16h22.66c1.01,0,1.87-0.76,1.99-1.77l1.87-15.87C52.77,38.51,56.35,33.84,53.67,29.36z
		 M34.49,41.55c0.8,0.93,2.23,0.93,3.03,0c0.03-0.03,0.05-0.06,0.06-0.07c0.5-0.51,1.1-0.93,1.75-1.27L37.79,55.5h-6.44V39.69
		c1.13,0.3,2.26,0.95,3.09,1.8C34.45,41.5,34.46,41.52,34.49,41.55z M14.45,47.99l-0.68-5.81c1.1-1.79,2.42-2.65,4.13-2.68
		l1.52,15.24C16.76,53.56,14.81,51.05,14.45,47.99z M22.2,55.47l-1.53-15.26c0.65,0.33,1.25,0.76,1.74,1.27
		c0.01,0.01,0.03,0.03,0.06,0.07c0.8,0.94,2.24,0.93,3.04,0c0.03-0.03,0.04-0.05,0.05-0.06c0.83-0.86,1.94-1.49,3.08-1.79v15.8
		h-5.76C22.66,55.5,22.43,55.49,22.2,55.47z M44.67,55.5h-4.16l1.6-15.99c1.7,0.03,3.02,0.89,4.13,2.66L44.67,55.5z"/>
</g>
</svg>
