<?xml version="1.0" encoding="utf-8"?>
<!-- Generator: Adobe Illustrator 22.1.0, SVG Export Plug-In . SVG Version: 6.00 Build 0)  -->
<svg version="1.1" id="eps" xmlns="http://www.w3.org/2000/svg" xmlns:xlink="http://www.w3.org/1999/xlink" x="0px" y="0px"
	 viewBox="0 0 60 60" style="enable-background:new 0 0 60 60;" xml:space="preserve">
<g>
	<path d="M30,1.5C14.3,1.5,1.5,14.3,1.5,30S14.3,58.5,30,58.5S58.5,45.7,58.5,30S45.7,1.5,30,1.5z M30,55.5
		C15.9,55.5,4.5,44.1,4.5,30S15.9,4.5,30,4.5S55.5,15.9,55.5,30S44.1,55.5,30,55.5z"/>
	<path d="M36.6,10.6c-1-0.4-2.1,0.3-2.1,1.4v36.5c0,1.4,1.1,2.5,2.5,2.5c0.3,0,0.5-0.2,0.5-0.5v-15c0-0.5,0.2-1,0.6-1.4
		c0.3-0.3,0.7-0.7,1-1.1c3.6-4.2,5.1-9.6,3.9-14.4C42.2,14.9,39.9,12,36.6,10.6z M37.5,30.2V14.7c1.3,1.1,2.2,2.7,2.7,4.6
		C41,22.8,40,26.9,37.5,30.2z"/>
	<path d="M31,11c-1.4,0-2.5,1.1-2.5,2.5V20c0,2-1.3,3.6-3,4.2V11.5c0-0.3-0.2-0.5-0.5-0.5c-1.4,0-2.5,1.1-2.5,2.5v10.7
		c-1.8-0.7-3-2.4-3-4.4v-8.3c0-0.3-0.2-0.5-0.5-0.5c-1.4,0-2.5,1.1-2.5,3.2v5.5c0,3.2,1.9,6.1,4.7,7.2c0.8,0.3,1.3,1,1.3,1.8v19.7
		c0,1.4,1.1,2.5,2.5,2.5c0.3,0,0.5-0.2,0.5-0.5V28.9c0-0.8,0.5-1.6,1.2-1.9c2.8-1.1,4.8-3.8,4.8-7v-8.5C31.5,11.2,31.3,11,31,11z"/>
</g>
</svg>
