<?xml version="1.0" encoding="utf-8"?>
<!-- Generator: Adobe Illustrator 21.1.0, SVG Export Plug-In . SVG Version: 6.00 Build 0)  -->
<svg version="1.1" id="eps" xmlns="http://www.w3.org/2000/svg" xmlns:xlink="http://www.w3.org/1999/xlink" x="0px" y="0px"
	 viewBox="0 0 60 60" style="enable-background:new 0 0 60 60;" xml:space="preserve">
<g>
	<path d="M12.5,55.49l-8-0.01V28.31c-0.01-2.03-0.01-3.94,1.35-5.45l0.08-0.09c2.23-2.48,3.27-4.52,3.27-6.43V4.5h2.58v11.84
		c0,1.91,1.06,3.98,3.35,6.51c1.37,1.52,1.37,3.44,1.36,5.47v0.18c0,1.38,1.12,2.5,2.5,2.5c0.28,0,0.5-0.22,0.5-0.5v-2.18
		c0.01-2.27,0.02-5.1-2.14-7.48c-1.71-1.89-2.57-3.41-2.57-4.5V3.5c0-1.1-0.9-2-2-2H8.21c-1.1,0-2,0.9-2,2v12.84
		c0,0.75-0.43,2.13-2.5,4.42l-0.08,0.09c-2.14,2.37-2.14,5.2-2.13,7.47v28.87c0,0.71,0.58,1.29,1.29,1.29L14.5,58.5
		c0.28,0,0.5-0.22,0.5-0.5C15,56.61,13.88,55.49,12.5,55.49z"/>
	<path d="M43.49,35.19l0.11-0.14c0.17-0.22,0.13-0.55-0.1-0.72c-1.28-0.91-2.71-1.68-4.28-2.29c-1.96-0.76-4.04-2.81-4.04-5.12
		v-9.24c0-0.66-0.53-1.19-1.19-1.19h-6.01c-0.66,0-1.19,0.53-1.19,1.19v9.24c0,2.33-2.06,4.38-3.99,5.12
		c-6.36,2.46-10.3,7.47-10.3,13.09c0,5.17,3.31,9.84,8.86,12.48c0.42,0.2,1.72,0.66,2.21,0.83c0.13,0.04,0.25,0.06,0.39,0.06H38.5
		c0.28,0,0.5-0.22,0.5-0.5c0-1.38-1.12-2.5-2.5-2.5H24.25c-0.59-0.21-1.37-0.49-1.61-0.6c-4.47-2.13-7.14-5.78-7.14-9.77
		c0-4.35,3.21-8.29,8.37-10.29c2.94-1.13,5.91-4.22,5.91-7.92V19.5h2.39v7.43c0,3.86,3.09,6.81,5.96,7.92
		c0.76,0.29,1.49,0.63,2.17,1.01C41.38,36.46,42.74,36.17,43.49,35.19z"/>
	<path d="M57,41.14c-0.27-0.32-0.53-0.6-0.81-0.9c-0.34-0.37-0.77-0.82-0.97-1.12l-0.07-0.1V24.15c0-0.91-0.74-1.65-1.65-1.65h-6
		c-0.91,0-1.65,0.74-1.65,1.65v14.87l-0.06,0.09c-0.2,0.28-0.57,0.69-1,1.15c-0.29,0.3-0.53,0.57-0.74,0.82
		c-1.55,1.85-1.55,3.97-1.55,5.38v10.39c0,0.91,0.74,1.65,1.65,1.65h12.7c0.91,0,1.65-0.74,1.65-1.65V46.47
		C58.5,45.06,58.51,42.93,57,41.14z M55.5,55.5h-10v-9.04c0-1.2,0-2.44,0.84-3.44c0.18-0.21,0.39-0.44,0.69-0.76
		c0.46-0.5,0.91-0.98,1.23-1.44l0.59-0.86V25.5h3.3v14.44l0.58,0.86c0.31,0.45,0.73,0.92,1.27,1.49c0.24,0.25,0.46,0.49,0.7,0.77
		c0.81,0.96,0.8,2.2,0.8,3.4V55.5z"/>
</g>
</svg>
