<?xml version="1.0" encoding="utf-8"?>
<!-- Generator: Adobe Illustrator 21.1.0, SVG Export Plug-In . SVG Version: 6.00 Build 0)  -->
<svg version="1.1" id="EPS" xmlns="http://www.w3.org/2000/svg" xmlns:xlink="http://www.w3.org/1999/xlink" x="0px" y="0px"
	 viewBox="0 0 60 60" style="enable-background:new 0 0 60 60;" xml:space="preserve">
<g>
	<path d="M11.05,50.6c-3.73-0.9-6.5-4.26-6.5-8.26V25.5h11.93l-0.02,5c0,1.38,1.11,2.5,2.49,2.5c0.28,0,0.5-0.22,0.5-0.5v-8.49
		L19.5,19c0-0.21-0.02-2.07-0.83-3.67c-0.54-1.09-1.54-2.1-2.17-2.68V3.5c0-1.1-0.9-2-2-2h-8c-1.1,0-2,0.9-2,2v9.15
		c-0.63,0.58-1.63,1.59-2.17,2.68c-0.8,1.6-0.83,3.46-0.83,3.68l0.05,23.32c0,6.17,4.88,11.22,10.98,11.49
		c0.28,0.01,0.52-0.22,0.52-0.51v-0.27C13.05,51.86,12.2,50.87,11.05,50.6z M4.5,19c0-0.37,0.1-1.51,0.51-2.33
		c0.28-0.56,0.87-1.2,1.35-1.66c0.08-0.07,0.24-0.22,0.43-0.37c0.45-0.38,0.71-0.94,0.71-1.53V4.5h6v8.61c0,0.6,0.27,1.16,0.72,1.54
		c0.08,0.06,0.14,0.11,0.17,0.14c0.5,0.45,1.27,1.22,1.6,1.88c0.41,0.82,0.51,1.96,0.51,2.32l-0.01,3.51H4.53L4.5,19z"/>
	<path d="M25.14,32.46l0.21-0.11c1.07-0.58,1.58-1.83,1.19-2.98c-0.57-1.7-1.22-4.4-1.04-7.62c0.21-3.71,1.09-6.48,1.66-7.92
		c1.34,0.47,3.59,1.42,5.57,3.01c2.37,1.89,4.05,3.63,4.76,4.39c-2.38,3.56-2.87,6.96-2.96,8.24C34.5,29.76,34.73,30,35.02,30h0.31
		c1.17,0,2.19-0.8,2.44-1.94c0.44-1.98,1.59-5.16,4.58-7.96c3.67-3.44,10.03-5.4,13.13-6.2c-0.03,3.26-0.16,9.81-0.63,12.15
		c-0.31,1.56-0.87,3.23-1.35,4.5c-0.46,1.24,0.1,2.62,1.3,3.16l0.08,0.04c0.26,0.12,0.55,0.01,0.66-0.25
		c0.48-1.12,1.68-4.07,2.24-6.87c0.61-3.02,0.68-11.69,0.69-14.04v-0.01c0.01-1.25-1.15-2.19-2.37-1.92l-0.08,0.02
		c-0.81,0.18-2.29,0.54-4.06,1.1c-0.27-0.81-0.56-1.62-0.87-2.41c-1.34-3.4-3.6-6.02-4.5-6.97c-0.01-0.01-0.03-0.03-0.05-0.05
		C45.87,1.66,44.8,1.54,44,2.07c-0.07,0.05-0.13,0.09-0.18,0.12c-1.02,0.73-3.26,2.53-5.56,5.61c-1.54-1.17-2.98-1.98-3.83-2.4
		c-0.08-0.04-0.2-0.1-0.34-0.16c-0.88-0.4-1.92-0.12-2.48,0.67c-0.09,0.12-0.16,0.23-0.21,0.31c-0.58,0.9-1.56,2.64-2.45,5.1
		c-0.6-0.24-1.13-0.42-1.52-0.54c-0.08-0.02-0.18-0.05-0.31-0.09c-0.92-0.26-1.9,0.17-2.33,1.02c-0.08,0.15-0.14,0.28-0.18,0.38
		c-0.64,1.45-1.87,4.81-2.13,9.51c-0.29,5.26,1.33,9.32,1.95,10.66C24.57,32.5,24.88,32.6,25.14,32.46z M44.99,5.08
		c0.93,1.08,2.4,3.02,3.33,5.38c0.3,0.76,0.57,1.53,0.83,2.3c-1.47,0.57-3,1.25-4.48,2.06c-0.78-1.1-2.06-2.79-3.78-4.68
		c-0.12-0.13-0.24-0.24-0.36-0.36C42.26,7.44,43.96,5.9,44.99,5.08z M33.63,8.34c1.25,0.67,3.33,1.96,5.04,3.83
		c1.54,1.69,2.72,3.23,3.45,4.25c-0.64,0.46-1.26,0.95-1.82,1.48c-0.33,0.31-0.64,0.63-0.94,0.95c-0.89-0.94-2.53-2.56-4.77-4.35
		c-0.95-0.76-1.95-1.39-2.9-1.91C32.37,10.67,33.11,9.23,33.63,8.34z"/>
	<path d="M43,34.5H31c-10.63,0-17.5,4.51-17.5,11.5v1c0,6.35,5.15,11.5,11.5,11.5h31.5c1.1,0,2-0.9,2-2V46
		C58.5,38.45,50.7,34.5,43,34.5z M55.5,55.5H25c-4.69,0-8.5-3.81-8.5-8.5v-1c0-4.65,4.64-7.82,12-8.4v4.9c0,1.38,1.12,2.5,2.5,2.5
		c0.28,0,0.5-0.22,0.5-0.5v-7h3v5c0,1.38,1.12,2.5,2.5,2.5c0.28,0,0.5-0.22,0.5-0.5v-7h3v5c0,1.38,1.12,2.5,2.5,2.5
		c0.28,0,0.5-0.22,0.5-0.5v-6.99c6.04,0.15,12,3.05,12,8.49V55.5z"/>
</g>
</svg>
