<?xml version="1.0" encoding="utf-8"?>
<!-- Generator: Adobe Illustrator 21.1.0, SVG Export Plug-In . SVG Version: 6.00 Build 0)  -->
<svg version="1.1" id="EPS" xmlns="http://www.w3.org/2000/svg" xmlns:xlink="http://www.w3.org/1999/xlink" x="0px" y="0px"
	 viewBox="0 0 60 60" style="enable-background:new 0 0 60 60;" xml:space="preserve">
<g>
	<path d="M18.96,33c0.27,0,0.49-0.22,0.49-0.49v-8.49L19.5,19c0-0.21-0.02-2.07-0.83-3.67c-0.54-1.09-1.54-2.1-2.17-2.68V3.5
		c0-1.1-0.9-2-2-2h-8c-1.1,0-2,0.9-2,2v9.15c-0.63,0.58-1.63,1.59-2.18,2.68c-0.8,1.6-0.82,3.46-0.82,3.68L1.55,41
		c0,6.34,5.16,11.5,11.5,11.5h1.45c0.28,0,0.5-0.22,0.5-0.5v-0.02c0-1.36-1.09-2.47-2.45-2.5c-0.06,0-0.11,0-0.13,0
		c-4.4-0.32-7.87-3.99-7.87-8.48V25.5h11.93l-0.02,4.99C16.46,31.88,17.58,33,18.96,33L18.96,33z M16.49,22.5H4.53L4.5,19
		c0-0.34,0.09-1.5,0.51-2.33c0.3-0.61,0.96-1.29,1.46-1.75c0.06-0.05,0.18-0.16,0.32-0.27c0.46-0.38,0.72-0.94,0.72-1.54V4.5h6v8.61
		c0,0.59,0.26,1.15,0.72,1.53c0.16,0.13,0.31,0.26,0.38,0.33c0.48,0.46,1.11,1.12,1.4,1.7c0.41,0.82,0.51,1.96,0.51,2.32L16.49,22.5
		z"/>
	<path d="M58.43,32.54L55.5,20.81V15.5c0-1.1-0.9-2-2-2h-17c-1.1,0-2,0.9-2,2v5.31l-1.58,6.34c-0.07,0.27,0.1,0.54,0.36,0.61
		c1.34,0.34,2.7-0.48,3.03-1.82l0.86-3.44h15.66l2.25,9H39.5c-0.28,0-0.5,0.22-0.5,0.5l0,0c0,1.38,1.12,2.5,2.5,2.5h13.79l-1.94,15
		H47.5c-1.38,0-2.5,1.12-2.5,2.5l0,0c0,0.28,0.22,0.5,0.5,0.5h8.73c1.01,0,1.85-0.75,1.98-1.74l2.26-17.47
		C58.51,33.04,58.49,32.79,58.43,32.54z M52.5,19.5h-15v-3h15V19.5z"/>
	<path d="M39.05,37.92c-1.22-1.18-2.76-1.76-4.71-1.76c-1.16,0-2.41,0.43-3.25,0.79c-0.39,0.17-0.92,0.21-1.07,0.21
		c-0.12,0-0.7-0.04-1.11-0.21c-0.84-0.36-2.09-0.79-3.25-0.79c-1.95,0-3.49,0.58-4.71,1.76c-1.08,1.05-1.6,2.2-2.05,3.62
		c-0.67,2.09-0.8,4.35-0.37,6.78c0.87,3.9,2.88,7.94,4.56,9.21l0.1,0.07c0.95,0.6,1.78,0.72,2.41,0.81c0.5,0.07,2.43,0.09,3.61,0.09
		c0.04,0,0.08,0,0.11,0h1.35c1.18-0.01,3.22-0.01,3.81-0.1c0.55-0.08,1.38-0.2,2.33-0.8l0.1-0.07c1.69-1.26,3.69-5.31,4.58-9.27
		c0.41-2.36,0.29-4.62-0.38-6.72C40.64,40.13,40.12,38.97,39.05,37.92z M38.54,47.67c-0.79,3.53-2.51,6.71-3.39,7.43
		c-0.39,0.23-0.72,0.28-1.18,0.35c-0.3,0.04-1.94,0.04-3.3,0.05h-1.35c-1.35,0-3-0.02-3.37-0.07c-0.38-0.06-0.71-0.1-1.1-0.34
		c-0.88-0.72-2.6-3.9-3.38-7.36c-0.33-1.88-0.23-3.66,0.29-5.28c0.34-1.07,0.64-1.76,1.28-2.38c0.46-0.45,1.14-0.91,2.62-0.91
		c0.5,0,1.26,0.2,2.08,0.55c1.02,0.43,2.14,0.45,2.28,0.45c0.12,0,1.23-0.02,2.24-0.45c0.82-0.35,1.58-0.55,2.08-0.55
		c1.49,0,2.16,0.46,2.62,0.91c0.64,0.62,0.94,1.31,1.28,2.38C38.76,44.08,38.85,45.86,38.54,47.67z"/>
	<path d="M25.55,28.97c0.59,0.24,1.23,0.59,1.73,1.09c0.83,0.83,1.1,1.93,1.19,2.52c0.04,0.25,0.25,0.43,0.5,0.42L30,33h0.97
		c0.29,0,0.53-0.25,0.5-0.55c-0.1-0.95-0.51-2.95-2.07-4.51c-1.55-1.55-3.69-2.14-4.68-2.34c-0.29-0.06-0.55,0.14-0.59,0.43
		l-0.04,0.35C23.94,27.47,24.52,28.56,25.55,28.97z"/>
</g>
</svg>
