<?xml version="1.0" encoding="utf-8"?>
<!-- Generator: Adobe Illustrator 21.1.0, SVG Export Plug-In . SVG Version: 6.00 Build 0)  -->
<svg version="1.1" id="EPS" xmlns="http://www.w3.org/2000/svg" xmlns:xlink="http://www.w3.org/1999/xlink" x="0px" y="0px"
	 viewBox="0 0 60 60" style="enable-background:new 0 0 60 60;" xml:space="preserve">
<g>
	<path d="M57.71,35.71L56.3,34.3c-0.2-0.2-0.51-0.2-0.71,0L35.71,54.17c-0.98,0.98-0.98,2.56,0,3.54c0.2,0.2,0.51,0.2,0.71,0
		l21.29-21.29C57.9,36.22,57.9,35.9,57.71,35.71z"/>
	<path d="M39,44.5c3.03,0,5.5-2.47,5.5-5.5s-2.47-5.5-5.5-5.5s-5.5,2.47-5.5,5.5S35.97,44.5,39,44.5z M39,36.5
		c1.38,0,2.5,1.12,2.5,2.5s-1.12,2.5-2.5,2.5s-2.5-1.12-2.5-2.5S37.62,36.5,39,36.5z"/>
	<path d="M53,47.5c-3.03,0-5.5,2.47-5.5,5.5s2.47,5.5,5.5,5.5s5.5-2.47,5.5-5.5S56.03,47.5,53,47.5z M53,55.5
		c-1.38,0-2.5-1.12-2.5-2.5s1.12-2.5,2.5-2.5s2.5,1.12,2.5,2.5S54.38,55.5,53,55.5z"/>
	<path d="M28.52,20.89l-0.07-0.08c-1.55-1.85-2.34-3.35-2.34-4.46V3.5c0-1.1-0.9-2-2-2H19.9c-1.1,0-2,0.9-2,2v12.84
		c0,0.87-0.49,1.99-1.46,3.33c-0.08,0.11-0.06,0.28,0.05,0.36c1.27,0.95,3.13,0.49,3.77-0.96c0.43-0.96,0.64-1.87,0.64-2.73V4.5
		h2.21v11.84c0,1.87,1,3.96,3.05,6.4l0.07,0.08c1.28,1.52,1.28,3.54,1.27,5.5V55.5h-5c-1.38,0-2.5,1.12-2.5,2.5
		c0,0.28,0.22,0.5,0.5,0.5h8c1.1,0,2-0.9,2-2V28.32C30.51,26.06,30.51,23.25,28.52,20.89z"/>
	<path d="M16.24,24.86c-0.28-0.81-1.04-1.36-1.89-1.36H5.66c-0.85,0-1.62,0.55-1.89,1.36c0,0.01-0.01,0.03-0.01,0.03
		C1.38,31.88,0.95,35.6,2.18,38.6c0.87,1.9,3.4,3.19,5.92,4.34c0.14,0.06,0.27,0.12,0.39,0.18V55.5h-3C4.12,55.5,3,56.62,3,58
		c0,0.28,0.22,0.5,0.5,0.5h13c0.28,0,0.5-0.22,0.5-0.5c0-1.38-1.12-2.5-2.5-2.5h-3V43.13c0.09-0.04,0.17-0.08,0.27-0.12l0.09-0.04
		c2.43-1.1,5.09-2.43,5.97-4.35c1.23-2.99,0.81-6.74-1.58-13.74C16.24,24.87,16.24,24.86,16.24,24.86z M6.38,26.5h7.24
		c0.33,0.99,0.61,1.89,0.85,2.73c-2.99-0.43-5.98-0.43-8.94,0C5.77,28.39,6.05,27.49,6.38,26.5z M15.07,37.42
		c-0.46,1.01-3.47,2.37-4.46,2.81l-0.09,0.04c-0.17,0.08-0.33,0.15-0.48,0.22H9.96c-0.19-0.09-0.4-0.18-0.62-0.29
		c-1.18-0.54-3.96-1.81-4.41-2.8c-0.5-1.22-0.57-2.79-0.16-5.01c3.46-0.65,6.95-0.65,10.47-0.01C15.64,34.63,15.57,36.2,15.07,37.42
		z"/>
</g>
</svg>
