<?xml version="1.0" encoding="utf-8"?>
<!-- Generator: Adobe Illustrator 21.1.0, SVG Export Plug-In . SVG Version: 6.00 Build 0)  -->
<svg version="1.1" id="EPS" xmlns="http://www.w3.org/2000/svg" xmlns:xlink="http://www.w3.org/1999/xlink" x="0px" y="0px"
	 viewBox="0 0 60 60" style="enable-background:new 0 0 60 60;" xml:space="preserve">
<path d="M49.49,18.85c-0.14-3.4-4.99-5.66-11.2-6.69c-0.02-0.05-0.05-0.11-0.07-0.16c-0.78-1.68-1.2-2.71-0.56-3.75
	c0.54-0.88,0.54-1.99-0.08-2.82l-0.08-0.1c-0.17-0.22-0.5-0.27-0.72-0.09c-2.66,2.25-2.33,4.61-1.61,6.5
	c-1.21-0.12-2.44-0.19-3.69-0.23c-0.1-0.19-0.2-0.38-0.3-0.56c-1.23-2.31-2.06-3.87-0.43-5.62c0.78-0.83,0.91-2.08,0.28-3.03
	c-0.16-0.23-0.48-0.3-0.71-0.13c-4.57,3.27-3.27,6.69-1.89,9.35c-1.45,0.04-2.89,0.14-4.3,0.3c-0.72-1.57-1.09-2.57-0.48-3.57
	c0.54-0.88,0.54-1.99-0.09-2.82l-0.08-0.1c-0.17-0.22-0.5-0.27-0.72-0.09c-2.88,2.44-2.25,5.01-1.42,6.97
	c-6.04,1.06-10.72,3.3-10.85,6.64c-0.88,5.06,0.51,10.1,3.95,14.22c1.8,2.16,4.09,3.93,6.6,5.2l-5.21,17.87
	c-0.08,0.27,0.07,0.54,0.34,0.62l0,0c1.17,0.34,2.39-0.33,2.73-1.5l4.64-15.91c1.66,0.59,3.38,0.96,5.1,1.09V53.5
	c0,0.28,0.22,0.5,0.5,0.5c1.21,0,2.2-0.98,2.2-2.2V40.44c1.72-0.13,3.44-0.5,5.1-1.09l5.12,17.54c0.08,0.27,0.35,0.42,0.62,0.34
	c1.17-0.34,1.84-1.56,1.5-2.73l-4.73-16.23c2.51-1.27,4.79-3.04,6.6-5.2C48.98,28.96,50.37,23.91,49.49,18.85z M22.53,15.05
	c0.16,0.63,0.14,1.16-0.16,1.69c-0.51,0.89-0.52,1.98,0.1,2.8l0.09,0.12c0.17,0.23,0.51,0.27,0.72,0.09
	c1.98-1.69,2.24-3.45,1.93-5.03c1.44-0.13,2.99-0.22,4.68-0.22c0.4,1.16,0.36,2.16-0.63,3.22c-0.75,0.81-0.83,2.04-0.22,2.96
	l0.01,0.01c0.16,0.23,0.48,0.3,0.71,0.13c2.92-2.1,3.36-4.27,2.93-6.26c1.36,0.07,2.63,0.18,3.8,0.34c0.2,0.69,0.2,1.26-0.12,1.83
	c-0.51,0.89-0.52,1.98,0.1,2.8l0.09,0.12c0.17,0.23,0.51,0.27,0.72,0.09c1.71-1.45,2.13-2.96,2.02-4.36c4.7,1,7.2,2.61,7.2,3.61
	c0,1.53-5.82,4.5-16.5,4.5s-16.5-2.97-16.5-4.5C13.5,17.88,16.65,15.99,22.53,15.05z M43.24,31.15c-1.43,1.71-3.2,3.13-5.14,4.2
	l-0.66-2.25c-0.08-0.27-0.35-0.42-0.62-0.34l-1.63,0.48c-0.27,0.08-0.42,0.35-0.34,0.62l0.76,2.62c-1.82,0.66-3.73,1.03-5.61,1.03
	c-1.88,0-3.79-0.36-5.61-1.03l0.76-2.62c0.08-0.27-0.07-0.54-0.34-0.62l-1.63-0.48c-0.27-0.08-0.54,0.07-0.62,0.34l-0.66,2.25
	c-1.95-1.07-3.72-2.49-5.14-4.2c-2.01-2.41-3.16-5.18-3.43-8.07C16.94,25.34,23.49,26.5,30,26.5s13.06-1.16,16.67-3.42
	C46.4,25.97,45.24,28.75,43.24,31.15z"/>
</svg>
