<?xml version="1.0" encoding="utf-8"?>
<!-- Generator: Adobe Illustrator 21.1.0, SVG Export Plug-In . SVG Version: 6.00 Build 0)  -->
<svg version="1.1" id="EPS" xmlns="http://www.w3.org/2000/svg" xmlns:xlink="http://www.w3.org/1999/xlink" x="0px" y="0px"
	 viewBox="0 0 60 60" style="enable-background:new 0 0 60 60;" xml:space="preserve">
<g>
	<path d="M12.56,17.69l0.38,0.37c0.42,0.42,0.99,1.17,1.27,2.3c0.19,0.77,0.26,2.26,0.28,3.15c0.01,0.27,0.23,0.49,0.5,0.49h2
		c0.28,0,0.51-0.23,0.5-0.51c-0.02-0.9-0.09-2.72-0.37-3.86c-0.45-1.8-1.37-3.01-2.06-3.7l-0.41-0.4c-0.73-0.71-2.26-2.18-2.71-3.08
		c-0.45-0.89-0.6-2.69-0.06-4.02c0.27-0.68,0.78-1.67,1.25-2.56c0.64-1.19,0.22-2.67-0.95-3.35L12.14,2.5
		c-0.25-0.14-0.55-0.06-0.69,0.18c-0.54,0.95-1.81,3.25-2.37,4.63c-0.79,1.98-0.72,4.7,0.16,6.48
		C9.88,15.05,11.29,16.46,12.56,17.69z"/>
	<path d="M21.56,17.69l0.38,0.37c0.42,0.42,0.99,1.17,1.27,2.3c0.19,0.77,0.26,2.26,0.28,3.15c0.01,0.27,0.23,0.49,0.5,0.49h2
		c0.28,0,0.51-0.23,0.5-0.51c-0.02-0.9-0.09-2.72-0.37-3.86c-0.45-1.8-1.37-3.01-2.06-3.7l-0.41-0.4c-0.73-0.71-2.26-2.19-2.71-3.08
		s-0.6-2.69-0.06-4.02c0.27-0.68,0.77-1.67,1.25-2.56c0.64-1.19,0.22-2.67-0.95-3.35L21.14,2.5c-0.25-0.14-0.55-0.06-0.69,0.18
		c-0.54,0.95-1.81,3.25-2.37,4.63c-0.79,1.98-0.72,4.7,0.16,6.48C18.88,15.05,20.29,16.46,21.56,17.69z"/>
	<path d="M30.61,17.7l0.38,0.37c0.42,0.42,0.99,1.17,1.27,2.3c0.19,0.77,0.26,2.26,0.28,3.15c0.01,0.27,0.23,0.49,0.5,0.49h2
		c0.28,0,0.51-0.23,0.5-0.51c-0.02-0.9-0.09-2.72-0.37-3.86c-0.45-1.8-1.37-3.01-2.06-3.7l-0.41-0.4c-0.74-0.71-2.26-2.19-2.71-3.09
		c-0.45-0.89-0.6-2.69-0.06-4.02c0.27-0.68,0.78-1.67,1.25-2.56c0.64-1.19,0.21-2.67-0.95-3.35L30.19,2.5
		c-0.25-0.14-0.55-0.06-0.69,0.18c-0.54,0.95-1.81,3.25-2.37,4.63c-0.79,1.98-0.72,4.7,0.16,6.48
		C27.92,15.05,29.33,16.47,30.61,17.7z"/>
	<path d="M42.5,30.5v-2c0-1.1-0.9-2-2-2h-31c-1.1,0-2,0.9-2,2V47c0,6.35,5.15,11.5,11.5,11.5h12c5.12,0,9.47-3.37,10.95-8h0.2
		c5.32,0,9.97-4.01,10.33-9.31C52.87,35.36,48.24,30.5,42.5,30.5z M39.5,47c0,4.69-3.81,8.5-8.5,8.5H19c-4.69,0-8.5-3.81-8.5-8.5
		V29.5h29V47z M42.5,47.5h-0.03c0.01-0.17,0.03-0.33,0.03-0.5V33.5c3.86,0,7,3.14,7,7S46.36,47.5,42.5,47.5z"/>
</g>
</svg>
