<?xml version="1.0" encoding="utf-8"?>
<!-- Generator: Adobe Illustrator 21.1.0, SVG Export Plug-In . SVG Version: 6.00 Build 0)  -->
<svg version="1.1" id="EPS" xmlns="http://www.w3.org/2000/svg" xmlns:xlink="http://www.w3.org/1999/xlink" x="0px" y="0px"
	 viewBox="0 0 60 60" style="enable-background:new 0 0 60 60;" xml:space="preserve">
<g>
	<circle cx="34" cy="22" r="2"/>
	<path d="M42.5,29.5h-3.89c3.03-1.64,4.94-4.14,4.94-7c0-4.75-5.26-8.52-12.21-8.96V5.2c0-1.21-0.98-2.2-2.2-2.2
		c-0.28,0-0.5,0.22-0.5,0.5v10.04c-6.93,0.44-12.18,4.22-12.18,8.96c0,2.86,1.91,5.36,4.94,7h-3.9c-1.1,0-2,0.9-2,2V47
		c0,6.35,5.15,11.5,11.5,11.5h15.5c1.1,0,2-0.9,2-2v-25C44.5,30.4,43.6,29.5,42.5,29.5z M19.47,22.5c0-2.99,4.08-5.55,9.18-5.94
		v1.94c0,0.28,0.22,0.5,0.5,0.5h1.7c0.28,0,0.5-0.22,0.5-0.5v-1.94c5.11,0.39,9.21,2.95,9.21,5.94c0,3.25-4.83,6-10.55,6
		C24.3,28.5,19.47,25.75,19.47,22.5z M36.5,35c0,0.83-0.67,1.5-1.5,1.5s-1.5-0.67-1.5-1.5s0.67-1.5,1.5-1.5S36.5,34.17,36.5,35z
		 M20,50.5c-0.26,0-0.51-0.02-0.77-0.06c-0.47-1.05-0.73-2.22-0.73-3.44v-7.27c0.49-0.14,0.99-0.23,1.5-0.23
		c3.03,0,5.5,2.47,5.5,5.5S23.03,50.5,20,50.5z M21.4,53.38c4.02-0.67,7.1-4.17,7.1-8.38c0-4.69-3.81-8.5-8.5-8.5
		c-0.51,0-1.01,0.05-1.5,0.14V32.5h12.76c-0.48,0.72-0.76,1.58-0.76,2.5c0,2.48,2.02,4.5,4.5,4.5s4.5-2.02,4.5-4.5
		c0-0.92-0.28-1.78-0.76-2.5h2.76v15.09c-0.33-0.06-0.66-0.09-1-0.09c-3.31,0-6,2.69-6,6c0,0.69,0.13,1.36,0.36,2H27
		C24.85,55.5,22.89,54.69,21.4,53.38z M38.27,55.5c-0.49-0.55-0.77-1.26-0.77-2c0-1.65,1.35-3,3-3c0.34,0,0.68,0.07,1,0.18v4.82
		H38.27z"/>
</g>
</svg>
