<?xml version="1.0" encoding="utf-8"?>
<!-- Generator: Adobe Illustrator 21.1.0, SVG Export Plug-In . SVG Version: 6.00 Build 0)  -->
<svg version="1.1" id="EPS" xmlns="http://www.w3.org/2000/svg" xmlns:xlink="http://www.w3.org/1999/xlink" x="0px" y="0px"
	 viewBox="0 0 60 60" style="enable-background:new 0 0 60 60;" xml:space="preserve">
<path d="M42.1,10.76c-4.52,0-8.91,1.7-12.03,4.25c-2.95-2.5-7.18-4.25-12.04-4.25c-9.08,0-16.47,7.03-16.47,15.68
	c0,6.16,2.58,11.84,7.26,16c5.19,4.62,12.62,7.06,21.48,7.06c19.53,0,28.27-11.58,28.27-23.06C58.57,17.79,51.18,10.76,42.1,10.76z
	 M30.01,19.3c0.95,1.28,1.49,2.64,1.49,3.93c0,0.88-0.57,1.94-1.56,3.07c-0.91-1.08-1.44-2.12-1.44-3.07
	C28.5,21.94,29.04,20.58,30.01,19.3z M7.74,36.78c-2.15-3.14-3.18-6.75-3.18-10.34c0-6.99,6.04-12.68,13.47-12.68
	c3.91,0,7.42,1.42,9.87,3.39c-1.51,1.85-2.4,3.94-2.4,6.07c0,1.7,0.86,3.43,2.3,5.1C22.96,32.31,14.29,36.45,7.74,36.78z M30.3,46.5
	c-9.44,0-16.11-2.84-20.29-6.99c6.08-1.03,14.76-4.65,19.99-9.05c5.3,4.46,14.14,8.13,20.24,9.09C45.37,44.29,37.82,46.5,30.3,46.5z
	 M52.56,36.79c-5.84-0.23-15.28-4.24-20.42-8.4c1.48-1.69,2.37-3.44,2.37-5.17c0-2.05-0.85-4.17-2.36-6.08
	c2.48-1.96,6.02-3.38,9.96-3.38c7.43,0,13.47,5.69,13.47,12.68C55.57,30.55,54.46,33.99,52.56,36.79z"/>
</svg>
