<?xml version="1.0" encoding="utf-8"?>
<!-- Generator: Adobe Illustrator 21.1.0, SVG Export Plug-In . SVG Version: 6.00 Build 0)  -->
<svg version="1.1" id="EPS" xmlns="http://www.w3.org/2000/svg" xmlns:xlink="http://www.w3.org/1999/xlink" x="0px" y="0px"
	 viewBox="0 0 60 60" style="enable-background:new 0 0 60 60;" xml:space="preserve">
<g>
	<path d="M56.5,32.5h-53c-1.11,0-2.01,0.9-2,2.01l0.02,5c0.01,1.1,0.9,1.99,2,1.99h1.1L4.64,45c0.02,6.3,5.19,11.46,11.49,11.47
		l27.71,0.02h0.01c6.29,0,11.46-5.14,11.5-11.43l0.02-3.56h1.13c1.1,0,2-0.9,2-2v-5C58.5,33.4,57.6,32.5,56.5,32.5z M55.5,38.5
		h-1.13c-1.1,0-1.99,0.89-2,1.99l-0.03,4.55c-0.03,4.65-3.85,8.45-8.5,8.45h-0.01l-27.71-0.02c-4.67,0-8.48-3.81-8.49-8.48
		l-0.01-4.5c0-1.1-0.9-1.99-2-1.99h-1.1l-0.01-3H55.5V38.5z"/>
	<path d="M3.15,30.36c0.14,0.24,0.46,0.32,0.7,0.16l0.25-0.16c1.02-0.65,1.43-1.93,0.97-3.05c-0.12-0.3-0.21-0.54-0.24-0.65
		c-0.9-3.24,0.04-6.43,2.58-8.63l2.45,1.09c1.12,0.5,2.42-0.11,2.74-1.29l0.66-2.39c0.92-0.12,1.82-0.09,2.67,0.09
		c0.2,0.04,0.4,0.1,0.59,0.16c1.09,0.34,2.27-0.17,2.88-1.14l0.12-0.19c0.15-0.24,0.08-0.57-0.17-0.71c-2-1.13-4.28-1.53-6.65-1.17
		c-0.1,0.01-0.36,0.07-0.66,0.13c-0.73,0.16-1.31,0.7-1.51,1.42l-0.52,1.87l-1.93-0.86c-0.67-0.3-1.45-0.21-2.03,0.24
		c-0.33,0.25-0.63,0.49-0.71,0.56c-3.7,3.27-4.85,8.31-2.92,13.04C2.64,29.4,2.88,29.89,3.15,30.36z"/>
	<path d="M23.49,30.39l0.17-0.07c1.11-0.49,1.74-1.71,1.42-2.88c-1.29-4.87-0.12-10.34,0.53-12.72c0.66,0.14,1.53,0.37,2.53,0.71
		c2.29,0.77,5.42,2.24,7.93,4.82c-0.02,0.06-0.06,0.1-0.08,0.16c-1.54,4.07-0.78,7.51,0.23,9.81c0.11,0.26,0.42,0.36,0.67,0.24
		l0.22-0.1c1.08-0.53,1.62-1.74,1.32-2.9c-0.42-1.62-0.51-3.65,0.35-5.92c3.08-7.22,13.04-8.5,16.59-8.72
		c0.29,2.56,0.5,8.61-2.94,13.53c-0.23,0.38-0.48,0.74-0.74,1.07c-0.73,0.94-0.69,2.26,0.09,3.16l0.16,0.18
		c0.19,0.21,0.52,0.24,0.72,0.04c0.87-0.82,1.65-1.79,2.27-2.82c4.08-5.83,3.75-12.85,3.39-15.72c-0.03-0.22-0.08-0.52-0.13-0.83
		c-0.17-0.97-1.02-1.67-2-1.66c-0.31,0-0.6,0.01-0.81,0.02c-1.27,0.07-3.35,0.26-5.71,0.79c-1.61-2.81-3.55-4.87-4.66-5.93
		l-0.58-0.49c-0.74-0.63-1.83-0.63-2.58-0.01c-0.23,0.19-0.44,0.37-0.59,0.51c-0.96,0.87-2.51,2.39-4.05,4.38
		c-1.51-1.12-2.88-1.9-3.73-2.33C33.36,6.65,33.19,6.57,33,6.48c-0.88-0.4-1.94-0.11-2.48,0.69c-0.19,0.28-0.38,0.56-0.51,0.77
		c-0.58,0.95-1.42,2.43-2.21,4.24c-0.88-0.25-1.63-0.42-2.16-0.52c-0.11-0.02-0.26-0.05-0.43-0.07c-0.96-0.14-1.88,0.43-2.19,1.35
		c-0.06,0.18-0.11,0.34-0.14,0.42c-0.76,2.55-2.66,10.25-0.06,16.77C22.92,30.38,23.23,30.5,23.49,30.39z M43.13,7.01
		c0.89,0.87,2.28,2.4,3.54,4.41c-1.6,0.54-3.21,1.27-4.73,2.22c-0.72-0.93-1.53-1.83-2.43-2.68C40.86,9.21,42.25,7.83,43.13,7.01z
		 M32.52,9.59c0.93,0.5,2.33,1.35,3.82,2.57c1.24,1.02,2.32,2.13,3.22,3.3c-0.69,0.63-1.34,1.32-1.92,2.1
		c-2.25-2.12-4.8-3.51-6.99-4.4C31.32,11.65,32.02,10.41,32.52,9.59z"/>
</g>
</svg>
