<?xml version="1.0" encoding="utf-8"?>
<!-- Generator: Adobe Illustrator 21.1.0, SVG Export Plug-In . SVG Version: 6.00 Build 0)  -->
<svg version="1.1" id="eps" xmlns="http://www.w3.org/2000/svg" xmlns:xlink="http://www.w3.org/1999/xlink" x="0px" y="0px"
	 viewBox="0 0 60 60" style="enable-background:new 0 0 60 60;" xml:space="preserve">
<g>
	<circle cx="16.5" cy="43.5" r="6"/>
	<circle cx="32" cy="39" r="4.43"/>
	<circle cx="28" cy="28" r="3.28"/>
	<path d="M53.86,7.79l3.74-1.87c0.61-0.3,0.74-1.11,0.27-1.59L55.71,2.1c-0.48-0.49-1.31-0.37-1.61,0.25l-1.88,3.79
		C48.95,3.26,44.68,1.5,40,1.5c-3.94,0-7.71,1.23-10.88,3.55c-0.77,0.56-18.29,14.19-19.04,14.77l0.02,0.03
		C4.89,23.77,1.5,29.99,1.5,37c0,11.86,9.65,21.5,21.5,21.5c7.01,0,13.23-3.39,17.16-8.6l0.03,0.02
		c0.58-0.75,14.21-18.27,14.77-19.04c2.32-3.18,3.55-6.94,3.55-10.88C58.5,15.32,56.74,11.05,53.86,7.79z M23,55.5
		C12.8,55.5,4.5,47.2,4.5,37S12.8,18.5,23,18.5S41.5,26.8,41.5,37S33.2,55.5,23,55.5z M52.53,29.12c-0.27,0.37-4.27,5.52-8.22,10.61
		c0.11-0.9,0.19-1.8,0.19-2.73c0-11.85-9.64-21.5-21.5-21.5c-0.93,0-1.83,0.08-2.73,0.19c5.09-3.96,10.24-7.95,10.61-8.22
		C33.55,5.53,36.7,4.5,40,4.5c8.55,0,15.5,6.95,15.5,15.5C55.5,23.3,54.47,26.45,52.53,29.12z"/>
</g>
</svg>
