<?xml version="1.0" encoding="utf-8"?>
<!-- Generator: Adobe Illustrator 21.1.0, SVG Export Plug-In . SVG Version: 6.00 Build 0)  -->
<svg version="1.1" id="eps" xmlns="http://www.w3.org/2000/svg" xmlns:xlink="http://www.w3.org/1999/xlink" x="0px" y="0px"
	 viewBox="0 0 60 60" style="enable-background:new 0 0 60 60;" xml:space="preserve">
<g>
	<path d="M55.85,21.64c-0.44-0.9-0.78-1.62-0.83-2c-0.18-1.62-1.26-5.67-2.4-7.15l-0.41-0.43c-0.52-0.45-1.26-0.82-2.53-1.4
		c-0.91-0.41-1.85-0.84-2.33-1.32c-0.31-0.3-0.76-0.82-1.29-1.42c-2.01-2.28-2.98-3.27-3.73-3.75l-0.4-0.26l-0.46-0.12
		c-0.63-0.17-1.46-0.18-2.68-0.16c-0.25,0.01-0.5,0.01-0.73,0.01c-0.52,0-1.16-0.02-1.57-0.19l-0.34-0.14
		c-2.08-0.85-4.44-1.73-6.26-1.73c-1.71,0.03-4.03,0.89-6.08,1.73L23.5,3.45c-0.42,0.17-1.06,0.19-1.58,0.19
		c-0.23,0-0.47,0-0.77-0.01l-0.03,1.5l-0.07-1.5c-0.24,0-0.48-0.01-0.72-0.01c-1.05,0-1.54,0.09-1.85,0.18l-0.44,0.12l-0.38,0.25
		c-0.84,0.54-2.01,1.79-3.78,3.8c-0.54,0.61-0.96,1.09-1.25,1.38c-0.48,0.48-1.43,0.9-2.34,1.32c-1.29,0.59-2,0.95-2.52,1.39
		l-0.41,0.43c-1.14,1.48-2.22,5.53-2.4,7.15c-0.04,0.39-0.36,1.03-0.83,2.01C2.36,25.3-0.94,32.1,4.4,38.33
		c2.17,2.53,5.29,5.22,8.59,7.73c0.41,4.12,1.31,10.24,3.04,11.72c0.59,0.5,1.66,0.71,3.03,0.71c2.93,0,7.21-0.95,10.92-1.95h0.01
		l0.03-0.01c3.72,1.01,8.02,1.96,10.96,1.96c1.37,0,2.44-0.21,3.03-0.71c1.74-1.48,2.63-7.65,3.05-11.77
		c3.28-2.49,6.37-5.16,8.53-7.68C60.93,32.09,57.63,25.29,55.85,21.64z M17.96,55.44c-0.55-0.76-1.18-3.73-1.64-6.98
		c3.51,2.46,6.95,4.59,9.46,6.01C22.24,55.25,18.92,55.74,17.96,55.44z M42.11,55.43c-0.95,0.3-4.3-0.19-7.87-0.98
		c2.52-1.42,5.98-3.57,9.5-6.04C43.29,51.7,42.65,54.72,42.11,55.43z M53.31,36.37C47.6,43.03,33.47,51.81,30,53.28
		c-3.48-1.46-17.6-10.25-23.31-16.91C2.94,32,4.71,27.34,6.84,22.95c0.61-1.25,1.01-2.08,1.11-2.98c0.18-1.6,1.18-4.77,1.76-5.6
		l0.07-0.07c0.3-0.23,1.06-0.58,1.76-0.9c1.15-0.52,2.34-1.06,3.2-1.91c0.37-0.37,0.83-0.88,1.43-1.57
		c0.74-0.84,2.45-2.79,3.11-3.22c0.11-0.03,0.4-0.07,1.06-0.07c0.22,0,0.44,0,0.66,0.01h0.1c0.32,0.01,0.57,0.01,0.82,0.01
		c0.84,0,1.81-0.05,2.71-0.41l0.34-0.14c0.99-0.41,3.62-1.48,5.03-1.51c1.37,0,4.12,1.13,5.03,1.51l0.34,0.14
		c0.89,0.36,1.86,0.41,2.7,0.41c0.25,0,0.52-0.01,0.81-0.01c0.4-0.01,1.47-0.03,1.83,0.06c0.6,0.4,1.97,1.92,3.11,3.21
		c0.59,0.67,1.05,1.2,1.43,1.57c0.86,0.85,2.04,1.39,3.2,1.91c0.51,0.23,1.43,0.65,1.76,0.9l0.07,0.07c0.58,0.83,1.58,4,1.76,5.61
		c0.1,0.9,0.52,1.77,1.11,2.98C55.29,27.34,57.06,32,53.31,36.37z"/>
	<path d="M29.01,9.19c-0.28,0-0.5,0.22-0.5,0.5v28.55c0,0.28,0.22,0.5,0.5,0.5h2c0.28,0,0.5-0.22,0.5-0.5V11.69
		C31.51,10.31,30.39,9.19,29.01,9.19z"/>
	<path d="M41.3,14.16c-0.04-0.01-0.08-0.01-0.11-0.01c-0.27-0.03-0.52,0.15-0.56,0.42c-0.33,2.25-1.95,12.09-6.24,23.6
		c-0.1,0.26,0.03,0.55,0.29,0.64l1.87,0.71c0.26,0.1,0.55-0.04,0.65-0.3c3.68-9.87,5.42-18.37,6.1-22.36
		C43.53,15.55,42.62,14.33,41.3,14.16z"/>
	<path d="M47.97,25.39c-0.01,0-0.02-0.01-0.03-0.01c-0.26-0.06-0.52,0.08-0.59,0.34c-0.47,1.6-2.32,7.22-6.92,13.85
		c-0.16,0.22-0.11,0.54,0.12,0.69l1.63,1.15c0.23,0.16,0.55,0.1,0.71-0.13c3.75-5.4,5.76-10.13,6.74-12.85
		C50.08,27.13,49.32,25.72,47.97,25.39z"/>
	<path d="M19.38,14.56c-0.04-0.27-0.29-0.45-0.56-0.42l-0.12,0.01c-1.31,0.17-2.22,1.39-2,2.7c0.69,3.98,2.43,12.49,6.1,22.36
		c0.1,0.26,0.39,0.4,0.65,0.3l1.87-0.71c0.26-0.1,0.38-0.39,0.29-0.64C21.33,26.65,19.72,16.81,19.38,14.56z"/>
	<path d="M12.67,25.72c-0.08-0.26-0.34-0.4-0.6-0.34l-0.04,0.01c-1.34,0.33-2.11,1.74-1.65,3.04c0.97,2.73,2.99,7.46,6.74,12.86
		c0.16,0.23,0.48,0.29,0.86,0.02c0,0,0.93-0.66,1.48-1.05c0.22-0.16,0.27-0.47,0.11-0.69C14.99,32.94,13.14,27.32,12.67,25.72z"/>
</g>
</svg>
