<?xml version="1.0" encoding="utf-8"?>
<!-- Generator: Adobe Illustrator 21.1.0, SVG Export Plug-In . SVG Version: 6.00 Build 0)  -->
<svg version="1.1" id="EPS" xmlns="http://www.w3.org/2000/svg" xmlns:xlink="http://www.w3.org/1999/xlink" x="0px" y="0px"
	 viewBox="0 0 60 60" style="enable-background:new 0 0 60 60;" xml:space="preserve">
<g>
	<path d="M53.81,18.02c-2.76-2.39-7.11-2.4-10.28-2.4c-0.44,0-0.86,0-1.24-0.01c-2.39-0.04-3.16-0.29-5.24-0.94l-1.15-0.36
		c-0.87-0.27-1.93-0.68-3.05-1.12c-2.56-1-5.74-2.24-8.89-2.58c-5.22-0.55-10.22,0.78-15.75,4.19c-4.92,3.04-6.23,7.87-6.58,11.66
		l0,0c0,0.01,0,0.01,0,0.02C1.5,27.86,1.5,29.1,1.5,30.06c0,4.15,1.08,9.93,6.25,13.86c5.06,3.84,15.93,5.59,21.9,5.59
		c0.09,0,0.18,0,0.27,0h0.05c0.27-0.01,6.65-0.3,10.36-1.24c3.82-0.96,6.81-2.11,11.68-5.44c5.24-3.58,6.42-9,6.48-12.91
		C58.56,26.17,56.94,20.73,53.81,18.02z M9.79,17.37c4.27-2.64,8.01-3.87,11.86-3.87c0.66,0,1.32,0.04,1.99,0.11
		c2.75,0.29,5.6,1.4,8.12,2.39c1.17,0.46,2.28,0.89,3.26,1.19l1.13,0.35c2.17,0.68,3.26,1.02,6.08,1.08c0.4,0.01,0.84,0.01,1.3,0.01
		c2.7,0,6.41,0.01,8.32,1.67c1.63,1.42,2.8,4.08,3.33,6.59c-0.15,2.51-1.97,6.13-5.79,8.41c-4.49,2.68-6.78,3.48-9.92,4.18
		c-3.25,0.72-9.23,0.96-9.25,0.96c-0.05,0-0.1,0-0.16,0c-5.79,0-15.21-2.53-19.15-5.14c-3.76-2.5-6.2-5.88-6.28-8.67
		C4.98,23.09,6.11,19.63,9.79,17.37z M50.32,40.34c-4.53,3.09-7.16,4.11-10.72,5.01c-3.3,0.83-9.29,1.13-9.73,1.15
		c-5.71,0.08-15.94-1.65-20.31-4.97C6.82,39.44,5.5,36.65,4.92,34c1.18,1.36,2.64,2.65,4.34,3.78c4.82,3.2,15.08,5.64,20.87,5.64
		c0.06,0,0.11,0,0.16,0c0.26-0.01,6.31-0.25,9.82-1.03c3.39-0.75,6-1.66,10.81-4.53c1.45-0.87,2.67-1.9,3.68-3
		C53.86,36.86,52.55,38.82,50.32,40.34z"/>
	<path d="M23,30.5c3.08,0,5.5-1.98,5.5-4.5s-2.42-4.5-5.5-4.5s-5.5,1.98-5.5,4.5S19.92,30.5,23,30.5z M23,24.5
		c1.43,0,2.5,0.79,2.5,1.5s-1.07,1.5-2.5,1.5s-2.5-0.79-2.5-1.5S21.57,24.5,23,24.5z"/>
	<path d="M7.86,27.84c1.5,2.76,7.4,5.61,12.44,7.01c3.61,1,6.28,1.28,8.94,1.28c1.52,0,3.04-0.09,4.73-0.19
		c0.73-0.04,1.49-0.09,2.3-0.13c6.25-0.32,12.62-4.25,13.99-5.69c1.27-1.34,1.44-1.82,1.65-3.44l0.01-0.1
		c0.28-2.15-1.39-4.89-4.23-5.39c-0.95-0.17-2.35-0.21-3.97-0.25c-2.21-0.06-4.72-0.13-6.68-0.52c-3.55-0.72-10.6-3.28-11.97-3.78
		c-1.82-0.67-4.91-1.29-10.63,0.99c-5.4,2.16-6.73,7.3-6.9,8.02C7.4,26.14,7.36,26.91,7.86,27.84z M10.47,26.29
		c0.01-0.04,0.89-4.22,5.09-5.9c4.76-1.9,7.12-1.46,8.48-0.96c1.41,0.52,8.65,3.14,12.41,3.91c2.21,0.45,4.86,0.52,7.2,0.58
		c1.44,0.04,2.8,0.08,3.53,0.2c1.24,0.22,1.85,1.45,1.78,2.05l-0.01,0.1c-0.13,1.01-0.13,1.01-0.85,1.77
		c-0.85,0.89-6.56,4.48-11.96,4.76c-0.82,0.04-1.59,0.09-2.33,0.13c-4.52,0.27-7.5,0.45-12.69-0.98c-6.12-1.68-10.3-4.55-10.66-5.61
		L10.47,26.29z"/>
</g>
</svg>
