<?xml version="1.0" encoding="utf-8"?>
<!-- Generator: Adobe Illustrator 21.1.0, SVG Export Plug-In . SVG Version: 6.00 Build 0)  -->
<svg version="1.1" id="EPS" xmlns="http://www.w3.org/2000/svg" xmlns:xlink="http://www.w3.org/1999/xlink" x="0px" y="0px"
	 viewBox="0 0 60 60" style="enable-background:new 0 0 60 60;" xml:space="preserve">
<g>
	<path d="M33.29,28.56c-2.52-3.87-7.49-5.17-11.56-3.03c-1.7,0.9-3.74,0.9-5.44,0c-1.28-0.67-2.71-1.03-4.13-1.03
		c-3,0-5.78,1.52-7.44,4.06c-3.79,5.82-4.26,13.32-1.23,19.57l2.78,5.72c1.41,2.91,4.4,4.64,8.01,4.64h9.47c3.6,0,6.59-1.74,8-4.64
		l2.78-5.73C37.55,41.88,37.08,34.38,33.29,28.56z M31.81,46.82l-2.78,5.73c-0.89,1.85-2.87,2.95-5.3,2.95h-9.47
		c-2.43,0-4.41-1.1-5.31-2.95l-2.78-5.72C3.61,41.51,4.01,35.14,7.23,30.2c1.1-1.69,2.94-2.7,4.92-2.7c0.94,0,1.89,0.24,2.74,0.68
		c2.58,1.35,5.66,1.35,8.23,0c2.7-1.41,5.99-0.55,7.66,2.02C33.99,35.14,34.39,41.51,31.81,46.82z"/>
	<path d="M11.98,12.59c1.23,0.48,3.54,1.66,4.38,3.37c1.26,2.56,1.15,6.21,1.15,6.3v1.24c0,0.28,0.22,0.5,0.5,0.5h2
		c0.28,0,0.5-0.22,0.5-0.5v-1.18c0.01-0.18,0.14-4.44-1.46-7.68c-0.9-1.84-2.64-3.13-4.11-3.95c-1.25-0.7-2.82-0.08-3.25,1.29
		C11.61,12.22,11.74,12.49,11.98,12.59z"/>
	<path d="M51.68,9.13c-3.87,0-6.21,2.56-7.42,4.48c-0.87-0.68-2.1-1.34-3.73-1.61c0.02-0.46,0.04-0.91,0.07-1.33
		c1.5-0.26,3.15-0.92,4.9-2.17c0.23-0.16,0.28-0.49,0.11-0.72L44.39,6.2c-0.16-0.22-0.47-0.25-0.69-0.1
		c-0.96,0.68-1.84,1.11-2.64,1.37c0.18-0.86,0.39-1.57,0.58-2.13c0.33-0.96-0.07-2.01-0.94-2.53L40.17,2.5
		c-0.25-0.15-0.58-0.06-0.71,0.21c-0.37,0.76-1.05,2.43-1.51,4.97c-0.64-0.14-1.18-0.39-1.61-0.65c-0.01,0-0.01-0.01-0.02-0.01
		c-0.79-0.49-1.79-0.46-2.51,0.13l-0.57,0.47C33.01,7.8,33,8.14,33.2,8.36c0.93,0.96,2.45,1.94,4.39,2.3
		c-0.03,0.43-0.05,0.88-0.06,1.34c-1.66,0.26-2.91,0.93-3.79,1.62c-1.21-1.92-3.55-4.48-7.42-4.48c-1.5,0-2.66,0.36-3.55,0.89
		c-1.33,0.79-1.3,2.73,0.04,3.49c0.23,0.13,0.5,0.05,0.65-0.16c0.63-0.84,1.55-1.23,2.86-1.23c3.93,0,5.57,4.37,5.64,4.55v0.01
		c0.43,1.18,2.03,1.34,2.69,0.27l0.01-0.02c0.05-0.08,1.3-2.07,4.34-2.07s4.29,1.98,4.33,2.05l0,0c0.64,1.1,2.27,0.96,2.71-0.24
		v-0.01c0.07-0.19,1.71-4.56,5.64-4.56c3.16,0,3.82,2.56,3.82,4.69c-0.02,0.48-0.54,3.91-1.04,7.22
		c-1.11,7.29-2.62,17.28-2.62,19.97c0,0.51-0.12,1.14-1.08,1.54c-1.43,0.59-3.57,0.17-4.33-0.59c-0.94-0.95-2.56-0.28-2.56,1.06l0,0
		c0,2.8-3.25,3.36-4.44,3.47c-0.09,0.01-0.27,0.01-0.52,0c-1.13-0.05-2.15,0.71-2.47,1.8l-0.09,0.32c-0.08,0.27,0.08,0.56,0.35,0.62
		c1.02,0.25,1.86,0.29,2.3,0.29c2.58,0,6.18-1.15,7.42-4.16c1.72,0.61,3.83,0.65,5.48-0.03c1.86-0.77,2.93-2.34,2.93-4.31
		c0-2.46,1.56-12.73,2.59-19.52c0.81-5.36,1.08-7.14,1.08-7.64C58.5,13.11,56.71,9.13,51.68,9.13z"/>
</g>
</svg>
