<?xml version="1.0" encoding="utf-8"?>
<!-- Generator: Adobe Illustrator 21.1.0, SVG Export Plug-In . SVG Version: 6.00 Build 0)  -->
<svg version="1.1" id="EPS" xmlns="http://www.w3.org/2000/svg" xmlns:xlink="http://www.w3.org/1999/xlink" x="0px" y="0px"
	 viewBox="0 0 60 60" style="enable-background:new 0 0 60 60;" xml:space="preserve">
<path d="M39.93,3.94c-0.06-0.18-0.21-0.61-0.36-1.06c-0.28-0.81-1.04-1.35-1.89-1.35H22.29c-0.86,0-1.62,0.54-1.89,1.35
	c-0.1,0.29-0.19,0.55-0.22,0.66c-3.89,11.52-4.59,17.67-2.59,22.55c1.31,2.88,5.67,5.06,9.66,6.86c0.14,0.07,0.71,0.32,1.22,0.54
	v21.98h-6.09c-1.38,0-2.5,1.12-2.5,2.5c0,0.28,0.22,0.5,0.5,0.5h19.18c0.28,0,0.5-0.22,0.5-0.5c0-1.38-1.12-2.5-2.5-2.5h-6.09V33.49
	c0.55-0.24,1.17-0.51,1.33-0.59c4.14-1.89,8.29-3.99,9.64-6.98C44.37,21.23,43.7,15.2,39.93,3.94z M23.01,4.53h13.96
	c2.31,6.86,3.44,11.68,3.51,15.28c-1.44-0.31-2.23-1.91-3.3-4.37c-1.4-3.21-3.15-7.21-8.13-7.21c-2.12,0-3.85,1.71-3.85,3.8
	s1.73,3.8,3.85,3.8h0.38c1.69,0,3.06,1.33,3.06,2.97c0,1.63-1.37,2.96-3.06,2.96c-0.82,0-1.58-0.31-2.16-0.86l-0.45-0.36
	c-1-0.66-2.17-1.01-3.38-1.01c-1.52,0-2.88,0.55-3.92,1.45C19.32,17.25,20.41,12.22,23.01,4.53z M33.26,14.18
	c-1.04-0.84-2.38-1.34-3.83-1.34h-0.38c-0.47,0-0.85-0.36-0.85-0.8c0-0.44,0.38-0.8,0.85-0.8C31.09,11.23,32.23,12.31,33.26,14.18z
	 M31.56,30.18c-0.19,0.09-1,0.44-1.59,0.7c-0.55-0.24-1.31-0.58-1.48-0.66c-2.05-0.93-6.7-3.04-7.97-5.01
	c0.14-1.52,1.36-2.68,2.91-2.68c0.6,0,1.18,0.17,1.68,0.49l0.13,0.1c1.13,1.06,2.61,1.64,4.18,1.64c3.3,0,6-2.61,6.06-5.84
	c1.02,1.93,2.39,3.6,4.76,3.89c-0.13,0.69-0.31,1.33-0.56,1.93C38.71,26.9,34.06,29.04,31.56,30.18z"/>
</svg>
