<?xml version="1.0" encoding="utf-8"?>
<!-- Generator: Adobe Illustrator 21.1.0, SVG Export Plug-In . SVG Version: 6.00 Build 0)  -->
<svg version="1.1" id="EPS" xmlns="http://www.w3.org/2000/svg" xmlns:xlink="http://www.w3.org/1999/xlink" x="0px" y="0px"
	 viewBox="0 0 60 60" style="enable-background:new 0 0 60 60;" xml:space="preserve">
<g>
	<path d="M24.58,2.85C24.3,2.04,23.54,1.5,22.69,1.5H7.3c-0.85,0-1.62,0.55-1.89,1.35c-0.08,0.22-0.14,0.4-0.16,0.47
		C1.3,14.96,0.59,21.15,2.6,26.06c1.31,2.88,5.67,5.06,9.66,6.86c0.14,0.07,0.71,0.32,1.22,0.54v21.98H7.39
		c-1.38,0-2.5,1.12-2.5,2.5c0,0.28,0.22,0.5,0.5,0.5h19.18c0.28,0,0.5-0.22,0.5-0.5c0-1.38-1.12-2.5-2.5-2.5h-6.09V33.46
		c0.55-0.24,1.17-0.51,1.33-0.59c4.14-1.89,8.29-3.99,9.64-6.98c1.95-4.76,1.23-10.9-2.67-22.45C24.75,3.36,24.67,3.12,24.58,2.85z
		 M24.82,24.38c-6.5-1.15-13.06-1.15-19.64,0C3.75,20.35,4.53,14.81,8.01,4.5h13.96C25.44,14.8,26.25,20.49,24.82,24.38z"/>
	<path d="M54.94,3.91c-0.06-0.18-0.21-0.61-0.36-1.06c-0.28-0.81-1.04-1.35-1.9-1.35H37.3c-0.86,0-1.62,0.54-1.89,1.35
		c-0.1,0.29-0.19,0.55-0.22,0.66C31.3,15.03,30.6,21.18,32.6,26.06c1.31,2.88,5.67,5.06,9.66,6.86c0.14,0.07,0.71,0.32,1.22,0.54
		v21.98h-6.09c-1.38,0-2.5,1.12-2.5,2.5c0,0.28,0.22,0.5,0.5,0.5h19.18c0.28,0,0.5-0.22,0.5-0.5c0-1.38-1.12-2.5-2.5-2.5h-6.09
		V33.46c0.55-0.24,1.17-0.51,1.33-0.59c4.14-1.89,8.29-3.99,9.64-6.98C59.38,21.2,58.71,15.17,54.94,3.91z M38.01,4.5h13.96
		c3.47,10.3,4.28,15.99,2.85,19.88c-6.5-1.15-13.06-1.15-19.64,0C33.75,20.36,34.53,14.81,38.01,4.5z M46.56,30.15
		c-0.19,0.09-1,0.44-1.59,0.7c-0.55-0.24-1.31-0.58-1.48-0.66c-1.4-0.64-4.02-1.83-5.94-3.14c4.98-0.7,9.94-0.7,14.86-0.01
		C50.59,28.31,48.14,29.42,46.56,30.15z"/>
</g>
</svg>
