<?xml version="1.0" encoding="utf-8"?>
<!-- Generator: Adobe Illustrator 20.1.0, SVG Export Plug-In . SVG Version: 6.00 Build 0)  -->
<svg version="1.1" id="Ebene_1" xmlns="http://www.w3.org/2000/svg" xmlns:xlink="http://www.w3.org/1999/xlink" x="0px" y="0px"
	 viewBox="0 0 60 60" style="enable-background:new 0 0 60 60;" xml:space="preserve">
<g>
	<path d="M30,0C13.4,0,0,13.4,0,30s13.4,30,30,30s30-13.4,30-30S46.6,0,30,0z M30,57C15.1,57,3,44.9,3,30S15.1,3,30,3s27,12.1,27,27
		S44.9,57,30,57z"/>
	<path d="M43,39.1L43,39.1C42.7,39,39.8,38,30,38c-10.3,0-13.4,4.2-13.7,4.7c-0.5,0.7-0.3,1.6,0.4,2.1c0.3,0.2,0.6,0.3,0.9,0.3
		c0.5,0,0.9-0.2,1.2-0.6c0,0,2.6-3.4,11.3-3.4c9.2,0,12,0.9,12,0.9c0.8,0.2,1.6-0.3,1.8-1.1C44,40.1,43.6,39.4,43,39.1z"/>
	<path d="M35.8,26h6c0.8,0,1.5-0.7,1.5-1.5S42.6,23,41.8,23h-6c-0.8,0-1.5,0.7-1.5,1.5S35,26,35.8,26z"/>
	<path d="M18.2,26h6c0.8,0,1.5-0.7,1.5-1.5S25,23,24.2,23h-6c-0.8,0-1.5,0.7-1.5,1.5S17.4,26,18.2,26z"/>
</g>
</svg>
