<?xml version="1.0" encoding="utf-8"?>
<!-- Generator: Adobe Illustrator 20.1.0, SVG Export Plug-In . SVG Version: 6.00 Build 0)  -->
<svg version="1.1" id="Ebene_1" xmlns="http://www.w3.org/2000/svg" xmlns:xlink="http://www.w3.org/1999/xlink" x="0px" y="0px"
	 viewBox="0 0 60 60" style="enable-background:new 0 0 60 60;" xml:space="preserve">
<g>
	<path d="M30,0C13.4,0,0,13.4,0,30s13.4,30,30,30s30-13.4,30-30S46.6,0,30,0z M30,57C15.1,57,3,44.9,3,30S15.1,3,30,3s27,12.1,27,27
		S44.9,57,30,57z"/>
	<path d="M32.9,19.1c0.1,0,0.1,0,0.2,0.1h0l11.2,4.2c0.8,0.3,1.6,0,2-0.7c0.3-0.8,0-1.6-0.7-2c-0.1,0-0.1,0-0.2-0.1l-11.2-4.2
		c-0.8-0.3-1.6,0-2,0.7C31.8,17.9,32.2,18.8,32.9,19.1z"/>
	<path d="M14.6,23.5L14.6,23.5c0.2,0,0.4,0,0.5-0.1l11.2-4.2c0.8-0.2,1.2-1.1,1-1.9c-0.2-0.8-1.1-1.2-1.9-1c-0.1,0-0.1,0-0.2,0.1
		l-11.2,4.2c-0.8,0.3-1.2,1.2-0.9,1.9C13.5,23.1,14,23.5,14.6,23.5z"/>
	<path d="M48.6,36.1C48.6,36.1,48.6,36.1,48.6,36.1c-0.8-0.3-1.7,0.1-2,0.9c0,0,0,0,0,0c0,0.1-4.1,10-16.6,10s-16.4-9.6-16.6-10
		c-0.4-0.7-1.3-1-2-0.6c-0.6,0.3-0.9,1-0.8,1.6c1,2.3,2.4,4.3,4.2,6c4,4,9.5,6.1,15.2,6c5.7,0.2,11.1-2,15.2-5.9
		c1.8-1.7,3.2-3.7,4.2-6C49.7,37.3,49.3,36.4,48.6,36.1z"/>
</g>
</svg>
