<?xml version="1.0" encoding="utf-8"?>
<!-- Generator: Adobe Illustrator 20.1.0, SVG Export Plug-In . SVG Version: 6.00 Build 0)  -->
<svg version="1.1" id="Ebene_1" xmlns="http://www.w3.org/2000/svg" xmlns:xlink="http://www.w3.org/1999/xlink" x="0px" y="0px"
	 viewBox="0 0 60 60" style="enable-background:new 0 0 60 60;" xml:space="preserve">
<g>
	<path d="M30,0C13.4,0,0,13.4,0,30s13.4,30,30,30s30-13.4,30-30S46.6,0,30,0z M30,57C15.1,57,3,44.9,3,30S15.1,3,30,3s27,12.1,27,27
		S44.9,57,30,57z"/>
	<path d="M30,32c-8,0-14.5,6.5-14.5,14.5c0,0.8,0.7,1.5,1.5,1.5s1.5-0.7,1.5-1.5C18.5,40.1,23.6,35,30,35s11.5,5.1,11.5,11.5
		c0,0.8,0.7,1.5,1.5,1.5s1.5-0.7,1.5-1.5C44.5,38.5,38,32,30,32z"/>
	<path d="M43.6,15.7L43.6,15.7l-10.4,5.8c-0.7,0.4-1,1.3-0.6,2c0.3,0.6,1,0.9,1.6,0.7c0,0,0,0.1,0,0.1c0,2.5,2,4.5,4.5,4.5
		c2.5,0,4.5-2,4.5-4.5c0-1.6-0.8-3.1-2.2-3.9l4-2.3c0.7-0.4,1-1.3,0.6-2S44.4,15.3,43.6,15.7z"/>
	<path d="M16.7,24.4c0,2.5,2,4.5,4.5,4.5c2.5,0,4.5-2,4.5-4.5c0,0,0-0.1,0-0.1c0.8-0.1,1.3-0.9,1.2-1.7c-0.1-0.4-0.4-0.8-0.7-1
		l-10.4-5.8c-0.7-0.4-1.6-0.1-2,0.6c-0.4,0.7-0.1,1.6,0.6,2l4.3,2.4C17.4,21.6,16.7,22.9,16.7,24.4z"/>
</g>
</svg>
