<?xml version="1.0" encoding="utf-8"?>
<!-- Generator: Adobe Illustrator 20.1.0, SVG Export Plug-In . SVG Version: 6.00 Build 0)  -->
<svg version="1.1" id="Ebene_1" xmlns="http://www.w3.org/2000/svg" xmlns:xlink="http://www.w3.org/1999/xlink" x="0px" y="0px"
	 viewBox="0 0 60 60" style="enable-background:new 0 0 60 60;" xml:space="preserve">
<g>
	<path d="M30,0C13.4,0,0,13.4,0,30s13.4,30,30,30s30-13.4,30-30S46.6,0,30,0z M30,57C15.1,57,3,44.9,3,30S15.1,3,30,3s27,12.1,27,27
		S44.9,57,30,57z"/>
	<circle cx="21.2" cy="24.5" r="4.5"/>
	<circle cx="38.8" cy="24.5" r="4.5"/>
	<path d="M47.5,37.1C47.5,37.1,47.5,37.1,47.5,37.1c-0.8-0.3-1.7,0.2-1.9,1c0,0,0,0,0,0c0,0.1-3.1,9-15.6,9s-15.5-8.6-15.6-9
		c-0.3-0.8-1.1-1.2-1.9-1c-0.8,0.3-1.2,1.1-1,1.9c0.2,0.4,3.8,11,18.4,11s18.3-10.6,18.4-11C48.7,38.2,48.3,37.4,47.5,37.1z"/>
</g>
</svg>
