<?xml version="1.0" encoding="utf-8"?>
<!-- Generator: Adobe Illustrator 20.1.0, SVG Export Plug-In . SVG Version: 6.00 Build 0)  -->
<svg version="1.1" id="Ebene_1" xmlns="http://www.w3.org/2000/svg" xmlns:xlink="http://www.w3.org/1999/xlink" x="0px" y="0px"
	 viewBox="0 0 60 60" style="enable-background:new 0 0 60 60;" xml:space="preserve">
<g>
	<path d="M30,0C13.4,0,0,13.4,0,30s13.4,30,30,30s30-13.4,30-30S46.6,0,30,0z M30,57C15.1,57,3,44.9,3,30S15.1,3,30,3s27,12.1,27,27
		S44.9,57,30,57z"/>
	<path d="M48.5,33.5c-0.8,0-1.5,0.7-1.5,1.5c0,8.3-7.6,15-17,15s-17-6.8-17-15c0-0.8-0.7-1.5-1.5-1.5S10,34.1,10,35c0,10,9,18,20,18
		s20-8.1,20-18C50,34.1,49.3,33.5,48.5,33.5z"/>
	<path d="M39.8,29.1l6.8-6.8c1.4-1.4,1.4-3.7,0-5.1c-1.4-1.4-3.7-1.4-5.1,0l-1.7,1.7l-1.7-1.7c-1.4-1.4-3.7-1.4-5.1,0
		s-1.4,3.7,0,5.1L39.8,29.1z"/>
	<path d="M20.2,29.1l6.8-6.8c1.4-1.4,1.4-3.7,0-5.1s-3.7-1.4-5.1,0l-1.7,1.7l-1.7-1.7c-1.4-1.4-3.7-1.4-5.1,0
		c-1.4,1.4-1.4,3.7,0,5.1L20.2,29.1z"/>
</g>
</svg>
