<svg xmlns="http://www.w3.org/2000/svg"><symbol id="cross" viewBox="0 0 60 60"><title>cross</title><path d="M32.12 30L57.71 4.41c.2-.2.2-.51 0-.71L56.3 2.29c-.2-.2-.51-.2-.71 0L30 27.88 4.41 2.29c-.2-.2-.51-.2-.71 0L2.29 3.71c-.2.2-.2.51 0 .71L27.88 30 2.29 55.59c-.2.2-.2.51 0 .71.98.98 2.56.98 3.54 0L30 32.12l24.17 24.17c.98.98 2.56.98 3.54 0 .2-.2.2-.51 0-.71L32.12 30z"/></symbol><symbol id="arrow-up" viewBox="0 0 60 60"><title>arrow-up</title><path d="M57.42 38.47L31.11 20.94c-.67-.45-1.55-.45-2.22 0L2.58 38.47c-.23.15-.29.46-.14.69a2.499 2.499 0 003.47.69L30 23.8l24.09 16.06c1.15.77 2.7.46 3.47-.69.15-.23.09-.54-.14-.7z"/></symbol><symbol id="arrow-right" viewBox="0 0 60 60"><title>arrow-right</title><path d="M40.06 28.89L22.53 2.58a.498.498 0 00-.69-.14 2.499 2.499 0 00-.69 3.47L37.2 30 21.14 54.09c-.77 1.15-.46 2.7.69 3.47.23.15.54.09.69-.14l17.54-26.31c.45-.67.45-1.55 0-2.22z"/></symbol><symbol id="arrow-left" viewBox="0 0 60 60"><title>arrow-left</title><path d="M23.8 30L39.86 5.91c.77-1.15.46-2.7-.69-3.47a.498.498 0 00-.69.14L20.94 28.89c-.45.67-.45 1.55 0 2.22l17.54 26.31c.15.23.46.29.69.14 1.15-.77 1.46-2.32.69-3.47L23.8 30z"/></symbol><symbol id="arrow-down" viewBox="0 0 60 60"><title>arrow-down</title><path d="M57.55 20.83a2.499 2.499 0 00-3.47-.69L30 36.2 5.91 20.14c-1.15-.77-2.7-.46-3.47.69-.15.23-.09.54.14.69l26.31 17.54c.67.45 1.55.45 2.22 0l26.31-17.54c.23-.15.29-.46.13-.69z"/></symbol><symbol id="placeholder" viewBox="0 0 60 60"><title>placeholder</title><path d="M50.12 48a27 27 0 000-36l7.59-7.59a.5.5 0 000-.71L56.3 2.29a.5.5 0 00-.71 0L48 9.88a27 27 0 00-36 0L4.41 2.29a.5.5 0 00-.71 0L2.29 3.71a.5.5 0 000 .71L9.88 12a27 27 0 000 36l-7.59 7.59a.5.5 0 000 .71 2.5 2.5 0 003.54 0L12 50.12a27 27 0 0036 0l6.17 6.17a2.5 2.5 0 003.54 0 .5.5 0 000-.71zM30 6a24 24 0 0115.87 6L30 27.88 14.13 12A24 24 0 0130 6zM6 30a23.86 23.86 0 016-15.86L27.88 30 12 45.87A24 24 0 016 30zm24 24a23.86 23.86 0 01-15.86-6L30 32.12 45.87 48A24 24 0 0130 54zm18-8.14L32.12 30 48 14.13a23.94 23.94 0 010 31.73z"/></symbol><symbol id="house" viewBox="0 0 60 60"><title>house</title><path d="M55.82 19.33L31.16 1.98c-.69-.49-1.61-.49-2.3 0L22.5 6.45V4.5c0-1.1-.9-2-2-2h-5c-1.1 0-2 .9-2 2v8.28l-9.32 6.55a2.5 2.5 0 00-.61 3.48c.16.23.47.28.7.12l6.23-4.38V56.5c0 1.1.9 2 2 2H28c1.1 0 2-.9 2-2v-14h10.5v14c0 1.1.9 2 2 2h5c1.1 0 2-.9 2-2V18.55l6.23 4.38c.23.16.54.1.7-.12.79-1.12.52-2.68-.61-3.48zM16.5 5.5h3v3.06l-3 2.11V5.5zm30 50h-3v-14c0-1.1-.9-2-2-2H29c-1.1 0-2 .9-2 2v14H13.5V16.45L30.01 4.83 46.5 16.44V55.5z"/></symbol><symbol id="eye-open" viewBox="0 0 60 60"><title>eye-open</title><circle cx="30" cy="27" r="5"/><path d="M58.46 28.64C55.04 24.94 44.48 15 30 15S4.96 24.94 1.54 28.64c-.71.77-.71 1.96 0 2.73C4.96 35.06 15.52 45 30 45s25.04-9.94 28.46-13.64c.72-.77.72-1.95 0-2.72zM30 18c4.99 0 9.05 4.06 9.05 9.05 0 4.99-4.06 9.05-9.05 9.05-4.99 0-9.05-4.06-9.05-9.05 0-4.99 4.06-9.05 9.05-9.05zm0 24.02C17.4 42.02 7.8 33.54 4.35 30c2.52-2.59 8.34-7.81 16.22-10.43-1.63 2.06-2.62 4.65-2.62 7.48 0 6.65 5.39 12.05 12.05 12.05s12.05-5.39 12.05-12.05c0-2.83-.98-5.43-2.62-7.48C47.3 22.19 53.12 27.41 55.65 30 52.2 33.54 42.6 42.02 30 42.02z"/></symbol><symbol id="eye-close" viewBox="0 0 60 60"><title>eye-close</title><path d="M58.46 28.64c-1.85-2-5.8-5.83-11.32-8.92a.513.513 0 00-.61.08l-1.48 1.48c-.24.24-.17.63.12.79 4.95 2.68 8.6 6.03 10.46 7.93C52.2 33.54 42.6 42.02 30 42.02c-1.71 0-3.36-.17-4.95-.45a.46.46 0 00-.43.14l-1.71 1.71c-.28.28-.14.76.24.85 2.16.46 4.45.73 6.85.73 14.48 0 25.04-9.94 28.46-13.64.72-.77.72-1.95 0-2.72zM13.4 40.17l1.35-1.35c.37-.37.3-.76.01-.92-4.92-2.67-8.56-6-10.41-7.91 2.53-2.59 8.36-7.82 16.24-10.44-1.38 1.73-2.31 3.84-2.56 6.13-.3 2.72.32 5.28 1.57 7.43.16.28.55.32.78.09l1.48-1.48c.15-.15.18-.38.08-.57a8.933 8.933 0 01-.87-5.57c.61-3.8 3.67-6.86 7.47-7.47 2.02-.32 3.94.04 5.58.88.19.1.42.07.58-.08L36.61 17l.43-.43c.28-.28.14-.76-.24-.85-2.16-.45-4.43-.72-6.8-.72-14.48 0-25.04 9.94-28.46 13.64-.71.77-.71 1.96 0 2.73 1.85 1.99 5.77 5.8 11.27 8.89.19.1.44.07.59-.09z"/><path d="M41.09 25.24l-1.93 1.93c-.09.09-.13.2-.14.32-.22 4.64-3.96 8.37-8.6 8.59-.12.01-.23.05-.32.14-.34.34-1.28 1.27-1.93 1.93-.3.3-.12.8.29.85 1.64.21 3.37.1 5.17-.47 3.97-1.25 7.05-4.54 8.05-8.58.38-1.53.44-3.01.26-4.41-.04-.42-.55-.59-.85-.3zM25 27c0 .48.09.94.22 1.38l6.17-6.16c-.45-.13-.91-.22-1.39-.22-2.76 0-5 2.24-5 5zM54.71 6.7c-.98-.98-2.56-.98-3.53 0L5.29 52.51c-.2.2-.2.51 0 .71l1.41 1.42c.2.2.51.2.71 0l47.3-47.23c.19-.2.19-.51 0-.71z"/></symbol><symbol id="information-circle" viewBox="0 0 60 60"><title>information-circle</title><path d="M30 1.5C14.3 1.5 1.5 14.3 1.5 30S14.3 58.5 30 58.5 58.5 45.7 58.5 30 45.7 1.5 30 1.5zm0 54C15.9 55.5 4.5 44.1 4.5 30S15.9 4.5 30 4.5 55.5 15.9 55.5 30 44.1 55.5 30 55.5z"/><path d="M27.5 24.3h5.1v19h-5.1zm2.5-7.6c-.9 0-1.6.2-2.1.7s-.8 1.1-.8 1.9c0 .8.3 1.4.8 1.9s1.2.8 2.1.8 1.5-.2 2.1-.7.8-1.1.8-1.9c0-.8-.3-1.4-.8-1.9s-1.2-.8-2.1-.8z"/></symbol><symbol id="hook-circle" viewBox="0 0 60 60"><title>hook-circle</title><path d="M30 1.5C14.3 1.5 1.5 14.3 1.5 30S14.3 58.5 30 58.5 58.5 45.7 58.5 30 45.7 1.5 30 1.5zm0 54C15.9 55.5 4.5 44.1 4.5 30S15.9 4.5 30 4.5 55.5 15.9 55.5 30 44.1 55.5 30 55.5z"/><path d="M42.8 19.6L24.6 37.5l-7.4-7.6c-.6-.6-1.5-.6-2.1 0-.6.6-.6 1.5 0 2.1l7.9 8.2c.4.4 1 .7 1.6.7.6 0 1.1-.2 1.5-.6l18.8-18.5c.6-.6.6-1.5 0-2.1-.5-.7-1.5-.7-2.1-.1z"/></symbol><symbol id="exclamation-triangle" viewBox="0 0 60 60"><title>exclamation-triangle</title><path d="M57.9 52.5L31.8 5.1c-.8-1.4-2.7-1.4-3.5 0L2.1 52.5c-.7 1.3.2 3 1.8 3h52.3c1.5 0 2.4-1.6 1.7-3zm-52.4 0L30 8.1l24.5 44.4h-49z"/><path d="M30 43.9c-.8 0-1.5.3-2 .8s-.8 1.2-.8 1.9.3 1.4.8 1.9 1.2.8 2 .8c.9 0 1.5-.3 2.1-.8s.8-1.1.8-1.9c0-.8-.3-1.4-.8-1.9s-1.3-.8-2.1-.8zm-2.1-2.8h4.2l.6-17.8h-5.4z"/></symbol><symbol id="exclamation-circle" viewBox="0 0 60 60"><title>exclamation-circle</title><path d="M30 1.5C14.3 1.5 1.5 14.3 1.5 30S14.3 58.5 30 58.5 58.5 45.7 58.5 30 45.7 1.5 30 1.5zm0 54C15.9 55.5 4.5 44.1 4.5 30S15.9 4.5 30 4.5 55.5 15.9 55.5 30 44.1 55.5 30 55.5z"/><path d="M30 37.6c-.8 0-1.5.3-2 .8s-.8 1.2-.8 1.9.3 1.4.8 1.9 1.2.8 2 .8c.9 0 1.5-.3 2.1-.8.6-.5.8-1.1.8-1.9s-.3-1.4-.8-1.9-1.3-.8-2.1-.8zm2-2.8l.7-17.8h-5.5l.6 17.8z"/></symbol></svg>