<svg id="Ebene_2" data-name="Ebene 2" xmlns="http://www.w3.org/2000/svg" viewBox="0 0 60 60"><title>heart</title><path d="M45,3a17.34,17.34,0,0,0-15,8.5A17.34,17.34,0,0,0,15,3C4.45,3,0,14,0,19A18.15,18.15,0,0,0,5,32c3.3,3.32,25,25,25,25S51.71,35.3,55,32a18.15,18.15,0,0,0,5-13C60,14,55.55,3,45,3Zm7.89,26.86C50.24,32.52,35.55,47.21,30,52.76,24.45,47.21,9.76,32.52,7.11,29.86A15.18,15.18,0,0,1,3,19C3,15.3,6.57,6,15,6a14.27,14.27,0,0,1,12.34,6.89l2.62,5,2.68-5A14.27,14.27,0,0,1,45,6c8.43,0,12,9.3,12,13A15.18,15.18,0,0,1,52.89,29.86Z"/></svg>