<?xml version="1.0" encoding="utf-8"?>
<!-- Generator: Adobe Illustrator 20.1.0, SVG Export Plug-In . SVG Version: 6.00 Build 0)  -->
<svg version="1.1" id="Ebene_1" xmlns="http://www.w3.org/2000/svg" xmlns:xlink="http://www.w3.org/1999/xlink" x="0px" y="0px"
	 viewBox="0 0 60 60" style="enable-background:new 0 0 60 60;" xml:space="preserve">
<title>rating_star_outline</title>
<path d="M60,23.8l-0.8-2.5L40,18.4L31.4,0h-2.7L20,18.4L0.8,21.3L0,23.8l14,14.4l-3.3,20.2l2.2,1.5L30,50.5L47.1,60l2.2-1.6L46,38.2
	L60,23.8z M30.7,47.4h-1.5l-15.2,8.4L17,37.9l-0.4-1.3L4.2,23.8l17.1-2.6l1.1-0.8L30,4.2l7.6,16.2l1.1,0.8l17.1,2.6L43.4,36.6
	L43,37.9l2.9,17.9L30.7,47.4z"/>
</svg>
