<?xml version="1.0" encoding="utf-8"?>
<!-- Generator: Adobe Illustrator 22.1.0, SVG Export Plug-In . SVG Version: 6.00 Build 0)  -->
<svg version="1.1" id="work" xmlns="http://www.w3.org/2000/svg" xmlns:xlink="http://www.w3.org/1999/xlink" x="0px" y="0px"
	 viewBox="0 0 60 60" style="enable-background:new 0 0 60 60;" xml:space="preserve">
<path d="M1.2,35.1c0.8,1.3,3,3.1,5.7,3.1c2.4,0,13.2,0.1,13.2,0.1l-1.8,10.5c-0.5,4.8,0.5,6.6,1,7.4c1.2,1.8,3.3,2.8,5.4,2.8
	c1,0,2-0.2,2.9-0.7c1.4-0.7,2.3-1.9,2.8-3.4c0,0,0.8-6.1,1.5-8.4c0.6-1.8,2.9-7.9,7.9-11.1v3h20v-37h-20v5.4l-7.9-4.3
	c-0.8-0.4-1.6-0.6-2.5-0.6c-0.8,0-13.8,0.6-20.6,0.6C6.8,2.6,5.9,3,5.6,4.4S1,25.5,0.3,28.2C-0.5,30.8,0.2,33.4,1.2,35.1z"/>
</svg>
