<?xml version="1.0" encoding="utf-8"?>
<!-- Generator: Adobe Illustrator 20.0.0, SVG Export Plug-In . SVG Version: 6.00 Build 0)  -->
<svg version="1.1" id="work" xmlns="http://www.w3.org/2000/svg" xmlns:xlink="http://www.w3.org/1999/xlink" x="0px" y="0px"
	 viewBox="0 0 60 60" style="enable-background:new 0 0 60 60;" xml:space="preserve">
<path d="M58.6,25.3c-0.8-1.3-3-3.1-5.7-3.1c-2.4,0-13.2-0.1-13.2-0.1l1.8-10.5C42,6.8,41,5,40.5,4.2c-1.2-1.8-3.3-2.8-5.4-2.8
	c-1,0-2,0.2-2.9,0.7c-1.4,0.7-2.3,1.9-2.8,3.4c0,0-0.8,6.1-1.5,8.4c-0.6,1.8-2.9,7.9-7.9,11.1V22H0v37h20v-5.4l7.9,4.3
	c0.8,0.4,1.6,0.6,2.5,0.6c0.8,0,13.8-0.6,20.6-0.6c2-0.1,2.9-0.5,3.2-1.9c0.3-1.4,4.6-21.1,5.3-23.8C60.3,29.6,59.6,27,58.6,25.3z
	 M3,56V25h14v31H3z M56.5,31.5c-0.6,2.4-4.2,18.4-5.1,22.8c-0.1,0.4-0.3,0.5-1,0.5c-5.2,0-13.1,0.3-17.4,0.5c-1.2,0-3.5,0-5.6-1.1
	L20,50.3V28.4c2-1.2,5.2-3.4,7-6c2.4-3.3,3.5-6.7,3.8-7.6c0.7-2.2,1.4-7.2,1.6-8.6c0.2-0.6,0.6-1,1.2-1.3c0.4-0.2,0.9-0.3,1.4-0.3
	c1.1,0,2.2,0.6,2.8,1.4c0.8,1.2,0.7,3.5,0.4,5.3l-1.7,10.5l-0.6,3.7l3.7,0c0,0,12.2,0.1,13.2,0.1c1,0,2.4,0.6,3,1.5
	C56.5,27.8,57.1,29.4,56.5,31.5z"/>
</svg>
