<?xml version="1.0" encoding="utf-8"?>
<!-- Generator: Adobe Illustrator 22.1.0, SVG Export Plug-In . SVG Version: 6.00 Build 0)  -->
<svg version="1.1" id="work" xmlns="http://www.w3.org/2000/svg" xmlns:xlink="http://www.w3.org/1999/xlink" x="0px" y="0px"
	 viewBox="0 0 60 60" style="enable-background:new 0 0 60 60;" xml:space="preserve">
<path d="M58.6,25.3c-0.8-1.3-3-3.1-5.7-3.1c-2.4,0-13.2-0.1-13.2-0.1l1.8-10.5C42,6.8,41,5,40.5,4.2c-1.2-1.8-3.3-2.8-5.4-2.8
	c-1,0-2,0.2-2.9,0.7c-1.4,0.7-2.3,1.9-2.8,3.4c0,0-0.8,6.1-1.5,8.4C27.3,15.7,25,21.8,20,25v-3H0v37h20v-5.4l7.9,4.3
	c0.8,0.4,1.6,0.6,2.5,0.6c0.8,0,13.8-0.6,20.6-0.6c2-0.1,2.9-0.5,3.2-1.9s4.6-21.1,5.3-23.8C60.3,29.6,59.6,27,58.6,25.3z"/>
</svg>
